<svg width="182" height="179" viewBox="0 0 182 179" fill="none" xmlns="http://www.w3.org/2000/svg">
<path d="M105.716 0H17.6582V163H145.342V39.6253L105.716 0ZM65.5395 113.505L51.9561 124.372C51.4563 124.771 50.8559 124.967 50.2582 124.967C49.56 124.967 48.8618 124.698 48.3348 124.171L42.9015 118.737C41.8393 117.675 41.8393 115.958 42.9015 114.896C43.9637 113.834 45.6806 113.834 46.7428 114.896L50.4565 118.61L62.1409 109.262C63.3091 108.324 65.0233 108.515 65.9578 109.685C66.9005 110.859 66.7103 112.568 65.5395 113.505ZM65.5395 83.6217L51.9561 94.4884C51.4563 94.8877 50.8559 95.0833 50.2582 95.0833C49.56 95.0833 48.8618 94.8144 48.3348 94.2874L42.9015 88.854C41.8393 87.7918 41.8393 86.0749 42.9015 85.0126C43.9637 83.9504 45.6806 83.9504 46.7428 85.0126L50.4565 88.7263L62.1409 79.3783C63.3091 78.441 65.0233 78.6312 65.9578 79.8021C66.9005 80.9757 66.7103 82.6845 65.5395 83.6217ZM65.5395 53.7384L51.9561 64.605C51.4563 65.0044 50.8559 65.2 50.2582 65.2C49.56 65.2 48.8618 64.9311 48.3348 64.404L42.9015 58.9707C41.8393 57.9085 41.8393 56.1915 42.9015 55.1293C43.9637 54.0671 45.6806 54.0671 46.7428 55.1293L50.4565 58.843L62.1409 49.4949C63.3091 48.5577 65.0233 48.7479 65.9578 49.9188C66.9005 51.0924 66.7103 52.8011 65.5395 53.7384ZM115.458 122.25H71.9915C70.4919 122.25 69.2749 121.036 69.2749 119.533C69.2749 118.031 70.4919 116.817 71.9915 116.817H115.458C116.958 116.817 118.175 118.031 118.175 119.533C118.175 121.036 116.958 122.25 115.458 122.25ZM115.458 92.3667H71.9915C70.4919 92.3667 69.2749 91.1523 69.2749 89.65C69.2749 88.1477 70.4919 86.9333 71.9915 86.9333H115.458C116.958 86.9333 118.175 88.1477 118.175 89.65C118.175 91.1523 116.958 92.3667 115.458 92.3667ZM115.458 62.4833H71.9915C70.4919 62.4833 69.2749 61.269 69.2749 59.7667C69.2749 58.2644 70.4919 57.05 71.9915 57.05H115.458C116.958 57.05 118.175 58.2644 118.175 59.7667C118.175 61.269 116.958 62.4833 115.458 62.4833ZM101.875 43.4667V5.43333L139.908 43.4667H101.875Z" fill="url(#paint0_linear_643_3836)"/>
<path d="M165.64 165.943C175.779 159.965 182 149.078 182 137.315V104.758L143.5 90L105 104.758V137.315C105 149.078 111.221 159.965 121.36 165.944L143.5 179L165.64 165.943ZM140.813 151.397L122.974 134.988L130.948 126.335L140.026 134.686L155.664 117.321L164.415 125.187L140.813 151.397Z" fill="url(#paint1_linear_643_3836)"/>
<defs>
<linearGradient id="paint0_linear_643_3836" x1="50.7974" y1="6.15094" x2="134.367" y2="135.781" gradientUnits="userSpaceOnUse">
<stop stop-color="#2BB04C"/>
<stop offset="1" stop-color="#63D0FF" stop-opacity="0"/>
</linearGradient>
<linearGradient id="paint1_linear_643_3836" x1="133.82" y1="89.8196" x2="176.488" y2="174.455" gradientUnits="userSpaceOnUse">
<stop stop-color="#F47920"/>
<stop offset="1" stop-color="white"/>
</linearGradient>
</defs>
</svg>
