<svg width="13" height="16" viewBox="0 0 13 16" fill="none" xmlns="http://www.w3.org/2000/svg">
<path d="M2.75514 7.2H4.13271V8.8H2.75514V7.2ZM12.3981 3.2V14.4C12.3981 15.28 11.7782 16 11.0206 16H1.37757C1.01222 16 0.661825 15.8314 0.403481 15.5314C0.145136 15.2313 0 14.8243 0 14.4L0.00688784 3.2C0.00688784 2.32 0.613019 1.6 1.37757 1.6H2.06635V0H3.44392V1.6H8.9542V0H10.3318V1.6H11.0206C11.7782 1.6 12.3981 2.32 12.3981 3.2ZM1.37757 4.8H11.0206V3.2H1.37757V4.8ZM11.0206 14.4V6.4H1.37757V14.4H11.0206ZM8.26542 8.8H9.64299V7.2H8.26542V8.8ZM5.51028 8.8H6.88785V7.2H5.51028V8.8Z" fill="#666666"/>
</svg>
