<svg width="18" height="21" viewBox="0 0 18 21" fill="none" xmlns="http://www.w3.org/2000/svg">
<path d="M9 19.6538L8.69071 20.3371C8.8873 20.4261 9.1127 20.4261 9.30929 20.3371L9 19.6538ZM11.25 9.65381C11.25 10.8964 10.2426 11.9038 9 11.9038V13.4038C11.0711 13.4038 12.75 11.7249 12.75 9.65381H11.25ZM9 11.9038C7.75736 11.9038 6.75 10.8964 6.75 9.65381H5.25C5.25 11.7249 6.92893 13.4038 9 13.4038V11.9038ZM6.75 9.65381C6.75 8.41117 7.75736 7.40381 9 7.40381V5.90381C6.92893 5.90381 5.25 7.58274 5.25 9.65381H6.75ZM9 7.40381C10.2426 7.40381 11.25 8.41117 11.25 9.65381H12.75C12.75 7.58274 11.0711 5.90381 9 5.90381V7.40381ZM16.25 9.65381C16.25 13.6358 12.9996 17.0201 8.69071 18.9706L9.30929 20.3371C13.837 18.2875 17.75 14.5083 17.75 9.65381H16.25ZM9.30929 18.9706C5.00044 17.0201 1.75 13.6358 1.75 9.65381H0.25C0.25 14.5083 4.163 18.2875 8.69071 20.3371L9.30929 18.9706ZM1.75 9.65381C1.75 5.64974 4.99594 2.40381 9 2.40381V0.903809C4.16751 0.903809 0.25 4.82132 0.25 9.65381H1.75ZM9 2.40381C13.0041 2.40381 16.25 5.64974 16.25 9.65381H17.75C17.75 4.82132 13.8325 0.903809 9 0.903809V2.40381Z" fill="#2BB04C"/>
</svg>
