<svg width="36" height="35" viewBox="0 0 36 35" fill="none" xmlns="http://www.w3.org/2000/svg">
<path d="M6.01172 24.0416C5.59751 24.0416 5.26172 24.3774 5.26172 24.7916C5.26172 25.2058 5.59751 25.5416 6.01172 25.5416V24.0416ZM29.3451 25.5416C29.7593 25.5416 30.0951 25.2058 30.0951 24.7916C30.0951 24.3774 29.7593 24.0416 29.3451 24.0416V25.5416ZM6.01172 16.7499C5.59751 16.7499 5.26172 17.0857 5.26172 17.4999C5.26172 17.9141 5.59751 18.2499 6.01172 18.2499V16.7499ZM29.3451 18.2499C29.7593 18.2499 30.0951 17.9141 30.0951 17.4999C30.0951 17.0857 29.7593 16.7499 29.3451 16.7499V18.2499ZM6.01172 9.45825C5.59751 9.45825 5.26172 9.79404 5.26172 10.2083C5.26172 10.6225 5.59751 10.9583 6.01172 10.9583V9.45825ZM29.3451 10.9583C29.7593 10.9583 30.0951 10.6225 30.0951 10.2083C30.0951 9.79404 29.7593 9.45825 29.3451 9.45825V10.9583ZM6.01172 25.5416H29.3451V24.0416H6.01172V25.5416ZM6.01172 18.2499H29.3451V16.7499H6.01172V18.2499ZM6.01172 10.9583H29.3451V9.45825H6.01172V10.9583Z" fill="white"/>
</svg>
