<svg width="7" height="12" viewBox="0 0 7 12" fill="none" xmlns="http://www.w3.org/2000/svg">
<path d="M6.53033 10.4697C6.82322 10.7626 6.82322 11.2374 6.53033 11.5303C6.23744 11.8232 5.76256 11.8232 5.46967 11.5303L6.53033 10.4697ZM1 6L0.469669 6.53033C0.329017 6.38968 0.25 6.19891 0.25 6C0.25 5.80109 0.329017 5.61032 0.469669 5.46967L1 6ZM5.46967 0.46967C5.76256 0.176777 6.23744 0.176777 6.53033 0.46967C6.82322 0.762563 6.82322 1.23744 6.53033 1.53033L5.46967 0.46967ZM5.46967 11.5303L0.469669 6.53033L1.53033 5.46967L6.53033 10.4697L5.46967 11.5303ZM0.469669 5.46967L5.46967 0.46967L6.53033 1.53033L1.53033 6.53033L0.469669 5.46967Z" fill="#F47920"/>
</svg>
