<svg width="42" height="41" viewBox="0 0 42 41" fill="none" xmlns="http://www.w3.org/2000/svg">
<path d="M21 29.5L20.6907 30.1833C20.8873 30.2722 21.1127 30.2722 21.3093 30.1833L21 29.5ZM23.25 19.5C23.25 20.7426 22.2426 21.75 21 21.75V23.25C23.0711 23.25 24.75 21.5711 24.75 19.5H23.25ZM21 21.75C19.7574 21.75 18.75 20.7426 18.75 19.5H17.25C17.25 21.5711 18.9289 23.25 21 23.25V21.75ZM18.75 19.5C18.75 18.2574 19.7574 17.25 21 17.25V15.75C18.9289 15.75 17.25 17.4289 17.25 19.5H18.75ZM21 17.25C22.2426 17.25 23.25 18.2574 23.25 19.5H24.75C24.75 17.4289 23.0711 15.75 21 15.75V17.25ZM28.25 19.5C28.25 23.482 24.9996 26.8663 20.6907 28.8167L21.3093 30.1833C25.837 28.1337 29.75 24.3545 29.75 19.5H28.25ZM21.3093 28.8167C17.0004 26.8663 13.75 23.482 13.75 19.5H12.25C12.25 24.3545 16.163 28.1337 20.6907 30.1833L21.3093 28.8167ZM13.75 19.5C13.75 15.4959 16.9959 12.25 21 12.25V10.75C16.1675 10.75 12.25 14.6675 12.25 19.5H13.75ZM21 12.25C25.0041 12.25 28.25 15.4959 28.25 19.5H29.75C29.75 14.6675 25.8325 10.75 21 10.75V12.25Z" fill="#666666"/>
</svg>
