<svg width="186" height="186" viewBox="0 0 186 186" fill="none" xmlns="http://www.w3.org/2000/svg">
<g clip-path="url(#clip0_643_3803)">
<path d="M87.8273 104.451C78.8072 112.021 72.5857 122.397 70.1573 133.92C66.8239 133.73 63.596 132.682 60.786 130.879C57.976 129.076 55.6789 126.578 54.117 123.627C52.5551 120.676 51.7812 117.372 51.8702 114.034C51.9592 110.696 52.9081 107.438 54.6251 104.575C56.3421 101.711 58.769 99.3392 61.6712 97.6883C64.5733 96.0374 67.8524 95.1635 71.1912 95.151C74.53 95.1385 77.8156 95.988 80.73 97.6171C83.6443 99.2463 86.089 101.6 87.8273 104.451Z" fill="url(#paint0_linear_643_3803)"/>
<path d="M124.504 66.7274L119.099 61.3218C117.45 59.6783 115.316 58.6098 113.013 58.2748C110.709 57.9397 108.359 58.356 106.311 59.4618L96.8949 64.4605C94.1972 63.1041 91.3989 61.9576 88.5249 61.0312L85.5024 50.9174C84.842 48.6696 83.4715 46.6961 81.596 45.2921C79.7205 43.8881 77.4408 43.1291 75.098 43.1287H67.4255C65.098 43.1295 62.8331 43.8826 60.9686 45.2758C59.1041 46.6689 57.7398 48.6275 57.0793 50.8593L53.9987 61.0312C51.1247 61.9576 48.3264 63.1041 45.6287 64.4605L36.2705 59.4618C34.223 58.3536 31.8723 57.936 29.5683 58.2711C27.2643 58.6062 25.1301 59.6762 23.483 61.3218L18.0193 66.7274C16.4016 68.4032 15.3516 70.5451 15.0178 72.8503C14.684 75.1555 15.0834 77.5072 16.1593 79.573L21.2162 88.9312C19.8164 91.6163 18.6497 94.4166 17.7287 97.3012L7.61492 100.324C5.36712 100.984 3.39358 102.355 1.98958 104.23C0.585574 106.106 -0.173414 108.385 -0.173828 110.728V118.401C-0.170211 120.727 0.584003 122.991 1.97675 124.855C3.36949 126.719 5.32643 128.084 7.5568 128.747L17.7287 131.827C18.6497 134.712 19.8164 137.512 21.2162 140.197L16.2174 149.556C15.0857 151.607 14.655 153.972 14.9907 156.291C15.3265 158.609 16.4103 160.755 18.0774 162.401L23.483 167.807C25.1314 169.45 27.2655 170.519 29.5689 170.854C31.8723 171.189 34.2223 170.773 36.2705 169.667L45.6287 164.668C48.3264 166.024 51.1247 167.171 53.9987 168.097L57.0793 178.211C57.7268 180.455 59.0859 182.428 60.952 183.833C62.818 185.238 65.0899 185.998 67.4255 186H75.098C76.8024 185.989 78.4813 185.585 80.0037 184.819C81.5262 184.053 82.851 182.945 83.8749 181.582C74.4766 171.899 69.1507 158.98 68.9949 145.487C63.7128 145.094 58.6191 143.356 54.1992 140.437C49.7792 137.518 46.1802 133.516 43.745 128.812C41.3098 124.109 40.1194 118.86 40.2873 113.566C40.4552 108.272 41.9758 103.109 44.7042 98.5687C47.4326 94.0288 51.278 90.263 55.874 87.6301C60.47 84.9973 65.6636 83.585 70.96 83.5278C76.2565 83.4707 81.4793 84.7706 86.1311 87.3037C90.7828 89.8367 94.7086 93.5187 97.5343 97.9987C105.016 94.0941 113.333 92.0598 121.772 92.0699H122.819C122.412 91.0237 121.889 89.9774 121.366 88.9312L126.364 79.573C127.47 77.5148 127.886 75.156 127.552 72.8436C127.217 70.5312 126.149 68.3874 124.504 66.7274Z" fill="url(#paint1_linear_643_3803)"/>
<path d="M121.772 103.695C113.632 103.695 105.676 106.109 98.9086 110.631C92.1411 115.152 86.8664 121.58 83.7517 129.099C80.637 136.619 79.822 144.893 81.4099 152.876C82.9978 160.859 86.9172 168.191 92.6724 173.947C98.4277 179.702 105.76 183.621 113.743 185.209C121.726 186.797 130 185.982 137.52 182.868C145.04 179.753 151.467 174.478 155.989 167.711C160.511 160.943 162.924 152.987 162.924 144.848C162.914 133.936 158.575 123.475 150.86 115.76C143.144 108.044 132.683 103.705 121.772 103.695ZM132.99 156.124C131.899 157.204 130.427 157.81 128.892 157.81C127.357 157.81 125.885 157.204 124.794 156.124L117.645 148.974C117.103 148.433 116.676 147.789 116.386 147.081C116.097 146.372 115.952 145.613 115.959 144.848V129.735C115.959 128.193 116.572 126.715 117.662 125.625C118.752 124.535 120.23 123.923 121.772 123.923C123.313 123.923 124.792 124.535 125.882 125.625C126.972 126.715 127.584 128.193 127.584 129.735V142.464L132.99 147.87C134.079 148.968 134.69 150.451 134.69 151.997C134.69 153.543 134.079 155.026 132.99 156.124Z" fill="url(#paint2_linear_643_3803)"/>
<path d="M117.987 30.7312L147.039 2.08316C148.127 1.0084 149.596 0.405762 151.125 0.405762C152.655 0.405762 154.123 1.0084 155.212 2.08316L184.264 30.7312C185.086 31.5402 185.649 32.5757 185.881 33.7057C186.113 34.8358 186.004 36.0094 185.567 37.077C185.13 38.1447 184.385 39.0581 183.427 39.7011C182.469 40.344 181.342 40.6874 180.188 40.6875H168.563V58.125C168.559 61.207 167.333 64.1618 165.154 66.3412C162.975 68.5205 160.02 69.7464 156.938 69.75H145.313C142.231 69.7464 139.276 68.5205 137.097 66.3412C134.917 64.1618 133.691 61.207 133.688 58.125V40.6875H122.063C120.909 40.6874 119.782 40.344 118.824 39.7011C117.866 39.0581 117.121 38.1447 116.684 37.077C116.247 36.0094 116.138 34.8358 116.37 33.7057C116.602 32.5757 117.165 31.5402 117.987 30.7312Z" fill="url(#paint3_linear_643_3803)"/>
</g>
<defs>
<linearGradient id="paint0_linear_643_3803" x1="61.1974" y1="96.6139" x2="79.5261" y2="130.282" gradientUnits="userSpaceOnUse">
<stop stop-color="#2BB04C"/>
<stop offset="1" stop-color="#63D0FF" stop-opacity="0"/>
</linearGradient>
<linearGradient id="paint1_linear_643_3803" x1="33.0055" y1="48.52" x2="101.853" y2="170.508" gradientUnits="userSpaceOnUse">
<stop stop-color="#2BB04C"/>
<stop offset="1" stop-color="#63D0FF" stop-opacity="0"/>
</linearGradient>
<linearGradient id="paint2_linear_643_3803" x1="111.424" y1="103.528" x2="147.396" y2="186" gradientUnits="userSpaceOnUse">
<stop stop-color="#F47920"/>
<stop offset="1" stop-color="white"/>
</linearGradient>
<linearGradient id="paint3_linear_643_3803" x1="139.236" y1="0.668429" x2="170.629" y2="75.1347" gradientUnits="userSpaceOnUse">
<stop stop-color="#F47920"/>
<stop offset="1" stop-color="white"/>
</linearGradient>
<clipPath id="clip0_643_3803">
<rect width="186" height="186" fill="white"/>
</clipPath>
</defs>
</svg>
