<svg width="171" height="193" viewBox="0 0 171 193" fill="none" xmlns="http://www.w3.org/2000/svg">
<path d="M0 53.4375H26.7188V184H97.9688V53.4375H124.688L62.3438 0L0 53.4375Z" fill="url(#paint0_linear_643_3866)"/>
<mask id="mask0_643_3866" style="mask-type:alpha" maskUnits="userSpaceOnUse" x="52" y="75" width="119" height="118">
<path d="M80.9004 144.384L89.6324 149.34V144.384L80.9004 139.428V144.384Z" fill="black"/>
<path d="M80.9004 161.14L89.6324 166.096V161.14L80.9004 156.184V161.14Z" fill="black"/>
<path d="M63.9082 134.472L72.4042 139.428V134.472L63.9082 129.516V134.472Z" fill="black"/>
<path d="M98.127 171.052L106.859 176.008V171.052L98.127 166.096V171.052Z" fill="black"/>
<path d="M141.788 109.22L158.544 113.704L107.096 83.9681L90.3398 79.4841C95.0598 82.0801 136.596 106.152 141.788 109.22Z" fill="black"/>
<path d="M63.9082 151.228L72.4042 156.184V151.228L63.9082 146.272V151.228Z" fill="black"/>
<path d="M119.367 143.676L163.971 117.952L141.551 111.816C135.179 121.02 126.211 134 119.367 143.676Z" fill="black"/>
<path d="M98.127 154.296L106.859 159.252V154.296L98.127 149.34V154.296Z" fill="black"/>
<path d="M139.427 110.872L81.8428 77.3601C79.4828 80.6641 59.6588 109.22 57.2988 112.524L114.883 145.8C117.715 141.788 130.459 123.616 139.427 110.872Z" fill="black"/>
<path d="M56.8278 115.12L56.5918 157.6L113.704 190.64C113.704 186.392 113.94 152.644 113.94 148.16C42.4318 106.624 59.4238 116.536 56.8278 115.12ZM74.9998 158.308C74.9998 158.78 74.7638 159.252 74.2918 159.488C73.8198 159.724 73.3478 159.724 73.1118 159.488L62.0198 153.116C61.5478 152.88 61.3118 152.408 61.3118 151.936V144.148C61.3118 143.676 61.5478 143.204 62.0198 142.968C62.4918 142.732 62.9638 142.732 63.1998 142.968L74.2918 149.34C74.7638 149.576 74.9998 150.048 74.9998 150.52V158.308ZM74.9998 141.552C74.9998 142.024 74.7638 142.496 74.2918 142.732C73.8198 142.968 73.3478 142.968 73.1118 142.732L62.0198 136.36C61.5478 136.124 61.3118 135.652 61.3118 135.18V127.392C61.3118 126.92 61.5478 126.448 62.0198 126.212C62.4918 125.976 62.9638 125.976 63.1998 126.212L74.2918 132.584C74.7638 132.82 74.9998 133.292 74.9998 133.764V141.552ZM91.9918 168.22C91.9918 168.692 91.7558 169.164 91.2838 169.4C90.8118 169.636 90.3398 169.636 90.1038 169.4L79.0118 163.028C78.5398 162.792 78.3038 162.32 78.3038 161.848V154.06C78.3038 153.588 78.5398 153.116 79.0118 152.88C79.4838 152.644 79.9558 152.644 80.1918 152.88L91.2838 159.252C91.7558 159.488 91.9918 159.96 91.9918 160.432V168.22ZM91.9918 151.464C91.9918 151.936 91.7558 152.408 91.2838 152.644C90.8118 152.88 90.3398 152.88 90.1038 152.644L79.0118 146.272C78.5398 146.036 78.3038 145.564 78.3038 145.092V137.304C78.3038 136.832 78.5398 136.36 79.0118 136.124C79.4838 135.888 79.9558 135.888 80.1918 136.124L91.2838 142.496C91.7558 142.732 91.9918 143.204 91.9918 143.676V151.464ZM109.22 178.132C109.22 178.604 108.984 179.076 108.512 179.312C108.04 179.548 107.568 179.548 107.332 179.312L96.2398 172.94C95.7678 172.704 95.5318 172.232 95.5318 171.76V163.972C95.5318 163.5 95.7678 163.028 96.2398 162.792C96.7118 162.556 97.1838 162.556 97.4198 162.792L108.512 169.164C108.984 169.4 109.22 169.872 109.22 170.344V178.132ZM109.22 161.376C109.22 161.848 108.984 162.32 108.512 162.556C108.04 162.792 107.568 162.792 107.332 162.556L96.2398 156.184C95.7678 155.948 95.5318 155.476 95.5318 155.004V147.216C95.5318 146.744 95.7678 146.272 96.2398 146.036C96.7118 145.8 97.1838 145.8 97.4198 146.036L108.512 152.408C108.984 152.644 109.22 153.116 109.22 153.588V161.376Z" fill="black"/>
<path d="M134.707 160.432L150.283 169.636V151.464L134.707 160.432Z" fill="black"/>
<path d="M116.535 148.16C116.535 152.408 116.299 186.864 116.299 190.64L131.167 182.144V162.556L129.751 163.264C129.043 163.5 128.335 163.5 128.099 162.792C127.863 162.084 127.863 161.376 128.571 161.14C133.527 158.308 127.627 161.612 153.823 146.508C154.531 146.272 155.239 146.272 155.475 146.98C155.711 147.688 155.711 148.396 155.003 148.632L152.407 150.048V169.636L165.623 162.084L165.859 119.604L116.535 148.16Z" fill="black"/>
</mask>
<g mask="url(#mask0_643_3866)">
<rect x="52.3438" y="71" width="133" height="125" fill="url(#paint1_linear_643_3866)"/>
</g>
<defs>
<linearGradient id="paint0_linear_643_3866" x1="32.3616" y1="8.76061" x2="162.795" y2="147.481" gradientUnits="userSpaceOnUse">
<stop stop-color="#2BB04C"/>
<stop offset="1" stop-color="#63D0FF" stop-opacity="0"/>
</linearGradient>
<linearGradient id="paint1_linear_643_3866" x1="102.123" y1="70.7466" x2="154.445" y2="198.38" gradientUnits="userSpaceOnUse">
<stop stop-color="#F47920"/>
<stop offset="1" stop-color="white"/>
</linearGradient>
</defs>
</svg>
