<svg width="209" height="204" viewBox="0 0 209 204" fill="none" xmlns="http://www.w3.org/2000/svg">
<path d="M45.5 0C70.629 0 91 20.371 91 45.5C91 70.629 70.629 91 45.5 91C20.371 91 0 70.629 0 45.5C0 20.371 20.371 0 45.5 0ZM30.2972 29.2972C26.4312 29.2972 23.2972 32.4312 23.2972 36.2972C23.2972 40.1632 26.4312 43.2972 30.2972 43.2972C34.1632 43.2972 37.2972 40.1632 37.2972 36.2972C37.2972 32.4312 34.1632 29.2972 30.2972 29.2972ZM60.7028 29.2972C56.8368 29.2972 53.7028 32.4312 53.7028 36.2972C53.7028 40.1632 56.8368 43.2972 60.7028 43.2972C64.5688 43.2972 67.7028 40.1632 67.7028 36.2972C67.7028 32.4312 64.5688 29.2972 60.7028 29.2972ZM45.5 74C57.384 74 68.1342 66.4992 72.2504 55.335L66.6208 53.2594C63.37 62.0762 54.8822 68 45.5 68C36.1178 68 27.63 62.0762 24.3792 53.2594L18.7496 55.335C22.8658 66.4992 33.616 74 45.5 74Z" fill="url(#paint0_linear_554_3277)"/>
<mask id="mask0_554_3277" style="mask-type:alpha" maskUnits="userSpaceOnUse" x="29" y="13" width="169" height="191">
<path d="M178.815 30.9264C165.083 44.1285 147.459 46.9014 135.092 46.9014H131.67C107.378 46.9014 84.5445 56.3607 67.3683 73.5373C50.1918 90.7135 40.7324 113.547 40.7324 137.839V163.125C49.6583 149.355 63.3793 138.638 79.9139 126.955V97.2776H91.1087V119.133C101.919 111.61 114.039 103.11 126.794 92.9078L133.786 101.647C122.461 110.711 111.699 118.402 101.889 125.264H119.095V136.459H85.8584C69.6596 147.911 57.2412 157.688 49.5729 170.043H106.52C130.813 170.043 153.646 160.584 170.822 143.407C187.999 126.231 197.458 103.397 197.458 79.1047V13L178.815 30.9264Z" fill="#2BB04C"/>
<path d="M40.7338 170.043V163.125C33.6064 174.121 29.5391 187.063 29.5391 204H40.7338C40.7338 190.033 43.8159 179.312 49.5739 170.043H40.7338Z" fill="#2BB04C"/>
</mask>
<g mask="url(#mask0_554_3277)">
<rect x="15" y="11" width="194" height="193" fill="url(#paint1_linear_554_3277)"/>
</g>
<defs>
<linearGradient id="paint0_linear_554_3277" x1="29.9886" y1="0.344696" x2="71.3523" y2="97.8939" gradientUnits="userSpaceOnUse">
<stop stop-color="#F47920"/>
<stop offset="1" stop-color="white"/>
</linearGradient>
<linearGradient id="paint1_linear_554_3277" x1="65.3511" y1="18.283" x2="152.512" y2="191.773" gradientUnits="userSpaceOnUse">
<stop stop-color="#2BB04C"/>
<stop offset="1" stop-color="#63D0FF" stop-opacity="0"/>
</linearGradient>
</defs>
</svg>
