<svg width="95" height="70" viewBox="0 0 95 70" fill="none" xmlns="http://www.w3.org/2000/svg">
<path d="M73.6315 21.7332C73.2318 25.3986 71.3699 28.83 68.2796 30.9551C66.447 32.2419 64.6045 33.5092 62.7621 34.7862C62.1284 35.2249 61.953 35.2249 61.3096 34.7862C59.4964 33.5385 57.6734 32.2907 55.87 31.0234C52.2436 28.4498 50.3914 24.9404 50.3524 20.4854C50.3329 17.6681 50.3524 14.8509 50.3524 12.0433C50.3524 11.127 50.6936 10.854 51.6197 10.9418C55.3533 11.3122 58.5118 10.1034 61.0854 7.37386C61.3096 7.13015 61.524 6.88644 61.8262 6.73047H62.2454C62.5086 6.89619 62.7523 7.09116 62.9473 7.33487C65.5209 10.1034 68.6891 11.3122 72.4519 10.932C72.9881 10.8735 73.3975 10.9808 73.7095 11.4292C73.7095 14.3634 73.6802 21.2458 73.6217 21.7429L73.6315 21.7332Z" stroke="#636466" stroke-miterlimit="10"/>
<path d="M53.6864 18.1744C53.6864 17.1996 53.6864 16.2247 53.6864 15.2499C53.6864 14.6162 53.9496 14.314 54.5735 14.2458C57.0496 13.9631 59.4184 13.0273 61.4168 11.5455C61.8458 11.2336 62.2357 11.2433 62.6549 11.5455C64.6631 13.0273 67.0222 13.9631 69.4982 14.2361C69.9857 14.2945 70.3561 14.5383 70.3561 15.0452C70.3463 17.2873 70.5121 19.5294 70.2684 21.7618C69.9857 24.3061 68.7671 26.3728 66.7297 27.9033C65.3844 28.9171 63.9709 29.8334 62.5964 30.7985C62.2065 31.0715 61.836 31.0617 61.4461 30.7985C60.1106 29.8627 58.736 28.9658 57.4298 27.991C54.9927 26.168 53.7644 23.7017 53.6864 20.6602C53.6669 19.8316 53.6864 18.9933 53.6864 18.1646V18.1744Z" stroke="#F47920" stroke-miterlimit="10"/>
<path d="M67.7438 18.2344C67.7438 18.2344 63.669 23.2645 61.9923 25.4189C61.7778 25.6919 61.5536 25.9063 61.1832 25.9161C60.9687 25.9161 60.7738 25.8283 60.608 25.6919C59.6234 24.951 57.6445 23.479 57.6445 23.479" stroke="#55AE56" stroke-miterlimit="10"/>
<path d="M34.5308 59.2751C41.3576 59.2751 46.8918 53.7409 46.8918 46.9141C46.8918 40.0874 41.3576 34.5532 34.5308 34.5532C27.7041 34.5532 22.1699 40.0874 22.1699 46.9141C22.1699 53.7409 27.7041 59.2751 34.5308 59.2751Z" stroke="#636466" stroke-miterlimit="10"/>
<path d="M34.5297 62.1117C42.9232 62.1117 49.7274 55.3074 49.7274 46.914C49.7274 38.5206 42.9232 31.7163 34.5297 31.7163C26.1362 31.7163 19.332 38.5206 19.332 46.914C19.332 55.3074 26.1362 62.1117 34.5297 62.1117Z" stroke="#636466" stroke-miterlimit="10"/>
<path d="M34.5306 50.6075C36.571 50.6075 38.2252 48.9533 38.2252 46.9129C38.2252 44.8724 36.571 43.2183 34.5306 43.2183C32.49 43.2183 30.8359 44.8724 30.8359 46.9129C30.8359 48.9533 32.49 50.6075 34.5306 50.6075Z" stroke="#636466" stroke-miterlimit="10"/>
<path d="M56.9226 63.32C59.7437 63.32 62.0307 61.033 62.0307 58.2119C62.0307 55.3907 59.7437 53.1038 56.9226 53.1038C54.1014 53.1038 51.8145 55.3907 51.8145 58.2119C51.8145 61.033 54.1014 63.32 56.9226 63.32Z" stroke="#636466" stroke-miterlimit="10"/>
<path d="M34.5291 43.2193V11.6054C34.5291 11.4981 34.4414 11.4104 34.3341 11.4104H27.8027" stroke="#636466" stroke-miterlimit="10"/>
<path d="M38.2246 46.9138H46.8909" stroke="#636466" stroke-miterlimit="10"/>
<path d="M47.9824 39.8746H59.7001C59.8074 39.8746 59.8951 39.7869 59.8951 39.6796V38.2661" stroke="#636466" stroke-miterlimit="10"/>
<path d="M50.1676 31.5603H34.5312" stroke="#636466" stroke-miterlimit="10"/>
<path d="M47.2334 20.5437H42.5444C42.4372 20.5437 42.3495 20.6314 42.3495 20.7387V24.8037H34.5508" stroke="#636466" stroke-miterlimit="10"/>
<path d="M34.5508 14.2263H38.0309C38.1382 14.2263 38.2259 14.3141 38.2259 14.4213V31.7149" stroke="#636466" stroke-miterlimit="10"/>
<path d="M49.7266 49.5547H65.3239" stroke="#636466" stroke-miterlimit="10"/>
<path d="M65.3263 39.6711V54.7908L62.0899 58.2125H57.7031" stroke="#636466" stroke-miterlimit="10"/>
<path d="M27.3656 9.23608H19.177C18.9347 9.23608 18.7383 9.43251 18.7383 9.67476V13.4279C18.7383 13.6701 18.9347 13.8666 19.177 13.8666H27.3656C27.6078 13.8666 27.8043 13.6701 27.8043 13.4279V9.67476C27.8043 9.43251 27.6078 9.23608 27.3656 9.23608Z" stroke="#636466" stroke-miterlimit="10"/>
<path d="M65.5192 49.6824H75.9987V53.9229C75.9987 54.0301 75.9109 54.1179 75.8037 54.1179H65.3242V49.8773C65.3242 49.7701 65.412 49.6824 65.5192 49.6824Z" stroke="#636466" stroke-miterlimit="10"/>
</svg>
