<svg width="95" height="70" viewBox="0 0 95 70" fill="none" xmlns="http://www.w3.org/2000/svg">
<path d="M34.2129 38.5439H36.0423V40.3734H34.2129V38.5439Z" fill="#636466" stroke="#D8DDDF" stroke-width="0.5"/>
<path d="M34.2129 43.2029H36.0423V45.0323H34.2129V43.2029Z" fill="#636466" stroke="#D8DDDF" stroke-width="0.5"/>
<path d="M34.2129 47.8618H36.0423V49.6912H34.2129V47.8618Z" fill="#636466" stroke="#D8DDDF" stroke-width="0.5"/>
<path d="M34.2129 33.8853H36.0423V35.7147H34.2129V33.8853Z" fill="#636466" stroke="#D8DDDF" stroke-width="0.5"/>
<path d="M34.2129 29.2266H36.0423V31.056H34.2129V29.2266Z" fill="#636466" stroke="#D8DDDF" stroke-width="0.5"/>
<path d="M34.2129 24.5676H36.0423V26.397H34.2129V24.5676Z" fill="#636466" stroke="#D8DDDF" stroke-width="0.5"/>
<path d="M34.2129 19.9089H36.0423V21.7383H34.2129V19.9089Z" fill="#636466" stroke="#D8DDDF" stroke-width="0.5"/>
<path d="M17.9121 19.9089H19.7415V21.7383H17.9121V19.9089Z" fill="#636466" stroke="#D8DDDF" stroke-width="0.5"/>
<path d="M76.1465 19.9089H77.9759V21.7383H76.1465V19.9089Z" fill="#636466" stroke="#D8DDDF" stroke-width="0.5"/>
<path d="M76.1465 47.8618H77.9759V49.6912H76.1465V47.8618Z" fill="#636466" stroke="#D8DDDF" stroke-width="0.5"/>
<path d="M17.9121 47.8618H19.7415V49.6912H17.9121V47.8618Z" fill="#636466" stroke="#D8DDDF" stroke-width="0.5"/>
<path d="M80.9029 42.8702V42.5669L80.6026 42.5238C77.1736 42.0316 74.4795 39.3377 73.9874 35.9086C73.3751 31.6427 76.3369 27.6884 80.6026 27.0762L80.9029 27.0331V26.7297V17.3294V16.9794H80.5529H15.3294H14.9794V17.3294V26.7297V27.0331L15.2797 27.0762C18.7088 27.5683 21.4028 30.2624 21.8949 33.6914C22.5072 37.9572 19.5454 41.9115 15.2797 42.5238L14.9794 42.5669V42.8702V52.2706V52.6206H15.3294H80.5529H80.9029V52.2706V42.8702ZM82.5323 27.8118C82.5323 28.2617 82.1675 28.6265 81.7176 28.6265C78.3081 28.6265 75.5441 31.3905 75.5441 34.8C75.5441 38.2095 78.3081 40.9735 81.7176 40.9735C82.1675 40.9735 82.5323 41.3383 82.5323 41.7882V53.4353C82.5323 53.8852 82.1675 54.25 81.7176 54.25H14.1647C13.7148 54.25 13.35 53.8852 13.35 53.4353V41.7882C13.35 41.3383 13.7148 40.9735 14.1647 40.9735C17.5742 40.9735 20.3382 38.2095 20.3382 34.8C20.3382 31.3905 17.5742 28.6265 14.1647 28.6265C13.7148 28.6265 13.35 28.2617 13.35 27.8118V16.1647C13.35 15.7148 13.7148 15.35 14.1647 15.35H81.7176C82.1675 15.35 82.5323 15.7148 82.5323 16.1647V27.8118Z" fill="#636466" stroke="#D8DDDF" stroke-width="0.7"/>
<path d="M43.5293 27.8117C43.5293 25.3767 45.5032 23.4028 47.9381 23.4028C50.373 23.4028 52.3469 25.3767 52.3469 27.8117C52.3469 30.2466 50.373 32.2205 47.9381 32.2205C45.5032 32.2205 43.5293 30.2466 43.5293 27.8117ZM45.3587 27.8117C45.3587 29.2363 46.5135 30.3911 47.9381 30.3911C49.3628 30.3911 50.5175 29.2363 50.5175 27.8117C50.5175 26.387 49.3628 25.2322 47.9381 25.2322C46.5135 25.2322 45.3587 26.387 45.3587 27.8117Z" fill="#F47920" stroke="#D8DDDF" stroke-width="0.5"/>
<path d="M57.5078 41.788C57.5078 39.3531 59.4817 37.3792 61.9166 37.3792C64.3515 37.3792 66.3255 39.3531 66.3255 41.788C66.3255 44.2229 64.3515 46.1968 61.9166 46.1968C59.4817 46.1968 57.5078 44.2229 57.5078 41.788ZM59.3372 41.788C59.3372 43.2126 60.492 44.3674 61.9166 44.3674C63.3413 44.3674 64.496 43.2126 64.496 41.788C64.496 40.3633 63.3413 39.2086 61.9166 39.2086C60.492 39.2086 59.3372 40.3633 59.3372 41.788Z" fill="#2BB04C" stroke="#D8DDDF" stroke-width="0.5"/>
<path d="M45.1407 43.2913L63.422 25.01L64.7155 26.3035L46.4342 44.5848L45.1407 43.2913Z" fill="#636466" stroke="#D8DDDF" stroke-width="0.5"/>
</svg>
