<svg width="95" height="70" viewBox="0 0 95 70" fill="none" xmlns="http://www.w3.org/2000/svg">
<path d="M70.1935 37.6774C74.4978 37.6774 78 34.1753 78 29.871V12.3065C78 8.00217 74.4978 4.5 70.1935 4.5H25.3065C21.0022 4.5 17.5 8.00217 17.5 12.3065V29.871C17.5 33.8445 20.486 37.1271 24.3306 37.6101V41.5806C24.3306 43.7333 26.0812 45.4839 28.2339 45.4839H38.9677C40.0441 45.4839 40.9194 46.3592 40.9194 47.4355C40.9194 48.5118 40.0441 49.3871 38.9677 49.3871H21.4032C19.2506 49.3871 17.5 51.1377 17.5 53.2903C17.5 55.443 19.2506 57.1935 21.4032 57.1935H44.8226C44.8226 58.2699 45.6979 59.1452 46.7742 59.1452H50.6774V63.0484H54.285L57.2124 65H70.1935V63.0484H78V57.1935H70.1935V55.2419H78V49.3871H70.1935V47.4355H57.2124L54.285 49.3871H50.6774V53.2903H46.7742C45.6979 53.2903 44.8226 54.1656 44.8226 55.2419H21.4032C20.3269 55.2419 19.4516 54.3666 19.4516 53.2903C19.4516 52.214 20.3269 51.3387 21.4032 51.3387H38.9677C41.1204 51.3387 42.871 49.5881 42.871 47.4355C42.871 45.2829 41.1204 43.5323 38.9677 43.5323H28.2339C27.1576 43.5323 26.2823 42.657 26.2823 41.5806V37.6774H70.1935ZM76.0484 59.1452V61.0968H70.1935V59.1452H76.0484ZM76.0484 51.3387V53.2903H70.1935V51.3387H76.0484ZM52.629 51.3387H54.8763L57.8037 49.3871H64.3387V51.3387H66.2903V49.3871H68.2419V63.0484H66.2903V53.2903H64.3387V63.0484H57.8037L54.8763 61.0968H52.629V51.3387ZM46.7742 55.2419H50.6774V57.1935H46.7742V55.2419ZM19.4516 29.871V12.3065C19.4516 9.07751 22.0775 6.45161 25.3065 6.45161H70.1935C73.4225 6.45161 76.0484 9.07751 76.0484 12.3065V29.871C76.0484 33.0999 73.4225 35.7258 70.1935 35.7258H25.3065C22.0775 35.7258 19.4516 33.0999 19.4516 29.871Z" fill="#636466" stroke="#DADADA"/>
<path d="M69.2169 33.774C71.9072 33.774 74.0959 31.5853 74.0959 28.895V13.2821C74.0959 10.5918 71.9072 8.40308 69.2169 8.40308H26.2814C23.5911 8.40308 21.4023 10.5918 21.4023 13.2821V28.895C21.4023 31.5853 23.5911 33.774 26.2814 33.774H69.2169ZM23.354 28.895V13.2821C23.354 11.6681 24.6674 10.3547 26.2814 10.3547H69.2169C70.8308 10.3547 72.1443 11.6681 72.1443 13.2821V28.895C72.1443 30.509 70.8308 31.8224 69.2169 31.8224H26.2814C24.6674 31.8224 23.354 30.509 23.354 28.895Z" fill="#636466" stroke="#DADADA"/>
<path d="M59.4587 29.871H67.2651C68.8791 29.871 70.1925 28.5576 70.1925 26.9436V19.1371C70.1925 17.5232 68.8791 16.2097 67.2651 16.2097H59.4587C57.8447 16.2097 56.5312 17.5232 56.5312 19.1371V26.9436C56.5312 28.5576 57.8447 29.871 59.4587 29.871ZM58.4829 19.1371C58.4829 18.5985 58.921 18.1613 59.4587 18.1613H67.2651C67.8028 18.1613 68.2409 18.5985 68.2409 19.1371V26.9436C68.2409 27.4822 67.8028 27.9194 67.2651 27.9194H59.4587C58.921 27.9194 58.4829 27.4822 58.4829 26.9436V19.1371Z" fill="#2BB04C" stroke="#DADADA"/>
<path d="M62.3867 24.0161H64.3383V25.9677H62.3867V24.0161Z" fill="#F47920" stroke="#DADADA"/>
<path d="M60.4336 20.113H62.3852V22.0646H60.4336V20.113Z" fill="#F47920" stroke="#DADADA"/>
<path d="M64.3398 20.113H66.2915V22.0646H64.3398V20.113Z" fill="#F47920" stroke="#DADADA"/>
<path d="M58.4824 12.3062H68.2405V14.2578H58.4824V12.3062Z" fill="#2BB04C" stroke="#DADADA"/>
<path d="M43.8473 29.871H51.6538C53.2678 29.871 54.5812 28.5576 54.5812 26.9436V19.1371C54.5812 17.5232 53.2678 16.2097 51.6538 16.2097H43.8473C42.2334 16.2097 40.9199 17.5232 40.9199 19.1371V26.9436C40.9199 28.5576 42.2334 29.871 43.8473 29.871ZM42.8715 19.1371C42.8715 18.5985 43.3097 18.1613 43.8473 18.1613H51.6538C52.1915 18.1613 52.6296 18.5985 52.6296 19.1371V26.9436C52.6296 27.4822 52.1915 27.9194 51.6538 27.9194H43.8473C43.3097 27.9194 42.8715 27.4822 42.8715 26.9436V19.1371Z" fill="#2BB04C" stroke="#DADADA"/>
<path d="M46.7734 24.0161H48.7251V25.9677H46.7734V24.0161Z" fill="#F47920" stroke="#DADADA"/>
<path d="M44.8223 20.113H46.7739V22.0646H44.8223V20.113Z" fill="#F47920" stroke="#DADADA"/>
<path d="M48.7266 20.113H50.6782V22.0646H48.7266V20.113Z" fill="#F47920" stroke="#DADADA"/>
<path d="M42.8711 12.3062H52.6292V14.2578H42.8711V12.3062Z" fill="#2BB04C" stroke="#DADADA"/>
<path d="M36.0405 29.871C37.6545 29.871 38.9679 28.5576 38.9679 26.9436V19.1371C38.9679 17.5232 37.6545 16.2097 36.0405 16.2097H28.2341C26.6201 16.2097 25.3066 17.5232 25.3066 19.1371V26.9436C25.3066 28.5576 26.6201 29.871 28.2341 29.871H36.0405ZM27.2583 26.9436V19.1371C27.2583 18.5985 27.6964 18.1613 28.2341 18.1613H36.0405C36.5782 18.1613 37.0163 18.5985 37.0163 19.1371V26.9436C37.0163 27.4822 36.5782 27.9194 36.0405 27.9194H28.2341C27.6964 27.9194 27.2583 27.4822 27.2583 26.9436Z" fill="#2BB04C" stroke="#DADADA"/>
<path d="M31.1602 24.0161H33.1118V25.9677H31.1602V24.0161Z" fill="#F47920" stroke="#DADADA"/>
<path d="M29.209 20.113H31.1606V22.0646H29.209V20.113Z" fill="#F47920" stroke="#DADADA"/>
<path d="M33.1133 20.113H35.0649V22.0646H33.1133V20.113Z" fill="#F47920" stroke="#DADADA"/>
<path d="M27.2578 12.3062H37.0159V14.2578H27.2578V12.3062Z" fill="#2BB04C" stroke="#DADADA"/>
</svg>
