<svg width="95" height="70" viewBox="0 0 95 70" fill="none" xmlns="http://www.w3.org/2000/svg">
<mask id="path-1-inside-1_655_3611" fill="white">
<path d="M87.8981 64.3146H87.8133V47.1068C87.8133 46.7801 87.6837 46.4663 87.452 46.2352L84.8177 43.601C84.3363 43.1196 83.5565 43.1196 83.0751 43.601L80.4409 46.2352C80.2098 46.4663 80.0801 46.7801 80.0801 47.1068V48.5087H77.2758V47.1068C77.2758 46.7801 77.1462 46.4663 76.9151 46.2352L74.2809 43.601C73.7995 43.1196 73.019 43.1196 72.5376 43.601L69.9034 46.2352C69.6723 46.4663 69.5427 46.7801 69.5427 47.1068V48.5087H66.7384V47.1068C66.7384 46.7801 66.6087 46.4663 66.3776 46.2352L64.1041 43.9617V40.3827C71.4721 39.7556 77.2758 33.559 77.2758 26.0319C77.2758 18.0894 70.8142 11.6272 62.8718 11.6272C54.9293 11.6272 48.4677 18.0894 48.4677 26.0319C48.4677 31.7618 51.8612 36.9455 57.1136 39.2382C57.7369 39.5104 58.4634 39.226 58.7362 38.6021C59.0084 37.9783 58.7234 37.2517 58.0995 36.9795C53.7457 35.0789 50.9324 30.7817 50.9324 26.0319C50.9324 19.4483 56.2882 14.0919 62.8718 14.0919C69.4554 14.0919 74.8111 19.4483 74.8111 26.0319C74.8111 32.1989 70.1107 37.2889 64.1041 37.9076V28.6661C64.1041 27.9857 63.5521 27.4337 62.8718 27.4337C62.1914 27.4337 61.6394 27.9857 61.6394 28.6661V32.2766L59.7915 30.4293C59.3101 29.9479 58.5302 29.9479 58.0488 30.4293C57.5674 30.91 57.5674 31.6905 58.0488 32.1719L61.6394 35.7625V43.9617L59.3659 46.2352C59.1348 46.4663 59.0052 46.7795 59.0052 47.1062V48.5087H56.2015V47.1062C56.2015 46.7795 56.0712 46.4663 55.8401 46.2352L53.2059 43.601C52.7245 43.1196 51.944 43.1196 51.4633 43.601L48.8291 46.2352C48.5973 46.4663 48.4677 46.7795 48.4677 47.1062V48.5087H45.664V47.1062C45.664 46.7795 45.5344 46.4663 45.3027 46.2352L42.6684 43.601C42.187 43.1196 41.4072 43.1196 40.9258 43.601L38.2909 46.2352C38.0592 46.4663 37.9296 46.7795 37.9296 47.1062V48.5087H35.1259V47.1062C35.1259 46.7795 34.9962 46.4663 34.7645 46.2352L32.4917 43.9617V40.3782C35.4577 40.1041 38.2158 38.8396 40.3841 36.7305C42.9387 34.2445 44.3463 30.9126 44.3463 27.349C44.3463 24.2372 43.2294 21.2211 41.2018 18.8558C40.4039 17.9251 40.0509 16.8397 40.2345 15.8789C40.4508 14.7428 40.4482 13.5784 40.2268 12.4173C39.4893 8.54877 36.2331 5.53971 32.3088 5.10004C29.7086 4.80927 27.1064 5.63407 25.1712 7.36518C23.2347 9.09757 22.1237 11.5803 22.1237 14.1773C22.1237 14.7434 22.1769 15.3121 22.2816 15.8667C22.4651 16.8391 22.1185 17.9232 21.3303 18.8398C19.2186 21.2943 18.0985 24.4291 18.1755 27.6667C18.3322 34.2253 23.5698 39.7511 30.0269 40.3737V43.9617L27.7534 46.2352C27.5224 46.4663 27.3921 46.7801 27.3921 47.1068V48.5087H24.5884V47.1068C24.5884 46.7801 24.4588 46.4663 24.227 46.2352L21.5928 43.601C21.1114 43.1196 20.3316 43.1196 19.8502 43.601L17.216 46.2352C16.9849 46.4663 16.8546 46.7801 16.8546 47.1068V48.5087H14.0509V47.1068C14.0509 46.7801 13.9206 46.4663 13.6896 46.2352L11.0553 43.601C10.5739 43.1196 9.79408 43.1196 9.31269 43.601L6.67848 46.2352C6.4474 46.4663 6.31711 46.7801 6.31711 47.1068V64.3152H6.23238C5.552 64.3152 5 64.8666 5 65.5476C5 66.228 5.552 66.78 6.23238 66.78H87.8981C88.5784 66.78 89.1304 66.228 89.1304 65.5476C89.1304 64.8666 88.5784 64.3146 87.8981 64.3146ZM82.5443 47.6171L83.9461 46.2153L85.3486 47.6171V64.3146H82.5443V47.6171ZM77.2758 61.5109H80.0795V64.3146H77.2758V61.5109ZM80.0795 50.9734V59.0462H77.2758V50.9734H80.0795ZM72.0068 47.6171L73.4092 46.2153L74.8111 47.6171V64.3146H72.0068V47.6171ZM66.7384 61.5109H69.542V64.3146H66.7384V61.5109ZM61.4693 47.6171L62.8711 46.2153L64.2736 47.6171V52.3753C64.2736 53.0563 64.825 53.6076 65.506 53.6076C66.1864 53.6076 66.7384 53.0563 66.7384 52.3753V50.9734H69.542V59.0462H66.7384V57.6443C66.7384 56.9633 66.1864 56.412 65.506 56.412C64.825 56.412 64.2736 56.9633 64.2736 57.6443V64.3146H61.4693V47.6171ZM56.2009 61.5109H59.0045V64.3146H56.2009V61.5109ZM59.0045 50.9734V59.0462H56.2009V50.9734H59.0045ZM50.9318 47.6171L52.3336 46.2153L53.7361 47.6171V64.3146H50.9318V47.6171ZM45.6634 61.5109H48.467V64.3146H45.6634V61.5109ZM48.467 50.9734V59.0462H45.6634V50.9734H48.467ZM40.3943 47.6171L41.7962 46.2153L43.1986 47.6171V64.3146H40.3943V47.6171ZM35.1259 61.5109H37.9296V64.3146H35.1259V61.5109ZM37.9296 50.9734V59.0462H35.1259V50.9734H37.9296ZM20.6397 27.6076C20.5774 24.9811 21.4856 22.4381 23.1988 20.447C24.4787 18.9585 25.0274 17.1222 24.7033 15.4084C24.6269 15.0046 24.5884 14.59 24.5884 14.1766C24.5884 12.2806 25.3997 10.4673 26.8144 9.20219C28.0532 8.09433 29.6052 7.50574 31.2516 7.50574C31.5103 7.50574 31.7715 7.52051 32.034 7.54939C34.8955 7.87032 37.2684 10.0616 37.8057 12.8781C37.9687 13.7331 37.9706 14.5874 37.8127 15.4174C37.4886 17.1189 38.0419 18.9566 39.3308 20.4598C40.9752 22.3784 41.8809 24.8252 41.8809 27.3483C41.8809 30.2412 40.739 32.9454 38.6651 34.9634C36.9623 36.6194 34.8107 37.6342 32.491 37.8993V31.8106L34.7645 29.5371C35.2459 29.0557 35.2459 28.2752 34.7645 27.7944C34.2831 27.313 33.5026 27.313 33.0219 27.7944L32.491 28.3246V26.0312C32.491 25.3509 31.939 24.7989 31.2587 24.7989C30.5783 24.7989 30.0263 25.3509 30.0263 26.0312V32.2766L28.1784 30.4286C27.6976 29.9472 26.9171 29.9472 26.4357 30.4286C25.9543 30.91 25.9543 31.6905 26.4357 32.1713L30.0263 35.7619V37.8961C24.8933 37.2838 20.7648 32.853 20.6397 27.6076ZM29.8568 47.6171L31.2587 46.2153L32.6611 47.6171V64.3146H29.8568V47.6171ZM24.5884 61.5109H27.3921V64.3146H24.5884V61.5109ZM27.3921 50.9734V59.0462H24.5884V50.9734H27.3921ZM16.8546 50.9734V52.3753C16.8546 53.0563 17.4066 53.6076 18.087 53.6076C18.7673 53.6076 19.3193 53.0563 19.3193 52.3753V47.6171L20.7212 46.2153L22.1237 47.6171V64.3146H19.3193V57.6443C19.3193 56.9633 18.7673 56.412 18.087 56.412C17.4066 56.412 16.8546 56.9633 16.8546 57.6443V59.0462H14.0509V50.9734H16.8546ZM14.0509 61.5109H16.8546V64.3146H14.0509V61.5109ZM8.78186 47.6171L10.1837 46.2153L11.5855 47.6171V64.3146H8.78186V47.6171Z"/>
</mask>
<path d="M87.8981 64.3146H87.8133V47.1068C87.8133 46.7801 87.6837 46.4663 87.452 46.2352L84.8177 43.601C84.3363 43.1196 83.5565 43.1196 83.0751 43.601L80.4409 46.2352C80.2098 46.4663 80.0801 46.7801 80.0801 47.1068V48.5087H77.2758V47.1068C77.2758 46.7801 77.1462 46.4663 76.9151 46.2352L74.2809 43.601C73.7995 43.1196 73.019 43.1196 72.5376 43.601L69.9034 46.2352C69.6723 46.4663 69.5427 46.7801 69.5427 47.1068V48.5087H66.7384V47.1068C66.7384 46.7801 66.6087 46.4663 66.3776 46.2352L64.1041 43.9617V40.3827C71.4721 39.7556 77.2758 33.559 77.2758 26.0319C77.2758 18.0894 70.8142 11.6272 62.8718 11.6272C54.9293 11.6272 48.4677 18.0894 48.4677 26.0319C48.4677 31.7618 51.8612 36.9455 57.1136 39.2382C57.7369 39.5104 58.4634 39.226 58.7362 38.6021C59.0084 37.9783 58.7234 37.2517 58.0995 36.9795C53.7457 35.0789 50.9324 30.7817 50.9324 26.0319C50.9324 19.4483 56.2882 14.0919 62.8718 14.0919C69.4554 14.0919 74.8111 19.4483 74.8111 26.0319C74.8111 32.1989 70.1107 37.2889 64.1041 37.9076V28.6661C64.1041 27.9857 63.5521 27.4337 62.8718 27.4337C62.1914 27.4337 61.6394 27.9857 61.6394 28.6661V32.2766L59.7915 30.4293C59.3101 29.9479 58.5302 29.9479 58.0488 30.4293C57.5674 30.91 57.5674 31.6905 58.0488 32.1719L61.6394 35.7625V43.9617L59.3659 46.2352C59.1348 46.4663 59.0052 46.7795 59.0052 47.1062V48.5087H56.2015V47.1062C56.2015 46.7795 56.0712 46.4663 55.8401 46.2352L53.2059 43.601C52.7245 43.1196 51.944 43.1196 51.4633 43.601L48.8291 46.2352C48.5973 46.4663 48.4677 46.7795 48.4677 47.1062V48.5087H45.664V47.1062C45.664 46.7795 45.5344 46.4663 45.3027 46.2352L42.6684 43.601C42.187 43.1196 41.4072 43.1196 40.9258 43.601L38.2909 46.2352C38.0592 46.4663 37.9296 46.7795 37.9296 47.1062V48.5087H35.1259V47.1062C35.1259 46.7795 34.9962 46.4663 34.7645 46.2352L32.4917 43.9617V40.3782C35.4577 40.1041 38.2158 38.8396 40.3841 36.7305C42.9387 34.2445 44.3463 30.9126 44.3463 27.349C44.3463 24.2372 43.2294 21.2211 41.2018 18.8558C40.4039 17.9251 40.0509 16.8397 40.2345 15.8789C40.4508 14.7428 40.4482 13.5784 40.2268 12.4173C39.4893 8.54877 36.2331 5.53971 32.3088 5.10004C29.7086 4.80927 27.1064 5.63407 25.1712 7.36518C23.2347 9.09757 22.1237 11.5803 22.1237 14.1773C22.1237 14.7434 22.1769 15.3121 22.2816 15.8667C22.4651 16.8391 22.1185 17.9232 21.3303 18.8398C19.2186 21.2943 18.0985 24.4291 18.1755 27.6667C18.3322 34.2253 23.5698 39.7511 30.0269 40.3737V43.9617L27.7534 46.2352C27.5224 46.4663 27.3921 46.7801 27.3921 47.1068V48.5087H24.5884V47.1068C24.5884 46.7801 24.4588 46.4663 24.227 46.2352L21.5928 43.601C21.1114 43.1196 20.3316 43.1196 19.8502 43.601L17.216 46.2352C16.9849 46.4663 16.8546 46.7801 16.8546 47.1068V48.5087H14.0509V47.1068C14.0509 46.7801 13.9206 46.4663 13.6896 46.2352L11.0553 43.601C10.5739 43.1196 9.79408 43.1196 9.31269 43.601L6.67848 46.2352C6.4474 46.4663 6.31711 46.7801 6.31711 47.1068V64.3152H6.23238C5.552 64.3152 5 64.8666 5 65.5476C5 66.228 5.552 66.78 6.23238 66.78H87.8981C88.5784 66.78 89.1304 66.228 89.1304 65.5476C89.1304 64.8666 88.5784 64.3146 87.8981 64.3146ZM82.5443 47.6171L83.9461 46.2153L85.3486 47.6171V64.3146H82.5443V47.6171ZM77.2758 61.5109H80.0795V64.3146H77.2758V61.5109ZM80.0795 50.9734V59.0462H77.2758V50.9734H80.0795ZM72.0068 47.6171L73.4092 46.2153L74.8111 47.6171V64.3146H72.0068V47.6171ZM66.7384 61.5109H69.542V64.3146H66.7384V61.5109ZM61.4693 47.6171L62.8711 46.2153L64.2736 47.6171V52.3753C64.2736 53.0563 64.825 53.6076 65.506 53.6076C66.1864 53.6076 66.7384 53.0563 66.7384 52.3753V50.9734H69.542V59.0462H66.7384V57.6443C66.7384 56.9633 66.1864 56.412 65.506 56.412C64.825 56.412 64.2736 56.9633 64.2736 57.6443V64.3146H61.4693V47.6171ZM56.2009 61.5109H59.0045V64.3146H56.2009V61.5109ZM59.0045 50.9734V59.0462H56.2009V50.9734H59.0045ZM50.9318 47.6171L52.3336 46.2153L53.7361 47.6171V64.3146H50.9318V47.6171ZM45.6634 61.5109H48.467V64.3146H45.6634V61.5109ZM48.467 50.9734V59.0462H45.6634V50.9734H48.467ZM40.3943 47.6171L41.7962 46.2153L43.1986 47.6171V64.3146H40.3943V47.6171ZM35.1259 61.5109H37.9296V64.3146H35.1259V61.5109ZM37.9296 50.9734V59.0462H35.1259V50.9734H37.9296ZM20.6397 27.6076C20.5774 24.9811 21.4856 22.4381 23.1988 20.447C24.4787 18.9585 25.0274 17.1222 24.7033 15.4084C24.6269 15.0046 24.5884 14.59 24.5884 14.1766C24.5884 12.2806 25.3997 10.4673 26.8144 9.20219C28.0532 8.09433 29.6052 7.50574 31.2516 7.50574C31.5103 7.50574 31.7715 7.52051 32.034 7.54939C34.8955 7.87032 37.2684 10.0616 37.8057 12.8781C37.9687 13.7331 37.9706 14.5874 37.8127 15.4174C37.4886 17.1189 38.0419 18.9566 39.3308 20.4598C40.9752 22.3784 41.8809 24.8252 41.8809 27.3483C41.8809 30.2412 40.739 32.9454 38.6651 34.9634C36.9623 36.6194 34.8107 37.6342 32.491 37.8993V31.8106L34.7645 29.5371C35.2459 29.0557 35.2459 28.2752 34.7645 27.7944C34.2831 27.313 33.5026 27.313 33.0219 27.7944L32.491 28.3246V26.0312C32.491 25.3509 31.939 24.7989 31.2587 24.7989C30.5783 24.7989 30.0263 25.3509 30.0263 26.0312V32.2766L28.1784 30.4286C27.6976 29.9472 26.9171 29.9472 26.4357 30.4286C25.9543 30.91 25.9543 31.6905 26.4357 32.1713L30.0263 35.7619V37.8961C24.8933 37.2838 20.7648 32.853 20.6397 27.6076ZM29.8568 47.6171L31.2587 46.2153L32.6611 47.6171V64.3146H29.8568V47.6171ZM24.5884 61.5109H27.3921V64.3146H24.5884V61.5109ZM27.3921 50.9734V59.0462H24.5884V50.9734H27.3921ZM16.8546 50.9734V52.3753C16.8546 53.0563 17.4066 53.6076 18.087 53.6076C18.7673 53.6076 19.3193 53.0563 19.3193 52.3753V47.6171L20.7212 46.2153L22.1237 47.6171V64.3146H19.3193V57.6443C19.3193 56.9633 18.7673 56.412 18.087 56.412C17.4066 56.412 16.8546 56.9633 16.8546 57.6443V59.0462H14.0509V50.9734H16.8546ZM14.0509 61.5109H16.8546V64.3146H14.0509V61.5109ZM8.78186 47.6171L10.1837 46.2153L11.5855 47.6171V64.3146H8.78186V47.6171Z" fill="#636466" stroke="#ECECEC" stroke-width="1.5" mask="url(#path-1-inside-1_655_3611)"/>
<mask id="mask0_655_3611" style="mask-type:alpha" maskUnits="userSpaceOnUse" x="10" y="3" width="81" height="41">
<rect x="10.6094" y="3.21729" width="80.3913" height="40.1957" fill="#D9D9D9"/>
</mask>
<g mask="url(#mask0_655_3611)">
<mask id="path-3-inside-2_655_3611" fill="white">
<path d="M87.8981 64.3146H87.8133V47.1068C87.8133 46.7801 87.6837 46.4663 87.452 46.2352L84.8177 43.601C84.3363 43.1196 83.5565 43.1196 83.0751 43.601L80.4409 46.2352C80.2098 46.4663 80.0801 46.7801 80.0801 47.1068V48.5087H77.2758V47.1068C77.2758 46.7801 77.1462 46.4663 76.9151 46.2352L74.2809 43.601C73.7995 43.1196 73.019 43.1196 72.5376 43.601L69.9034 46.2352C69.6723 46.4663 69.5427 46.7801 69.5427 47.1068V48.5087H66.7384V47.1068C66.7384 46.7801 66.6087 46.4663 66.3776 46.2352L64.1041 43.9617V40.3827C71.4721 39.7556 77.2758 33.559 77.2758 26.0319C77.2758 18.0894 70.8142 11.6272 62.8718 11.6272C54.9293 11.6272 48.4677 18.0894 48.4677 26.0319C48.4677 31.7618 51.8612 36.9455 57.1136 39.2382C57.7369 39.5104 58.4634 39.226 58.7362 38.6021C59.0084 37.9783 58.7234 37.2517 58.0995 36.9795C53.7457 35.0789 50.9324 30.7817 50.9324 26.0319C50.9324 19.4483 56.2882 14.0919 62.8718 14.0919C69.4554 14.0919 74.8111 19.4483 74.8111 26.0319C74.8111 32.1989 70.1107 37.2889 64.1041 37.9076V28.6661C64.1041 27.9857 63.5521 27.4337 62.8718 27.4337C62.1914 27.4337 61.6394 27.9857 61.6394 28.6661V32.2766L59.7915 30.4293C59.3101 29.9479 58.5302 29.9479 58.0488 30.4293C57.5674 30.91 57.5674 31.6905 58.0488 32.1719L61.6394 35.7625V43.9617L59.3659 46.2352C59.1348 46.4663 59.0052 46.7795 59.0052 47.1062V48.5087H56.2015V47.1062C56.2015 46.7795 56.0712 46.4663 55.8401 46.2352L53.2059 43.601C52.7245 43.1196 51.944 43.1196 51.4633 43.601L48.8291 46.2352C48.5973 46.4663 48.4677 46.7795 48.4677 47.1062V48.5087H45.664V47.1062C45.664 46.7795 45.5344 46.4663 45.3027 46.2352L42.6684 43.601C42.187 43.1196 41.4072 43.1196 40.9258 43.601L38.2909 46.2352C38.0592 46.4663 37.9296 46.7795 37.9296 47.1062V48.5087H35.1259V47.1062C35.1259 46.7795 34.9962 46.4663 34.7645 46.2352L32.4917 43.9617V40.3782C35.4577 40.1041 38.2158 38.8396 40.3841 36.7305C42.9387 34.2445 44.3463 30.9126 44.3463 27.349C44.3463 24.2372 43.2294 21.2211 41.2018 18.8558C40.4039 17.9251 40.0509 16.8397 40.2345 15.8789C40.4508 14.7428 40.4482 13.5784 40.2268 12.4173C39.4893 8.54877 36.2331 5.53971 32.3088 5.10004C29.7086 4.80927 27.1064 5.63407 25.1712 7.36518C23.2347 9.09757 22.1237 11.5803 22.1237 14.1773C22.1237 14.7434 22.1769 15.3121 22.2816 15.8667C22.4651 16.8391 22.1185 17.9232 21.3303 18.8398C19.2186 21.2943 18.0985 24.4291 18.1755 27.6667C18.3322 34.2253 23.5698 39.7511 30.0269 40.3737V43.9617L27.7534 46.2352C27.5224 46.4663 27.3921 46.7801 27.3921 47.1068V48.5087H24.5884V47.1068C24.5884 46.7801 24.4588 46.4663 24.227 46.2352L21.5928 43.601C21.1114 43.1196 20.3316 43.1196 19.8502 43.601L17.216 46.2352C16.9849 46.4663 16.8546 46.7801 16.8546 47.1068V48.5087H14.0509V47.1068C14.0509 46.7801 13.9206 46.4663 13.6896 46.2352L11.0553 43.601C10.5739 43.1196 9.79408 43.1196 9.31269 43.601L6.67848 46.2352C6.4474 46.4663 6.31711 46.7801 6.31711 47.1068V64.3152H6.23238C5.552 64.3152 5 64.8666 5 65.5476C5 66.228 5.552 66.78 6.23238 66.78H87.8981C88.5784 66.78 89.1304 66.228 89.1304 65.5476C89.1304 64.8666 88.5784 64.3146 87.8981 64.3146V64.3146ZM82.5443 47.6171L83.9461 46.2153L85.3486 47.6171V64.3146H82.5443V47.6171ZM77.2758 61.5109H80.0795V64.3146H77.2758V61.5109ZM80.0795 50.9734V59.0462H77.2758V50.9734H80.0795ZM72.0068 47.6171L73.4092 46.2153L74.8111 47.6171V64.3146H72.0068V47.6171ZM66.7384 61.5109H69.542V64.3146H66.7384V61.5109ZM61.4693 47.6171L62.8711 46.2153L64.2736 47.6171V52.3753C64.2736 53.0563 64.825 53.6076 65.506 53.6076C66.1864 53.6076 66.7384 53.0563 66.7384 52.3753V50.9734H69.542V59.0462H66.7384V57.6443C66.7384 56.9633 66.1864 56.412 65.506 56.412C64.825 56.412 64.2736 56.9633 64.2736 57.6443V64.3146H61.4693V47.6171ZM56.2009 61.5109H59.0045V64.3146H56.2009V61.5109ZM59.0045 50.9734V59.0462H56.2009V50.9734H59.0045ZM50.9318 47.6171L52.3336 46.2153L53.7361 47.6171V64.3146H50.9318V47.6171ZM45.6634 61.5109H48.467V64.3146H45.6634V61.5109ZM48.467 50.9734V59.0462H45.6634V50.9734H48.467ZM40.3943 47.6171L41.7962 46.2153L43.1986 47.6171V64.3146H40.3943V47.6171ZM35.1259 61.5109H37.9296V64.3146H35.1259V61.5109ZM37.9296 50.9734V59.0462H35.1259V50.9734H37.9296ZM20.6397 27.6076C20.5774 24.9811 21.4856 22.4381 23.1988 20.447C24.4787 18.9585 25.0274 17.1222 24.7033 15.4084C24.6269 15.0046 24.5884 14.59 24.5884 14.1766C24.5884 12.2806 25.3997 10.4673 26.8144 9.20219C28.0532 8.09433 29.6052 7.50574 31.2516 7.50574C31.5103 7.50574 31.7715 7.52051 32.034 7.54939C34.8955 7.87032 37.2684 10.0616 37.8057 12.8781C37.9687 13.7331 37.9706 14.5874 37.8127 15.4174C37.4886 17.1189 38.0419 18.9566 39.3308 20.4598C40.9752 22.3784 41.8809 24.8252 41.8809 27.3483C41.8809 30.2412 40.739 32.9454 38.6651 34.9634C36.9623 36.6194 34.8107 37.6342 32.491 37.8993V31.8106L34.7645 29.5371C35.2459 29.0557 35.2459 28.2752 34.7645 27.7944C34.2831 27.313 33.5026 27.313 33.0219 27.7944L32.491 28.3246V26.0312C32.491 25.3509 31.939 24.7989 31.2587 24.7989C30.5783 24.7989 30.0263 25.3509 30.0263 26.0312V32.2766L28.1784 30.4286C27.6976 29.9472 26.9171 29.9472 26.4357 30.4286C25.9543 30.91 25.9543 31.6905 26.4357 32.1713L30.0263 35.7619V37.8961C24.8933 37.2838 20.7648 32.853 20.6397 27.6076ZM29.8568 47.6171L31.2587 46.2153L32.6611 47.6171V64.3146H29.8568V47.6171ZM24.5884 61.5109H27.3921V64.3146H24.5884V61.5109ZM27.3921 50.9734V59.0462H24.5884V50.9734H27.3921ZM16.8546 50.9734V52.3753C16.8546 53.0563 17.4066 53.6076 18.087 53.6076C18.7673 53.6076 19.3193 53.0563 19.3193 52.3753V47.6171L20.7212 46.2153L22.1237 47.6171V64.3146H19.3193V57.6443C19.3193 56.9633 18.7673 56.412 18.087 56.412C17.4066 56.412 16.8546 56.9633 16.8546 57.6443V59.0462H14.0509V50.9734H16.8546ZM14.0509 61.5109H16.8546V64.3146H14.0509V61.5109ZM8.78186 47.6171L10.1837 46.2153L11.5855 47.6171V64.3146H8.78186V47.6171Z"/>
</mask>
<path d="M87.8981 64.3146H87.8133V47.1068C87.8133 46.7801 87.6837 46.4663 87.452 46.2352L84.8177 43.601C84.3363 43.1196 83.5565 43.1196 83.0751 43.601L80.4409 46.2352C80.2098 46.4663 80.0801 46.7801 80.0801 47.1068V48.5087H77.2758V47.1068C77.2758 46.7801 77.1462 46.4663 76.9151 46.2352L74.2809 43.601C73.7995 43.1196 73.019 43.1196 72.5376 43.601L69.9034 46.2352C69.6723 46.4663 69.5427 46.7801 69.5427 47.1068V48.5087H66.7384V47.1068C66.7384 46.7801 66.6087 46.4663 66.3776 46.2352L64.1041 43.9617V40.3827C71.4721 39.7556 77.2758 33.559 77.2758 26.0319C77.2758 18.0894 70.8142 11.6272 62.8718 11.6272C54.9293 11.6272 48.4677 18.0894 48.4677 26.0319C48.4677 31.7618 51.8612 36.9455 57.1136 39.2382C57.7369 39.5104 58.4634 39.226 58.7362 38.6021C59.0084 37.9783 58.7234 37.2517 58.0995 36.9795C53.7457 35.0789 50.9324 30.7817 50.9324 26.0319C50.9324 19.4483 56.2882 14.0919 62.8718 14.0919C69.4554 14.0919 74.8111 19.4483 74.8111 26.0319C74.8111 32.1989 70.1107 37.2889 64.1041 37.9076V28.6661C64.1041 27.9857 63.5521 27.4337 62.8718 27.4337C62.1914 27.4337 61.6394 27.9857 61.6394 28.6661V32.2766L59.7915 30.4293C59.3101 29.9479 58.5302 29.9479 58.0488 30.4293C57.5674 30.91 57.5674 31.6905 58.0488 32.1719L61.6394 35.7625V43.9617L59.3659 46.2352C59.1348 46.4663 59.0052 46.7795 59.0052 47.1062V48.5087H56.2015V47.1062C56.2015 46.7795 56.0712 46.4663 55.8401 46.2352L53.2059 43.601C52.7245 43.1196 51.944 43.1196 51.4633 43.601L48.8291 46.2352C48.5973 46.4663 48.4677 46.7795 48.4677 47.1062V48.5087H45.664V47.1062C45.664 46.7795 45.5344 46.4663 45.3027 46.2352L42.6684 43.601C42.187 43.1196 41.4072 43.1196 40.9258 43.601L38.2909 46.2352C38.0592 46.4663 37.9296 46.7795 37.9296 47.1062V48.5087H35.1259V47.1062C35.1259 46.7795 34.9962 46.4663 34.7645 46.2352L32.4917 43.9617V40.3782C35.4577 40.1041 38.2158 38.8396 40.3841 36.7305C42.9387 34.2445 44.3463 30.9126 44.3463 27.349C44.3463 24.2372 43.2294 21.2211 41.2018 18.8558C40.4039 17.9251 40.0509 16.8397 40.2345 15.8789C40.4508 14.7428 40.4482 13.5784 40.2268 12.4173C39.4893 8.54877 36.2331 5.53971 32.3088 5.10004C29.7086 4.80927 27.1064 5.63407 25.1712 7.36518C23.2347 9.09757 22.1237 11.5803 22.1237 14.1773C22.1237 14.7434 22.1769 15.3121 22.2816 15.8667C22.4651 16.8391 22.1185 17.9232 21.3303 18.8398C19.2186 21.2943 18.0985 24.4291 18.1755 27.6667C18.3322 34.2253 23.5698 39.7511 30.0269 40.3737V43.9617L27.7534 46.2352C27.5224 46.4663 27.3921 46.7801 27.3921 47.1068V48.5087H24.5884V47.1068C24.5884 46.7801 24.4588 46.4663 24.227 46.2352L21.5928 43.601C21.1114 43.1196 20.3316 43.1196 19.8502 43.601L17.216 46.2352C16.9849 46.4663 16.8546 46.7801 16.8546 47.1068V48.5087H14.0509V47.1068C14.0509 46.7801 13.9206 46.4663 13.6896 46.2352L11.0553 43.601C10.5739 43.1196 9.79408 43.1196 9.31269 43.601L6.67848 46.2352C6.4474 46.4663 6.31711 46.7801 6.31711 47.1068V64.3152H6.23238C5.552 64.3152 5 64.8666 5 65.5476C5 66.228 5.552 66.78 6.23238 66.78H87.8981C88.5784 66.78 89.1304 66.228 89.1304 65.5476C89.1304 64.8666 88.5784 64.3146 87.8981 64.3146V64.3146ZM82.5443 47.6171L83.9461 46.2153L85.3486 47.6171V64.3146H82.5443V47.6171ZM77.2758 61.5109H80.0795V64.3146H77.2758V61.5109ZM80.0795 50.9734V59.0462H77.2758V50.9734H80.0795ZM72.0068 47.6171L73.4092 46.2153L74.8111 47.6171V64.3146H72.0068V47.6171ZM66.7384 61.5109H69.542V64.3146H66.7384V61.5109ZM61.4693 47.6171L62.8711 46.2153L64.2736 47.6171V52.3753C64.2736 53.0563 64.825 53.6076 65.506 53.6076C66.1864 53.6076 66.7384 53.0563 66.7384 52.3753V50.9734H69.542V59.0462H66.7384V57.6443C66.7384 56.9633 66.1864 56.412 65.506 56.412C64.825 56.412 64.2736 56.9633 64.2736 57.6443V64.3146H61.4693V47.6171ZM56.2009 61.5109H59.0045V64.3146H56.2009V61.5109ZM59.0045 50.9734V59.0462H56.2009V50.9734H59.0045ZM50.9318 47.6171L52.3336 46.2153L53.7361 47.6171V64.3146H50.9318V47.6171ZM45.6634 61.5109H48.467V64.3146H45.6634V61.5109ZM48.467 50.9734V59.0462H45.6634V50.9734H48.467ZM40.3943 47.6171L41.7962 46.2153L43.1986 47.6171V64.3146H40.3943V47.6171ZM35.1259 61.5109H37.9296V64.3146H35.1259V61.5109ZM37.9296 50.9734V59.0462H35.1259V50.9734H37.9296ZM20.6397 27.6076C20.5774 24.9811 21.4856 22.4381 23.1988 20.447C24.4787 18.9585 25.0274 17.1222 24.7033 15.4084C24.6269 15.0046 24.5884 14.59 24.5884 14.1766C24.5884 12.2806 25.3997 10.4673 26.8144 9.20219C28.0532 8.09433 29.6052 7.50574 31.2516 7.50574C31.5103 7.50574 31.7715 7.52051 32.034 7.54939C34.8955 7.87032 37.2684 10.0616 37.8057 12.8781C37.9687 13.7331 37.9706 14.5874 37.8127 15.4174C37.4886 17.1189 38.0419 18.9566 39.3308 20.4598C40.9752 22.3784 41.8809 24.8252 41.8809 27.3483C41.8809 30.2412 40.739 32.9454 38.6651 34.9634C36.9623 36.6194 34.8107 37.6342 32.491 37.8993V31.8106L34.7645 29.5371C35.2459 29.0557 35.2459 28.2752 34.7645 27.7944C34.2831 27.313 33.5026 27.313 33.0219 27.7944L32.491 28.3246V26.0312C32.491 25.3509 31.939 24.7989 31.2587 24.7989C30.5783 24.7989 30.0263 25.3509 30.0263 26.0312V32.2766L28.1784 30.4286C27.6976 29.9472 26.9171 29.9472 26.4357 30.4286C25.9543 30.91 25.9543 31.6905 26.4357 32.1713L30.0263 35.7619V37.8961C24.8933 37.2838 20.7648 32.853 20.6397 27.6076ZM29.8568 47.6171L31.2587 46.2153L32.6611 47.6171V64.3146H29.8568V47.6171ZM24.5884 61.5109H27.3921V64.3146H24.5884V61.5109ZM27.3921 50.9734V59.0462H24.5884V50.9734H27.3921ZM16.8546 50.9734V52.3753C16.8546 53.0563 17.4066 53.6076 18.087 53.6076C18.7673 53.6076 19.3193 53.0563 19.3193 52.3753V47.6171L20.7212 46.2153L22.1237 47.6171V64.3146H19.3193V57.6443C19.3193 56.9633 18.7673 56.412 18.087 56.412C17.4066 56.412 16.8546 56.9633 16.8546 57.6443V59.0462H14.0509V50.9734H16.8546ZM14.0509 61.5109H16.8546V64.3146H14.0509V61.5109ZM8.78186 47.6171L10.1837 46.2153L11.5855 47.6171V64.3146H8.78186V47.6171Z" fill="#2BB04C" stroke="#ECECEC" stroke-width="1.5" mask="url(#path-3-inside-2_655_3611)"/>
</g>
</svg>
