<svg width="95" height="70" viewBox="0 0 95 70" fill="none" xmlns="http://www.w3.org/2000/svg">
<path d="M18.2163 57.2019C17.7906 55.8885 17.7663 54.1373 17.8636 52.2523C17.8149 49.7106 18.8973 48.3971 20.5391 48.0809H74.973C76.931 48.0566 77.9768 48.7499 78.1349 50.1606L78.0255 57.0196L18.2284 57.2019H18.2163Z" stroke="#636466"/>
<path d="M26.9261 31.8334C26.9383 33.4022 26.3424 34.0954 25.1627 34.0224H22.7305C21.3806 34.0102 20.4928 33.6575 20.2617 32.8184L20.4198 9.22552C20.3955 8.09452 20.6874 7.27971 21.563 7.07297L25.9289 7C26.8167 7.13377 27.0477 7.83913 27.1085 8.69042L26.9383 31.8334H26.9261Z" stroke="#2BB04C"/>
<path d="M20.4059 32.2347L17.1467 32.1253C16.1616 31.9429 15.6387 31.2132 15.6387 29.8268L15.6752 10.6485C15.7603 9.68772 16.5143 9.29855 17.7183 9.29855L20.4059 9.22559" stroke="#2BB04C"/>
<path d="M68.7957 32.4779C68.7835 34.0467 69.3794 34.7399 70.5591 34.6669H72.9913C74.3413 34.6548 75.229 34.3021 75.4601 33.4629L75.302 9.87005C75.3263 8.73905 75.0344 7.92424 74.1588 7.7175L69.7929 7.64453C68.9052 7.77831 68.6741 8.48366 68.6133 9.33495L68.7835 32.4779H68.7957Z" stroke="#2BB04C"/>
<path d="M75.3027 32.8793L78.562 32.7698C79.547 32.5874 80.07 31.8577 80.07 30.4713L80.0335 11.293C79.9484 10.3322 79.1944 9.94308 77.9904 9.94308L75.3027 9.87012" stroke="#2BB04C"/>
<path d="M26.377 18.2126H68.9415" stroke="#2BB04C"/>
<path d="M26.377 23.0771H68.9415" stroke="#2BB04C"/>
<path d="M30.0273 48.6159V23.0771" stroke="#636466"/>
<path d="M34.8906 48.6159V23.0771" stroke="#636466"/>
<path d="M60.4297 23.0771V48.6159" stroke="#636466"/>
<path d="M65.2949 23.0771V48.6159" stroke="#636466"/>
<path d="M30.0255 18.2128V14.5644C29.9282 13.6645 30.439 13.3604 31.2416 13.3483H33.6739C34.7319 13.2996 34.9508 13.8347 34.89 14.5644L34.9265 18.2371" stroke="#636466"/>
<path d="M21.3917 57.7735L21.3674 62.4069C21.3552 63.4042 21.9754 63.842 23.0578 63.8906L26.7183 64.0001C27.7642 63.8906 28.1898 63.2947 28.2385 62.4069L28.2871 57.2019" stroke="#636466"/>
<path d="M60.0646 17.9086V14.2602C59.9673 13.3603 60.4781 13.0562 61.2807 13.0441H63.713C64.771 12.9954 64.9899 13.5305 64.9291 14.2602L64.9656 17.9329" stroke="#636466"/>
<path d="M67.0791 57.0682L67.0549 62.0908C67.0427 63.1731 67.6629 63.6474 68.7453 63.7082L72.4057 63.8177C73.4516 63.6961 73.8772 63.0637 73.9259 62.0908L73.9746 56.4358" stroke="#636466"/>
<path d="M15.4323 18.2136H13V23.0781H15.4323V18.2136Z" stroke="#F47920"/>
<path d="M82.5358 18.2136H80.1035V23.0781H82.5358V18.2136Z" stroke="#F47920"/>
</svg>
