<svg width="95" height="70" viewBox="0 0 95 70" fill="none" xmlns="http://www.w3.org/2000/svg">
<mask id="path-1-inside-1_655_3614" fill="white">
<path d="M70.4148 16.7747L67.5725 12.7943C67.2146 12.293 66.6333 11.9936 66.0171 11.9936H51.0682V11.7085C52.1667 10.8422 52.8737 9.50071 52.8737 7.99648C52.8739 5.38982 50.7532 3.26929 48.1467 3.26929C45.5401 3.26929 43.4195 5.38982 43.4195 7.99635C43.4195 9.50071 44.1267 10.842 45.225 11.7084V20.8272H26.8843C26.2909 20.8272 25.7396 21.1474 25.4457 21.6628C25.1517 22.1782 25.1567 22.8157 25.4585 23.3263L27.4643 26.7189L25.4585 30.1114C25.1565 30.6222 25.1516 31.2596 25.4457 31.775C25.7396 32.2905 26.2909 32.6106 26.8843 32.6106H36.1558C36.6695 32.6106 37.0857 32.1943 37.0857 31.6808C37.0857 31.1673 36.6695 30.7509 36.1558 30.7509H27.2409L29.1262 27.5618C29.4338 27.0417 29.4338 26.3957 29.1263 25.8758L27.2409 22.687H45.2251V25.7892H33.8757C33.3621 25.7892 32.9459 26.2055 32.9459 26.719C32.9459 27.2325 33.3621 27.6489 33.8757 27.6489H45.2251V30.7511H40.1185C39.6049 30.7511 39.1887 31.1674 39.1887 31.6809C39.1887 32.1944 39.6049 32.6107 40.1185 32.6107H45.225V48.0511C45.225 48.5646 45.6412 48.9809 46.1548 48.9809C46.6685 48.9809 47.0847 48.5646 47.0847 48.0511V26.7214C47.0847 26.7205 47.0848 26.7198 47.0848 26.719C47.0848 26.7183 47.0847 26.7174 47.0847 26.7167V12.6018C47.4262 12.6805 47.7814 12.7235 48.1465 12.7235C48.5118 12.7235 48.8669 12.6805 49.2084 12.6018V12.9233V22.8472V31.2528V41.1766V59.8299H47.0845V52.0137C47.0845 51.5002 46.6683 51.0838 46.1547 51.0838C45.6411 51.0838 45.2249 51.5002 45.2249 52.0137V59.8299H36.742C35.6347 59.8299 34.6552 60.5354 34.3043 61.5853L33.2059 64.871H31.5468C31.0331 64.871 30.6169 65.2873 30.6169 65.8009C30.6169 66.3144 31.0331 66.7307 31.5468 66.7307H33.8755H62.4175H64.8839C65.3976 66.7307 65.8138 66.3144 65.8138 65.8009C65.8138 65.2873 65.3976 64.871 64.8839 64.871H63.0872L61.9889 61.5852C61.6378 60.5354 60.6582 59.8299 59.5511 59.8299H51.0682V42.1065H61.8018C62.4178 42.1065 62.9991 41.8072 63.3573 41.3059L66.1995 37.3253C66.6738 36.661 66.6738 35.7684 66.1995 35.1042L63.3571 31.1234C62.9991 30.6222 62.4178 30.323 61.8018 30.323H51.0682V23.777H57.6173C58.1309 23.777 58.5471 23.3607 58.5471 22.8472C58.5471 22.3336 58.1309 21.9173 57.6173 21.9173H51.0682V13.8532H66.0171C66.0337 13.8532 66.0493 13.8612 66.059 13.8748L68.9013 17.8553C68.9141 17.8732 68.9141 17.8972 68.9013 17.9152L66.0589 21.8959C66.0493 21.9093 66.0337 21.9173 66.0171 21.9173H61.58C61.0664 21.9173 60.6502 22.3336 60.6502 22.8472C60.6502 23.3607 61.0664 23.777 61.58 23.777H66.0171C66.6333 23.777 67.2146 23.4776 67.5724 22.9763L70.4148 18.9958C70.8891 18.3317 70.8891 17.4391 70.4148 16.7747V16.7747ZM60.2251 62.175L61.1264 64.8711H35.1668L36.0683 62.1749C36.1652 61.8846 36.4361 61.6896 36.7422 61.6896H46.155H50.1385H59.5512C59.8572 61.6897 60.1281 61.8847 60.2251 62.175V62.175ZM48.1467 5.12897C49.7278 5.12897 51.0142 6.41525 51.0142 7.99635C51.0142 9.28759 50.1561 10.3818 48.9803 10.7399H47.313C46.1373 10.382 45.2792 9.28759 45.2792 7.99635C45.2792 6.41525 46.5656 5.12897 48.1467 5.12897V5.12897ZM61.8018 32.1828C61.8186 32.1828 61.8343 32.1908 61.8439 32.2042L64.6861 36.1849C64.6988 36.2028 64.6988 36.2268 64.6861 36.2447L61.844 40.225C61.8343 40.2387 61.8186 40.2467 61.8018 40.2467H51.0682V32.1826H61.8018V32.1828Z"/>
</mask>
<path d="M70.4148 16.7747L67.5725 12.7943C67.2146 12.293 66.6333 11.9936 66.0171 11.9936H51.0682V11.7085C52.1667 10.8422 52.8737 9.50071 52.8737 7.99648C52.8739 5.38982 50.7532 3.26929 48.1467 3.26929C45.5401 3.26929 43.4195 5.38982 43.4195 7.99635C43.4195 9.50071 44.1267 10.842 45.225 11.7084V20.8272H26.8843C26.2909 20.8272 25.7396 21.1474 25.4457 21.6628C25.1517 22.1782 25.1567 22.8157 25.4585 23.3263L27.4643 26.7189L25.4585 30.1114C25.1565 30.6222 25.1516 31.2596 25.4457 31.775C25.7396 32.2905 26.2909 32.6106 26.8843 32.6106H36.1558C36.6695 32.6106 37.0857 32.1943 37.0857 31.6808C37.0857 31.1673 36.6695 30.7509 36.1558 30.7509H27.2409L29.1262 27.5618C29.4338 27.0417 29.4338 26.3957 29.1263 25.8758L27.2409 22.687H45.2251V25.7892H33.8757C33.3621 25.7892 32.9459 26.2055 32.9459 26.719C32.9459 27.2325 33.3621 27.6489 33.8757 27.6489H45.2251V30.7511H40.1185C39.6049 30.7511 39.1887 31.1674 39.1887 31.6809C39.1887 32.1944 39.6049 32.6107 40.1185 32.6107H45.225V48.0511C45.225 48.5646 45.6412 48.9809 46.1548 48.9809C46.6685 48.9809 47.0847 48.5646 47.0847 48.0511V26.7214C47.0847 26.7205 47.0848 26.7198 47.0848 26.719C47.0848 26.7183 47.0847 26.7174 47.0847 26.7167V12.6018C47.4262 12.6805 47.7814 12.7235 48.1465 12.7235C48.5118 12.7235 48.8669 12.6805 49.2084 12.6018V12.9233V22.8472V31.2528V41.1766V59.8299H47.0845V52.0137C47.0845 51.5002 46.6683 51.0838 46.1547 51.0838C45.6411 51.0838 45.2249 51.5002 45.2249 52.0137V59.8299H36.742C35.6347 59.8299 34.6552 60.5354 34.3043 61.5853L33.2059 64.871H31.5468C31.0331 64.871 30.6169 65.2873 30.6169 65.8009C30.6169 66.3144 31.0331 66.7307 31.5468 66.7307H33.8755H62.4175H64.8839C65.3976 66.7307 65.8138 66.3144 65.8138 65.8009C65.8138 65.2873 65.3976 64.871 64.8839 64.871H63.0872L61.9889 61.5852C61.6378 60.5354 60.6582 59.8299 59.5511 59.8299H51.0682V42.1065H61.8018C62.4178 42.1065 62.9991 41.8072 63.3573 41.3059L66.1995 37.3253C66.6738 36.661 66.6738 35.7684 66.1995 35.1042L63.3571 31.1234C62.9991 30.6222 62.4178 30.323 61.8018 30.323H51.0682V23.777H57.6173C58.1309 23.777 58.5471 23.3607 58.5471 22.8472C58.5471 22.3336 58.1309 21.9173 57.6173 21.9173H51.0682V13.8532H66.0171C66.0337 13.8532 66.0493 13.8612 66.059 13.8748L68.9013 17.8553C68.9141 17.8732 68.9141 17.8972 68.9013 17.9152L66.0589 21.8959C66.0493 21.9093 66.0337 21.9173 66.0171 21.9173H61.58C61.0664 21.9173 60.6502 22.3336 60.6502 22.8472C60.6502 23.3607 61.0664 23.777 61.58 23.777H66.0171C66.6333 23.777 67.2146 23.4776 67.5724 22.9763L70.4148 18.9958C70.8891 18.3317 70.8891 17.4391 70.4148 16.7747V16.7747ZM60.2251 62.175L61.1264 64.8711H35.1668L36.0683 62.1749C36.1652 61.8846 36.4361 61.6896 36.7422 61.6896H46.155H50.1385H59.5512C59.8572 61.6897 60.1281 61.8847 60.2251 62.175V62.175ZM48.1467 5.12897C49.7278 5.12897 51.0142 6.41525 51.0142 7.99635C51.0142 9.28759 50.1561 10.3818 48.9803 10.7399H47.313C46.1373 10.382 45.2792 9.28759 45.2792 7.99635C45.2792 6.41525 46.5656 5.12897 48.1467 5.12897V5.12897ZM61.8018 32.1828C61.8186 32.1828 61.8343 32.1908 61.8439 32.2042L64.6861 36.1849C64.6988 36.2028 64.6988 36.2268 64.6861 36.2447L61.844 40.225C61.8343 40.2387 61.8186 40.2467 61.8018 40.2467H51.0682V32.1826H61.8018V32.1828Z" fill="#636466" stroke="#ECECEC" mask="url(#path-1-inside-1_655_3614)"/>
<mask id="mask0_655_3614" style="mask-type:alpha" maskUnits="userSpaceOnUse" x="23" y="13" width="23" height="32">
<rect x="23" y="13.8462" width="22.1154" height="30.7692" fill="#D9D9D9"/>
</mask>
<g mask="url(#mask0_655_3614)">
<mask id="path-3-inside-2_655_3614" fill="white">
<path d="M70.4148 16.7747L67.5725 12.7943C67.2146 12.293 66.6333 11.9936 66.0171 11.9936H51.0682V11.7085C52.1667 10.8422 52.8737 9.50071 52.8737 7.99648C52.8739 5.38982 50.7532 3.26929 48.1467 3.26929C45.5401 3.26929 43.4195 5.38982 43.4195 7.99635C43.4195 9.50071 44.1267 10.842 45.225 11.7084V20.8272H26.8843C26.2909 20.8272 25.7396 21.1474 25.4457 21.6628C25.1517 22.1782 25.1567 22.8157 25.4585 23.3263L27.4643 26.7189L25.4585 30.1114C25.1565 30.6222 25.1516 31.2596 25.4457 31.775C25.7396 32.2905 26.2909 32.6106 26.8843 32.6106H36.1558C36.6695 32.6106 37.0857 32.1943 37.0857 31.6808C37.0857 31.1673 36.6695 30.7509 36.1558 30.7509H27.2409L29.1262 27.5618C29.4338 27.0417 29.4338 26.3957 29.1263 25.8758L27.2409 22.687H45.2251V25.7892H33.8757C33.3621 25.7892 32.9459 26.2055 32.9459 26.719C32.9459 27.2325 33.3621 27.6489 33.8757 27.6489H45.2251V30.7511H40.1185C39.6049 30.7511 39.1887 31.1674 39.1887 31.6809C39.1887 32.1944 39.6049 32.6107 40.1185 32.6107H45.225V48.0511C45.225 48.5646 45.6412 48.9809 46.1548 48.9809C46.6685 48.9809 47.0847 48.5646 47.0847 48.0511V26.7214C47.0847 26.7205 47.0848 26.7198 47.0848 26.719C47.0848 26.7183 47.0847 26.7174 47.0847 26.7167V12.6018C47.4262 12.6805 47.7814 12.7235 48.1465 12.7235C48.5118 12.7235 48.8669 12.6805 49.2084 12.6018V12.9233V22.8472V31.2528V41.1766V59.8299H47.0845V52.0137C47.0845 51.5002 46.6683 51.0838 46.1547 51.0838C45.6411 51.0838 45.2249 51.5002 45.2249 52.0137V59.8299H36.742C35.6347 59.8299 34.6552 60.5354 34.3043 61.5853L33.2059 64.871H31.5468C31.0331 64.871 30.6169 65.2873 30.6169 65.8009C30.6169 66.3144 31.0331 66.7307 31.5468 66.7307H33.8755H62.4175H64.8839C65.3976 66.7307 65.8138 66.3144 65.8138 65.8009C65.8138 65.2873 65.3976 64.871 64.8839 64.871H63.0872L61.9889 61.5852C61.6378 60.5354 60.6582 59.8299 59.5511 59.8299H51.0682V42.1065H61.8018C62.4178 42.1065 62.9991 41.8072 63.3573 41.3059L66.1995 37.3253C66.6738 36.661 66.6738 35.7684 66.1995 35.1042L63.3571 31.1234C62.9991 30.6222 62.4178 30.323 61.8018 30.323H51.0682V23.777H57.6173C58.1309 23.777 58.5471 23.3607 58.5471 22.8472C58.5471 22.3336 58.1309 21.9173 57.6173 21.9173H51.0682V13.8532H66.0171C66.0337 13.8532 66.0493 13.8612 66.059 13.8748L68.9013 17.8553C68.9141 17.8732 68.9141 17.8972 68.9013 17.9152L66.0589 21.8959C66.0493 21.9093 66.0337 21.9173 66.0171 21.9173H61.58C61.0664 21.9173 60.6502 22.3336 60.6502 22.8472C60.6502 23.3607 61.0664 23.777 61.58 23.777H66.0171C66.6333 23.777 67.2146 23.4776 67.5724 22.9763L70.4148 18.9958C70.8891 18.3317 70.8891 17.4391 70.4148 16.7747V16.7747ZM60.2251 62.175L61.1264 64.8711H35.1668L36.0683 62.1749C36.1652 61.8846 36.4361 61.6896 36.7422 61.6896H46.155H50.1385H59.5512C59.8572 61.6897 60.1281 61.8847 60.2251 62.175V62.175ZM48.1467 5.12897C49.7278 5.12897 51.0142 6.41525 51.0142 7.99635C51.0142 9.28759 50.1561 10.3818 48.9803 10.7399H47.313C46.1373 10.382 45.2792 9.28759 45.2792 7.99635C45.2792 6.41525 46.5656 5.12897 48.1467 5.12897V5.12897ZM61.8018 32.1828C61.8186 32.1828 61.8343 32.1908 61.8439 32.2042L64.6861 36.1849C64.6988 36.2028 64.6988 36.2268 64.6861 36.2447L61.844 40.225C61.8343 40.2387 61.8186 40.2467 61.8018 40.2467H51.0682V32.1826H61.8018V32.1828Z"/>
</mask>
<path d="M70.4148 16.7747L67.5725 12.7943C67.2146 12.293 66.6333 11.9936 66.0171 11.9936H51.0682V11.7085C52.1667 10.8422 52.8737 9.50071 52.8737 7.99648C52.8739 5.38982 50.7532 3.26929 48.1467 3.26929C45.5401 3.26929 43.4195 5.38982 43.4195 7.99635C43.4195 9.50071 44.1267 10.842 45.225 11.7084V20.8272H26.8843C26.2909 20.8272 25.7396 21.1474 25.4457 21.6628C25.1517 22.1782 25.1567 22.8157 25.4585 23.3263L27.4643 26.7189L25.4585 30.1114C25.1565 30.6222 25.1516 31.2596 25.4457 31.775C25.7396 32.2905 26.2909 32.6106 26.8843 32.6106H36.1558C36.6695 32.6106 37.0857 32.1943 37.0857 31.6808C37.0857 31.1673 36.6695 30.7509 36.1558 30.7509H27.2409L29.1262 27.5618C29.4338 27.0417 29.4338 26.3957 29.1263 25.8758L27.2409 22.687H45.2251V25.7892H33.8757C33.3621 25.7892 32.9459 26.2055 32.9459 26.719C32.9459 27.2325 33.3621 27.6489 33.8757 27.6489H45.2251V30.7511H40.1185C39.6049 30.7511 39.1887 31.1674 39.1887 31.6809C39.1887 32.1944 39.6049 32.6107 40.1185 32.6107H45.225V48.0511C45.225 48.5646 45.6412 48.9809 46.1548 48.9809C46.6685 48.9809 47.0847 48.5646 47.0847 48.0511V26.7214C47.0847 26.7205 47.0848 26.7198 47.0848 26.719C47.0848 26.7183 47.0847 26.7174 47.0847 26.7167V12.6018C47.4262 12.6805 47.7814 12.7235 48.1465 12.7235C48.5118 12.7235 48.8669 12.6805 49.2084 12.6018V12.9233V22.8472V31.2528V41.1766V59.8299H47.0845V52.0137C47.0845 51.5002 46.6683 51.0838 46.1547 51.0838C45.6411 51.0838 45.2249 51.5002 45.2249 52.0137V59.8299H36.742C35.6347 59.8299 34.6552 60.5354 34.3043 61.5853L33.2059 64.871H31.5468C31.0331 64.871 30.6169 65.2873 30.6169 65.8009C30.6169 66.3144 31.0331 66.7307 31.5468 66.7307H33.8755H62.4175H64.8839C65.3976 66.7307 65.8138 66.3144 65.8138 65.8009C65.8138 65.2873 65.3976 64.871 64.8839 64.871H63.0872L61.9889 61.5852C61.6378 60.5354 60.6582 59.8299 59.5511 59.8299H51.0682V42.1065H61.8018C62.4178 42.1065 62.9991 41.8072 63.3573 41.3059L66.1995 37.3253C66.6738 36.661 66.6738 35.7684 66.1995 35.1042L63.3571 31.1234C62.9991 30.6222 62.4178 30.323 61.8018 30.323H51.0682V23.777H57.6173C58.1309 23.777 58.5471 23.3607 58.5471 22.8472C58.5471 22.3336 58.1309 21.9173 57.6173 21.9173H51.0682V13.8532H66.0171C66.0337 13.8532 66.0493 13.8612 66.059 13.8748L68.9013 17.8553C68.9141 17.8732 68.9141 17.8972 68.9013 17.9152L66.0589 21.8959C66.0493 21.9093 66.0337 21.9173 66.0171 21.9173H61.58C61.0664 21.9173 60.6502 22.3336 60.6502 22.8472C60.6502 23.3607 61.0664 23.777 61.58 23.777H66.0171C66.6333 23.777 67.2146 23.4776 67.5724 22.9763L70.4148 18.9958C70.8891 18.3317 70.8891 17.4391 70.4148 16.7747V16.7747ZM60.2251 62.175L61.1264 64.8711H35.1668L36.0683 62.1749C36.1652 61.8846 36.4361 61.6896 36.7422 61.6896H46.155H50.1385H59.5512C59.8572 61.6897 60.1281 61.8847 60.2251 62.175V62.175ZM48.1467 5.12897C49.7278 5.12897 51.0142 6.41525 51.0142 7.99635C51.0142 9.28759 50.1561 10.3818 48.9803 10.7399H47.313C46.1373 10.382 45.2792 9.28759 45.2792 7.99635C45.2792 6.41525 46.5656 5.12897 48.1467 5.12897V5.12897ZM61.8018 32.1828C61.8186 32.1828 61.8343 32.1908 61.8439 32.2042L64.6861 36.1849C64.6988 36.2028 64.6988 36.2268 64.6861 36.2447L61.844 40.225C61.8343 40.2387 61.8186 40.2467 61.8018 40.2467H51.0682V32.1826H61.8018V32.1828Z" fill="#2BB04C" stroke="#ECECEC" mask="url(#path-3-inside-2_655_3614)"/>
</g>
<mask id="mask1_655_3614" style="mask-type:alpha" maskUnits="userSpaceOnUse" x="50" y="11" width="23" height="32">
<rect x="50.8848" y="11.9231" width="22.1154" height="30.7692" fill="#D9D9D9"/>
</mask>
<g mask="url(#mask1_655_3614)">
<mask id="path-5-inside-3_655_3614" fill="white">
<path d="M70.4148 16.7747L67.5725 12.7943C67.2146 12.293 66.6333 11.9936 66.0171 11.9936H51.0682V11.7085C52.1667 10.8422 52.8737 9.50071 52.8737 7.99648C52.8739 5.38982 50.7532 3.26929 48.1467 3.26929C45.5401 3.26929 43.4195 5.38982 43.4195 7.99635C43.4195 9.50071 44.1267 10.842 45.225 11.7084V20.8272H26.8843C26.2909 20.8272 25.7396 21.1474 25.4457 21.6628C25.1517 22.1782 25.1567 22.8157 25.4585 23.3263L27.4643 26.7189L25.4585 30.1114C25.1565 30.6222 25.1516 31.2596 25.4457 31.775C25.7396 32.2905 26.2909 32.6106 26.8843 32.6106H36.1558C36.6695 32.6106 37.0857 32.1943 37.0857 31.6808C37.0857 31.1673 36.6695 30.7509 36.1558 30.7509H27.2409L29.1262 27.5618C29.4338 27.0417 29.4338 26.3957 29.1263 25.8758L27.2409 22.687H45.2251V25.7892H33.8757C33.3621 25.7892 32.9459 26.2055 32.9459 26.719C32.9459 27.2325 33.3621 27.6489 33.8757 27.6489H45.2251V30.7511H40.1185C39.6049 30.7511 39.1887 31.1674 39.1887 31.6809C39.1887 32.1944 39.6049 32.6107 40.1185 32.6107H45.225V48.0511C45.225 48.5646 45.6412 48.9809 46.1548 48.9809C46.6685 48.9809 47.0847 48.5646 47.0847 48.0511V26.7214C47.0847 26.7205 47.0848 26.7198 47.0848 26.719C47.0848 26.7183 47.0847 26.7174 47.0847 26.7167V12.6018C47.4262 12.6805 47.7814 12.7235 48.1465 12.7235C48.5118 12.7235 48.8669 12.6805 49.2084 12.6018V12.9233V22.8472V31.2528V41.1766V59.8299H47.0845V52.0137C47.0845 51.5002 46.6683 51.0838 46.1547 51.0838C45.6411 51.0838 45.2249 51.5002 45.2249 52.0137V59.8299H36.742C35.6347 59.8299 34.6552 60.5354 34.3043 61.5853L33.2059 64.871H31.5468C31.0331 64.871 30.6169 65.2873 30.6169 65.8009C30.6169 66.3144 31.0331 66.7307 31.5468 66.7307H33.8755H62.4175H64.8839C65.3976 66.7307 65.8138 66.3144 65.8138 65.8009C65.8138 65.2873 65.3976 64.871 64.8839 64.871H63.0872L61.9889 61.5852C61.6378 60.5354 60.6582 59.8299 59.5511 59.8299H51.0682V42.1065H61.8018C62.4178 42.1065 62.9991 41.8072 63.3573 41.3059L66.1995 37.3253C66.6738 36.661 66.6738 35.7684 66.1995 35.1042L63.3571 31.1234C62.9991 30.6222 62.4178 30.323 61.8018 30.323H51.0682V23.777H57.6173C58.1309 23.777 58.5471 23.3607 58.5471 22.8472C58.5471 22.3336 58.1309 21.9173 57.6173 21.9173H51.0682V13.8532H66.0171C66.0337 13.8532 66.0493 13.8612 66.059 13.8748L68.9013 17.8553C68.9141 17.8732 68.9141 17.8972 68.9013 17.9152L66.0589 21.8959C66.0493 21.9093 66.0337 21.9173 66.0171 21.9173H61.58C61.0664 21.9173 60.6502 22.3336 60.6502 22.8472C60.6502 23.3607 61.0664 23.777 61.58 23.777H66.0171C66.6333 23.777 67.2146 23.4776 67.5724 22.9763L70.4148 18.9958C70.8891 18.3317 70.8891 17.4391 70.4148 16.7747V16.7747ZM60.2251 62.175L61.1264 64.8711H35.1668L36.0683 62.1749C36.1652 61.8846 36.4361 61.6896 36.7422 61.6896H46.155H50.1385H59.5512C59.8572 61.6897 60.1281 61.8847 60.2251 62.175V62.175ZM48.1467 5.12897C49.7278 5.12897 51.0142 6.41525 51.0142 7.99635C51.0142 9.28759 50.1561 10.3818 48.9803 10.7399H47.313C46.1373 10.382 45.2792 9.28759 45.2792 7.99635C45.2792 6.41525 46.5656 5.12897 48.1467 5.12897V5.12897ZM61.8018 32.1828C61.8186 32.1828 61.8343 32.1908 61.8439 32.2042L64.6861 36.1849C64.6988 36.2028 64.6988 36.2268 64.6861 36.2447L61.844 40.225C61.8343 40.2387 61.8186 40.2467 61.8018 40.2467H51.0682V32.1826H61.8018V32.1828Z"/>
</mask>
<path d="M70.4148 16.7747L67.5725 12.7943C67.2146 12.293 66.6333 11.9936 66.0171 11.9936H51.0682V11.7085C52.1667 10.8422 52.8737 9.50071 52.8737 7.99648C52.8739 5.38982 50.7532 3.26929 48.1467 3.26929C45.5401 3.26929 43.4195 5.38982 43.4195 7.99635C43.4195 9.50071 44.1267 10.842 45.225 11.7084V20.8272H26.8843C26.2909 20.8272 25.7396 21.1474 25.4457 21.6628C25.1517 22.1782 25.1567 22.8157 25.4585 23.3263L27.4643 26.7189L25.4585 30.1114C25.1565 30.6222 25.1516 31.2596 25.4457 31.775C25.7396 32.2905 26.2909 32.6106 26.8843 32.6106H36.1558C36.6695 32.6106 37.0857 32.1943 37.0857 31.6808C37.0857 31.1673 36.6695 30.7509 36.1558 30.7509H27.2409L29.1262 27.5618C29.4338 27.0417 29.4338 26.3957 29.1263 25.8758L27.2409 22.687H45.2251V25.7892H33.8757C33.3621 25.7892 32.9459 26.2055 32.9459 26.719C32.9459 27.2325 33.3621 27.6489 33.8757 27.6489H45.2251V30.7511H40.1185C39.6049 30.7511 39.1887 31.1674 39.1887 31.6809C39.1887 32.1944 39.6049 32.6107 40.1185 32.6107H45.225V48.0511C45.225 48.5646 45.6412 48.9809 46.1548 48.9809C46.6685 48.9809 47.0847 48.5646 47.0847 48.0511V26.7214C47.0847 26.7205 47.0848 26.7198 47.0848 26.719C47.0848 26.7183 47.0847 26.7174 47.0847 26.7167V12.6018C47.4262 12.6805 47.7814 12.7235 48.1465 12.7235C48.5118 12.7235 48.8669 12.6805 49.2084 12.6018V12.9233V22.8472V31.2528V41.1766V59.8299H47.0845V52.0137C47.0845 51.5002 46.6683 51.0838 46.1547 51.0838C45.6411 51.0838 45.2249 51.5002 45.2249 52.0137V59.8299H36.742C35.6347 59.8299 34.6552 60.5354 34.3043 61.5853L33.2059 64.871H31.5468C31.0331 64.871 30.6169 65.2873 30.6169 65.8009C30.6169 66.3144 31.0331 66.7307 31.5468 66.7307H33.8755H62.4175H64.8839C65.3976 66.7307 65.8138 66.3144 65.8138 65.8009C65.8138 65.2873 65.3976 64.871 64.8839 64.871H63.0872L61.9889 61.5852C61.6378 60.5354 60.6582 59.8299 59.5511 59.8299H51.0682V42.1065H61.8018C62.4178 42.1065 62.9991 41.8072 63.3573 41.3059L66.1995 37.3253C66.6738 36.661 66.6738 35.7684 66.1995 35.1042L63.3571 31.1234C62.9991 30.6222 62.4178 30.323 61.8018 30.323H51.0682V23.777H57.6173C58.1309 23.777 58.5471 23.3607 58.5471 22.8472C58.5471 22.3336 58.1309 21.9173 57.6173 21.9173H51.0682V13.8532H66.0171C66.0337 13.8532 66.0493 13.8612 66.059 13.8748L68.9013 17.8553C68.9141 17.8732 68.9141 17.8972 68.9013 17.9152L66.0589 21.8959C66.0493 21.9093 66.0337 21.9173 66.0171 21.9173H61.58C61.0664 21.9173 60.6502 22.3336 60.6502 22.8472C60.6502 23.3607 61.0664 23.777 61.58 23.777H66.0171C66.6333 23.777 67.2146 23.4776 67.5724 22.9763L70.4148 18.9958C70.8891 18.3317 70.8891 17.4391 70.4148 16.7747V16.7747ZM60.2251 62.175L61.1264 64.8711H35.1668L36.0683 62.1749C36.1652 61.8846 36.4361 61.6896 36.7422 61.6896H46.155H50.1385H59.5512C59.8572 61.6897 60.1281 61.8847 60.2251 62.175V62.175ZM48.1467 5.12897C49.7278 5.12897 51.0142 6.41525 51.0142 7.99635C51.0142 9.28759 50.1561 10.3818 48.9803 10.7399H47.313C46.1373 10.382 45.2792 9.28759 45.2792 7.99635C45.2792 6.41525 46.5656 5.12897 48.1467 5.12897V5.12897ZM61.8018 32.1828C61.8186 32.1828 61.8343 32.1908 61.8439 32.2042L64.6861 36.1849C64.6988 36.2028 64.6988 36.2268 64.6861 36.2447L61.844 40.225C61.8343 40.2387 61.8186 40.2467 61.8018 40.2467H51.0682V32.1826H61.8018V32.1828Z" fill="#F47920" stroke="#ECECEC" mask="url(#path-5-inside-3_655_3614)"/>
</g>
</svg>
