<svg width="95" height="70" viewBox="0 0 95 70" fill="none" xmlns="http://www.w3.org/2000/svg">
<path d="M29.1706 10.3967L29.0686 10.2246C29.007 10.2612 28.9652 10.2853 28.9444 10.297C28.4603 10.5608 28.1603 11.0672 28.1603 11.6176V14.9339V15.1339H28.3603H30.9695H31.1695V14.9339V12.8839C31.1695 12.6131 31.3192 12.3641 31.5584 12.237C34.0626 10.9095 39.4491 8.67291 47.3082 8.67291C55.1667 8.67291 60.5531 10.9094 63.0578 12.237C63.2972 12.3641 63.4469 12.6127 63.4469 12.8834V14.9335V15.1335H63.6469H66.2561H66.4561V14.9335V11.6176C66.4561 11.0662 66.1551 10.5601 65.671 10.2965C65.6516 10.2857 65.6107 10.2622 65.5492 10.2251L65.5481 10.2244C63.742 9.1494 57.1187 5.66371 47.3082 5.66371C44.1075 5.66371 40.9495 6.03349 37.9224 6.76339L37.9222 6.76342C37.5293 6.85849 37.1341 6.61679 37.0393 6.22365C36.9446 5.83056 37.1865 5.43528 37.5791 5.34056C40.7174 4.58374 43.9911 4.2 47.3082 4.2C57.4988 4.2 64.4245 7.85289 66.2957 8.96663C66.3289 8.98655 66.355 9.00195 66.3728 9.01194L66.3752 9.01328C67.3258 9.53067 67.9198 10.5294 67.9198 11.6176V15.8658C67.9198 16.27 67.5921 16.5976 67.1879 16.5976H65.8833H65.6833V16.7976V19.8416C65.6833 20.2457 65.3557 20.5734 64.9515 20.5734C64.5473 20.5734 64.2196 20.2457 64.2196 19.8416V16.7976V16.5976H64.0196H62.715C62.3108 16.5976 61.9832 16.27 61.9832 15.8658V13.4529V13.329L61.8723 13.2739C59.3 11.9934 54.353 10.1366 47.3082 10.1366C40.2628 10.1366 35.3159 11.9934 32.7441 13.2739L32.6332 13.3291V13.4529V15.8658C32.6332 16.27 32.3055 16.5976 31.9013 16.5976H30.5967H30.3967V16.7976V38.4791C30.3967 38.8833 30.0691 39.211 29.6649 39.211C29.2607 39.211 28.933 38.8833 28.933 38.4791V16.7976V16.5976H28.733H27.4284C27.0237 16.5976 26.6961 16.2699 26.6961 15.8658V11.6176C26.6961 10.5296 27.2899 9.53077 28.2459 9.01044L28.2459 9.01048L28.2495 9.00842C28.2613 9.00165 28.2868 8.98663 28.32 8.96673C30.1095 7.90126 32.0017 7.11673 33.2752 6.64592C33.6546 6.50582 34.0756 6.69941 34.2161 7.07881C34.356 7.45765 34.1621 7.87896 33.7832 8.01899C32.5702 8.46721 30.7659 9.21428 29.0683 10.2248L29.1706 10.3967ZM29.1706 10.3967C30.8536 9.39483 32.6454 8.65266 33.8526 8.2066C34.335 8.02827 34.582 7.49186 34.4036 7.00937L28.3603 11.6176C28.3603 11.1398 28.6209 10.7004 29.0414 10.4719C29.0632 10.4596 29.1067 10.4345 29.1706 10.3967Z" fill="#636466" stroke="#ECECEC" stroke-width="0.4"/>
<path d="M53.9073 37.1712V36.984L53.7205 36.9716C53.3392 36.9464 53.0379 36.63 53.0379 36.2426C53.0379 35.8385 53.3656 35.5108 53.7697 35.5108H55.5091C55.9132 35.5108 56.2409 35.8385 56.2409 36.2426C56.2409 36.6296 55.9396 36.9463 55.5578 36.9716L55.371 36.984V37.1712V40.2837V40.4709L55.5578 40.4832C55.9396 40.5085 56.2409 40.8252 56.2409 41.2127C56.2409 41.6169 55.9132 41.9446 55.5091 41.9446H53.7697C53.3656 41.9446 53.0379 41.6169 53.0379 41.2127C53.0379 40.8252 53.3393 40.5085 53.7205 40.4832L53.9073 40.4709V40.2837V37.1712Z" fill="#F47920" stroke="#ECECEC" stroke-width="0.4"/>
<path d="M43.3318 48.9295H51.2838C51.688 48.9295 52.0156 49.2572 52.0156 49.6613C52.0156 50.0655 51.688 50.3932 51.2838 50.3932H43.3318C42.9277 50.3932 42.6004 50.0657 42.6004 49.6613C42.6004 49.257 42.9277 48.9295 43.3318 48.9295Z" fill="#55AE56" stroke="#ECECEC" stroke-width="0.4"/>
<path d="M43.3318 51.9114H51.2838C51.688 51.9114 52.0156 52.2391 52.0156 52.6433C52.0156 53.0475 51.688 53.3751 51.2838 53.3751H43.3318C42.9277 53.3751 42.6004 53.0476 42.6004 52.6433C42.6004 52.239 42.9277 51.9114 43.3318 51.9114Z" fill="#55AE56" stroke="#ECECEC" stroke-width="0.4"/>
<path d="M43.3318 54.8934H51.2838C51.688 54.8934 52.0156 55.221 52.0156 55.6252C52.0156 56.0294 51.688 56.3571 51.2838 56.3571H43.3318C42.9277 56.3571 42.6004 56.0295 42.6004 55.6252C42.6004 55.2209 42.9277 54.8934 43.3318 54.8934Z" fill="#55AE56" stroke="#ECECEC" stroke-width="0.4"/>
<path d="M65.6839 59.6635V59.8635H65.8839H67.6857C68.0897 59.8635 68.417 60.191 68.417 60.5953V65.0682C68.417 65.4724 68.0894 65.8001 67.6852 65.8001H26.9319C26.5277 65.8001 26.2 65.4724 26.2 65.0682V60.5953C26.2 60.1911 26.5277 59.8635 26.9319 59.8635H28.7336H28.9336V59.6635V42.8276C28.9336 42.4234 29.2613 42.0958 29.6655 42.0958C30.0697 42.0958 30.3973 42.4234 30.3973 42.8276V59.6635V59.8635H30.5973H35.443H35.643V59.6635V53.3174V53.1338L35.46 53.1181C34.4502 53.0318 33.6548 52.1831 33.6548 51.1524V48.6671C33.6548 47.6365 34.4502 46.7882 35.46 46.7018L35.643 46.6862V46.5025V29.7097V29.5261L35.46 29.5105C34.4502 29.4241 33.6548 28.5758 33.6548 27.5452V25.0599C33.6548 24.0292 34.4502 23.1805 35.46 23.0942L35.643 23.0785V22.8949V19.3449C35.643 17.5712 37.0861 16.1277 38.8596 16.1277H55.7579C57.531 16.1277 58.9745 17.5708 58.9745 19.3449V59.6635V59.8635H59.1745H64.0202H64.2202V59.6635V24.1905C64.2202 23.7863 64.5479 23.4587 64.9521 23.4587C65.3562 23.4587 65.6839 23.7863 65.6839 24.1905V59.6635ZM37.2896 53.1181L37.1067 53.1338V53.3174V59.6635V59.8635H37.3067H57.3108H57.5108V59.6635V19.3449C57.5108 18.3778 56.7245 17.5914 55.7574 17.5914H38.8596C37.8929 17.5914 37.1067 18.3778 37.1067 19.3449V22.8954V23.079L37.2896 23.0946C38.299 23.181 39.0948 24.0293 39.0948 25.0599V27.5452C39.0948 28.5759 38.299 29.4246 37.2896 29.5109L37.1067 29.5266V29.7102V46.5025V46.6862L37.2896 46.7018C38.299 46.7882 39.0948 47.6365 39.0948 48.6676V51.1524C39.0948 52.1835 38.299 53.0318 37.2896 53.1181ZM66.7533 64.3364H66.9533V64.1364V61.5272V61.3272H66.7533H27.8637H27.6637V61.5272V64.1364V64.3364H27.8637H66.7533ZM35.1186 25.0599V27.5452C35.1186 27.8267 35.347 28.056 35.6293 28.056H37.1203C37.402 28.056 37.6311 27.8269 37.6311 27.5452V25.0599C37.6311 24.7785 37.4018 24.5496 37.1203 24.5496H35.6293C35.3472 24.5496 35.1186 24.7787 35.1186 25.0599ZM35.1186 48.6676V51.1524C35.1186 51.4339 35.347 51.6631 35.6293 51.6631H37.1203C37.402 51.6631 37.6311 51.4341 37.6311 51.1524V48.6676C37.6311 48.3859 37.402 48.1568 37.1203 48.1568H35.6293C35.347 48.1568 35.1186 48.3861 35.1186 48.6676Z" fill="#636466" stroke="#ECECEC" stroke-width="0.4"/>
</svg>
