<svg width="95" height="70" viewBox="0 0 95 70" fill="none" xmlns="http://www.w3.org/2000/svg">
<g clip-path="url(#clip0_655_3617)">
<mask id="path-1-inside-1_655_3617" fill="white">
<path d="M77.6643 35.4358C76.2333 34.0046 74.0146 33.6964 72.2576 34.6429C70.9716 34.4425 69.6497 34.5841 68.4406 35.0452C68.5569 33.1102 67.4169 31.2631 65.5854 30.524C63.7082 29.7668 61.5458 30.3515 60.2992 31.9096C59.3126 32.1593 58.381 32.6135 57.5752 33.2302C57.0898 32.1601 56.3281 31.1379 55.3027 30.1988C54.25 29.235 52.9328 28.3707 51.4119 27.6353C52.8596 27.4229 54.2138 27.1679 55.4457 26.8724C60.0257 25.7738 62.3479 24.2675 62.3479 22.3952C62.3479 20.8109 60.6719 19.4816 57.3664 18.4446C55.0021 17.7027 51.9446 17.1397 48.4334 16.7928C49.5385 15.7242 50.1693 14.4658 50.1693 13.1066C50.1693 9.12168 44.7502 6 37.8322 6C36.7036 6 35.5849 6.08586 34.5069 6.25514C34.0114 6.33301 33.6728 6.79777 33.7505 7.2934C33.8283 7.78892 34.2935 8.12786 34.7888 8.04975C35.7739 7.89512 36.7979 7.81665 37.8324 7.81665C43.535 7.81665 48.3529 10.2391 48.3529 13.1068C48.3529 15.9744 43.535 18.3969 37.8324 18.3969C32.1297 18.3969 27.312 15.9744 27.312 13.1069C27.312 11.7211 28.4949 10.3442 30.5574 9.32959C31.0075 9.10823 31.1929 8.5638 30.9714 8.11357C30.7501 7.66346 30.2058 7.47819 29.7554 7.69967C27.0481 9.03158 25.4953 11.0024 25.4953 13.1069C25.4953 14.7097 26.3727 16.1726 27.8708 17.3493C23.5239 18.087 18.1556 19.5704 18.1556 22.3956C18.1556 24.2677 20.4778 25.774 25.0578 26.8728C25.5604 26.9933 26.0834 27.1071 26.6244 27.2142C21.7949 29.2706 18.9132 32.493 18.9132 36.0402C18.9132 38.643 20.4509 41.0535 23.1402 42.9601C19.1681 45.1609 17 48.0163 17 51.0947C17 54.4385 19.566 57.5278 24.2253 59.7934C28.6763 61.9575 34.574 63.1495 40.832 63.1495C44.2778 63.1495 47.6011 62.7921 50.7098 62.0871C51.1991 61.9762 51.5057 61.4896 51.3947 61.0004C51.2837 60.5112 50.7968 60.2047 50.308 60.3155C47.331 60.9906 44.1427 61.3329 40.8319 61.3329C34.8436 61.3329 29.2279 60.2059 25.0196 58.1597C21.0195 56.2145 18.8164 53.7055 18.8164 51.0947C18.8164 48.535 21.0457 45.9833 24.9416 44.069C26.8345 45.0831 29.1151 45.8918 31.7009 46.4265C31.7629 46.4394 31.8248 46.4456 31.8857 46.4456C32.3073 46.4456 32.6854 46.1502 32.7743 45.7211C32.8759 45.2299 32.5599 44.7493 32.0688 44.6477C25.2866 43.2452 20.7296 39.7859 20.7296 36.0398C20.7296 32.661 24.5114 29.4421 30.3643 27.8395C30.388 27.833 30.4108 27.825 30.4335 27.8167C33.4375 28.1889 36.7833 28.3862 40.2518 28.3862C42.7864 28.3862 45.2558 28.2808 47.574 28.0789C47.5786 28.0804 47.5828 28.0824 47.5874 28.0839C53.014 29.7699 56.3851 32.8184 56.3851 36.04C56.3851 38.4055 54.6051 40.6737 51.3727 42.4268C47.9645 44.2752 43.4132 45.2931 38.5574 45.2931C37.7384 45.2931 36.9083 45.2627 36.0903 45.2028C35.5898 45.1661 35.1546 45.542 35.118 46.0422C35.0814 46.5424 35.4572 46.9779 35.9575 47.0145C36.8197 47.0775 37.6943 47.1096 38.5575 47.1096C43.7106 47.1096 48.5695 46.0136 52.2389 44.0236C52.8734 43.6794 53.46 43.3144 53.9987 42.9317C59.5411 44.8917 62.8474 47.939 62.8474 51.0949C62.8474 54.0892 59.7973 57.046 54.6885 59.0047C54.2201 59.1843 53.986 59.7094 54.1656 60.178C54.3041 60.5393 54.6485 60.7613 55.0138 60.7613C55.1219 60.7613 55.2317 60.7418 55.3386 60.7008C58.6038 59.449 61.0997 57.8236 62.6847 55.9758C63.9041 56.4701 65.1877 56.7113 66.4641 56.7113C69.0932 56.7112 71.6903 55.6894 73.6219 53.7578C75.4248 51.9548 76.4632 49.5855 76.5696 47.0505C78.1194 45.3759 78.8111 43.0977 78.4573 40.8423C79.4035 39.0855 79.0955 36.8669 77.6643 35.4358ZM40.2518 26.5696C34.6616 26.5696 29.4162 26.0499 25.4816 25.1061C21.1237 24.0606 19.9722 22.8757 19.9722 22.3952C19.9722 22.0948 20.4995 21.3785 22.4759 20.6002C24.3652 19.856 27.0739 19.241 30.3089 18.8216C30.3338 18.8184 30.3579 18.8135 30.3818 18.8084C32.4387 19.6939 35.0108 20.2133 37.8322 20.2133C41.0446 20.2133 43.9333 19.54 46.1067 18.4199C56.2989 19.1292 60.5314 21.3575 60.5314 22.3952C60.5314 22.8756 59.3799 24.0605 55.022 25.1061C51.0874 26.0499 45.842 26.5696 40.2518 26.5696ZM61.7678 45.2627C61.4512 44.9691 61.1086 44.6823 60.7427 44.4029L62.7955 39.3146C62.9831 38.8495 62.7582 38.3202 62.2929 38.1325C61.8278 37.945 61.2985 38.1699 61.1108 38.635L59.2049 43.3596C58.1349 42.7102 56.929 42.1164 55.6095 41.5944C57.3012 39.9359 58.2017 38.0363 58.2017 36.0397C58.2017 35.7399 58.1785 35.4418 58.1374 35.1453C58.9161 34.3706 59.9265 33.8287 61.0095 33.6106C61.2441 33.5632 61.4507 33.4253 61.5842 33.2265C62.3059 32.1515 63.703 31.7233 64.9058 32.2087C66.1087 32.694 66.8176 33.9716 66.5913 35.2464C66.5495 35.4822 66.6024 35.7249 66.7387 35.9218C67.8215 37.487 68.0438 39.4727 67.3347 41.2305L67.3295 41.2424C67.3218 41.2594 67.3143 41.2764 67.3072 41.2936C67.2137 41.5178 67.2138 41.7699 67.3075 41.9938C68.1546 44.0179 68.169 46.2529 67.3481 48.2874C66.7717 49.7165 65.8289 50.9295 64.6217 51.8271C64.6494 51.5844 64.6638 51.3403 64.6638 51.0947C64.6638 49.0376 63.6624 47.0209 61.7678 45.2627ZM76.7427 40.1753C76.6119 40.376 76.5658 40.62 76.614 40.8545C76.9981 42.7188 76.4259 44.6331 75.0867 45.9723L75.0767 45.9818C75.0629 45.9946 75.0491 46.0076 75.0355 46.0209C74.862 46.1905 74.7635 46.4225 74.7621 46.6652C74.7496 48.8593 73.8885 50.9219 72.3375 52.473C70.0846 54.7258 66.7293 55.468 63.7623 54.4394C63.7677 54.4296 63.7729 54.4199 63.7783 54.4101C66.1823 53.3394 68.0465 51.412 69.0329 48.9671C69.6319 47.482 69.8658 45.9094 69.7356 44.3567L71.658 42.4342C72.0126 42.0795 72.0126 41.5043 71.658 41.1498C71.3033 40.7951 70.7281 40.7951 70.3735 41.1498L69.3144 42.2089C69.2552 42.0186 69.1925 41.829 69.1218 41.6412C69.6998 40.0317 69.7013 38.2987 69.1574 36.7159C70.1378 36.3565 71.2127 36.2732 72.2458 36.4861C72.4803 36.5344 72.7243 36.4881 72.9248 36.3574C74.0096 35.6505 75.4626 35.8031 76.3799 36.7202C77.2971 37.6376 77.4496 39.0904 76.7427 40.1753Z"/>
</mask>
<path d="M77.6643 35.4358C76.2333 34.0046 74.0146 33.6964 72.2576 34.6429C70.9716 34.4425 69.6497 34.5841 68.4406 35.0452C68.5569 33.1102 67.4169 31.2631 65.5854 30.524C63.7082 29.7668 61.5458 30.3515 60.2992 31.9096C59.3126 32.1593 58.381 32.6135 57.5752 33.2302C57.0898 32.1601 56.3281 31.1379 55.3027 30.1988C54.25 29.235 52.9328 28.3707 51.4119 27.6353C52.8596 27.4229 54.2138 27.1679 55.4457 26.8724C60.0257 25.7738 62.3479 24.2675 62.3479 22.3952C62.3479 20.8109 60.6719 19.4816 57.3664 18.4446C55.0021 17.7027 51.9446 17.1397 48.4334 16.7928C49.5385 15.7242 50.1693 14.4658 50.1693 13.1066C50.1693 9.12168 44.7502 6 37.8322 6C36.7036 6 35.5849 6.08586 34.5069 6.25514C34.0114 6.33301 33.6728 6.79777 33.7505 7.2934C33.8283 7.78892 34.2935 8.12786 34.7888 8.04975C35.7739 7.89512 36.7979 7.81665 37.8324 7.81665C43.535 7.81665 48.3529 10.2391 48.3529 13.1068C48.3529 15.9744 43.535 18.3969 37.8324 18.3969C32.1297 18.3969 27.312 15.9744 27.312 13.1069C27.312 11.7211 28.4949 10.3442 30.5574 9.32959C31.0075 9.10823 31.1929 8.5638 30.9714 8.11357C30.7501 7.66346 30.2058 7.47819 29.7554 7.69967C27.0481 9.03158 25.4953 11.0024 25.4953 13.1069C25.4953 14.7097 26.3727 16.1726 27.8708 17.3493C23.5239 18.087 18.1556 19.5704 18.1556 22.3956C18.1556 24.2677 20.4778 25.774 25.0578 26.8728C25.5604 26.9933 26.0834 27.1071 26.6244 27.2142C21.7949 29.2706 18.9132 32.493 18.9132 36.0402C18.9132 38.643 20.4509 41.0535 23.1402 42.9601C19.1681 45.1609 17 48.0163 17 51.0947C17 54.4385 19.566 57.5278 24.2253 59.7934C28.6763 61.9575 34.574 63.1495 40.832 63.1495C44.2778 63.1495 47.6011 62.7921 50.7098 62.0871C51.1991 61.9762 51.5057 61.4896 51.3947 61.0004C51.2837 60.5112 50.7968 60.2047 50.308 60.3155C47.331 60.9906 44.1427 61.3329 40.8319 61.3329C34.8436 61.3329 29.2279 60.2059 25.0196 58.1597C21.0195 56.2145 18.8164 53.7055 18.8164 51.0947C18.8164 48.535 21.0457 45.9833 24.9416 44.069C26.8345 45.0831 29.1151 45.8918 31.7009 46.4265C31.7629 46.4394 31.8248 46.4456 31.8857 46.4456C32.3073 46.4456 32.6854 46.1502 32.7743 45.7211C32.8759 45.2299 32.5599 44.7493 32.0688 44.6477C25.2866 43.2452 20.7296 39.7859 20.7296 36.0398C20.7296 32.661 24.5114 29.4421 30.3643 27.8395C30.388 27.833 30.4108 27.825 30.4335 27.8167C33.4375 28.1889 36.7833 28.3862 40.2518 28.3862C42.7864 28.3862 45.2558 28.2808 47.574 28.0789C47.5786 28.0804 47.5828 28.0824 47.5874 28.0839C53.014 29.7699 56.3851 32.8184 56.3851 36.04C56.3851 38.4055 54.6051 40.6737 51.3727 42.4268C47.9645 44.2752 43.4132 45.2931 38.5574 45.2931C37.7384 45.2931 36.9083 45.2627 36.0903 45.2028C35.5898 45.1661 35.1546 45.542 35.118 46.0422C35.0814 46.5424 35.4572 46.9779 35.9575 47.0145C36.8197 47.0775 37.6943 47.1096 38.5575 47.1096C43.7106 47.1096 48.5695 46.0136 52.2389 44.0236C52.8734 43.6794 53.46 43.3144 53.9987 42.9317C59.5411 44.8917 62.8474 47.939 62.8474 51.0949C62.8474 54.0892 59.7973 57.046 54.6885 59.0047C54.2201 59.1843 53.986 59.7094 54.1656 60.178C54.3041 60.5393 54.6485 60.7613 55.0138 60.7613C55.1219 60.7613 55.2317 60.7418 55.3386 60.7008C58.6038 59.449 61.0997 57.8236 62.6847 55.9758C63.9041 56.4701 65.1877 56.7113 66.4641 56.7113C69.0932 56.7112 71.6903 55.6894 73.6219 53.7578C75.4248 51.9548 76.4632 49.5855 76.5696 47.0505C78.1194 45.3759 78.8111 43.0977 78.4573 40.8423C79.4035 39.0855 79.0955 36.8669 77.6643 35.4358ZM40.2518 26.5696C34.6616 26.5696 29.4162 26.0499 25.4816 25.1061C21.1237 24.0606 19.9722 22.8757 19.9722 22.3952C19.9722 22.0948 20.4995 21.3785 22.4759 20.6002C24.3652 19.856 27.0739 19.241 30.3089 18.8216C30.3338 18.8184 30.3579 18.8135 30.3818 18.8084C32.4387 19.6939 35.0108 20.2133 37.8322 20.2133C41.0446 20.2133 43.9333 19.54 46.1067 18.4199C56.2989 19.1292 60.5314 21.3575 60.5314 22.3952C60.5314 22.8756 59.3799 24.0605 55.022 25.1061C51.0874 26.0499 45.842 26.5696 40.2518 26.5696ZM61.7678 45.2627C61.4512 44.9691 61.1086 44.6823 60.7427 44.4029L62.7955 39.3146C62.9831 38.8495 62.7582 38.3202 62.2929 38.1325C61.8278 37.945 61.2985 38.1699 61.1108 38.635L59.2049 43.3596C58.1349 42.7102 56.929 42.1164 55.6095 41.5944C57.3012 39.9359 58.2017 38.0363 58.2017 36.0397C58.2017 35.7399 58.1785 35.4418 58.1374 35.1453C58.9161 34.3706 59.9265 33.8287 61.0095 33.6106C61.2441 33.5632 61.4507 33.4253 61.5842 33.2265C62.3059 32.1515 63.703 31.7233 64.9058 32.2087C66.1087 32.694 66.8176 33.9716 66.5913 35.2464C66.5495 35.4822 66.6024 35.7249 66.7387 35.9218C67.8215 37.487 68.0438 39.4727 67.3347 41.2305L67.3295 41.2424C67.3218 41.2594 67.3143 41.2764 67.3072 41.2936C67.2137 41.5178 67.2138 41.7699 67.3075 41.9938C68.1546 44.0179 68.169 46.2529 67.3481 48.2874C66.7717 49.7165 65.8289 50.9295 64.6217 51.8271C64.6494 51.5844 64.6638 51.3403 64.6638 51.0947C64.6638 49.0376 63.6624 47.0209 61.7678 45.2627ZM76.7427 40.1753C76.6119 40.376 76.5658 40.62 76.614 40.8545C76.9981 42.7188 76.4259 44.6331 75.0867 45.9723L75.0767 45.9818C75.0629 45.9946 75.0491 46.0076 75.0355 46.0209C74.862 46.1905 74.7635 46.4225 74.7621 46.6652C74.7496 48.8593 73.8885 50.9219 72.3375 52.473C70.0846 54.7258 66.7293 55.468 63.7623 54.4394C63.7677 54.4296 63.7729 54.4199 63.7783 54.4101C66.1823 53.3394 68.0465 51.412 69.0329 48.9671C69.6319 47.482 69.8658 45.9094 69.7356 44.3567L71.658 42.4342C72.0126 42.0795 72.0126 41.5043 71.658 41.1498C71.3033 40.7951 70.7281 40.7951 70.3735 41.1498L69.3144 42.2089C69.2552 42.0186 69.1925 41.829 69.1218 41.6412C69.6998 40.0317 69.7013 38.2987 69.1574 36.7159C70.1378 36.3565 71.2127 36.2732 72.2458 36.4861C72.4803 36.5344 72.7243 36.4881 72.9248 36.3574C74.0096 35.6505 75.4626 35.8031 76.3799 36.7202C77.2971 37.6376 77.4496 39.0904 76.7427 40.1753Z" fill="#636466" stroke="#ECECEC" stroke-width="0.8" mask="url(#path-1-inside-1_655_3617)"/>
<mask id="mask0_655_3617" style="mask-type:alpha" maskUnits="userSpaceOnUse" x="57" y="27" width="24" height="33">
<path d="M57.5 31.5747L81 27L76 57L59 59.0747L64 54.5747L65.5 47.5747L63 45.5747L59 43.5747L58 37.0747L57.5 31.5747Z" fill="#D9D9D9"/>
</mask>
<g mask="url(#mask0_655_3617)">
<mask id="path-3-inside-2_655_3617" fill="white">
<path d="M77.6643 35.4358C76.2333 34.0046 74.0146 33.6964 72.2576 34.6429C70.9716 34.4425 69.6497 34.5841 68.4406 35.0452C68.5569 33.1102 67.4169 31.2631 65.5854 30.524C63.7082 29.7668 61.5458 30.3515 60.2992 31.9096C59.3126 32.1593 58.381 32.6135 57.5752 33.2302C57.0898 32.1601 56.3281 31.1379 55.3027 30.1988C54.25 29.235 52.9328 28.3707 51.4119 27.6353C52.8596 27.4229 54.2138 27.1679 55.4457 26.8724C60.0257 25.7738 62.3479 24.2675 62.3479 22.3952C62.3479 20.8109 60.6719 19.4816 57.3664 18.4446C55.0021 17.7027 51.9446 17.1397 48.4334 16.7928C49.5385 15.7242 50.1693 14.4658 50.1693 13.1066C50.1693 9.12168 44.7502 6 37.8322 6C36.7036 6 35.5849 6.08586 34.5069 6.25514C34.0114 6.33301 33.6728 6.79777 33.7505 7.2934C33.8283 7.78892 34.2935 8.12786 34.7888 8.04975C35.7739 7.89512 36.7979 7.81665 37.8324 7.81665C43.535 7.81665 48.3529 10.2391 48.3529 13.1068C48.3529 15.9744 43.535 18.3969 37.8324 18.3969C32.1297 18.3969 27.312 15.9744 27.312 13.1069C27.312 11.7211 28.4949 10.3442 30.5574 9.32959C31.0075 9.10823 31.1929 8.5638 30.9714 8.11357C30.7501 7.66346 30.2058 7.47819 29.7554 7.69967C27.0481 9.03158 25.4953 11.0024 25.4953 13.1069C25.4953 14.7097 26.3727 16.1726 27.8708 17.3493C23.5239 18.087 18.1556 19.5704 18.1556 22.3956C18.1556 24.2677 20.4778 25.774 25.0578 26.8728C25.5604 26.9933 26.0834 27.1071 26.6244 27.2142C21.7949 29.2706 18.9132 32.493 18.9132 36.0402C18.9132 38.643 20.4509 41.0535 23.1402 42.9601C19.1681 45.1609 17 48.0163 17 51.0947C17 54.4385 19.566 57.5278 24.2253 59.7934C28.6763 61.9575 34.574 63.1495 40.832 63.1495C44.2778 63.1495 47.6011 62.7921 50.7098 62.0871C51.1991 61.9762 51.5057 61.4896 51.3947 61.0004C51.2837 60.5112 50.7968 60.2047 50.308 60.3155C47.331 60.9906 44.1427 61.3329 40.8319 61.3329C34.8436 61.3329 29.2279 60.2059 25.0196 58.1597C21.0195 56.2145 18.8164 53.7055 18.8164 51.0947C18.8164 48.535 21.0457 45.9833 24.9416 44.069C26.8345 45.0831 29.1151 45.8918 31.7009 46.4265C31.7629 46.4394 31.8248 46.4456 31.8857 46.4456C32.3073 46.4456 32.6854 46.1502 32.7743 45.7211C32.8759 45.2299 32.5599 44.7493 32.0688 44.6477C25.2866 43.2452 20.7296 39.7859 20.7296 36.0398C20.7296 32.661 24.5114 29.4421 30.3643 27.8395C30.388 27.833 30.4108 27.825 30.4335 27.8167C33.4375 28.1889 36.7833 28.3862 40.2518 28.3862C42.7864 28.3862 45.2558 28.2808 47.574 28.0789C47.5786 28.0804 47.5828 28.0824 47.5874 28.0839C53.014 29.7699 56.3851 32.8184 56.3851 36.04C56.3851 38.4055 54.6051 40.6737 51.3727 42.4268C47.9645 44.2752 43.4132 45.2931 38.5574 45.2931C37.7384 45.2931 36.9083 45.2627 36.0903 45.2028C35.5898 45.1661 35.1546 45.542 35.118 46.0422C35.0814 46.5424 35.4572 46.9779 35.9575 47.0145C36.8197 47.0775 37.6943 47.1096 38.5575 47.1096C43.7106 47.1096 48.5695 46.0136 52.2389 44.0236C52.8734 43.6794 53.46 43.3144 53.9987 42.9317C59.5411 44.8917 62.8474 47.939 62.8474 51.0949C62.8474 54.0892 59.7973 57.046 54.6885 59.0047C54.2201 59.1843 53.986 59.7094 54.1656 60.178C54.3041 60.5393 54.6485 60.7613 55.0138 60.7613C55.1219 60.7613 55.2317 60.7418 55.3386 60.7008C58.6038 59.449 61.0997 57.8236 62.6847 55.9758C63.9041 56.4701 65.1877 56.7113 66.4641 56.7113C69.0932 56.7112 71.6903 55.6894 73.6219 53.7578C75.4248 51.9548 76.4632 49.5855 76.5696 47.0505C78.1194 45.3759 78.8111 43.0977 78.4573 40.8423C79.4035 39.0855 79.0955 36.8669 77.6643 35.4358ZM40.2518 26.5696C34.6616 26.5696 29.4162 26.0499 25.4816 25.1061C21.1237 24.0606 19.9722 22.8757 19.9722 22.3952C19.9722 22.0948 20.4995 21.3785 22.4759 20.6002C24.3652 19.856 27.0739 19.241 30.3089 18.8216C30.3338 18.8184 30.3579 18.8135 30.3818 18.8084C32.4387 19.6939 35.0108 20.2133 37.8322 20.2133C41.0446 20.2133 43.9333 19.54 46.1067 18.4199C56.2989 19.1292 60.5314 21.3575 60.5314 22.3952C60.5314 22.8756 59.3799 24.0605 55.022 25.1061C51.0874 26.0499 45.842 26.5696 40.2518 26.5696ZM61.7678 45.2627C61.4512 44.9691 61.1086 44.6823 60.7427 44.4029L62.7955 39.3146C62.9831 38.8495 62.7582 38.3202 62.2929 38.1325C61.8278 37.945 61.2985 38.1699 61.1108 38.635L59.2049 43.3596C58.1349 42.7102 56.929 42.1164 55.6095 41.5944C57.3012 39.9359 58.2017 38.0363 58.2017 36.0397C58.2017 35.7399 58.1785 35.4418 58.1374 35.1453C58.9161 34.3706 59.9265 33.8287 61.0095 33.6106C61.2441 33.5632 61.4507 33.4253 61.5842 33.2265C62.3059 32.1515 63.703 31.7233 64.9058 32.2087C66.1087 32.694 66.8176 33.9716 66.5913 35.2464C66.5495 35.4822 66.6024 35.7249 66.7387 35.9218C67.8215 37.487 68.0438 39.4727 67.3347 41.2305L67.3295 41.2424C67.3218 41.2594 67.3143 41.2764 67.3072 41.2936C67.2137 41.5178 67.2138 41.7699 67.3075 41.9938C68.1546 44.0179 68.169 46.2529 67.3481 48.2874C66.7717 49.7165 65.8289 50.9295 64.6217 51.8271C64.6494 51.5844 64.6638 51.3403 64.6638 51.0947C64.6638 49.0376 63.6624 47.0209 61.7678 45.2627ZM76.7427 40.1753C76.6119 40.376 76.5658 40.62 76.614 40.8545C76.9981 42.7188 76.4259 44.6331 75.0867 45.9723L75.0767 45.9818C75.0629 45.9946 75.0491 46.0076 75.0355 46.0209C74.862 46.1905 74.7635 46.4225 74.7621 46.6652C74.7496 48.8593 73.8885 50.9219 72.3375 52.473C70.0846 54.7258 66.7293 55.468 63.7623 54.4394C63.7677 54.4296 63.7729 54.4199 63.7783 54.4101C66.1823 53.3394 68.0465 51.412 69.0329 48.9671C69.6319 47.482 69.8658 45.9094 69.7356 44.3567L71.658 42.4342C72.0126 42.0795 72.0126 41.5043 71.658 41.1498C71.3033 40.7951 70.7281 40.7951 70.3735 41.1498L69.3144 42.2089C69.2552 42.0186 69.1925 41.829 69.1218 41.6412C69.6998 40.0317 69.7013 38.2987 69.1574 36.7159C70.1378 36.3565 71.2127 36.2732 72.2458 36.4861C72.4803 36.5344 72.7243 36.4881 72.9248 36.3574C74.0096 35.6505 75.4626 35.8031 76.3799 36.7202C77.2971 37.6376 77.4496 39.0904 76.7427 40.1753Z"/>
</mask>
<path d="M77.6643 35.4358C76.2333 34.0046 74.0146 33.6964 72.2576 34.6429C70.9716 34.4425 69.6497 34.5841 68.4406 35.0452C68.5569 33.1102 67.4169 31.2631 65.5854 30.524C63.7082 29.7668 61.5458 30.3515 60.2992 31.9096C59.3126 32.1593 58.381 32.6135 57.5752 33.2302C57.0898 32.1601 56.3281 31.1379 55.3027 30.1988C54.25 29.235 52.9328 28.3707 51.4119 27.6353C52.8596 27.4229 54.2138 27.1679 55.4457 26.8724C60.0257 25.7738 62.3479 24.2675 62.3479 22.3952C62.3479 20.8109 60.6719 19.4816 57.3664 18.4446C55.0021 17.7027 51.9446 17.1397 48.4334 16.7928C49.5385 15.7242 50.1693 14.4658 50.1693 13.1066C50.1693 9.12168 44.7502 6 37.8322 6C36.7036 6 35.5849 6.08586 34.5069 6.25514C34.0114 6.33301 33.6728 6.79777 33.7505 7.2934C33.8283 7.78892 34.2935 8.12786 34.7888 8.04975C35.7739 7.89512 36.7979 7.81665 37.8324 7.81665C43.535 7.81665 48.3529 10.2391 48.3529 13.1068C48.3529 15.9744 43.535 18.3969 37.8324 18.3969C32.1297 18.3969 27.312 15.9744 27.312 13.1069C27.312 11.7211 28.4949 10.3442 30.5574 9.32959C31.0075 9.10823 31.1929 8.5638 30.9714 8.11357C30.7501 7.66346 30.2058 7.47819 29.7554 7.69967C27.0481 9.03158 25.4953 11.0024 25.4953 13.1069C25.4953 14.7097 26.3727 16.1726 27.8708 17.3493C23.5239 18.087 18.1556 19.5704 18.1556 22.3956C18.1556 24.2677 20.4778 25.774 25.0578 26.8728C25.5604 26.9933 26.0834 27.1071 26.6244 27.2142C21.7949 29.2706 18.9132 32.493 18.9132 36.0402C18.9132 38.643 20.4509 41.0535 23.1402 42.9601C19.1681 45.1609 17 48.0163 17 51.0947C17 54.4385 19.566 57.5278 24.2253 59.7934C28.6763 61.9575 34.574 63.1495 40.832 63.1495C44.2778 63.1495 47.6011 62.7921 50.7098 62.0871C51.1991 61.9762 51.5057 61.4896 51.3947 61.0004C51.2837 60.5112 50.7968 60.2047 50.308 60.3155C47.331 60.9906 44.1427 61.3329 40.8319 61.3329C34.8436 61.3329 29.2279 60.2059 25.0196 58.1597C21.0195 56.2145 18.8164 53.7055 18.8164 51.0947C18.8164 48.535 21.0457 45.9833 24.9416 44.069C26.8345 45.0831 29.1151 45.8918 31.7009 46.4265C31.7629 46.4394 31.8248 46.4456 31.8857 46.4456C32.3073 46.4456 32.6854 46.1502 32.7743 45.7211C32.8759 45.2299 32.5599 44.7493 32.0688 44.6477C25.2866 43.2452 20.7296 39.7859 20.7296 36.0398C20.7296 32.661 24.5114 29.4421 30.3643 27.8395C30.388 27.833 30.4108 27.825 30.4335 27.8167C33.4375 28.1889 36.7833 28.3862 40.2518 28.3862C42.7864 28.3862 45.2558 28.2808 47.574 28.0789C47.5786 28.0804 47.5828 28.0824 47.5874 28.0839C53.014 29.7699 56.3851 32.8184 56.3851 36.04C56.3851 38.4055 54.6051 40.6737 51.3727 42.4268C47.9645 44.2752 43.4132 45.2931 38.5574 45.2931C37.7384 45.2931 36.9083 45.2627 36.0903 45.2028C35.5898 45.1661 35.1546 45.542 35.118 46.0422C35.0814 46.5424 35.4572 46.9779 35.9575 47.0145C36.8197 47.0775 37.6943 47.1096 38.5575 47.1096C43.7106 47.1096 48.5695 46.0136 52.2389 44.0236C52.8734 43.6794 53.46 43.3144 53.9987 42.9317C59.5411 44.8917 62.8474 47.939 62.8474 51.0949C62.8474 54.0892 59.7973 57.046 54.6885 59.0047C54.2201 59.1843 53.986 59.7094 54.1656 60.178C54.3041 60.5393 54.6485 60.7613 55.0138 60.7613C55.1219 60.7613 55.2317 60.7418 55.3386 60.7008C58.6038 59.449 61.0997 57.8236 62.6847 55.9758C63.9041 56.4701 65.1877 56.7113 66.4641 56.7113C69.0932 56.7112 71.6903 55.6894 73.6219 53.7578C75.4248 51.9548 76.4632 49.5855 76.5696 47.0505C78.1194 45.3759 78.8111 43.0977 78.4573 40.8423C79.4035 39.0855 79.0955 36.8669 77.6643 35.4358ZM40.2518 26.5696C34.6616 26.5696 29.4162 26.0499 25.4816 25.1061C21.1237 24.0606 19.9722 22.8757 19.9722 22.3952C19.9722 22.0948 20.4995 21.3785 22.4759 20.6002C24.3652 19.856 27.0739 19.241 30.3089 18.8216C30.3338 18.8184 30.3579 18.8135 30.3818 18.8084C32.4387 19.6939 35.0108 20.2133 37.8322 20.2133C41.0446 20.2133 43.9333 19.54 46.1067 18.4199C56.2989 19.1292 60.5314 21.3575 60.5314 22.3952C60.5314 22.8756 59.3799 24.0605 55.022 25.1061C51.0874 26.0499 45.842 26.5696 40.2518 26.5696ZM61.7678 45.2627C61.4512 44.9691 61.1086 44.6823 60.7427 44.4029L62.7955 39.3146C62.9831 38.8495 62.7582 38.3202 62.2929 38.1325C61.8278 37.945 61.2985 38.1699 61.1108 38.635L59.2049 43.3596C58.1349 42.7102 56.929 42.1164 55.6095 41.5944C57.3012 39.9359 58.2017 38.0363 58.2017 36.0397C58.2017 35.7399 58.1785 35.4418 58.1374 35.1453C58.9161 34.3706 59.9265 33.8287 61.0095 33.6106C61.2441 33.5632 61.4507 33.4253 61.5842 33.2265C62.3059 32.1515 63.703 31.7233 64.9058 32.2087C66.1087 32.694 66.8176 33.9716 66.5913 35.2464C66.5495 35.4822 66.6024 35.7249 66.7387 35.9218C67.8215 37.487 68.0438 39.4727 67.3347 41.2305L67.3295 41.2424C67.3218 41.2594 67.3143 41.2764 67.3072 41.2936C67.2137 41.5178 67.2138 41.7699 67.3075 41.9938C68.1546 44.0179 68.169 46.2529 67.3481 48.2874C66.7717 49.7165 65.8289 50.9295 64.6217 51.8271C64.6494 51.5844 64.6638 51.3403 64.6638 51.0947C64.6638 49.0376 63.6624 47.0209 61.7678 45.2627ZM76.7427 40.1753C76.6119 40.376 76.5658 40.62 76.614 40.8545C76.9981 42.7188 76.4259 44.6331 75.0867 45.9723L75.0767 45.9818C75.0629 45.9946 75.0491 46.0076 75.0355 46.0209C74.862 46.1905 74.7635 46.4225 74.7621 46.6652C74.7496 48.8593 73.8885 50.9219 72.3375 52.473C70.0846 54.7258 66.7293 55.468 63.7623 54.4394C63.7677 54.4296 63.7729 54.4199 63.7783 54.4101C66.1823 53.3394 68.0465 51.412 69.0329 48.9671C69.6319 47.482 69.8658 45.9094 69.7356 44.3567L71.658 42.4342C72.0126 42.0795 72.0126 41.5043 71.658 41.1498C71.3033 40.7951 70.7281 40.7951 70.3735 41.1498L69.3144 42.2089C69.2552 42.0186 69.1925 41.829 69.1218 41.6412C69.6998 40.0317 69.7013 38.2987 69.1574 36.7159C70.1378 36.3565 71.2127 36.2732 72.2458 36.4861C72.4803 36.5344 72.7243 36.4881 72.9248 36.3574C74.0096 35.6505 75.4626 35.8031 76.3799 36.7202C77.2971 37.6376 77.4496 39.0904 76.7427 40.1753Z" fill="#2BB04C" stroke="#ECECEC" stroke-width="0.8" mask="url(#path-3-inside-2_655_3617)"/>
</g>
<path d="M25.6781 47.8494H25.6894C26.0805 47.8494 26.3977 48.1666 26.3977 48.5577C26.3977 48.9488 26.0806 49.2659 25.6893 49.2659C25.2964 49.2659 24.9754 48.9472 24.9754 48.5577C24.9754 48.1649 25.2886 47.8494 25.6781 47.8494Z" fill="#636466" stroke="#ECECEC" stroke-width="0.4"/>
<path d="M26.9299 50.5997H26.9411C27.3322 50.5997 27.6494 50.9167 27.6496 51.3081C27.6495 51.6991 27.3324 52.0162 26.9412 52.0162C26.5484 52.0162 26.2273 51.6975 26.2273 51.308C26.2273 50.9151 26.5404 50.5997 26.9299 50.5997Z" fill="#636466" stroke="#ECECEC" stroke-width="0.4"/>
<path d="M46.6838 32.4007H46.6731H46.6731H46.6731H46.6731H46.6731H46.6731H46.6731H46.673H46.673H46.673H46.673H46.673H46.673H46.673H46.673H46.673H46.673H46.6729H46.6729H46.6729H46.6729H46.6729H46.6729H46.6729H46.6729H46.6729H46.6729H46.6728H46.6728H46.6728H46.6728H46.6728H46.6728H46.6728H46.6728H46.6728H46.6728H46.6727H46.6727H46.6727H46.6727H46.6727H46.6727H46.6727H46.6727H46.6727H46.6727H46.6726H46.6726H46.6726H46.6726H46.6726H46.6726H46.6726H46.6726H46.6726H46.6726H46.6726H46.6725H46.6725H46.6725H46.6725H46.6725H46.6725H46.6725H46.6725H46.6725H46.6725H46.6724H46.6724H46.6724H46.6724H46.6724H46.6724H46.6724H46.6724H46.6724H46.6724H46.6723H46.6723H46.6723H46.6723H46.6723H46.6723H46.6723H46.6723H46.6723H46.6723H46.6722H46.6722H46.6722H46.6722H46.6722H46.6722H46.6722H46.6722H46.6722H46.6722H46.6722H46.6721H46.6721H46.6721H46.6721H46.6721H46.6721H46.6721H46.6721H46.6721H46.6721H46.672H46.672H46.672H46.672H46.672H46.672H46.672H46.672H46.672H46.672H46.6719H46.6719H46.6719H46.6719H46.6719H46.6719H46.6719H46.6719H46.6719H46.6719H46.6719H46.6718H46.6718H46.6718H46.6718H46.6718H46.6718H46.6718H46.6718H46.6718H46.6718H46.6717H46.6717H46.6717H46.6717H46.6717H46.6717H46.6717H46.6717H46.6717H46.6717H46.6716H46.6716H46.6716H46.6716H46.6716H46.6716H46.6716H46.6716H46.6716H46.6716H46.6716H46.6715H46.6715H46.6715H46.6715H46.6715H46.6715H46.6715H46.6715H46.6715H46.6715H46.6714H46.6714H46.6714H46.6714H46.6714H46.6714H46.6714H46.6714H46.6714H46.6714H46.6714H46.6713H46.6713H46.6713H46.6713H46.6713H46.6713H46.6713H46.6713H46.6713H46.6713H46.6712H46.6712H46.6712H46.6712H46.6712H46.6712H46.6712H46.6712H46.6712H46.6712H46.6711H46.6711H46.6711H46.6711H46.6711H46.6711H46.6711H46.6711H46.6711H46.6711H46.6711H46.671H46.671H46.671H46.671H46.671H46.671H46.671H46.671H46.671H46.671H46.6709H46.6709H46.6709H46.6709H46.6709H46.6709H46.6709H46.6709H46.6709H46.6709H46.6709H46.6708H46.6708H46.6708H46.6708H46.6708H46.6708H46.6708H46.6708H46.6708H46.6708H46.6707H46.6707H46.6707H46.6707H46.6707H46.6707H46.6707H46.6707H46.6707H46.6707H46.6707H46.6706H46.6706H46.6706H46.6706H46.6706H46.6706H46.6706H46.6706H46.6706H46.6706H46.6705H46.6705H46.6705H46.6705H46.6705H46.6705H46.6705H46.6705H46.6705H46.6705H46.6704H46.6704H46.6704H46.6704H46.6704H46.6704H46.6704H46.6704H46.6704H46.6704H46.6704H46.6703H46.6703H46.6703H46.6703H46.6703H46.6703H46.6703H46.6703H46.6703H46.6703H46.6702H46.6702H46.6702H46.6702H46.6702H46.6702H46.6702H46.6702H46.6702H46.6702H46.6702H46.6701H46.6701H46.6701H46.6701H46.6701H46.6701H46.6701H46.6701H46.6701H46.6701H46.67H46.67H46.67H46.67H46.67H46.67H46.67H46.67H46.67H46.67H46.67H46.6699H46.6699H46.6699H46.6699H46.6699H46.6699H46.6699H46.6699H46.6699H46.6699H46.6698H46.6698H46.6698H46.6698H46.6698H46.6698H46.6698H46.6698H46.6698H46.6698H46.6697H46.6697H46.6697H46.6697H46.6697H46.6697H46.6697H46.6697H46.6697H46.6697H46.6697H46.6696H46.6696H46.6696H46.6696H46.6696H46.6696H46.6696H46.6696H46.6696H46.6696H46.6695H46.6695H46.6695H46.6695H46.6695H46.6695H46.6695H46.6695H46.6695H46.6695H46.6694H46.6694H46.6694H46.6694H46.6694H46.6694H46.6694H46.6694H46.6694H46.6694H46.6694H46.6693H46.6693H46.6693H46.6693H46.6693H46.6693H46.6693H46.6693H46.6693H46.6693H46.6692H46.6692H46.6692H46.6692H46.6692H46.6692H46.6692H46.6692H46.6692H46.6692H46.6691H46.6691H46.6691H46.6691H46.6691H46.6691H46.6691H46.6691H46.6691H46.6691H46.6691H46.669H46.669H46.669H46.669H46.669H46.669H46.669H46.669H46.669H46.669H46.6689H46.6689H46.6689H46.6689H46.6689H46.6689H46.6689H46.6689H46.6689H46.6689H46.6688H46.6688H46.6688H46.6688H46.6688H46.6688H46.6688H46.6688H46.6688H46.6688H46.6688H46.6687H46.6687H46.6687H46.6687H46.6687H46.6687H46.6687H46.6687H46.6687H46.6687H46.6686H46.6686H46.6686H46.6686H46.6686H46.6686H46.6686H46.6686H46.6686H46.6686H46.6685H46.6685H46.6685H46.6685H46.6685H46.6685H46.6685H46.6685H46.6685H46.6685H46.6684H46.6684H46.6684H46.6684H46.6684H46.6684H46.6684H46.6684H46.6684H46.6684H46.6683H46.6683H46.6683H46.6683H46.6683H46.6683H46.6683H46.6683H46.6683H46.6683H46.6682H46.6682H46.6682H46.6682H46.6682H46.6682H46.6682H46.6682H46.6682H46.6682H46.6681C46.2805 32.4007 45.9676 32.7138 45.9656 33.1053L46.6838 32.4007ZM46.6838 32.4007C47.0746 32.403 47.3899 32.7218 47.388 33.1129C47.3858 33.5027 47.069 33.8173 46.6798 33.8173L46.6795 33.8173C46.6786 33.8173 46.6758 33.8173 46.6718 33.8174C46.2808 33.813 45.9637 33.4935 45.9656 33.1053L46.6838 32.4007Z" fill="#636466" stroke="#ECECEC" stroke-width="0.4"/>
<path d="M30.4433 20.8365H30.4321C30.0425 20.8365 29.7293 21.152 29.7293 21.5447C29.7293 21.9342 30.0504 22.253 30.4432 22.253C30.8343 22.253 31.1515 21.9359 31.1515 21.5447L30.4433 20.8365ZM30.4433 20.8365C30.8344 20.8365 31.1514 21.1535 31.1515 21.5447L30.4433 20.8365Z" fill="#636466" stroke="#ECECEC" stroke-width="0.4"/>
<path d="M41.2047 10.8091C40.8122 10.8107 40.499 11.1226 40.4969 11.5137L41.2047 10.8091ZM41.2047 10.8091H41.2151C41.6059 10.8115 41.9211 11.1301 41.9191 11.5212L41.2047 10.8091ZM41.2031 12.2259C40.8121 12.2215 40.4949 11.902 40.4969 11.5138L41.2031 12.2259ZM41.2031 12.2259C41.2077 12.2257 41.2108 12.2258 41.2109 12.2258H41.2109C41.6002 12.2258 41.917 11.9111 41.9191 11.5213L41.2031 12.2259Z" fill="#636466" stroke="#ECECEC" stroke-width="0.4"/>
<path d="M43.1632 12.3985H43.1739C43.5649 12.4008 43.8801 12.7195 43.8781 13.1104C43.8761 13.5003 43.5593 13.815 43.1699 13.815H43.1699C43.1698 13.815 43.1666 13.815 43.162 13.8151C42.771 13.8108 42.4538 13.4912 42.4559 13.103L42.4559 13.103C42.4579 12.7116 42.7707 12.3985 43.1584 12.3985H43.1584H43.1584H43.1584H43.1584H43.1584H43.1584H43.1585H43.1585H43.1585H43.1585H43.1585H43.1585H43.1585H43.1585H43.1585H43.1585H43.1586H43.1586H43.1586H43.1586H43.1586H43.1586H43.1586H43.1586H43.1586H43.1586H43.1587H43.1587H43.1587H43.1587H43.1587H43.1587H43.1587H43.1587H43.1587H43.1587H43.1587H43.1588H43.1588H43.1588H43.1588H43.1588H43.1588H43.1588H43.1588H43.1588H43.1588H43.1589H43.1589H43.1589H43.1589H43.1589H43.1589H43.1589H43.1589H43.1589H43.1589H43.159H43.159H43.159H43.159H43.159H43.159H43.159H43.159H43.159H43.159H43.1591H43.1591H43.1591H43.1591H43.1591H43.1591H43.1591H43.1591H43.1591H43.1591H43.1592H43.1592H43.1592H43.1592H43.1592H43.1592H43.1592H43.1592H43.1592H43.1592H43.1592H43.1593H43.1593H43.1593H43.1593H43.1593H43.1593H43.1593H43.1593H43.1593H43.1593H43.1594H43.1594H43.1594H43.1594H43.1594H43.1594H43.1594H43.1594H43.1594H43.1594H43.1595H43.1595H43.1595H43.1595H43.1595H43.1595H43.1595H43.1595H43.1595H43.1595H43.1595H43.1596H43.1596H43.1596H43.1596H43.1596H43.1596H43.1596H43.1596H43.1596H43.1596H43.1597H43.1597H43.1597H43.1597H43.1597H43.1597H43.1597H43.1597H43.1597H43.1597H43.1598H43.1598H43.1598H43.1598H43.1598H43.1598H43.1598H43.1598H43.1598H43.1598H43.1598H43.1599H43.1599H43.1599H43.1599H43.1599H43.1599H43.1599H43.1599H43.1599H43.1599H43.16H43.16H43.16H43.16H43.16H43.16H43.16H43.16H43.16H43.16H43.16H43.1601H43.1601H43.1601H43.1601H43.1601H43.1601H43.1601H43.1601H43.1601H43.1601H43.1602H43.1602H43.1602H43.1602H43.1602H43.1602H43.1602H43.1602H43.1602H43.1602H43.1602H43.1603H43.1603H43.1603H43.1603H43.1603H43.1603H43.1603H43.1603H43.1603H43.1603H43.1604H43.1604H43.1604H43.1604H43.1604H43.1604H43.1604H43.1604H43.1604H43.1604H43.1604H43.1605H43.1605H43.1605H43.1605H43.1605H43.1605H43.1605H43.1605H43.1605H43.1605H43.1605H43.1606H43.1606H43.1606H43.1606H43.1606H43.1606H43.1606H43.1606H43.1606H43.1606H43.1607H43.1607H43.1607H43.1607H43.1607H43.1607H43.1607H43.1607H43.1607H43.1607H43.1607H43.1608H43.1608H43.1608H43.1608H43.1608H43.1608H43.1608H43.1608H43.1608H43.1608H43.1609H43.1609H43.1609H43.1609H43.1609H43.1609H43.1609H43.1609H43.1609H43.1609H43.1609H43.161H43.161H43.161H43.161H43.161H43.161H43.161H43.161H43.161H43.161H43.161H43.1611H43.1611H43.1611H43.1611H43.1611H43.1611H43.1611H43.1611H43.1611H43.1611H43.1612H43.1612H43.1612H43.1612H43.1612H43.1612H43.1612H43.1612H43.1612H43.1612H43.1612H43.1613H43.1613H43.1613H43.1613H43.1613H43.1613H43.1613H43.1613H43.1613H43.1613H43.1613H43.1614H43.1614H43.1614H43.1614H43.1614H43.1614H43.1614H43.1614H43.1614H43.1614H43.1615H43.1615H43.1615H43.1615H43.1615H43.1615H43.1615H43.1615H43.1615H43.1615H43.1615H43.1616H43.1616H43.1616H43.1616H43.1616H43.1616H43.1616H43.1616H43.1616H43.1616H43.1616H43.1617H43.1617H43.1617H43.1617H43.1617H43.1617H43.1617H43.1617H43.1617H43.1617H43.1617H43.1618H43.1618H43.1618H43.1618H43.1618H43.1618H43.1618H43.1618H43.1618H43.1618H43.1619H43.1619H43.1619H43.1619H43.1619H43.1619H43.1619H43.1619H43.1619H43.1619H43.1619H43.162H43.162H43.162H43.162H43.162H43.162H43.162H43.162H43.162H43.162H43.162H43.1621H43.1621H43.1621H43.1621H43.1621H43.1621H43.1621H43.1621H43.1621H43.1621H43.1621H43.1622H43.1622H43.1622H43.1622H43.1622H43.1622H43.1622H43.1622H43.1622H43.1622H43.1622H43.1623H43.1623H43.1623H43.1623H43.1623H43.1623H43.1623H43.1623H43.1623H43.1623H43.1624H43.1624H43.1624H43.1624H43.1624H43.1624H43.1624H43.1624H43.1624H43.1624H43.1624H43.1625H43.1625H43.1625H43.1625H43.1625H43.1625H43.1625H43.1625H43.1625H43.1625H43.1625H43.1626H43.1626H43.1626H43.1626H43.1626H43.1626H43.1626H43.1626H43.1626H43.1626H43.1626H43.1627H43.1627H43.1627H43.1627H43.1627H43.1627H43.1627H43.1627H43.1627H43.1627H43.1627H43.1628H43.1628H43.1628H43.1628H43.1628H43.1628H43.1628H43.1628H43.1628H43.1628H43.1628H43.1629H43.1629H43.1629H43.1629H43.1629H43.1629H43.1629H43.1629H43.1629H43.1629H43.163H43.163H43.163H43.163H43.163H43.163H43.163H43.163H43.163H43.163H43.163H43.1631H43.1631H43.1631H43.1631H43.1631H43.1631H43.1631H43.1631H43.1631H43.1631H43.1631H43.1632H43.1632H43.1632H43.1632H43.1632H43.1632H43.1632H43.1632H43.1632Z" fill="#636466" stroke="#ECECEC" stroke-width="0.4"/>
</g>
<defs>
<clipPath id="clip0_655_3617">
<rect width="62" height="59" fill="white" transform="translate(17 6)"/>
</clipPath>
</defs>
</svg>
