<svg width="185" height="90" viewBox="0 0 185 90" fill="none" xmlns="http://www.w3.org/2000/svg">
<path d="M11.7121 18.686L11.6829 20.4275H7.21479V22.7593H10.69V24.4713H7.21479V27.1573H5.375V18.686H11.7121ZM28.241 20.398H24.7074C24.357 20.398 24.065 20.5161 23.8897 20.8112C23.7437 21.0474 23.8021 21.4606 24.0065 21.6672C24.3278 21.9919 24.4738 21.9624 25.7003 21.9919C25.8755 21.9624 26.0216 21.9624 26.1676 21.9919C27.1605 22.0509 28.1534 22.7003 28.4746 23.7038C28.8543 24.796 28.4746 25.9176 27.6569 26.6555C27.1313 27.0687 26.7516 27.1573 25.8463 27.1868H22.0207V25.4453H25.1747C25.6711 25.4453 26.6056 25.5634 26.8392 24.8845C26.9269 24.5893 26.9561 24.058 26.372 23.7924C25.4083 23.4972 24.0357 23.94 23.2765 23.3496C22.5172 22.9069 21.9915 22.0804 22.0207 21.1654C22.0499 20.2504 22.5172 19.3649 23.3641 18.9517C23.8605 18.7451 24.4738 18.686 24.941 18.686H28.241V20.398ZM34.2568 22.3461C33.994 22.7298 33.5851 22.8184 33.1471 22.8774V25.0616C33.702 25.9766 34.432 27.1868 34.432 27.1868H36.5055C36.5055 27.1868 35.0161 24.6189 34.7825 24.1761C35.1621 24.0285 35.6002 23.7334 35.8922 23.3792C36.447 22.5527 36.5639 21.254 36.0966 20.339C35.571 19.2468 34.4028 18.7156 33.3223 18.7156H33.1763V20.457C33.6436 20.4865 34.1108 20.6636 34.4028 21.1064C34.5196 21.4606 34.4904 22.0214 34.2568 22.3461ZM33.1179 22.8774H32.5922C32.271 22.8479 31.8038 22.8774 31.8038 22.8774V20.457C32.1542 20.4865 32.6506 20.4275 33.1471 20.4865V18.7451L29.964 18.7156V27.2163H31.8038V24.5008H32.7967L33.1471 25.0616L33.1179 22.8774Z" fill="white"/>
<path d="M13.32 32.5293V32.6178C13.3492 36.455 15.8315 40.2036 19.3943 41.6204C20.7376 42.2402 22.081 42.3878 23.7163 42.3878H23.95V49.6194C23.95 49.6194 23.5703 49.6489 23.3367 49.6489C16.6492 49.7965 10.3413 45.7232 7.65465 39.4952C7.1874 38.4326 6.83696 37.3405 6.54493 36.2189L6.51573 36.0713H3.50781V32.5293H11.6555H13.32Z" fill="#E40520"/>
<path d="M13.32 32.5293V32.6178C13.3492 36.455 15.8315 40.2036 19.3943 41.6204C20.7376 42.2402 22.081 42.3878 23.7163 42.3878H23.95V49.6194C23.95 49.6194 23.5703 49.6489 23.3367 49.6489C16.6492 49.7965 10.3413 45.7232 7.65465 39.4952C7.1874 38.4326 6.83696 37.3405 6.54493 36.2189L6.51573 36.0713H3.50781V32.5293H11.6555H13.32Z" fill="white"/>
<path d="M56.891 36.1008H54.2336V49.5603H38.1719V42.3878H47.0496V32.5293H56.891V36.1008Z" fill="#E40520"/>
<path d="M56.891 36.1008H54.2336V49.5603H38.1719V42.3878H47.0496V32.5293H56.891V36.1008Z" fill="white"/>
<path d="M34.6683 34.3003V42.4469L27.4844 42.4173V34.3003H34.6683Z" fill="#E40520"/>
<path d="M34.6683 34.3003V42.4469L27.4844 42.4173V34.3003H34.6683Z" fill="white"/>
<path d="M34.6675 49.7078V55.8768H34.7551C38.3763 55.7292 41.9098 56.1424 44.8301 57.8249C49.0062 60.0976 52.1601 64.4661 52.9778 69.0412C53.007 69.1887 53.0362 69.3658 53.0362 69.3658L56.8618 69.3954V73.8228H46.2027C46.2027 73.8228 46.1735 73.8524 46.1735 73.6753C46.3195 71.2549 45.8814 69.0116 44.6257 67.1226C42.7859 64.4366 39.9532 63.0493 36.7993 63.1083H27.4835V71.1368H7.85907V73.7048H3.50781V63.9053H20.358V53.1908H27.5127V43.8931L34.6675 49.7078Z" fill="#E40520"/>
<path d="M34.6675 49.7078V55.8768H34.7551C38.3763 55.7292 41.9098 56.1424 44.8301 57.8249C49.0062 60.0976 52.1601 64.4661 52.9778 69.0412C53.007 69.1887 53.0362 69.3658 53.0362 69.3658L56.8618 69.3954V73.8228H46.2027C46.2027 73.8228 46.1735 73.8524 46.1735 73.6753C46.3195 71.2549 45.8814 69.0116 44.6257 67.1226C42.7859 64.4366 39.9532 63.0493 36.7993 63.1083H27.4835V71.1368H7.85907V73.7048H3.50781V63.9053H20.358V53.1908H27.5127V43.8931L34.6675 49.7078Z" fill="white"/>
<path d="M41.9121 25.5339V27.423C44.3652 27.423 46.3802 25.3863 46.3802 22.9069C46.3802 20.398 44.3652 18.4204 41.9121 18.4204V20.28C43.3431 20.28 44.5112 21.4606 44.5112 22.9364C44.5112 24.3532 43.3431 25.5339 41.9121 25.5339ZM41.9121 25.5339C40.4812 25.5339 39.2838 24.3532 39.2838 22.9069C39.2838 21.4606 40.452 20.2504 41.9121 20.2504V18.4204C39.4299 18.4204 37.4148 20.398 37.4148 22.9069C37.4148 25.3863 39.4299 27.423 41.9121 27.423V25.5339ZM53.7394 24.9436C53.2721 25.3863 52.6004 25.652 51.8996 25.652C50.4102 25.652 49.2129 24.4123 49.2129 22.9364C49.2129 21.4311 50.4394 20.2209 51.8996 20.2209C52.5712 20.2209 53.2429 20.4275 53.6809 20.8112L54.8491 19.5125C54.0606 18.8336 53.0093 18.4204 51.8704 18.4204C49.3881 18.4204 47.3731 20.398 47.3731 22.9069C47.3731 25.3863 49.3881 27.423 51.8704 27.423C53.0093 27.423 54.0606 26.9802 54.8491 26.2423L53.7394 24.9436ZM16.6223 25.5339L16.5931 27.423H16.6223C19.0753 27.423 21.0903 25.3863 21.0903 22.9069C21.0903 20.398 19.0753 18.4204 16.6223 18.4204H16.5931V20.28H16.6223C18.0532 20.28 19.2213 21.4606 19.2213 22.9364C19.2213 24.3532 18.024 25.5339 16.6223 25.5339ZM16.5931 25.5339C15.1621 25.5339 13.994 24.3532 13.994 22.9069C13.994 21.4606 15.1621 20.2504 16.5931 20.2504V18.4204C14.14 18.4204 12.125 20.398 12.125 22.9069C12.125 25.3863 14.14 27.423 16.5931 27.423V25.5339Z" fill="white"/>
<path d="M69.6801 71.4321L70.7606 71.5501C70.4686 72.3471 70.089 72.9669 69.5925 73.3506C69.0669 73.7639 68.512 73.941 67.8695 73.941C67.1979 73.941 66.643 73.7048 66.205 73.2621C65.7669 72.8193 65.5625 72.17 65.5625 71.373C65.5625 70.6942 65.6793 69.9562 65.9713 69.2774C66.2634 68.5985 66.643 68.0672 67.1687 67.713C67.6943 67.3588 68.2784 67.1817 68.9209 67.1817C69.5925 67.1817 70.1474 67.3883 70.5562 67.772C70.9651 68.1852 71.1403 68.687 71.1403 69.3364L70.0598 69.4249C70.0598 69.0117 69.943 68.687 69.7093 68.4509C69.4757 68.2148 69.1837 68.0967 68.804 68.0967C68.366 68.0967 68.0156 68.2148 67.6359 68.5099C67.3147 68.8051 67.0811 69.1888 66.8766 69.8087C66.6722 70.3695 66.5846 70.9303 66.5846 71.4616C66.5846 72.0224 66.7014 72.4356 66.935 72.7013C67.1687 72.9964 67.4607 73.1145 67.8111 73.1145C68.1616 73.1145 68.4828 72.9964 68.804 72.7013C69.2129 72.4061 69.5049 71.9634 69.6801 71.4321ZM71.6075 71.314C71.6075 70.0743 71.958 69.0117 72.7172 68.1852C73.3013 67.5064 74.119 67.1817 75.1119 67.1817C75.8712 67.1817 76.5136 67.4178 76.9809 67.9196C77.4481 68.4214 77.711 69.0412 77.711 69.8972C77.711 70.6351 77.565 71.3435 77.2729 71.9634C76.9809 72.6127 76.5428 73.085 75.988 73.4097C75.4331 73.7344 74.8783 73.941 74.265 73.941C73.7978 73.941 73.3013 73.8229 72.9217 73.6163C72.5128 73.4097 72.1916 73.085 72.0164 72.7013C71.7243 72.288 71.6075 71.8453 71.6075 71.314ZM72.688 71.2255C72.688 71.8158 72.8341 72.3176 73.1261 72.5832C73.4181 72.9079 73.7686 73.0555 74.2358 73.0555C74.4694 73.0555 74.7031 73.026 74.9075 72.9079C75.1119 72.7898 75.3455 72.6718 75.5499 72.4651C75.7544 72.2585 75.9004 72.0519 76.0756 71.7863C76.1924 71.5501 76.3092 71.255 76.3968 70.9893C76.5136 70.5761 76.6013 70.1924 76.6013 69.8087C76.6013 69.2478 76.4552 68.7756 76.1632 68.4509C75.8712 68.1262 75.5207 67.9786 75.0535 67.9786C74.7031 67.9786 74.411 68.0672 74.1482 68.2148C73.8562 68.3623 73.6225 68.628 73.3889 68.9527C73.1553 69.2774 72.9801 69.6316 72.8633 70.0448C72.7757 70.5171 72.688 70.8713 72.688 71.2255ZM78.2658 73.7639L79.58 67.3293H80.5729L80.3392 68.4509C80.7773 68.0081 81.1861 67.6835 81.5366 67.4769C81.887 67.2702 82.2959 67.1522 82.7047 67.1522C83.2304 67.1522 83.61 67.2998 83.9312 67.5949C84.2525 67.8901 84.3693 68.2443 84.3693 68.7165C84.3693 68.9527 84.3401 69.3069 84.2233 69.8382L83.4348 73.7344H82.3543L83.2011 69.6316C83.2888 69.2183 83.318 68.9527 83.318 68.7461C83.318 68.5394 83.2303 68.3328 83.0843 68.2148C82.9383 68.0967 82.7339 68.0081 82.4419 68.0081C81.887 68.0081 81.4198 68.2148 80.9817 68.5985C80.5437 68.9822 80.2224 69.6906 80.018 70.6942L79.3755 73.7048L78.2658 73.7639ZM85.2162 71.5501L86.2967 71.4616C86.2967 71.7863 86.3259 72.0519 86.4427 72.2585C86.5303 72.4947 86.7347 72.6718 86.9683 72.8193C87.202 72.9669 87.5232 73.026 87.8736 73.026C88.3409 73.026 88.7205 72.9374 88.9542 72.7308C89.1878 72.5242 89.3046 72.288 89.3046 72.0519C89.3046 71.8453 89.217 71.6977 89.1002 71.5206C88.9542 71.373 88.5745 71.1664 88.0196 70.8713C87.4648 70.6351 87.056 70.4285 86.9099 70.34C86.6179 70.1924 86.4427 69.9858 86.3259 69.7496C86.2091 69.5135 86.1215 69.2774 86.1215 68.9822C86.1215 68.4509 86.3259 68.0081 86.7055 67.6539C87.1144 67.2997 87.6692 67.0931 88.3701 67.0931C89.1586 67.0931 89.7718 67.2997 90.2099 67.6539C90.6479 68.0081 90.8523 68.5394 90.8523 69.1298L89.7718 69.2183C89.7718 68.8051 89.6258 68.5394 89.363 68.3033C89.1002 68.0672 88.7205 67.9786 88.2825 67.9786C87.932 67.9786 87.6108 68.0672 87.4064 68.2148C87.202 68.3623 87.0852 68.569 87.0852 68.7756C87.0852 68.9822 87.1728 69.1298 87.3772 69.3069C87.494 69.4249 87.8152 69.602 88.2825 69.7791C89.1294 70.1333 89.6258 70.4285 89.8886 70.6351C90.2391 70.9598 90.4143 71.4025 90.4143 71.8453C90.4143 72.17 90.3267 72.4947 90.1223 72.7603C89.9179 73.085 89.655 73.3211 89.2462 73.4982C88.8373 73.6753 88.3701 73.7934 87.8444 73.7934C87.0851 73.7934 86.5011 73.5868 85.9754 73.2326C85.4498 72.9964 85.2162 72.4061 85.2162 71.5501ZM93.8019 72.8784L93.5974 73.7639C93.3054 73.8524 93.0718 73.8819 92.8382 73.8819C92.4001 73.8819 92.0497 73.7639 91.816 73.5573C91.6116 73.4097 91.524 73.2031 91.524 72.9079C91.524 72.7603 91.5532 72.4356 91.67 71.9338L92.4293 68.1852H91.5532L91.6992 67.3293H92.5753L92.8966 65.7649L94.1231 64.9975L93.6558 67.3293H94.7364L94.5319 68.1852H93.4514L92.6921 71.7567C92.6045 72.1995 92.5753 72.4947 92.5753 72.5537C92.5753 72.6718 92.6045 72.7898 92.6921 72.8489C92.7797 72.9374 92.8966 72.9669 93.0426 72.9669C93.4222 72.9669 93.5974 72.9374 93.8019 72.8784ZM94.678 73.7639L95.9921 67.3293H96.9558L96.6638 68.6575C96.985 68.1852 97.3062 67.772 97.6275 67.5654C97.9487 67.3293 98.2699 67.2112 98.5912 67.2112C98.7956 67.2112 99.0584 67.2998 99.3796 67.4473L98.9416 68.4509C98.7372 68.3328 98.5328 68.2443 98.2991 68.2443C97.8903 68.2443 97.5398 68.4509 97.131 68.8936C96.7222 69.3364 96.4009 70.1038 96.1673 71.1959L95.6124 73.7639H94.678ZM103.118 72.6127C102.358 73.4982 101.57 73.941 100.781 73.941C100.314 73.941 99.9053 73.7934 99.5841 73.4982C99.2628 73.2031 99.146 72.8489 99.146 72.4651C99.146 72.17 99.2336 71.7272 99.3504 71.0483L100.11 67.3588H101.19L100.343 71.4616C100.256 71.8158 100.227 72.0519 100.227 72.2585C100.227 72.4947 100.314 72.7013 100.431 72.8193C100.577 72.9374 100.781 73.026 101.073 73.026C101.395 73.026 101.657 72.9374 101.95 72.7898C102.242 72.6422 102.504 72.4356 102.709 72.1995C102.913 71.9634 103.118 71.6387 103.234 71.314C103.322 71.0779 103.439 70.7237 103.556 70.1333L104.111 67.3588H105.191L103.877 73.7934H102.884L103.118 72.6127ZM110.01 71.4321L111.09 71.5501C110.798 72.3471 110.418 72.9669 109.922 73.3506C109.396 73.7639 108.841 73.941 108.199 73.941C107.527 73.941 106.914 73.7048 106.534 73.2621C106.096 72.8193 105.892 72.17 105.892 71.373C105.892 70.6942 106.009 69.9562 106.301 69.2774C106.593 68.5985 106.972 68.0672 107.498 67.713C108.024 67.3588 108.608 67.1817 109.25 67.1817C109.922 67.1817 110.477 67.3883 110.886 67.772C111.294 68.1852 111.47 68.687 111.47 69.3364L110.389 69.4249C110.389 69.0117 110.272 68.687 110.039 68.4509C109.805 68.2148 109.513 68.0967 109.133 68.0967C108.695 68.0967 108.345 68.2148 107.965 68.5099C107.644 68.8051 107.41 69.1888 107.206 69.8087C107.002 70.3695 106.914 70.9303 106.914 71.4616C106.914 72.0224 107.031 72.4356 107.264 72.7013C107.498 72.9964 107.79 73.1145 108.141 73.1145C108.491 73.1145 108.812 72.9964 109.133 72.7013C109.513 72.4356 109.834 71.9634 110.01 71.4321ZM114.332 72.8784L114.127 73.7639C113.835 73.8524 113.602 73.8819 113.368 73.8819C112.93 73.8819 112.579 73.7639 112.346 73.5573C112.141 73.4097 112.054 73.2031 112.054 72.9079C112.054 72.7603 112.083 72.4356 112.2 71.9338L112.959 68.1852H112.083L112.229 67.3293H113.105L113.426 65.7649L114.653 64.9975L114.186 67.3293H115.266L115.062 68.1852H113.981L113.222 71.7567C113.134 72.1995 113.105 72.4947 113.105 72.5537C113.105 72.6718 113.134 72.7898 113.222 72.8489C113.31 72.9374 113.426 72.9669 113.572 72.9669C113.923 72.9669 114.127 72.9374 114.332 72.8784ZM115.149 73.7639L116.463 67.3293H117.544L116.23 73.7639H115.149ZM116.755 66.1191L116.989 64.8794H118.07L117.836 66.1191H116.755ZM119.53 73.7639L118.508 67.3293H119.588L120.143 70.8713C120.231 71.2845 120.26 71.8748 120.377 72.7603C120.581 72.3176 120.844 71.7863 121.165 71.1959L123.326 67.3293H124.494L120.844 73.7639H119.53ZM128.787 71.6092L129.868 71.7272C129.722 72.2585 129.342 72.7603 128.846 73.2621C128.291 73.7344 127.648 74 126.889 74C126.422 74 125.984 73.8819 125.575 73.6753C125.166 73.4687 124.903 73.144 124.669 72.7013C124.436 72.2585 124.348 71.8158 124.348 71.255C124.348 70.5171 124.494 69.8972 124.816 69.1888C125.137 68.5394 125.575 68.0081 126.042 67.713C126.568 67.3883 127.123 67.2407 127.707 67.2407C128.466 67.2407 129.05 67.4769 129.546 67.9786C129.984 68.4509 130.218 69.1003 130.218 69.9562C130.218 70.2809 130.189 70.6056 130.13 70.9303H125.429C125.429 71.0484 125.4 71.1664 125.4 71.255C125.4 71.8453 125.516 72.288 125.808 72.6127C126.1 72.9374 126.392 73.085 126.801 73.085C127.152 73.085 127.561 72.9669 127.911 72.7308C128.261 72.4356 128.553 72.0519 128.787 71.6092ZM125.604 69.9858H129.196V69.7496C129.196 69.1888 129.079 68.7756 128.787 68.5099C128.495 68.2148 128.145 68.0672 127.765 68.0672C127.298 68.0672 126.889 68.2148 126.48 68.5394C126.071 68.8641 125.808 69.3364 125.604 69.9858ZM134.453 71.5501L135.533 71.4616C135.533 71.7863 135.562 72.0519 135.679 72.2585C135.767 72.4947 135.971 72.6718 136.205 72.8193C136.438 72.9669 136.76 73.026 137.11 73.026C137.577 73.026 137.957 72.9374 138.191 72.7308C138.424 72.5242 138.541 72.288 138.541 72.0519C138.541 71.8453 138.453 71.6977 138.337 71.5206C138.191 71.373 137.811 71.1664 137.256 70.8713C136.701 70.6351 136.292 70.4285 136.146 70.34C135.854 70.1924 135.679 69.9858 135.562 69.7496C135.445 69.5135 135.358 69.2774 135.358 68.9822C135.358 68.4509 135.562 68.0081 135.942 67.6539C136.351 67.2997 136.906 67.0931 137.606 67.0931C138.395 67.0931 139.008 67.2997 139.446 67.6539C139.884 68.0081 140.089 68.5394 140.089 69.1298L139.008 69.2183C139.008 68.8051 138.862 68.5394 138.599 68.3033C138.366 68.0672 137.957 67.9786 137.519 67.9786C137.168 67.9786 136.847 68.0672 136.643 68.2148C136.438 68.3623 136.322 68.569 136.322 68.7756C136.322 68.9822 136.409 69.1298 136.614 69.3069C136.73 69.4249 137.052 69.602 137.519 69.7791C138.366 70.1333 138.862 70.4285 139.125 70.6351C139.475 70.9598 139.651 71.4025 139.651 71.8453C139.651 72.17 139.563 72.4947 139.359 72.7603C139.154 73.085 138.891 73.3211 138.483 73.4982C138.074 73.6753 137.606 73.7934 137.081 73.7934C136.322 73.7934 135.737 73.5868 135.212 73.2326C134.628 72.9964 134.394 72.4061 134.453 71.5501ZM140.702 71.314C140.702 70.0743 141.052 69.0117 141.812 68.1852C142.396 67.5064 143.213 67.1817 144.206 67.1817C144.966 67.1817 145.608 67.4178 146.075 67.9196C146.543 68.4214 146.805 69.0412 146.805 69.8972C146.805 70.6351 146.659 71.3435 146.367 71.9634C146.075 72.6127 145.637 73.085 145.082 73.4097C144.528 73.7344 143.973 73.941 143.359 73.941C142.892 73.941 142.396 73.8229 142.016 73.6163C141.607 73.4097 141.286 73.085 141.111 72.7013C140.76 72.288 140.702 71.8453 140.702 71.314ZM141.782 71.2255C141.782 71.8158 141.928 72.3176 142.221 72.5832C142.513 72.8784 142.863 73.0555 143.33 73.0555C143.564 73.0555 143.797 73.026 144.002 72.9079C144.206 72.7898 144.44 72.6718 144.644 72.4651C144.849 72.2585 144.995 72.0519 145.17 71.7863C145.316 71.4911 145.404 71.255 145.491 70.9893C145.608 70.5761 145.696 70.1924 145.696 69.8087C145.696 69.2478 145.55 68.7756 145.258 68.4509C144.966 68.1262 144.615 67.9786 144.148 67.9786C143.797 67.9786 143.505 68.0672 143.243 68.2148C142.951 68.3623 142.717 68.628 142.483 68.9527C142.25 69.2774 142.075 69.6316 141.958 70.0448C141.812 70.5171 141.782 70.8713 141.782 71.2255ZM147.273 73.7639L149.112 64.8794H150.193L148.353 73.7639H147.273ZM154.427 72.6127C153.668 73.4982 152.88 73.941 152.091 73.941C151.624 73.941 151.215 73.7934 150.894 73.4982C150.573 73.2031 150.456 72.8489 150.456 72.4651C150.456 72.17 150.543 71.7272 150.66 71.0483L151.419 67.3588H152.5L151.653 71.4616C151.566 71.8158 151.536 72.0519 151.536 72.2585C151.536 72.4947 151.624 72.7013 151.741 72.8193C151.887 72.9374 152.091 73.026 152.383 73.026C152.704 73.026 152.967 72.9374 153.259 72.7898C153.551 72.6422 153.814 72.4356 154.019 72.1995C154.223 71.9634 154.427 71.6387 154.544 71.314C154.632 71.0779 154.749 70.7237 154.865 70.1333L155.42 67.3588H156.501L155.187 73.7934H154.194L154.427 72.6127ZM159.45 72.8784L159.246 73.7639C158.954 73.8524 158.72 73.8819 158.487 73.8819C158.049 73.8819 157.698 73.7639 157.465 73.5573C157.26 73.4097 157.172 73.2031 157.172 72.9079C157.172 72.7603 157.202 72.4356 157.319 71.9338L158.078 68.1852H157.202L157.348 67.3293H158.224L158.545 65.7649L159.772 64.9975L159.304 67.3293H160.385L160.18 68.1852H159.1L158.341 71.7567C158.253 72.1995 158.224 72.4947 158.224 72.5537C158.224 72.6718 158.253 72.7898 158.341 72.8489C158.428 72.9374 158.545 72.9669 158.691 72.9669C159.071 72.9669 159.246 72.9374 159.45 72.8784ZM160.297 73.7639L161.611 67.3293H162.692L161.378 73.7639H160.297ZM161.874 66.1191L162.108 64.8794H163.188L162.955 66.1191H161.874ZM163.247 71.314C163.247 70.0743 163.597 69.0117 164.356 68.1852C164.941 67.5064 165.758 67.1817 166.751 67.1817C167.51 67.1817 168.153 67.4178 168.62 67.9196C169.087 68.3919 169.35 69.0412 169.35 69.8972C169.35 70.6351 169.204 71.3435 168.912 71.9634C168.62 72.6127 168.182 73.085 167.627 73.4097C167.072 73.7344 166.517 73.941 165.904 73.941C165.437 73.941 164.941 73.8229 164.561 73.6163C164.152 73.4097 163.831 73.085 163.656 72.7013C163.364 72.288 163.247 71.8453 163.247 71.314ZM164.356 71.2255C164.356 71.8158 164.502 72.3176 164.794 72.5832C165.087 72.9079 165.437 73.0555 165.904 73.0555C166.138 73.0555 166.371 73.026 166.576 72.9079C166.78 72.7898 167.014 72.6718 167.218 72.4651C167.423 72.2585 167.569 72.0519 167.744 71.7863C167.861 71.5501 167.978 71.255 168.065 70.9893C168.182 70.5761 168.27 70.1924 168.27 69.8087C168.27 69.2478 168.124 68.7756 167.832 68.4509C167.54 68.1262 167.189 67.9786 166.722 67.9786C166.371 67.9786 166.079 68.0672 165.817 68.2148C165.554 68.3623 165.291 68.628 165.057 68.9527C164.824 69.2774 164.648 69.6316 164.532 70.0448C164.386 70.5171 164.356 70.8713 164.356 71.2255ZM169.905 73.7639L171.219 67.3293H172.212L171.978 68.4509C172.416 68.0081 172.825 67.6835 173.176 67.4769C173.526 67.2702 173.935 67.1522 174.344 67.1522C174.87 67.1522 175.249 67.2998 175.57 67.5949C175.892 67.8901 176.008 68.2443 176.008 68.7165C176.008 68.9527 175.979 69.3069 175.862 69.8382L175.074 73.7344H173.993L174.84 69.6316C174.928 69.2183 174.957 68.9527 174.957 68.7461C174.957 68.5394 174.87 68.3328 174.724 68.2148C174.578 68.0967 174.373 68.0081 174.081 68.0081C173.526 68.0081 173.059 68.2148 172.621 68.5985C172.183 69.0117 171.862 69.6906 171.657 70.6942L171.015 73.7048L169.905 73.7639ZM176.855 71.5501L177.936 71.4616C177.936 71.7863 177.965 72.0519 178.082 72.2585C178.169 72.4947 178.374 72.6718 178.608 72.8193C178.841 72.9669 179.162 73.026 179.513 73.026C179.98 73.026 180.36 72.9374 180.593 72.7308C180.827 72.5242 180.944 72.288 180.944 72.0519C180.944 71.8453 180.856 71.6977 180.739 71.5206C180.593 71.373 180.214 71.1664 179.659 70.8713C179.104 70.6351 178.695 70.4285 178.549 70.34C178.257 70.1924 178.082 69.9858 177.965 69.7496C177.848 69.5135 177.761 69.2774 177.761 68.9822C177.761 68.4509 177.965 68.0081 178.345 67.6539C178.754 67.2997 179.308 67.0931 180.009 67.0931C180.798 67.0931 181.411 67.2997 181.849 67.6539C182.287 68.0081 182.492 68.5394 182.492 69.1298L181.411 69.2183C181.411 68.8051 181.265 68.5394 181.002 68.3033C180.739 68.0672 180.36 67.9786 179.922 67.9786C179.571 67.9786 179.25 68.0672 179.046 68.2148C178.841 68.3623 178.724 68.569 178.724 68.7756C178.724 68.9822 178.812 69.1298 179.016 69.3069C179.133 69.4249 179.454 69.602 179.922 69.7791C180.769 70.1333 181.265 70.4285 181.528 70.6351C181.878 70.9598 182.054 71.4025 182.054 71.8453C182.054 72.17 181.966 72.4947 181.761 72.7603C181.557 73.085 181.294 73.3211 180.885 73.4982C180.477 73.6458 180.009 73.7934 179.484 73.7934C178.724 73.7934 178.14 73.5868 177.615 73.2326C177.06 72.9964 176.826 72.4061 176.855 71.5501Z" fill="white"/>
</svg>
