<svg width="185" height="90" viewBox="0 0 185 90" fill="none" xmlns="http://www.w3.org/2000/svg">
<path d="M58.7418 18.5573V31.4733H8.47998V18.5847L58.7418 18.5573Z" fill="white"/>
<path d="M58.7418 18.5573V31.4733H8.47998V18.5847L58.7418 18.5573Z" stroke="white" stroke-width="2.73779" stroke-miterlimit="10"/>
<path d="M16.2063 21.0527L16.1788 22.6707H11.972V24.8371H15.2439V26.4276H11.972V28.923H10.2397V21.0527H16.2063ZM31.7687 22.6432H28.4418C28.1118 22.6432 27.8369 22.7529 27.6719 23.0272C27.5344 23.2465 27.5894 23.6305 27.7819 23.8224C28.0843 24.1241 28.2218 24.0966 29.3766 24.1241C29.5416 24.0966 29.6791 24.0966 29.8166 24.1241C30.7514 24.1789 31.6863 24.7822 31.9887 25.7146C32.3461 26.7292 31.9887 27.7713 31.2188 28.4569C30.7239 28.8408 30.3665 28.923 29.5141 28.9505H25.9122V27.3325H28.8817C29.3491 27.3325 30.229 27.4422 30.449 26.8115C30.5314 26.5373 30.5589 26.0437 30.009 25.7969C29.1017 25.5226 27.8094 25.934 27.0945 25.3855C26.3796 24.9742 25.8847 24.2063 25.9122 23.3562C25.9397 22.5061 26.3796 21.6835 27.177 21.2995C27.6444 21.1076 28.2218 21.0527 28.6617 21.0527H31.7687V22.6432ZM37.4328 24.4531C37.1854 24.8096 36.8004 24.8919 36.388 24.9468V26.976C36.9104 27.8261 37.5978 28.9505 37.5978 28.9505H39.55C39.55 28.9505 38.1477 26.5647 37.9277 26.1533C38.2852 26.0162 38.6976 25.742 38.9726 25.4129C39.495 24.6451 39.605 23.4385 39.165 22.5884C38.6701 21.5738 37.5703 21.0802 36.553 21.0802H36.4155V22.6981C36.8554 22.7255 37.2953 22.8901 37.5703 23.3014C37.6803 23.6305 37.6528 24.1515 37.4328 24.4531V24.4531ZM36.3605 24.9468H35.8656C35.5631 24.9193 35.1232 24.9468 35.1232 24.9468V22.6981C35.4531 22.7255 35.9206 22.6707 36.388 22.7255V21.1076L33.391 21.0802V28.9779H35.1232V26.455H36.058L36.388 26.976L36.3605 24.9468Z" fill="#F47920"/>
<path d="M17.7185 33.9139V33.9962C17.746 37.5612 20.0831 41.0438 23.4375 42.3601C24.7023 42.936 25.9671 43.0731 27.5069 43.0731H27.7268V49.7917C27.7268 49.7917 27.3694 49.8191 27.1494 49.8191C20.853 49.9562 14.9139 46.1719 12.3843 40.3857C11.9444 39.3985 11.6145 38.3838 11.3395 37.3418L11.312 37.2047H8.47998V33.9139H16.1512H17.7185Z" fill="white"/>
<path d="M17.7185 33.9139V33.9962C17.746 37.5612 20.0831 41.0438 23.4375 42.3601C24.7023 42.936 25.9671 43.0731 27.5069 43.0731H27.7268V49.7917C27.7268 49.7917 27.3694 49.8191 27.1494 49.8191C20.853 49.9562 14.9139 46.1719 12.3843 40.3857C11.9444 39.3985 11.6145 38.3838 11.3395 37.3418L11.312 37.2047H8.47998V33.9139H16.1512H17.7185Z" fill="white" stroke="white" stroke-width="2.78646" stroke-miterlimit="10"/>
<path d="M58.7418 37.2321H56.2397V49.7368H41.1172V43.0731H49.4758V33.9139H58.7418V37.2321Z" fill="white"/>
<path d="M58.7418 37.2321H56.2397V49.7368H41.1172V43.0731H49.4758V33.9139H58.7418V37.2321Z" fill="white" stroke="white" stroke-width="2.78646" stroke-miterlimit="10"/>
<path d="M37.8176 35.5593V43.128L31.0537 43.1006V35.5593H37.8176Z" fill="white"/>
<path d="M37.8176 35.5593V43.128L31.0537 43.1006V35.5593H37.8176Z" fill="white" stroke="white" stroke-width="2.78646" stroke-miterlimit="10"/>
<path d="M37.8177 49.8739V55.6053H37.9002C41.3096 55.4682 44.6366 55.8521 47.3862 57.4152C51.318 59.5267 54.2875 63.5853 55.0574 67.8358C55.0849 67.9729 55.1124 68.1374 55.1124 68.1374L58.7143 68.1649V72.2783H48.6784C48.6784 72.2783 48.6509 72.3057 48.6509 72.1411C48.7884 69.8925 48.376 67.8084 47.1937 66.0533C45.4615 63.5579 42.7944 62.269 39.8249 62.3238H31.0538V69.7828H12.5768V72.1686H8.47998V63.0642H24.3449V53.1098H31.0813V44.4717L37.8177 49.8739Z" fill="white"/>
<path d="M37.8177 49.8739V55.6053H37.9002C41.3096 55.4682 44.6366 55.8521 47.3862 57.4152C51.318 59.5267 54.2875 63.5853 55.0574 67.8358C55.0849 67.9729 55.1124 68.1374 55.1124 68.1374L58.7143 68.1649V72.2783H48.6784C48.6784 72.2783 48.6509 72.3057 48.6509 72.1411C48.7884 69.8925 48.376 67.8084 47.1937 66.0533C45.4615 63.5579 42.7944 62.269 39.8249 62.3238H31.0538V69.7828H12.5768V72.1686H8.47998V63.0642H24.3449V53.1098H31.0813V44.4717L37.8177 49.8739Z" fill="white" stroke="white" stroke-width="2.78646" stroke-miterlimit="10"/>
<path d="M44.6365 27.4148V29.1698C46.9461 29.1698 48.8433 27.2777 48.8433 24.9742C48.8433 22.6432 46.9461 20.8059 44.6365 20.8059V22.5335C45.9838 22.5335 47.0836 23.6304 47.0836 25.0016C47.0836 26.3179 45.9838 27.4148 44.6365 27.4148ZM44.6365 27.4148C43.2892 27.4148 42.1619 26.3179 42.1619 24.9742C42.1619 23.6304 43.2617 22.5061 44.6365 22.5061V20.8059C42.2994 20.8059 40.4022 22.6432 40.4022 24.9742C40.4022 27.2777 42.2994 29.1698 44.6365 29.1698V27.4148ZM55.7722 26.8663C55.3323 27.2777 54.6999 27.5245 54.04 27.5245C52.6377 27.5245 51.5104 26.3727 51.5104 25.0016C51.5104 23.603 52.6652 22.4787 54.04 22.4787C54.6724 22.4787 55.3048 22.6706 55.7172 23.0271L56.817 21.8205C56.0746 21.1898 55.0848 20.8059 54.0125 20.8059C51.6754 20.8059 49.7782 22.6432 49.7782 24.9742C49.7782 27.2777 51.6754 29.1698 54.0125 29.1698C55.0848 29.1698 56.0746 28.7585 56.817 28.0729L55.7722 26.8663ZM20.8254 27.4148L20.7979 29.1698H20.8254C23.135 29.1698 25.0322 27.2777 25.0322 24.9742C25.0322 22.6432 23.135 20.8059 20.8254 20.8059H20.7979V22.5335H20.8254C22.1727 22.5335 23.2725 23.6304 23.2725 25.0016C23.2725 26.3179 22.1452 27.4148 20.8254 27.4148ZM20.7979 27.4148C19.4506 27.4148 18.3508 26.3179 18.3508 24.9742C18.3508 23.6304 19.4506 22.5061 20.7979 22.5061V20.8059C18.4883 20.8059 16.5911 22.6432 16.5911 24.9742C16.5911 27.2777 18.4883 29.1698 20.7979 29.1698V27.4148Z" fill="#F47920"/>
<path d="M70.7848 70.057L71.8022 70.1667C71.5272 70.9071 71.1698 71.483 70.7023 71.8395C70.2074 72.2234 69.685 72.3879 69.0801 72.3879C68.4477 72.3879 67.9253 72.1686 67.5129 71.7572C67.1004 71.3459 66.908 70.7426 66.908 70.0022C66.908 69.3714 67.0179 68.6859 67.2929 68.0552C67.5678 67.4244 67.9253 66.9308 68.4202 66.6017C68.9151 66.2727 69.465 66.1081 70.0699 66.1081C70.7023 66.1081 71.2248 66.3001 71.6097 66.6566C71.9946 67.0405 72.1596 67.5067 72.1596 68.11L71.1423 68.1923C71.1423 67.8083 71.0323 67.5067 70.8123 67.2873C70.5924 67.0679 70.3174 66.9582 69.96 66.9582C69.5475 66.9582 69.2176 67.0679 68.8601 67.3422C68.5577 67.6164 68.3377 67.9729 68.1453 68.5488C67.9528 69.0698 67.8703 69.5908 67.8703 70.0844C67.8703 70.6055 67.9803 70.9894 68.2002 71.2362C68.4202 71.5104 68.6952 71.6201 69.0251 71.6201C69.3551 71.6201 69.6575 71.5104 69.96 71.2362C70.3449 70.962 70.6199 70.5506 70.7848 70.057V70.057ZM72.5995 69.9473C72.5995 68.7956 72.9295 67.8083 73.6444 67.0405C74.1943 66.4098 74.9641 66.1081 75.899 66.1081C76.6139 66.1081 77.2188 66.3275 77.6587 66.7937C78.0986 67.2599 78.3461 67.8358 78.3461 68.631C78.3461 69.3166 78.2086 69.9747 77.9337 70.5506C77.6587 71.1539 77.2463 71.5927 76.7239 71.8943C76.2014 72.196 75.679 72.3879 75.1016 72.3879C74.6617 72.3879 74.1943 72.2782 73.8368 72.0863C73.4519 71.8943 73.1494 71.5927 72.9845 71.2362C72.7095 70.8523 72.5995 70.4409 72.5995 69.9473V69.9473ZM73.6169 69.865C73.6169 70.4135 73.7543 70.8797 74.0293 71.1265C74.3043 71.4281 74.6342 71.5653 75.0741 71.5653C75.2941 71.5653 75.5141 71.5378 75.7065 71.4281C75.899 71.3184 76.119 71.2088 76.3114 71.0168C76.5039 70.8248 76.6414 70.6329 76.8063 70.3861C76.9163 70.1667 77.0263 69.8925 77.1088 69.6457C77.2188 69.2617 77.3013 68.9053 77.3013 68.5488C77.3013 68.0277 77.1638 67.589 76.8888 67.2873C76.6139 66.9857 76.2839 66.8486 75.844 66.8486C75.5141 66.8486 75.2391 66.9308 74.9916 67.0679C74.7167 67.2051 74.4967 67.4519 74.2768 67.7535C74.0568 68.0552 73.8918 68.3842 73.7818 68.7681C73.6994 69.2069 73.6169 69.536 73.6169 69.865ZM78.8685 72.2234L80.1058 66.2453H81.0407L80.8207 67.2873C81.2331 66.876 81.6181 66.5743 81.948 66.3824C82.278 66.1904 82.6629 66.0807 83.0478 66.0807C83.5428 66.0807 83.9002 66.2178 84.2026 66.4921C84.5051 66.7663 84.6151 67.0954 84.6151 67.5341C84.6151 67.7535 84.5876 68.0826 84.4776 68.5762L83.7352 72.196H82.7179L83.5153 68.3842C83.5977 68.0003 83.6252 67.7535 83.6252 67.5615C83.6252 67.3696 83.5428 67.1776 83.4053 67.0679C83.2678 66.9582 83.0753 66.876 82.8004 66.876C82.278 66.876 81.838 67.0679 81.4256 67.4244C81.0132 67.7809 80.7107 68.4391 80.5182 69.3714L79.9133 72.1686L78.8685 72.2234ZM85.4124 70.1667L86.4298 70.0844C86.4298 70.3861 86.4573 70.6329 86.5673 70.8248C86.6497 71.0442 86.8422 71.2088 87.0622 71.3459C87.2821 71.483 87.5846 71.5378 87.9145 71.5378C88.3545 71.5378 88.7119 71.4556 88.9319 71.2636C89.1518 71.0716 89.2618 70.8523 89.2618 70.6329C89.2618 70.4409 89.1793 70.3038 89.0694 70.1393C88.9319 70.0022 88.5744 69.8102 88.052 69.536C87.5296 69.3166 87.1447 69.1246 87.0072 69.0424C86.7322 68.9053 86.5673 68.7133 86.4573 68.4939C86.3473 68.2745 86.2648 68.0552 86.2648 67.7809C86.2648 67.2873 86.4573 66.876 86.8147 66.5469C87.1997 66.2178 87.7221 66.0259 88.382 66.0259C89.1243 66.0259 89.7017 66.2178 90.1142 66.5469C90.5266 66.876 90.7191 67.3696 90.7191 67.918L89.7017 68.0003C89.7017 67.6164 89.5643 67.3696 89.3168 67.1502C89.0694 66.9308 88.7119 66.8486 88.2995 66.8486C87.9695 66.8486 87.6671 66.9308 87.4746 67.0679C87.2821 67.2051 87.1722 67.397 87.1722 67.589C87.1722 67.7809 87.2547 67.918 87.4471 68.0826C87.5571 68.1923 87.8595 68.3568 88.2995 68.5213C89.0968 68.8504 89.5643 69.1246 89.8117 69.3166C90.1417 69.6182 90.3067 70.0296 90.3067 70.4409C90.3067 70.7426 90.2242 71.0442 90.0317 71.291C89.8392 71.5927 89.5918 71.8121 89.2068 71.9766C88.8219 72.1411 88.382 72.2508 87.887 72.2508C87.1722 72.2508 86.6223 72.0589 86.1273 71.7298C85.6324 71.5104 85.4124 70.962 85.4124 70.1667V70.1667ZM93.4961 71.4007L93.3037 72.2234C93.0287 72.3057 92.8087 72.3331 92.5888 72.3331C92.1763 72.3331 91.8464 72.2234 91.6264 72.0314C91.434 71.8943 91.3515 71.7024 91.3515 71.4281C91.3515 71.291 91.379 70.9894 91.489 70.5232L92.2038 67.0405H91.379L91.5165 66.2453H92.3413L92.6438 64.7919L93.7986 64.0789L93.3587 66.2453H94.376L94.1835 67.0405H93.1662L92.4513 70.3587C92.3688 70.77 92.3413 71.0442 92.3413 71.0991C92.3413 71.2088 92.3688 71.3184 92.4513 71.3733C92.5338 71.4556 92.6438 71.483 92.7813 71.483C93.1387 71.483 93.3037 71.4556 93.4961 71.4007ZM94.321 72.2234L95.5583 66.2453H96.4657L96.1907 67.4793C96.4931 67.0405 96.7956 66.6566 97.098 66.4646C97.4005 66.2453 97.703 66.1356 98.0054 66.1356C98.1979 66.1356 98.4453 66.2178 98.7478 66.3549L98.3353 67.2873C98.1429 67.1776 97.9504 67.0954 97.7304 67.0954C97.3455 67.0954 97.0156 67.2873 96.6306 67.6987C96.2457 68.11 95.9432 68.823 95.7233 69.8376L95.2009 72.2234H94.321ZM102.267 71.1539C101.552 71.9766 100.81 72.3879 100.068 72.3879C99.6276 72.3879 99.2427 72.2508 98.9402 71.9766C98.6378 71.7024 98.5278 71.3733 98.5278 71.0168C98.5278 70.7426 98.6103 70.3312 98.7203 69.7005L99.4352 66.2727H100.453L99.6551 70.0844C99.5726 70.4135 99.5452 70.6329 99.5452 70.8248C99.5452 71.0442 99.6276 71.2362 99.7376 71.3459C99.8751 71.4556 100.068 71.5378 100.343 71.5378C100.645 71.5378 100.892 71.4556 101.167 71.3185C101.442 71.1813 101.69 70.9894 101.882 70.77C102.075 70.5506 102.267 70.249 102.377 69.9473C102.46 69.7279 102.57 69.3989 102.68 68.8504L103.202 66.2727H104.219L102.982 72.2508H102.047L102.267 71.1539ZM108.756 70.057L109.773 70.1667C109.499 70.9071 109.141 71.483 108.674 71.8395C108.179 72.2234 107.656 72.3879 107.051 72.3879C106.419 72.3879 105.842 72.1686 105.484 71.7572C105.072 71.3459 104.879 70.7426 104.879 70.0022C104.879 69.3714 104.989 68.6859 105.264 68.0552C105.539 67.4244 105.897 66.9308 106.392 66.6017C106.886 66.2727 107.436 66.1081 108.041 66.1081C108.674 66.1081 109.196 66.3001 109.581 66.6566C109.966 67.0405 110.131 67.5067 110.131 68.11L109.114 68.1923C109.114 67.8083 109.004 67.5067 108.784 67.2873C108.564 67.0679 108.289 66.9582 107.931 66.9582C107.519 66.9582 107.189 67.0679 106.831 67.3422C106.529 67.6164 106.309 67.9729 106.117 68.5488C105.924 69.0698 105.842 69.5908 105.842 70.0844C105.842 70.6055 105.952 70.9894 106.172 71.2362C106.392 71.5104 106.666 71.6201 106.996 71.6201C107.326 71.6201 107.629 71.5104 107.931 71.2362C108.289 70.9894 108.591 70.5506 108.756 70.057V70.057ZM112.825 71.4007L112.633 72.2234C112.358 72.3057 112.138 72.3331 111.918 72.3331C111.506 72.3331 111.176 72.2234 110.956 72.0314C110.763 71.8943 110.681 71.7024 110.681 71.4281C110.681 71.291 110.708 70.9894 110.818 70.5232L111.533 67.0405H110.708L110.846 66.2453H111.671L111.973 64.7919L113.128 64.0789L112.688 66.2453H113.705L113.513 67.0405H112.496L111.781 70.3587C111.698 70.77 111.671 71.0442 111.671 71.0991C111.671 71.2088 111.698 71.3184 111.781 71.3733C111.863 71.4556 111.973 71.483 112.111 71.483C112.441 71.483 112.633 71.4556 112.825 71.4007ZM113.595 72.2234L114.833 66.2453H115.85L114.613 72.2234H113.595ZM115.108 65.1209L115.328 63.9692H116.345L116.125 65.1209H115.108ZM117.72 72.2234L116.757 66.2453H117.775L118.297 69.536C118.38 69.9199 118.407 70.4683 118.517 71.291C118.71 70.8797 118.957 70.3861 119.259 69.8376L121.294 66.2453H122.394L118.957 72.2234H117.72ZM126.436 70.2215L127.453 70.3312C127.316 70.8248 126.958 71.291 126.491 71.7572C125.968 72.196 125.363 72.4428 124.649 72.4428C124.209 72.4428 123.796 72.3331 123.411 72.1411C123.026 71.9492 122.779 71.6475 122.559 71.2362C122.339 70.8248 122.256 70.4135 122.256 69.8925C122.256 69.2069 122.394 68.631 122.696 67.9729C122.999 67.3696 123.411 66.876 123.851 66.6017C124.346 66.3001 124.869 66.163 125.418 66.163C126.133 66.163 126.683 66.3824 127.151 66.8486C127.563 67.2873 127.783 67.8906 127.783 68.6859C127.783 68.9875 127.756 69.2892 127.701 69.5908H123.274C123.274 69.7005 123.246 69.8102 123.246 69.8925C123.246 70.4409 123.356 70.8523 123.631 71.1539C123.906 71.4556 124.181 71.5927 124.566 71.5927C124.896 71.5927 125.281 71.483 125.611 71.2636C125.941 70.9894 126.216 70.6329 126.436 70.2215V70.2215ZM123.439 68.7133H126.821V68.4939C126.821 67.9729 126.711 67.589 126.436 67.3422C126.161 67.0679 125.831 66.9308 125.473 66.9308C125.034 66.9308 124.649 67.0679 124.264 67.3696C123.879 67.6712 123.631 68.11 123.439 68.7133V68.7133ZM131.77 70.1667L132.787 70.0844C132.787 70.3861 132.815 70.6329 132.925 70.8248C133.007 71.0442 133.2 71.2088 133.42 71.3459C133.64 71.483 133.942 71.5378 134.272 71.5378C134.712 71.5378 135.069 71.4556 135.289 71.2636C135.509 71.0716 135.619 70.8523 135.619 70.6329C135.619 70.4409 135.537 70.3038 135.427 70.1393C135.289 70.0022 134.932 69.8102 134.409 69.536C133.887 69.3166 133.502 69.1246 133.365 69.0424C133.09 68.9053 132.925 68.7133 132.815 68.4939C132.705 68.2745 132.622 68.0552 132.622 67.7809C132.622 67.2873 132.815 66.876 133.172 66.5469C133.557 66.2178 134.08 66.0259 134.739 66.0259C135.482 66.0259 136.059 66.2178 136.472 66.5469C136.884 66.876 137.077 67.3696 137.077 67.918L136.059 68.0003C136.059 67.6164 135.922 67.3696 135.674 67.1502C135.454 66.9308 135.069 66.8486 134.657 66.8486C134.327 66.8486 134.025 66.9308 133.832 67.0679C133.64 67.2051 133.53 67.397 133.53 67.589C133.53 67.7809 133.612 67.918 133.805 68.0826C133.915 68.1923 134.217 68.3568 134.657 68.5213C135.454 68.8504 135.922 69.1246 136.169 69.3166C136.499 69.6182 136.664 70.0296 136.664 70.4409C136.664 70.7426 136.582 71.0442 136.389 71.291C136.197 71.5927 135.949 71.8121 135.564 71.9766C135.179 72.1411 134.739 72.2508 134.245 72.2508C133.53 72.2508 132.98 72.0589 132.485 71.7298C131.935 71.5104 131.715 70.962 131.77 70.1667V70.1667ZM137.654 69.9473C137.654 68.7956 137.984 67.8083 138.699 67.0405C139.249 66.4098 140.019 66.1081 140.953 66.1081C141.668 66.1081 142.273 66.3275 142.713 66.7937C143.153 67.2599 143.401 67.8358 143.401 68.631C143.401 69.3166 143.263 69.9747 142.988 70.5506C142.713 71.1539 142.301 71.5927 141.778 71.8943C141.256 72.196 140.733 72.3879 140.156 72.3879C139.716 72.3879 139.249 72.2782 138.891 72.0863C138.506 71.8943 138.204 71.5927 138.039 71.2362C137.709 70.8523 137.654 70.4409 137.654 69.9473V69.9473ZM138.671 69.865C138.671 70.4135 138.809 70.8797 139.084 71.1265C139.359 71.4007 139.689 71.5653 140.129 71.5653C140.349 71.5653 140.568 71.5378 140.761 71.4281C140.953 71.3184 141.173 71.2088 141.366 71.0168C141.558 70.8248 141.696 70.6329 141.861 70.3861C141.998 70.1119 142.081 69.8925 142.163 69.6457C142.273 69.2617 142.356 68.9053 142.356 68.5488C142.356 68.0277 142.218 67.589 141.943 67.2873C141.668 66.9857 141.338 66.8486 140.898 66.8486C140.568 66.8486 140.294 66.9308 140.046 67.0679C139.771 67.2051 139.551 67.4519 139.331 67.7535C139.111 68.0552 138.946 68.3842 138.836 68.7681C138.699 69.2069 138.671 69.536 138.671 69.865V69.865ZM143.84 72.2234L145.573 63.9692H146.59L144.858 72.2234H143.84ZM150.577 71.1539C149.862 71.9766 149.12 72.3879 148.377 72.3879C147.937 72.3879 147.552 72.2508 147.25 71.9766C146.947 71.7024 146.837 71.3733 146.837 71.0168C146.837 70.7426 146.92 70.3312 147.03 69.7005L147.745 66.2727H148.762L147.965 70.0844C147.882 70.4135 147.855 70.6329 147.855 70.8248C147.855 71.0442 147.937 71.2362 148.047 71.3459C148.185 71.4556 148.377 71.5378 148.652 71.5378C148.955 71.5378 149.202 71.4556 149.477 71.3185C149.752 71.1813 149.999 70.9894 150.192 70.77C150.384 70.5506 150.577 70.249 150.687 69.9473C150.769 69.7279 150.879 69.3989 150.989 68.8504L151.512 66.2727H152.529L151.292 72.2508H150.357L150.577 71.1539ZM155.306 71.4007L155.114 72.2234C154.839 72.3057 154.619 72.3331 154.399 72.3331C153.986 72.3331 153.656 72.2234 153.436 72.0314C153.244 71.8943 153.161 71.7024 153.161 71.4281C153.161 71.291 153.189 70.9894 153.299 70.5232L154.014 67.0405H153.189L153.326 66.2453H154.151L154.454 64.7919L155.609 64.0789L155.169 66.2453H156.186L155.993 67.0405H154.976L154.261 70.3587C154.179 70.77 154.151 71.0442 154.151 71.0991C154.151 71.2088 154.179 71.3184 154.261 71.3733C154.344 71.4556 154.454 71.483 154.591 71.483C154.949 71.483 155.114 71.4556 155.306 71.4007ZM156.103 72.2234L157.341 66.2453H158.358L157.121 72.2234H156.103ZM157.588 65.1209L157.808 63.9692H158.826L158.606 65.1209H157.588ZM158.88 69.9473C158.88 68.7956 159.21 67.8083 159.925 67.0405C160.475 66.4098 161.245 66.1081 162.18 66.1081C162.895 66.1081 163.5 66.3275 163.94 66.7937C164.38 67.2325 164.627 67.8358 164.627 68.631C164.627 69.3166 164.49 69.9747 164.215 70.5506C163.94 71.1539 163.527 71.5927 163.005 71.8943C162.482 72.196 161.96 72.3879 161.383 72.3879C160.943 72.3879 160.475 72.2782 160.118 72.0863C159.733 71.8943 159.43 71.5927 159.265 71.2362C158.99 70.8523 158.88 70.4409 158.88 69.9473V69.9473ZM159.925 69.865C159.925 70.4135 160.063 70.8797 160.338 71.1265C160.613 71.4281 160.943 71.5653 161.383 71.5653C161.603 71.5653 161.823 71.5378 162.015 71.4281C162.207 71.3184 162.427 71.2088 162.62 71.0168C162.812 70.8248 162.95 70.6329 163.115 70.3861C163.225 70.1667 163.335 69.8925 163.417 69.6457C163.527 69.2617 163.61 68.9053 163.61 68.5488C163.61 68.0277 163.472 67.589 163.197 67.2873C162.922 66.9857 162.592 66.8486 162.152 66.8486C161.823 66.8486 161.548 66.9308 161.3 67.0679C161.053 67.2051 160.805 67.4519 160.585 67.7535C160.365 68.0552 160.2 68.3842 160.09 68.7681C159.953 69.2069 159.925 69.536 159.925 69.865ZM165.149 72.2234L166.387 66.2453H167.322L167.102 67.2873C167.514 66.876 167.899 66.5743 168.229 66.3824C168.559 66.1904 168.944 66.0807 169.329 66.0807C169.824 66.0807 170.181 66.2178 170.484 66.4921C170.786 66.7663 170.896 67.0954 170.896 67.5341C170.896 67.7535 170.869 68.0826 170.759 68.5762L170.016 72.196H168.999L169.796 68.3842C169.879 68.0003 169.906 67.7535 169.906 67.5615C169.906 67.3696 169.824 67.1776 169.686 67.0679C169.549 66.9582 169.356 66.876 169.081 66.876C168.559 66.876 168.119 67.0679 167.707 67.4244C167.294 67.8083 166.992 68.4391 166.799 69.3714L166.194 72.1686L165.149 72.2234ZM171.693 70.1667L172.711 70.0844C172.711 70.3861 172.738 70.6329 172.848 70.8248C172.931 71.0442 173.123 71.2088 173.343 71.3459C173.563 71.483 173.866 71.5378 174.196 71.5378C174.635 71.5378 174.993 71.4556 175.213 71.2636C175.433 71.0716 175.543 70.8523 175.543 70.6329C175.543 70.4409 175.46 70.3038 175.35 70.1393C175.213 70.0022 174.855 69.8102 174.333 69.536C173.811 69.3166 173.426 69.1246 173.288 69.0424C173.013 68.9053 172.848 68.7133 172.738 68.4939C172.628 68.2745 172.546 68.0552 172.546 67.7809C172.546 67.2873 172.738 66.876 173.096 66.5469C173.481 66.2178 174.003 66.0259 174.663 66.0259C175.405 66.0259 175.983 66.2178 176.395 66.5469C176.808 66.876 177 67.3696 177 67.918L175.983 68.0003C175.983 67.6164 175.845 67.3696 175.598 67.1502C175.35 66.9308 174.993 66.8486 174.58 66.8486C174.25 66.8486 173.948 66.9308 173.756 67.0679C173.563 67.2051 173.453 67.397 173.453 67.589C173.453 67.7809 173.536 67.918 173.728 68.0826C173.838 68.1923 174.141 68.3568 174.58 68.5213C175.378 68.8504 175.845 69.1246 176.093 69.3166C176.423 69.6182 176.588 70.0296 176.588 70.4409C176.588 70.7426 176.505 71.0442 176.313 71.291C176.12 71.5927 175.873 71.8121 175.488 71.9766C175.103 72.1137 174.663 72.2508 174.168 72.2508C173.453 72.2508 172.903 72.0589 172.408 71.7298C171.886 71.5104 171.666 70.962 171.693 70.1667Z" fill="white"/>
</svg>
