<svg width="185" height="90" viewBox="0 0 185 90" fill="none" xmlns="http://www.w3.org/2000/svg">
<path d="M60.5268 58.2628H62.1793V63.9708H65.154V65.4818H60.5268V58.2628ZM67.1371 63.4672C67.2197 64.1387 67.6329 64.4745 68.4592 64.4745C69.0376 64.4745 69.5333 64.3066 70.1117 63.9708V65.146C69.4507 65.4818 68.9549 65.6496 68.2939 65.6496C66.6413 65.6496 65.7324 64.7263 65.7324 63.1314C65.7324 61.5365 66.7239 60.5292 68.2113 60.5292C69.616 60.5292 70.4423 61.4526 70.4423 63.0474V63.5511H67.1371V63.4672ZM68.8723 62.4599C68.7897 61.8723 68.5418 61.5365 68.046 61.5365C67.5502 61.5365 67.2197 61.8723 67.0545 62.4599H68.8723ZM71.3512 60.865C72.0948 60.5292 72.6732 60.3613 73.3343 60.3613C74.1606 60.3613 74.6563 60.6131 74.9042 60.9489C75.0695 61.2007 75.0695 61.4526 75.0695 62.1241V65.3139C74.3258 65.3978 73.4995 65.4818 72.9211 65.4818C71.5991 65.4818 71.0207 65.062 71.0207 64.0547C71.0207 62.9635 71.6817 62.4599 73.6648 62.292V61.9562C73.6648 61.7044 73.4995 61.5365 73.169 61.5365C72.5906 61.5365 72.0122 61.7044 71.3512 62.0401V60.865ZM73.7474 63.3832C72.7559 63.4672 72.4254 63.635 72.4254 64.0547C72.4254 64.3905 72.5906 64.4745 73.0038 64.4745C73.2516 64.4745 73.4169 64.4745 73.6648 64.3905L73.7474 63.3832ZM79.2009 57.927H80.7709V65.3139C79.9446 65.4818 79.4488 65.5657 78.7878 65.5657C76.8873 65.5657 75.8958 64.7263 75.8958 63.0474C75.8958 61.4526 76.8873 60.4453 78.5399 60.4453C78.7878 60.4453 78.9531 60.4453 79.2009 60.5292V57.927ZM79.2009 61.7883C79.0357 61.7044 78.8704 61.7044 78.7052 61.7044C77.8789 61.7044 77.4657 62.208 77.4657 63.0474C77.4657 63.8869 77.8789 64.3066 78.7052 64.3066C78.8704 64.3066 78.9531 64.3066 79.2836 64.2226L79.2009 61.7883ZM81.9277 58.1788H83.4977V59.7737H81.9277V58.1788ZM81.9277 60.5292H83.4977V65.4818H81.9277V60.5292ZM84.6545 60.781C85.646 60.5292 86.307 60.4453 87.0507 60.4453C87.877 60.4453 88.3728 60.6131 88.7859 60.9489C89.1164 61.2847 89.1991 61.6204 89.1991 62.4599V65.4818H87.6291V62.4599C87.6291 61.8723 87.4638 61.7044 86.8854 61.7044C86.6376 61.7044 86.4723 61.7044 86.2244 61.7883V65.4818H84.6545V60.781ZM90.108 66.3212C90.6864 66.6569 91.1822 66.7409 91.7606 66.7409C92.2563 66.7409 92.6695 66.6569 92.9174 66.3212C93.1653 66.0693 93.1653 65.8175 93.2479 65.2299C92.9174 65.3978 92.6695 65.4818 92.2563 65.4818C90.9343 65.4818 90.0254 64.5584 90.0254 63.1314C90.0254 61.3686 91.2648 60.3613 93.5784 60.3613C94.2394 60.3613 94.7352 60.4453 95.5615 60.6131V61.8723C95.1484 61.7883 94.9831 61.7883 94.7352 61.7044V64.5584C94.7352 65.6496 94.6526 66.3212 94.4047 66.7409C93.9089 67.5803 93.0826 68 91.8432 68C91.2648 68 90.769 67.9161 90.1906 67.6642V66.3212H90.108ZM93.2479 63.8029V61.7044C92.7521 61.7044 92.5042 61.7044 92.2563 61.8723C91.8432 62.1241 91.5953 62.4599 91.5953 63.0474C91.5953 63.8029 92.0084 64.3066 92.6695 64.3066C92.8347 64.3066 93 64.3066 93.2479 64.2226V63.8029ZM98.5361 58.3467C99.4451 58.2628 100.106 58.2628 100.685 58.2628C101.676 58.2628 102.254 58.3467 102.75 58.5985C103.329 58.9343 103.659 59.438 103.659 60.1934C103.659 60.9489 103.329 61.4526 102.42 61.7883C103.411 62.1241 103.824 62.6277 103.824 63.5511C103.824 64.3905 103.411 64.8942 102.668 65.2299C102.172 65.4818 101.511 65.5657 100.354 65.5657C99.7756 65.5657 99.1146 65.5657 98.4535 65.4818V58.3467H98.5361ZM100.106 61.2007H100.354C101.263 61.2007 101.511 61.2007 101.759 60.9489C101.924 60.781 102.007 60.5292 102.007 60.2774C102.007 59.6898 101.593 59.438 100.767 59.438H100.106V61.2007ZM100.106 64.2226H100.932C101.759 64.2226 102.254 63.8869 102.254 63.2993C102.254 62.7117 101.759 62.3759 100.85 62.3759H100.189L100.106 64.2226ZM106.055 63.4672C106.138 64.1387 106.551 64.4745 107.377 64.4745C107.956 64.4745 108.452 64.3066 109.03 63.9708V65.146C108.369 65.4818 107.873 65.6496 107.212 65.6496C105.56 65.6496 104.651 64.7263 104.651 63.1314C104.651 61.5365 105.642 60.5292 107.13 60.5292C108.534 60.5292 109.361 61.4526 109.361 63.0474V63.5511H106.055V63.4672ZM107.873 62.4599C107.791 61.8723 107.543 61.5365 107.047 61.5365C106.551 61.5365 106.221 61.8723 106.055 62.4599H107.873ZM111.178 60.5292C111.344 61.1168 111.509 61.9562 111.757 62.5438L112.087 63.5511L112.17 64.5584L112.253 63.5511L112.5 62.7956L113.244 60.5292H114.814C114.236 62.292 113.823 63.4672 113.161 64.8942L112.748 65.8175L112.335 66.6569C112.17 66.9927 112.005 67.3285 111.757 68H110.269L110.517 67.3285L110.931 66.4051C111.013 66.1533 111.096 65.9854 111.178 65.9015C111.178 65.9015 111.261 65.7336 111.261 65.6496C110.517 64.0547 109.939 62.292 109.443 60.6131H111.178V60.5292ZM119.854 62.9635C119.854 64.5584 118.863 65.6496 117.293 65.6496C115.723 65.6496 114.814 64.6423 114.814 63.0474C114.814 61.4526 115.806 60.4453 117.376 60.4453C118.946 60.4453 119.854 61.3686 119.854 62.9635ZM116.467 63.0474C116.467 63.8869 116.797 64.3905 117.376 64.3905C117.954 64.3905 118.285 63.8869 118.285 63.0474C118.285 62.208 117.954 61.7044 117.376 61.7044C116.797 61.6204 116.467 62.1241 116.467 63.0474ZM120.846 60.781C121.838 60.5292 122.499 60.4453 123.242 60.4453C124.069 60.4453 124.564 60.6131 124.977 60.9489C125.308 61.2847 125.391 61.6204 125.391 62.4599V65.4818H123.821V62.4599C123.821 61.8723 123.655 61.7044 123.077 61.7044C122.829 61.7044 122.664 61.7044 122.416 61.7883V65.4818H120.846V60.781ZM129.522 57.927H131.092V65.3139C130.266 65.4818 129.77 65.5657 129.109 65.5657C127.208 65.5657 126.217 64.7263 126.217 63.0474C126.217 61.4526 127.208 60.4453 128.861 60.4453C129.109 60.4453 129.274 60.4453 129.522 60.5292V57.927ZM129.522 61.7883C129.357 61.7044 129.192 61.7044 129.026 61.7044C128.2 61.7044 127.787 62.208 127.787 63.0474C127.787 63.8869 128.2 64.3066 129.026 64.3066C129.192 64.3066 129.274 64.3066 129.605 64.2226L129.522 61.7883ZM140.346 65.146C139.603 65.4818 138.942 65.5657 138.115 65.5657C135.719 65.5657 134.149 64.1387 134.149 61.9562C134.149 59.6898 135.802 58.1788 138.198 58.1788C138.942 58.1788 139.52 58.2628 140.264 58.5985V60.1934C139.52 59.7737 139.024 59.6058 138.363 59.6058C136.793 59.6058 135.885 60.4453 135.885 61.8723C135.885 63.2153 136.793 64.0547 138.281 64.0547C139.024 64.0547 139.52 63.8869 140.264 63.4672V65.146H140.346ZM141.503 57.927H143.073V60.6971C143.569 60.5292 143.817 60.4453 144.23 60.4453C144.891 60.4453 145.304 60.6131 145.635 60.9489C145.883 61.2007 146.048 61.5365 146.048 62.208V65.5657H144.478V62.5438C144.478 62.0401 144.23 61.7883 143.734 61.7883C143.486 61.7883 143.238 61.8723 142.991 61.9562V65.5657H141.421L141.503 57.927ZM148.444 63.4672C148.527 64.1387 148.94 64.4745 149.766 64.4745C150.345 64.4745 150.84 64.3066 151.419 63.9708V65.146C150.758 65.4818 150.262 65.6496 149.601 65.6496C147.948 65.6496 147.039 64.7263 147.039 63.1314C147.039 61.5365 148.031 60.5292 149.518 60.5292C150.923 60.5292 151.749 61.4526 151.749 63.0474V63.5511H148.444V63.4672ZM150.179 62.4599C150.097 61.8723 149.849 61.5365 149.353 61.5365C148.857 61.5365 148.527 61.8723 148.362 62.4599H150.179ZM152.576 60.781C153.485 60.5292 154.063 60.4453 154.724 60.4453C155.385 60.4453 155.715 60.5292 156.211 60.781C156.872 60.5292 157.285 60.4453 157.946 60.4453C158.608 60.4453 159.103 60.6131 159.516 60.9489C159.847 61.2847 159.93 61.6204 159.93 62.3759V65.5657H158.36V62.4599C158.36 61.9562 158.112 61.7883 157.699 61.7883C157.451 61.7883 157.285 61.7883 157.038 61.9562C157.12 62.1241 157.12 62.208 157.12 62.4599V65.5657H155.55V62.4599C155.55 61.9562 155.302 61.7044 154.807 61.7044C154.559 61.7044 154.393 61.7044 154.146 61.7883V65.4818H152.576V60.781ZM161.086 58.1788H162.656V59.7737H161.086V58.1788ZM161.086 60.5292H162.656V65.4818H161.086V60.5292ZM163.648 64.0547C164.226 64.3905 164.639 64.4745 165.135 64.4745C165.548 64.4745 165.796 64.3905 165.796 64.1387C165.796 63.9708 165.714 63.8869 165.548 63.8029L164.97 63.5511C164.061 63.1314 163.731 62.7117 163.731 62.0401C163.731 61.0328 164.474 60.4453 165.796 60.4453C166.292 60.4453 166.623 60.5292 167.201 60.6971V61.9562C166.705 61.7044 166.375 61.6204 165.962 61.6204C165.548 61.6204 165.3 61.7044 165.3 61.9562C165.3 62.1241 165.383 62.208 165.548 62.292L166.127 62.5438C167.118 63.0474 167.366 63.2993 167.366 64.0547C167.366 65.146 166.705 65.6496 165.3 65.6496C164.722 65.6496 164.309 65.5657 163.731 65.3139V64.0547H163.648ZM167.697 60.6131H168.523V59.2701H169.928V60.6131H171.002V61.7883H169.928V63.4672C169.928 64.1387 170.093 64.3066 170.589 64.3066H170.919V65.4818C170.589 65.5657 170.341 65.5657 170.093 65.5657C169.432 65.5657 168.936 65.3978 168.688 65.062C168.44 64.8102 168.44 64.5584 168.44 63.719V61.8723H167.614V60.6131H167.697ZM171.911 60.9489C172.737 60.6131 173.481 60.4453 174.224 60.4453C174.638 60.4453 174.885 60.4453 175.299 60.6131V61.9562C174.968 61.8723 174.72 61.7883 174.39 61.7883C174.059 61.7883 173.811 61.8723 173.398 61.9562V65.5657H171.911V60.9489ZM177.364 60.5292C177.53 61.1168 177.695 61.9562 177.943 62.5438L178.273 63.5511L178.356 64.5584L178.438 63.5511L178.686 62.7956L179.43 60.5292H181C180.422 62.292 180.008 63.4672 179.347 64.8942L178.934 65.8175L178.521 66.6569C178.356 66.9927 178.191 67.3285 177.943 68H176.455L176.703 67.3285L177.116 66.4051C177.199 66.1533 177.282 65.9854 177.364 65.9015C177.364 65.9015 177.447 65.7336 177.447 65.6496C176.703 64.0547 176.125 62.292 175.629 60.6131H177.364V60.5292ZM180.091 52.8066H176.869C176.538 52.8066 176.29 52.5547 176.29 52.219C176.208 50.2044 175.464 48.3577 174.307 46.8467C174.142 46.5949 173.894 46.3431 173.646 46.0912C172.489 44.7482 170.671 43.9088 168.771 43.9088H166.705V52.135C166.705 52.4708 166.457 52.8066 166.044 52.8066H162.739C162.408 52.8066 162.078 52.5547 162.078 52.135V32.6606C162.078 32.3248 162.326 31.9891 162.739 31.9891H166.044C166.375 31.9891 166.705 32.2409 166.705 32.6606V39.208H168.771C172.407 39.208 175.299 36.2701 175.381 32.5766C175.381 32.2409 175.629 31.9891 175.96 31.9891H179.347C179.678 31.9891 179.926 32.2409 180.008 32.5766C179.926 36.1861 178.191 39.4599 175.546 41.4745C176.29 42.062 176.869 42.6496 177.447 43.3212C179.43 45.6715 180.669 48.6934 180.835 52.0511C180.835 52.3869 180.587 52.6387 180.256 52.7226L180.091 52.8066ZM153.237 52.135V32.6606C153.237 32.3248 153.485 31.9891 153.898 31.9891H157.203C157.533 31.9891 157.864 32.2409 157.864 32.6606V52.135C157.864 52.4708 157.616 52.8066 157.203 52.8066H153.898C153.485 52.8066 153.237 52.4708 153.237 52.135ZM144.147 36.8577C142.412 36.1861 140.512 35.7664 138.529 35.7664C136.546 35.7664 134.645 36.1022 132.91 36.8577V52.135C132.91 52.4708 132.662 52.8066 132.249 52.8066H128.944C128.613 52.8066 128.283 52.5547 128.283 52.135V34.3394C128.283 34.1715 128.365 33.9197 128.531 33.8358C131.505 32.1569 134.893 31.1496 138.446 31.1496C142.082 31.1496 145.469 32.1569 148.362 33.8358C148.527 33.9197 148.609 34.1715 148.609 34.3394V52.135C148.609 52.4708 148.362 52.8066 147.948 52.8066H144.643C144.313 52.8066 143.982 52.5547 143.982 52.135V36.8577H144.147ZM119.276 36.8577C117.541 36.1861 115.64 35.7664 113.657 35.7664C111.674 35.7664 109.774 36.1022 108.038 36.8577V47.854C109.774 48.5255 111.674 48.9453 113.657 48.9453C115.64 48.9453 117.541 48.6095 119.276 47.854V36.8577ZM113.657 53.646C110.104 53.646 106.716 52.7226 103.742 51.0438C103.577 50.9599 103.494 50.792 103.411 50.5401V34.3394C103.411 34.0876 103.577 33.9197 103.742 33.8358C106.634 32.1569 110.022 31.1496 113.657 31.1496C117.293 31.1496 120.681 32.073 123.573 33.8358C123.738 33.9197 123.821 34.1715 123.903 34.3394V50.5401C123.903 50.792 123.738 50.9599 123.573 51.0438C120.598 52.7226 117.293 53.646 113.657 53.646ZM95.8094 31.9891H100.271C100.602 31.9891 100.85 32.3248 100.85 32.6606V32.9124L93.4958 52.3869C93.4131 52.6387 93.1653 52.8066 92.9174 52.8066H87.2986C87.0507 52.8066 86.8028 52.6387 86.7202 52.4708L79.6967 32.9124V32.7445C79.6967 32.4088 79.9446 32.1569 80.2751 32.073H84.7371C84.985 32.073 85.2329 32.2409 85.3155 32.4927L90.108 48.1058L95.231 32.4088C95.3136 32.2409 95.5615 32.073 95.8094 31.9891V31.9891ZM77.2178 52.8066H61.0225C60.7747 52.8066 60.6094 52.6387 60.4441 52.4708C58.7915 49.5328 57.8826 46.0912 57.8826 42.3978C57.8826 38.7044 58.7915 35.3467 60.4441 32.3248C60.5268 32.1569 60.7747 31.9891 61.0225 31.9891H76.3089C76.6394 31.9891 76.8047 32.2409 76.8873 32.5766V36.1022C76.8873 36.438 76.6394 36.6898 76.3089 36.6898H63.5014C63.0883 37.781 62.7577 38.8723 62.5925 40.0474H75.4826C75.8131 40.0474 76.061 40.2993 76.061 40.635V44.0766C76.061 44.4124 75.8131 44.6642 75.4826 44.7482H62.6751C62.8404 45.9234 63.1709 47.0146 63.584 48.1058H77.3005C77.631 48.1058 77.8789 48.3577 77.8789 48.6934V52.135C77.7962 52.4708 77.5484 52.8066 77.2178 52.8066ZM25.0789 26.6168C16.4854 26.6168 9.5446 33.6679 9.5446 42.3978C9.5446 51.1277 16.4854 58.1788 25.0789 58.1788C29.7887 58.1788 33.9202 56.0803 36.8122 52.7226H20.5343C20.369 52.7226 20.1211 52.6387 20.0385 52.6387C16.4028 50.792 13.8413 46.9307 13.8413 42.3978C13.8413 37.9489 16.3202 34.0876 20.0385 32.1569C20.2038 32.073 20.369 32.073 20.5343 32.073H29.6235C29.8714 32.073 30.0366 32.1569 30.1192 32.1569C31.7718 32.9964 33.0939 34.1715 34.1681 35.6825C34.4986 36.1022 34.1681 36.6898 33.6723 36.6898H21.4432C19.6254 37.865 18.3859 39.9635 18.3859 42.3978C18.3859 44.7482 19.6254 46.8467 21.4432 48.1058H43.5052C43.9183 48.1058 44.2488 48.5255 44.0836 48.9453C41.4394 57.0036 33.9202 62.7956 25.0789 62.7956C14.0066 62.7956 5 53.646 5 42.3978C5 31.1496 14.0066 22 25.0789 22C36.1512 22 45.1577 31.1496 45.1577 42.3978C45.1577 42.9854 45.1577 43.573 45.0751 44.1606C45.0751 44.4964 44.7446 44.7482 44.4967 44.7482H23.0131C22.7653 44.7482 22.5174 44.5803 22.4347 44.3285C22.1869 43.7409 22.0216 43.0693 22.0216 42.3978C22.0216 41.7263 22.1869 41.0547 22.4347 40.4672C22.5174 40.2153 22.7653 40.0474 23.0131 40.0474H40.4479C39.2911 32.4927 32.846 26.6168 25.0789 26.6168V26.6168Z" fill="white"/>
</svg>
