<svg width="185" height="90" viewBox="0 0 185 90" fill="none" xmlns="http://www.w3.org/2000/svg">
<path fill-rule="evenodd" clip-rule="evenodd" d="M21.2921 28.2706V33.7947H14.7858V28.2706H9V43.3932H14.785V37.6329H21.2913V43.3932H27.0771V28.2706H21.2913H21.2921ZM41.0492 28.2706V38.0261C41.0492 39.5183 40.5166 39.6705 38.236 39.6705C35.8934 39.6705 34.9439 39.6144 34.9439 38.2023V28.2706H29.1572V38.28C29.1572 41.9163 30.017 43.5102 38.236 43.5102C43.6813 43.5102 46.8351 42.6532 46.8351 38.28V28.2714H41.0492V28.2706ZM63.5802 28.2706L63.8905 39.2179L58.3278 28.2706H48.9479V43.3932H54.7396L54.4292 32.4524L59.9106 43.3932H69.3719V28.2706H63.5802ZM71.0536 28.2706V32.1111H76.1734V43.394H81.9584V32.1111H87.3449V28.2714H71.0536V28.2706ZM88.2919 32.8544C88.2919 34.9841 88.9956 36.0838 90.2815 36.6813C90.9248 36.9801 91.7141 37.1531 92.6334 37.266C93.093 37.3221 93.5854 37.3637 94.1096 37.399L95.7703 37.4895L97.6802 37.5832C98.878 37.6401 99.476 37.6729 99.7755 37.8187C99.9264 37.8916 100.002 37.9933 100.038 38.1399C100.056 38.2127 100.067 38.2976 100.072 38.3962L100.077 38.7301C100.077 39.6961 99.6119 39.8659 96.9706 39.8659C94.2471 39.8659 93.837 39.6737 93.837 38.3978V38.1815H88.2634V38.3978C88.2634 40.9536 89.2246 42.2327 90.7931 42.871C91.5774 43.1914 92.5134 43.3516 93.5568 43.4317C94.0794 43.4717 94.6288 43.491 95.1991 43.5006L96.9706 43.5102C101.176 43.5102 103.696 42.9751 104.899 41.8258C105.38 41.3653 105.62 40.8406 105.741 40.288C105.801 40.0117 105.831 39.7273 105.846 39.443L105.862 39.0137V38.4762C105.862 34.9361 104.242 34.3466 98.2615 34.0294L96.0488 33.9125C94.5156 33.8276 94.0777 33.7619 94.0777 32.836L94.0819 32.6197C94.0886 32.5501 94.0987 32.4828 94.1213 32.4203C94.1666 32.2946 94.2572 32.184 94.4384 32.0919C94.7999 31.9077 95.5229 31.798 96.9715 31.798C99.2026 31.798 99.7302 31.8452 99.7302 33.0899V33.3062H105.3V32.4828C105.3 30.3186 104.29 29.2358 102.742 28.6943C101.969 28.4244 101.061 28.289 100.079 28.2218C99.5723 28.1887 99.0647 28.1692 98.5567 28.1633L96.9715 28.1537C91.5715 28.1537 88.2919 28.4701 88.2919 32.8552V32.8544ZM170.776 28.2706L171.087 39.2195L165.525 28.2706H156.145V43.3932H161.936L161.626 32.4524L167.107 43.3932H176.569V28.2706H170.776Z" fill="white"/>
<path fill-rule="evenodd" clip-rule="evenodd" d="M9 57.7197V65.7756H14.8839V65.1204H9.80522V61.9391H14.5057V61.2855H9.80522V58.3749H14.8252V57.7197H9ZM15.8502 59.9544V65.7756H16.5959V62.3796C16.6185 61.2399 17.3281 60.3829 18.5099 60.3829C19.7144 60.3829 20.0566 61.139 20.0566 62.1425V65.7756H20.8023V62.0296C20.8023 60.6432 20.2814 59.7854 18.5695 59.7854C17.7064 59.7854 16.8911 60.2595 16.6185 60.9579H16.5959V59.9544H15.8494H15.8502ZM22.2055 59.9544H22.8916V61.3192H22.9151C23.2926 60.3829 24.1196 59.8294 25.2192 59.8759V60.5855C23.8705 60.5182 22.9504 61.4665 22.9504 62.6736V65.7756H22.2055V59.9544V59.9544ZM25.9364 58.8619H26.7751V57.7197H25.9364V58.8619ZM25.9364 65.7756H26.7751V59.9528H25.9364V65.7756ZM32.41 61.7813H33.1548C32.9895 60.4517 31.9855 59.7854 30.6863 59.7854C28.82 59.7854 27.8043 61.195 27.8043 62.865C27.8043 64.5342 28.8192 65.943 30.6863 65.943C32.0434 65.943 33.0005 65.0868 33.2018 63.6884H32.4569C32.3638 64.6575 31.6073 65.3463 30.6863 65.3463C29.257 65.3463 28.5491 64.1048 28.5491 62.865C28.5491 61.6235 29.257 60.3829 30.6863 60.3829C31.6542 60.3829 32.2103 60.9131 32.4108 61.7813H32.41ZM34.2276 57.7197V65.7756H34.9741V62.3788C34.9976 61.2399 35.7063 60.3829 36.8873 60.3829C38.0926 60.3829 38.4348 61.139 38.4348 62.1425V65.7756H39.1805V62.0296C39.1805 60.6432 38.6588 59.7854 36.9468 59.7854C36.0846 59.7854 35.2693 60.2595 34.9976 60.9579H34.9741V57.7197H34.2276V57.7197ZM40.5946 58.8619H41.4334V57.7197H40.5946V58.8619ZM40.5946 65.7756H41.4334V59.9528H40.5946V65.7756ZM42.7561 59.9544V65.7756H43.5018V62.3796C43.5253 61.2407 44.2332 60.3829 45.4142 60.3829C46.6203 60.3829 46.9617 61.139 46.9617 62.1417V65.7756H47.7082V62.0296C47.7082 60.6424 47.1865 59.7854 45.4737 59.7854C44.6115 59.7854 43.7962 60.2595 43.5253 60.9579H43.5018V59.9544H42.7561V59.9544ZM54.2632 65.3007V59.9544H53.5175V60.9579H53.4932C53.1979 60.3148 52.4414 59.7854 51.5573 59.7854C49.7967 59.7854 48.8036 61.1157 48.8036 62.7176C48.8036 64.3756 49.6072 65.7067 51.5573 65.7067C52.4313 65.7067 53.151 65.2214 53.4932 64.5101H53.5175V65.3007C53.5175 66.7223 52.9262 67.5 51.5573 67.5C50.7294 67.5 49.9377 67.1957 49.7724 66.3387H49.0284C49.135 67.5801 50.3403 68.0976 51.5573 68.0976C53.5536 68.0976 54.2489 67.0371 54.2632 65.3007V65.3007ZM53.5175 62.7969C53.5175 63.9815 52.8431 65.1092 51.5573 65.1092C50.1859 65.1092 49.5476 63.9695 49.5476 62.7969C49.5476 61.5899 50.1398 60.3829 51.5573 60.3829C52.9614 60.3829 53.5175 61.6564 53.5175 62.7969ZM58.9728 65.7756H59.7193V57.7197H58.9728V65.7756ZM61.157 58.8619H61.9958V57.7197H61.157V58.8619ZM61.157 65.7756H61.9958V59.9528H61.157V65.7756ZM62.6475 59.9536L64.9977 65.7756H65.7887L68.0684 59.9528H67.301L65.4112 65.0628H65.3869L63.4745 59.9528H62.6475V59.9536ZM69.2377 63.0564H73.928C73.9868 61.4201 73.2059 59.7854 71.2465 59.7854C69.309 59.7854 68.4937 61.3312 68.4937 62.865C68.4937 64.5229 69.309 65.9438 71.2465 65.9438C72.7806 65.9438 73.5841 65.1765 73.9029 63.8566H73.1589C72.9224 64.7368 72.3327 65.3463 71.2465 65.3463C69.8164 65.3463 69.2502 64.0928 69.2377 63.0564V63.0564ZM73.1832 62.4605H69.2377C69.3559 61.3977 70.0286 60.3829 71.2465 60.3829C72.451 60.3829 73.148 61.388 73.1841 62.4605H73.1832ZM78.5807 61.6572H79.3247C79.2769 60.3941 78.3089 59.7854 77.0927 59.7854C76.0174 59.7854 74.8012 60.2371 74.8012 61.4201C74.8012 62.4133 75.5326 62.7296 76.5014 62.9763L77.4584 63.1806C78.1311 63.3375 78.792 63.5642 78.792 64.2402C78.792 65.0532 77.8249 65.3455 77.1279 65.3455C76.1357 65.3455 75.3917 64.8489 75.3321 63.891H74.5881C74.7056 65.3119 75.6744 65.9438 77.0927 65.9438C78.2259 65.9438 79.536 65.4584 79.536 64.1954C79.536 63.1806 78.652 62.7056 77.8015 62.5831L76.8092 62.3684C76.3001 62.2435 75.5452 62.0192 75.5452 61.388C75.5452 60.6312 76.3252 60.3829 76.987 60.3829C77.8367 60.3829 78.5454 60.7777 78.5807 61.6572ZM85.0761 59.9544V58.2051H84.3321V59.9544H83.2685V60.5519H84.3321V64.5342C84.3204 65.5273 84.6634 65.8421 85.6548 65.8421L85.9845 65.8317L86.3175 65.8197V65.211C86.1055 65.2333 85.8924 65.2445 85.6792 65.2446C85.1465 65.211 85.0761 64.9402 85.0761 64.4773V60.5527H86.3175V59.9544H85.0761V59.9544ZM87.3793 57.7197V65.7756H88.125V62.3796C88.1476 61.2407 88.8564 60.3829 90.0374 60.3829C91.2418 60.3829 91.5849 61.139 91.5849 62.1417V65.7756H92.3297V62.0296C92.3297 60.6424 91.8089 59.7854 90.0953 59.7854C89.233 59.7854 88.4177 60.2595 88.1476 60.9579H88.125V57.7197H87.3785H87.3793ZM93.733 59.9544V65.7756H94.4795V62.6736C94.4795 61.4657 95.3988 60.5182 96.7475 60.5855V59.8759C95.647 59.8294 94.8192 60.3829 94.4434 61.3192H94.4191V59.9544H93.733ZM102.701 62.865C102.701 61.1958 101.686 59.7854 99.8182 59.7854C97.9528 59.7854 96.9371 61.195 96.9371 62.865C96.9371 64.5342 97.952 65.9438 99.8182 65.9438C101.685 65.9438 102.701 64.5342 102.701 62.865ZM97.6811 62.865C97.6811 61.6235 98.3898 60.3829 99.8182 60.3829C101.247 60.3829 101.956 61.6235 101.956 62.865C101.956 64.1065 101.247 65.3455 99.8182 65.3455C98.3898 65.3455 97.6811 64.1057 97.6811 62.865ZM108.749 65.774V59.9536H108.004V63.0108C108.004 64.1962 107.45 65.3455 106.173 65.3455C104.992 65.3455 104.578 64.7929 104.542 63.7436V59.9536H103.796V63.7332C103.796 65.0868 104.402 65.9438 105.936 65.9438C106.846 65.9438 107.649 65.5033 108.04 64.7248H108.063V65.774H108.749V65.774ZM160.563 59.9544H161.805V60.5519H160.563V64.4773C160.563 64.9402 160.634 65.211 161.166 65.2446C161.378 65.2446 161.591 65.2326 161.804 65.211V65.8197L161.472 65.8317L161.141 65.8421C160.15 65.8421 159.808 65.5273 159.819 64.5342V60.5519H158.755V59.9544H159.82V58.2051H160.563V59.9544V59.9544ZM162.888 58.8619H163.726V57.7197H162.888V58.8619ZM162.888 65.7756H163.726V59.9528H162.888V65.7756ZM170.519 62.8642C170.519 61.1958 169.505 59.7854 167.638 59.7854C165.772 59.7854 164.755 61.195 164.755 62.865C164.755 64.5342 165.772 65.943 167.638 65.943C169.505 65.943 170.519 64.5334 170.519 62.865V62.8642ZM165.499 62.8642C165.499 61.6235 166.21 60.3829 167.638 60.3829C169.068 60.3829 169.776 61.6243 169.776 62.865C169.776 64.1065 169.068 65.3463 167.638 65.3463C166.21 65.3463 165.499 64.1057 165.499 62.865V62.8642ZM171.617 59.9544V65.7756H172.363V62.3796C172.387 61.2399 173.095 60.3829 174.275 60.3829C175.481 60.3829 175.824 61.139 175.824 62.1425V65.7756H176.568V62.0296C176.568 60.6432 176.048 59.7854 174.335 59.7854C173.473 59.7854 172.658 60.2595 172.387 60.9579H172.363V59.9544H171.617H171.617Z" fill="white"/>
<path fill-rule="evenodd" clip-rule="evenodd" d="M123.672 28.2706L120.107 37.3437L116.357 28.2706H107.523V43.3932H113.321L112.814 32.683L117.681 43.3932H122.592L127.434 32.6245L126.923 43.3932H132.721V28.2706H123.672V28.2706ZM148.606 28.2706H140.193L134.018 43.3932H140.051L141.038 40.8646H147.899L148.938 43.3932H154.863L148.606 28.2698V28.2706ZM141.705 38.0084L144.294 31.2084H144.663L147.311 38.0084H141.705Z" fill="white"/>
<path fill-rule="evenodd" clip-rule="evenodd" d="M9 25.1357H176.568V22H9V25.1357ZM9 49.667H176.568V46.5313H9V49.667ZM115.304 65.3006V59.9543H114.559V60.9579H114.534C114.24 60.3139 113.483 59.7853 112.598 59.7853C110.839 59.7853 109.845 61.1157 109.845 62.7176C109.845 64.3755 110.65 65.7075 112.598 65.7075C113.473 65.7075 114.191 65.2213 114.534 64.5101H114.56V65.3006C114.56 66.7223 113.967 67.4992 112.597 67.4992C111.771 67.4992 110.981 67.1965 110.815 66.3386H110.071C110.177 67.5801 111.38 68.0975 112.598 68.0975C114.594 68.0975 115.292 67.0379 115.304 65.3006V65.3006ZM114.559 62.7961C114.559 63.9815 113.884 65.1092 112.598 65.1092C111.229 65.1092 110.591 63.9695 110.591 62.7961C110.591 61.5898 111.181 60.3828 112.598 60.3828C114.004 60.3828 114.559 61.6563 114.559 62.7961ZM116.707 57.7197H117.452V60.9579H117.478C117.749 60.2595 118.563 59.7853 119.425 59.7853C121.137 59.7853 121.659 60.6423 121.659 62.0296V65.7756H120.912V62.1425C120.912 61.1389 120.571 60.3828 119.366 60.3828C118.184 60.3828 117.477 61.2398 117.452 62.3788V65.7748H116.707V57.7205V57.7197ZM126.357 58.8618H127.196V57.7197H126.357V58.8618ZM126.357 65.7756H127.196V59.9527H126.357V65.7756ZM128.519 59.9543V65.7756H129.265V62.3796C129.288 61.2406 129.996 60.3828 131.177 60.3828C132.382 60.3828 132.726 61.1389 132.726 62.1417V65.7756H133.47V62.0296C133.47 60.6423 132.949 59.7853 131.237 59.7853C130.374 59.7853 129.559 60.2595 129.288 60.9579H129.265V59.9543H128.518H128.519ZM134.861 59.9543V65.7756H135.607V62.3796C135.629 61.2406 136.338 60.3828 137.519 60.3828C138.724 60.3828 139.067 61.1389 139.067 62.1417V65.7756H139.811V62.0296C139.811 60.6423 139.291 59.7853 137.579 59.7853C136.716 59.7853 135.901 60.2595 135.629 60.9579H135.607V59.9543H134.861V59.9543ZM146.673 62.865C146.673 61.1958 145.657 59.7853 143.791 59.7853C141.926 59.7853 140.91 61.195 140.91 62.865C140.91 64.5341 141.926 65.9438 143.791 65.9438C145.657 65.9438 146.673 64.5341 146.673 62.865ZM141.654 62.865C141.654 61.6235 142.362 60.3828 143.791 60.3828C145.22 60.3828 145.929 61.6235 145.929 62.865C145.929 64.1064 145.22 65.3455 143.791 65.3455C142.362 65.3455 141.654 64.1056 141.654 62.865ZM147.098 59.9535L149.448 65.7756H150.24L152.52 59.9527H151.752L149.862 65.0635H149.839L147.925 59.9535H147.097H147.098ZM153.181 61.7364H153.925C153.949 60.7897 154.635 60.3828 155.554 60.3828C156.43 60.3828 157.15 60.6199 157.15 61.5794C157.15 62.221 156.808 62.3003 156.194 62.3684L155.59 62.4356L155.003 62.5077C154.622 62.5638 154.263 62.6391 153.955 62.7592C153.337 62.9995 152.921 63.4224 152.921 64.241C152.921 65.4136 153.843 65.9438 154.965 65.9438C156.135 65.9438 156.666 65.5153 157.184 64.7584H157.209C157.209 65.3679 157.327 65.774 158.082 65.774C158.284 65.774 158.404 65.7636 158.569 65.7291V65.1316C158.493 65.1593 158.412 65.1745 158.331 65.1765C158.035 65.1765 157.894 65.0187 157.894 64.748V61.6579C157.894 60.1001 156.725 59.7853 155.65 59.7853C154.257 59.7853 153.252 60.3724 153.181 61.7364V61.7364ZM157.151 62.5918V63.5193C157.162 64.6575 156.157 65.3455 155.023 65.3455C154.328 65.3455 153.665 64.9058 153.665 64.1953C153.665 63.6266 154.057 63.3439 154.607 63.1781C154.907 63.0939 155.213 63.0323 155.522 62.9939L156.014 62.9274L156.5 62.8529C156.701 62.8193 157.031 62.7624 157.126 62.5918H157.151V62.5918Z" fill="white"/>
</svg>
