<svg width="185" height="90" viewBox="0 0 185 90" fill="none" xmlns="http://www.w3.org/2000/svg">
<path d="M40.3237 79.002H139.999C144.895 79.002 149 75.1225 149 70.1585V50.1426C94.82 49.2104 52.0148 72.0183 40.3237 79.0005" fill="white"/>
<path d="M148.999 45.4894V10.7338H45.695C40.7978 10.7338 36.6914 14.618 36.6914 19.5804V75.7393C47.1155 69.3801 91.8204 44.5572 148.999 45.4894Z" fill="white"/>
<path d="M52.1583 29.9925C51.2092 28.905 50.2601 28.4389 48.9979 28.4389C47.4192 28.4389 46.3135 29.3711 46.3135 30.6093C46.3135 31.6969 46.9463 32.1599 49.3158 33.0921C51.524 33.8689 52.3149 34.335 53.264 34.9565C54.3681 35.884 55.0008 37.2792 55.0008 38.9883C55.0008 42.7109 52.3165 45.349 48.2101 45.349C45.366 45.349 43.3113 44.2614 41.5745 41.7802L44.1022 39.4544C45.0513 41.1634 46.4717 41.9356 48.2117 41.9356C49.9485 41.9356 51.2108 40.8527 51.2108 39.299C51.2108 38.5253 50.8944 37.9038 50.1035 37.4393C49.7903 37.1285 48.9994 36.8178 47.4208 36.3517C43.9456 35.1119 42.6817 33.7167 42.6817 31.2308C42.6817 27.9743 45.2094 25.6469 48.6847 25.6469C50.7378 25.6469 52.791 26.4206 54.3712 27.8189L52.1567 29.9941L52.1583 29.9925ZM60.5292 25.3362H63.0553L68.4271 37.9022L73.9555 25.3377H76.4817L79.7987 44.886H76.0071L74.2719 33.0936L68.9001 45.0414H67.7928L62.5824 33.0936L60.6842 44.886H56.899L60.5292 25.3362ZM91.4882 30.9201L88.6457 37.7484H94.1741L91.4882 30.9201V30.9201ZM87.3803 40.8527L85.6435 44.8844H81.5355L89.9064 25.3362H92.7537L100.963 44.8844H97.0135L95.2782 40.8511H87.3803V40.8527Z" fill="#F47920"/>
</svg>
