<svg width="185" height="90" viewBox="0 0 185 90" fill="none" xmlns="http://www.w3.org/2000/svg">
<path fill-rule="evenodd" clip-rule="evenodd" d="M9.34133 25H176.659C179.064 25 181 26.935 181 29.3392V59.7426C181 62.1467 179.064 64.0818 176.659 64.0818H9.34133C6.936 64.0818 5 62.1467 5 59.7426V29.3392C5 26.9643 6.936 25 9.34133 25Z" fill="#313D47"/>
<path fill-rule="evenodd" clip-rule="evenodd" d="M176.66 27.1694H9.34254C8.13988 27.1694 7.17188 28.1369 7.17188 29.339V59.7425C7.17188 60.9445 8.13988 61.912 9.34254 61.912H176.66C177.863 61.912 178.831 60.9445 178.831 59.7425V29.339C178.831 28.1663 177.863 27.1694 176.66 27.1694Z" fill="white"/>
<path d="M156.711 35.6723H155.098V43.8522H156.271C158.442 43.8522 159.938 42.4449 159.938 39.7476C159.938 37.1676 158.471 35.6723 156.711 35.6723ZM170.468 55.4038H161.962C161.492 55.4038 161.316 55.1692 161.199 54.8467L157.415 46.1977H155.098V51.9735C155.098 52.941 155.274 53.1169 155.978 53.2928L157.063 53.6153C157.356 53.674 157.503 53.7619 157.503 54.0258V55.0226C157.503 55.2572 157.356 55.4331 157.092 55.4331H144.948C144.714 55.4331 144.538 55.2865 144.538 55.0226V54.0258C144.538 53.7913 144.684 53.6447 144.948 53.6153L146.356 53.2928C147.236 53.1169 147.559 52.7944 147.559 51.9735V37.1969C147.559 36.3173 147.266 36.0241 146.474 35.8189L144.948 35.4671C144.714 35.4378 144.538 35.3205 144.538 35.0566V34.0891C144.538 33.8252 144.684 33.6787 144.948 33.6787H159.38C165.042 33.6787 168.092 35.8189 168.092 39.7476C168.092 42.3277 166.391 44.1161 164.103 44.9957L167.711 51.9735C168.092 52.6771 168.444 53.029 169.031 53.1756L170.41 53.586C170.703 53.6447 170.85 53.7326 170.85 53.9965V54.9933C170.85 55.2572 170.703 55.4038 170.468 55.4038ZM141.37 55.4038H121.042C120.778 55.4038 120.631 55.2572 120.631 54.9933V54.0258C120.631 53.7913 120.778 53.6447 121.042 53.6153L122.45 53.2928C123.33 53.1169 123.652 52.7944 123.652 51.8855V37.1676C123.652 36.2294 123.271 35.9655 122.45 35.7603L121.042 35.4378C120.778 35.4085 120.631 35.2912 120.631 35.0273V34.0891C120.631 33.8252 120.778 33.6787 121.042 33.6787H140.578C140.812 33.6787 140.988 33.8252 140.988 34.0891V39.5424C140.988 39.7769 140.842 39.9528 140.578 39.9528H139.228C138.906 39.9528 138.642 39.8649 138.466 39.5131L137.263 37.1676C136.852 36.4053 136.295 36.1414 135.063 36.1414H131.22V42.9434H133.186C133.743 42.9434 134.154 42.7381 134.3 42.0638L134.506 41.0376C134.564 40.7738 134.652 40.5979 134.887 40.5979H136.236C136.471 40.5979 136.647 40.7445 136.647 41.0083V47.2239C136.647 47.5171 136.5 47.6637 136.236 47.6637H134.887C134.682 47.6637 134.564 47.5171 134.506 47.2239L134.3 46.1977C134.154 45.5234 133.743 45.3182 133.186 45.3182H131.22V52.8824H135.738C137.175 52.8824 137.908 52.5599 138.143 51.7683L138.994 48.7191C139.082 48.3966 139.316 48.3087 139.522 48.3087H141.34C141.634 48.3087 141.78 48.4553 141.78 48.8364V54.9933C141.78 55.2572 141.634 55.4038 141.37 55.4038ZM118.636 55.4038H109.748C109.279 55.4038 108.927 55.2279 108.722 54.8174L103.383 45.1129L101.77 46.315V52.0615C101.77 52.7944 102.151 53.1169 102.708 53.2635L103.794 53.6153C104.058 53.674 104.234 53.7619 104.234 54.0258V55.0226C104.234 55.2572 104.087 55.4331 103.823 55.4331H91.5909C91.3563 55.4331 91.1803 55.2865 91.1803 55.0226V54.0258C91.1803 53.7913 91.3269 53.6447 91.5909 53.6153L92.9696 53.2928C93.9082 53.0876 94.2016 52.7651 94.2016 51.8855V37.1676C94.2016 36.1414 93.7323 35.9362 92.7643 35.7016L91.5909 35.4671C91.3563 35.4378 91.1803 35.3205 91.1803 35.0566V34.0891C91.1803 33.8252 91.3269 33.6787 91.5909 33.6787H103.823C104.058 33.6787 104.234 33.8252 104.234 34.0891V35.086C104.234 35.3205 104.087 35.4378 103.794 35.4964L103.148 35.7016C102.239 35.9655 101.77 36.1414 101.77 37.1383V43.1486L108.399 37.7833C109.25 37.1383 109.778 36.6398 109.778 36.288C109.778 35.9069 109.543 35.7603 109.132 35.6723L108.282 35.4964C108.018 35.4671 107.871 35.3498 107.871 35.086V34.0891C107.871 33.8252 108.018 33.6787 108.282 33.6787H116.847C117.082 33.6787 117.258 33.8252 117.258 34.0891V35.086C117.258 35.3205 117.111 35.4378 116.847 35.4964L115.498 35.8776C114.852 36.0242 114.236 36.3173 113.474 36.9917L109.22 40.7151L116.084 52.1787C116.554 52.941 117.082 53.2635 117.668 53.3808L118.607 53.6447C118.842 53.7033 119.018 53.7913 119.018 54.0551V55.052C119.047 55.2572 118.9 55.4038 118.636 55.4038ZM87.2202 54.8467C85.7242 55.4624 83.0842 55.9902 80.2389 55.9902C72.3189 55.9902 67.0682 51.2405 67.0682 44.4093C67.0682 37.6953 72.6122 33.0923 80.5029 33.0923C82.5562 33.0923 85.1669 33.4441 86.9269 34.0012C87.5722 34.2064 87.7776 34.4409 87.7776 35.3498V40.0994C87.7776 40.334 87.6309 40.5099 87.3669 40.5099H85.6949C85.3429 40.5099 85.0789 40.3926 84.9616 40.0701L84.1109 37.9885C83.3189 36.0535 82.4096 35.2325 80.4736 35.2325C77.3349 35.2325 75.5749 38.7508 75.5749 44.5266C75.5749 50.361 77.3936 53.9085 80.7376 53.9085C82.6736 53.9085 83.8176 53.029 84.3456 51.5924L85.2842 48.9244C85.4016 48.5725 85.6949 48.4846 86.0176 48.4846H87.7483C87.9829 48.4846 88.1589 48.6312 88.1589 48.895V53.3515C88.1589 54.4363 88.0416 54.5242 87.2202 54.8467ZM51.9322 39.4544L48.8229 47.0773H54.7189L51.9322 39.4544ZM67.3616 55.4038H54.6016C54.3669 55.4038 54.1909 55.2572 54.1909 54.9933V54.0258C54.1909 53.7913 54.3669 53.6153 54.6309 53.6153L55.7749 53.4981C56.6842 53.4394 56.8896 52.941 56.6256 52.208L55.5402 49.3641H47.9722L47.4149 50.6835C47.2096 51.2405 47.0042 51.7683 47.0042 52.1787C47.0042 53.1169 47.4442 53.3515 48.4122 53.4981L49.3216 53.6153C49.5562 53.6447 49.7322 53.7619 49.7322 54.0258V55.0226C49.7322 55.2572 49.5856 55.4331 49.3216 55.4331H41.9589C41.7242 55.4331 41.5482 55.2865 41.5482 55.0226V54.0258C41.5482 53.7913 41.6949 53.6447 41.9589 53.6153L42.6042 53.4981C43.4256 53.3515 43.8069 52.8824 44.2469 51.8269L51.5802 34.1771C51.6976 33.8839 51.8736 33.708 52.1082 33.708H56.9189C57.1536 33.708 57.3589 33.8839 57.4469 34.1771L64.8389 52.4719C65.0442 53.029 65.3962 53.3222 66.0709 53.4101L67.3909 53.6447C67.6256 53.674 67.8016 53.7913 67.8016 54.0551V55.052C67.7722 55.2572 67.6256 55.4038 67.3616 55.4038ZM44.9216 35.4964L44.0416 35.731C43.3082 35.8776 43.0149 36.2001 42.7509 37.0796L37.1776 54.964C37.0896 55.2572 36.8842 55.4331 36.6496 55.4331H32.9829C32.7482 55.4331 32.5136 55.2572 32.4549 54.964L28.9642 43.3245L25.6202 54.964C25.5616 55.2572 25.3269 55.4331 25.0923 55.4331H21.4256C21.1909 55.4331 20.9856 55.2572 20.8976 54.964L14.9136 36.7864C14.6496 36.0242 14.2976 35.8189 13.4762 35.6723L12.5669 35.5257C12.3323 35.4964 12.1562 35.3791 12.1562 35.1153V34.0891C12.1562 33.8252 12.3029 33.6787 12.5669 33.6787H23.9482C24.1829 33.6787 24.3589 33.8252 24.3589 34.0891V35.086C24.3589 35.3205 24.2122 35.4378 23.9482 35.4671L23.0389 35.6137C22.4816 35.7016 22.1002 35.9655 22.1002 36.4346C22.1002 36.5812 22.1296 36.7571 22.1882 36.933L25.0336 46.5789L28.4363 34.1771C28.4949 33.8839 28.7296 33.708 28.9642 33.708H32.5136C32.7482 33.708 32.9536 33.8839 33.0416 34.1771L36.9429 47.048L39.6122 37.7246C39.7296 37.3142 39.8469 36.6985 39.8469 36.376C39.8469 35.9069 39.5536 35.7603 38.9082 35.643L38.1456 35.5257C37.9109 35.4964 37.7349 35.3791 37.7349 35.1153V34.0891C37.7349 33.8252 37.8816 33.6787 38.1456 33.6787H44.8629C45.0976 33.6787 45.2736 33.8252 45.2736 34.0891V35.086C45.3322 35.3498 45.1562 35.4378 44.9216 35.4964Z" fill="#313D47"/>
</svg>
