<svg width="185" height="90" viewBox="0 0 185 90" fill="none" xmlns="http://www.w3.org/2000/svg">
<path d="M99.7743 33.3823H106.1V62.4144H99.7743V33.3823ZM90.9661 33.3823L76.4619 52.6649V33.3823H70.1364V62.4144H76.4619L98.2995 33.3823H90.9661ZM51.49 33.3823V39.7397C51.49 39.7397 55.9667 40.1635 58.0004 41.2761C59.7325 42.2236 62.1602 43.4301 62.1602 48.7725C62.1602 52.6387 59.4475 56.057 51.49 56.057H49.0602V33.3823H42.7347L21.6453 62.4144H28.9787L42.7347 43.4776V62.4144H51.49C51.49 62.4144 68.3933 62.8731 68.3933 48.7725C68.3933 34.512 54.1306 33.3823 51.49 33.3823ZM163.047 54.5478C162.439 53.9208 161.459 52.8818 160.869 52.2389L150.219 40.6448C149.629 40.0018 149.859 39.4759 150.73 39.4759H162.415C162.506 39.4759 162.595 39.4854 162.682 39.5003V33.3823H146.166C143.56 33.3823 141.447 35.5012 141.447 38.1151V38.1152C141.447 40.2652 142.4 41.2492 142.4 41.2492C143.007 41.8761 143.987 42.9151 144.578 43.5581L155.227 55.1521C155.818 55.795 155.588 56.3209 154.716 56.3209H141.447V62.4145H157.967C157.967 62.4145 164 62.3263 164 57.6818C164 55.5318 163.047 54.5478 163.047 54.5478V54.5478Z" fill="white"/>
<path d="M131.968 47.9602C136.443 47.9602 140.072 44.3213 140.072 39.8324C140.072 35.3435 136.443 31.7046 131.968 31.7046C127.492 31.7046 123.864 35.3435 123.864 39.8324C123.864 44.3213 127.492 47.9602 131.968 47.9602Z" fill="white"/>
<path d="M135.888 46.946C134.636 50.3842 131.346 52.8386 127.484 52.8386C122.544 52.8386 118.54 48.8222 118.54 43.8677C118.54 39.6547 121.436 36.1218 125.34 35.158C125.721 34.6152 126.167 34.121 126.668 33.6864C125.407 33.3435 124.107 33.1699 122.801 33.1704C114.656 33.1704 108.054 39.7921 108.054 47.9601C108.054 56.1282 114.656 62.7498 122.801 62.7498C130.945 62.7498 137.547 56.1284 137.547 47.9602C137.547 47.2484 137.496 46.5486 137.399 45.8638C136.938 46.2813 136.431 46.6444 135.888 46.946Z" fill="white"/>
</svg>
