<svg width="185" height="90" viewBox="0 0 185 90" fill="none" xmlns="http://www.w3.org/2000/svg">
<path d="M43.6573 38.791C43.6573 35.5501 45.5918 33.7199 48.3632 33.7199C51.0292 33.7199 53.2258 35.7055 53.2258 38.53C53.2258 41.7715 51.0292 43.7578 48.3632 43.7578C45.5918 43.7578 43.6573 41.6667 43.6573 38.791ZM154.865 38.791C154.865 35.5501 156.799 33.7199 159.57 33.7199C162.237 33.7199 164.432 35.7055 164.432 38.5825C164.432 41.7715 162.236 43.7578 159.57 43.7578C156.799 43.7578 154.865 41.6667 154.865 38.791ZM108.489 33.6157C110.371 33.6157 111.313 34.4521 111.73 35.4446L104.044 38.0588C104.097 35.3397 105.823 33.6157 108.489 33.6157ZM80.6222 39.4189V29.9029H75.6541V38.844C75.6541 41.563 74.6623 43.4975 71.839 43.4975C69.0151 43.4975 68.022 41.563 68.022 38.844V29.9029H63.0552V39.4189C63.0552 44.4381 66.0351 47.993 71.839 47.993C77.6428 47.993 80.6228 44.4381 80.6228 39.4189H80.6222ZM140.748 47.5224H145.715V29.9029H140.748V47.5224ZM85.4323 37.5887V47.523H90.3997V37.9545C90.3997 35.1849 91.9153 34.0857 96.5163 34.2424V29.6407C88.7256 29.0665 85.4323 31.994 85.4323 37.5887ZM116.593 45.797L114.502 42.2422C113.247 43.1823 111.835 43.8102 109.587 43.8102C107.496 43.8102 105.77 43.1304 104.829 41.7191L117.064 37.8503C116.593 32.464 113.56 29.4841 108.541 29.4841C103.156 29.4841 99.4963 33.1962 99.4963 38.6867C99.4963 44.3863 103.522 47.9924 109.587 47.9924C112.62 47.9924 114.972 47.209 116.593 45.797ZM130.5 34.0333C132.226 34.0333 133.219 34.5033 134.317 35.2355L136.461 31.4709C134.84 30.1644 132.801 29.4847 130.082 29.4847C124.905 29.4847 120.619 32.9353 120.619 38.7391C120.619 44.5424 124.801 47.9924 130.343 47.9924C133.115 47.9924 135.049 47.3657 136.67 45.9013L134.474 42.2934C133.428 43.078 132.434 43.6011 130.658 43.6011C127.782 43.6011 125.637 41.7715 125.637 38.8434C125.637 35.811 127.782 34.0333 130.5 34.0333ZM53.2776 47.5224H57.9317V29.9029H53.2776V31.5764C51.9187 30.112 50.0885 29.4316 47.631 29.4316C42.4033 29.4316 38.5863 33.1962 38.5863 38.7391C38.5863 44.2815 42.3509 47.9924 47.631 47.9924C50.0367 47.9924 51.9187 47.3139 53.2776 45.8495V47.5224ZM164.485 47.5224H169.138V29.9029H164.485V31.7331C163.021 30.1644 161.035 29.4322 158.839 29.4322C153.61 29.4322 149.793 33.1962 149.793 38.7391C149.793 44.2815 153.558 47.9924 158.839 47.9924C161.035 47.9924 163.021 47.2602 164.485 45.6404V47.5224ZM140.749 26.7138H145.715V21.9037H140.748L140.749 26.7138ZM36.4421 34.6618V29.9035H28.496V28.9622C28.496 25.8256 30.4292 24.4136 36.7037 25.1458V20.5436C27.7638 19.3938 23.5286 22.6346 23.5286 28.6489V47.5224H28.4966V34.6618" fill="white"/>
<path d="M15.7896 34.6599H20.3388V29.9016H15.7896V34.6599Z" fill="white"/>
<path d="M39.5378 56.7122C39.5378 56.1212 39.969 55.6907 40.5914 55.6907C41.1971 55.6907 41.6277 56.1212 41.6277 56.7122C41.6277 57.3019 41.1971 57.7343 40.5914 57.7343C39.9684 57.7343 39.5378 57.3025 39.5378 56.7122ZM39.8093 58.8668H41.405V67.2435H39.8086L39.8093 58.8668ZM43.8631 60.2547C43.8631 59.776 43.8631 59.3294 43.8465 58.8668H45.4114V59.9043H45.4262C45.8093 59.2017 46.8628 58.6108 48.0429 58.6108C49.9742 58.6108 51.1548 59.8402 51.1548 62.0096V67.2435H49.559V62.4408C49.559 60.9881 49.0483 59.9993 47.5808 59.9993C46.1442 59.9993 45.4589 61.085 45.4589 62.1373V67.2435H43.8631V60.2547ZM53.1188 65.8556H56.5176C57.6027 65.8556 58.2411 65.7921 58.2411 64.9772C58.2411 64.2753 57.7297 64.1642 56.6768 63.9089L55.5918 63.6374C54.0447 63.255 52.9751 62.9342 52.9751 61.1164C52.9751 60.3984 53.2144 59.887 53.5981 59.5521C54.1391 59.0734 54.8904 58.8668 56.0223 58.8668H59.1182L59.006 60.2547H55.9588C54.9694 60.2547 54.4907 60.3509 54.4907 61.0677C54.4907 61.7709 54.8423 61.8825 55.9748 62.1533L57.0925 62.4247C58.5125 62.7763 59.7721 63.1113 59.7721 64.8495C59.7721 65.8075 59.4217 66.367 58.8789 66.7167C58.2411 67.1158 57.4275 67.2435 56.3579 67.2435H53.1188V65.8556ZM61.5128 60.2547C61.5128 59.776 61.5128 59.3294 61.4968 58.8668H63.1092C63.1092 59.2017 63.0925 59.5681 63.0925 59.9364H63.1246C63.6674 59.1857 64.6729 58.6108 65.9491 58.6108C68.4221 58.6108 70.0333 60.478 70.0333 63.0952C70.0333 65.6798 68.3098 67.5316 65.9171 67.5316C64.5933 67.5316 63.6508 66.9887 63.0765 66.2707C63.0926 66.6371 63.1092 67.5143 63.1092 68.3291V70.1155H61.5128V60.2547ZM68.3591 63.0317C68.3591 61.2922 67.3537 59.9993 65.6777 59.9993C64.0018 59.9993 62.9969 61.3082 62.9969 63.0317C62.9969 64.8347 63.9864 66.1437 65.6777 66.1437C67.3537 66.1437 68.3591 64.8347 68.3591 63.0317ZM71.6469 56.7122C71.6469 56.1212 72.0781 55.6907 72.7005 55.6907C73.3062 55.6907 73.7368 56.1212 73.7368 56.7122C73.7368 57.3019 73.3062 57.7343 72.7005 57.7343C72.0775 57.7343 71.6469 57.3025 71.6469 56.7122ZM71.9183 58.8668H73.5141V67.2435H71.9177L71.9183 58.8668ZM75.9716 60.2547C75.9716 59.776 75.9716 59.3294 75.9555 58.8668H77.5038V59.9364H77.5199C77.7913 59.1536 78.5568 58.6595 79.5147 58.6595C79.7214 58.6595 79.8336 58.675 79.9453 58.6916V60.1597C79.8016 60.1264 79.5462 60.1116 79.371 60.1116C77.8542 60.1116 77.568 61.2441 77.568 62.8238V67.2435H75.9716V60.2547ZM81.1419 56.7122C81.1419 56.1212 81.5731 55.6907 82.1955 55.6907C82.8013 55.6907 83.2318 56.1212 83.2318 56.7122C83.2318 57.3019 82.8013 57.7343 82.1955 57.7343C81.5725 57.7343 81.1419 57.3025 81.1419 56.7122ZM81.4134 58.8668H83.0091V67.2435H81.4134V58.8668ZM85.4672 60.2547C85.4672 59.776 85.4672 59.3294 85.4506 58.8668H87.0155V59.9043H87.0309C87.4134 59.2017 88.4669 58.6108 89.6482 58.6108C91.5789 58.6108 92.7589 59.8402 92.7589 62.0096V67.2435H91.1632V62.4408C91.1632 60.9881 90.653 59.9993 89.1849 59.9993C87.7489 59.9993 87.063 61.085 87.063 62.1373V67.2435H85.4672V60.2547ZM94.6273 68.8232L95.6636 67.6426C96.4137 68.3291 97.3723 68.8559 98.68 68.8559C100.196 68.8559 101.457 68.1367 101.457 66.1585C101.457 65.9833 101.457 65.6798 101.473 65.5046H101.44C100.883 66.1585 99.781 66.7963 98.5369 66.7963C96.1429 66.7963 94.5478 65.0414 94.5478 62.6968C94.5478 60.3509 96.2385 58.6108 98.5683 58.6108C99.8606 58.6108 100.818 59.1061 101.376 59.8075H101.393V58.8668H102.908C102.893 59.314 102.908 59.5681 102.908 60.0308V66.238C102.908 69.1582 100.85 70.2759 98.5517 70.2759C97.0854 70.2759 95.6969 69.7806 94.6273 68.8232ZM101.457 62.7282C101.457 61.1645 100.436 59.9839 98.7923 59.9839C97.1959 59.9839 96.2077 61.196 96.2077 62.7282C96.2077 64.2438 97.1959 65.4238 98.7923 65.4238C100.419 65.4238 101.457 64.2123 101.457 62.7282ZM109.309 60.2547C109.309 59.776 109.309 59.3294 109.293 58.8668H110.858V59.9043H110.872C111.256 59.2017 112.261 58.6108 113.442 58.6108C114.671 58.6108 115.581 59.1228 116.091 60.0474H116.122C116.505 59.4411 117.43 58.6108 119.059 58.6108C120.989 58.6108 122.138 59.8402 122.138 62.0096V67.2435H120.542V62.4408C120.542 60.9881 120.063 59.9993 118.597 59.9993C117.159 59.9993 116.522 61.085 116.522 62.1373V67.2435H114.926V62.4408C114.926 60.9881 114.447 59.9993 112.979 59.9993C111.543 59.9993 110.905 61.085 110.905 62.1373V67.2435H109.309L109.309 60.2547ZM123.928 63.0946C123.928 60.399 125.748 58.6108 128.332 58.6108C130.916 58.6108 132.736 60.3984 132.736 63.0952C132.736 65.7279 130.965 67.5303 128.332 67.5303C125.699 67.5303 123.928 65.7279 123.928 63.0952V63.0946ZM131.076 63.0786C131.076 61.3237 129.975 59.9993 128.332 59.9993C126.688 59.9993 125.587 61.3237 125.587 63.0786C125.587 64.8662 126.672 66.1424 128.332 66.1424C129.991 66.1424 131.076 64.8656 131.076 63.0786ZM136.12 66.2066V67.2429H134.619V55.8362H136.215V57.5264C136.215 58.3721 136.215 59.0901 136.199 59.9358H136.23C136.773 59.1863 137.778 58.6114 139.055 58.6114C141.528 58.6114 143.141 60.4786 143.141 63.0959C143.141 65.6804 141.417 67.5309 139.023 67.5309C137.7 67.5309 136.694 66.9733 136.12 66.2072V66.2066ZM141.465 63.0311C141.465 61.2922 140.459 59.9999 138.784 59.9999C137.109 59.9999 136.103 61.3076 136.103 63.0311C136.103 64.8353 137.092 66.1431 138.784 66.1431C140.46 66.1431 141.465 64.8353 141.465 63.0311ZM144.752 56.7122C144.752 56.1212 145.184 55.6907 145.806 55.6907C146.414 55.6907 146.844 56.1212 146.844 56.7122C146.844 57.3019 146.414 57.7343 145.806 57.7343C145.184 57.7343 144.753 57.3025 144.753 56.7122H144.752ZM145.025 58.8668H146.62V67.2435H145.025L145.025 58.8668ZM149.078 67.2423H150.674V55.8344H149.078V67.2423ZM152.861 56.7122C152.861 56.1212 153.292 55.6907 153.914 55.6907C154.521 55.6907 154.953 56.1212 154.953 56.7122C154.953 57.3019 154.521 57.7343 153.914 57.7343C153.291 57.7343 152.861 57.3025 152.861 56.7122ZM153.133 58.8668H154.728V67.2435H153.133V58.8668ZM157.584 60.2547H156.514V58.8668H157.584V56.5845H159.179V58.8668H161.558V60.2547H159.179V67.2435H157.584V60.2547ZM165.101 67.291L161.894 58.8649H163.585L165.196 63.4135C165.468 64.2111 165.708 64.9137 165.915 65.5842H165.947C166.218 64.802 166.394 64.1796 166.681 63.3654L168.292 58.8656H170L165.533 70.1155H163.904" fill="white"/>
</svg>
