<svg width="185" height="90" viewBox="0 0 185 90" fill="none" xmlns="http://www.w3.org/2000/svg">
<path d="M75.7888 62.3737V56.7417C75.7977 56.3653 75.7485 55.9898 75.6429 55.6285C75.5646 55.3615 75.4248 55.1165 75.2346 54.9133C75.0558 54.7343 74.8353 54.6026 74.5929 54.53C74.3232 54.449 74.0428 54.4092 73.7613 54.412C73.4835 54.4097 73.2074 54.4546 72.9446 54.5447C72.7058 54.6265 72.476 54.7326 72.2589 54.8613C72.0716 54.9723 71.8935 55.098 71.7262 55.2373C71.5753 55.365 71.461 55.4633 71.3834 55.5322C71.3364 55.355 71.2539 55.1892 71.1411 55.0448C71.0282 54.9003 70.8873 54.7802 70.7268 54.6917C70.3591 54.4961 69.9468 54.3995 69.5304 54.4116C69.2315 54.4094 68.9348 54.4618 68.6548 54.5664C68.4058 54.6583 68.1664 54.7743 67.94 54.9128C67.7079 55.0618 67.4883 55.2295 67.2835 55.4143L66.9918 54.5592H65.6628V62.3737H67.3263V56.4762C67.4954 56.3633 67.6707 56.26 67.8513 56.1666C68.0229 56.0814 68.2009 56.0099 68.3838 55.9528C68.5794 55.8894 68.7837 55.857 68.9893 55.8568C69.2217 55.844 69.4527 55.9005 69.6531 56.0191C69.8136 56.1273 69.8939 56.3681 69.8939 56.7416V62.3737H71.5572V56.4762C71.7342 56.3638 71.9169 56.2605 72.1043 56.1666C72.2789 56.0823 72.4594 56.0108 72.6443 55.9528C72.8303 55.891 73.0247 55.8586 73.2206 55.8568C73.4531 55.8441 73.6841 55.9005 73.8845 56.0191C74.045 56.1273 74.1251 56.3681 74.1251 56.7416V62.3737H75.7888ZM81.4045 60.6191C81.2685 60.7335 81.1219 60.8347 80.9668 60.9213C80.8143 61.0023 80.6558 61.0713 80.4927 61.1278C80.3075 61.1927 80.1125 61.2251 79.9163 61.2237C79.7765 61.2244 79.637 61.2095 79.5005 61.1795C79.3713 61.1512 79.2525 61.0874 79.1576 60.9953C79.0502 60.8852 78.9702 60.7513 78.9243 60.6045C78.8597 60.3945 78.8301 60.1753 78.8366 59.9557C78.829 59.7145 78.8686 59.4741 78.9533 59.2481C79.0222 59.0725 79.1415 58.9212 79.2962 58.8133C79.4665 58.7021 79.6576 58.6269 79.858 58.5922C80.1132 58.5446 80.3717 58.5175 80.6312 58.5111L81.4045 58.4963V60.6193V60.6191ZM83.0678 62.3737V56.9479C83.0842 56.5033 83.0123 56.0599 82.8563 55.6432C82.7356 55.341 82.5367 55.0764 82.2799 54.8765C82.027 54.6907 81.7352 54.5646 81.4265 54.5079C81.0875 54.4428 80.7431 54.4107 80.3979 54.4121C80.0782 54.4115 79.7588 54.4338 79.4422 54.4788C79.1358 54.5232 78.8659 54.5724 78.6324 54.6263C78.3989 54.6801 78.1411 54.7514 77.8591 54.8401V56.2113C77.898 56.201 77.9952 56.1731 78.1508 56.1274C78.3063 56.0818 78.4935 56.0333 78.7124 55.9822C78.9313 55.9313 79.1648 55.8855 79.4129 55.8447C79.6468 55.8053 79.8834 55.7849 80.1205 55.7837C80.3009 55.7823 80.4812 55.7923 80.6603 55.8133C80.8021 55.8287 80.939 55.8743 81.0616 55.9472C81.1761 56.0201 81.2653 56.1266 81.3169 56.2521C81.3828 56.4302 81.4125 56.6197 81.4044 56.8094V57.5382H80.1059C79.7782 57.5396 79.4511 57.5692 79.1284 57.6266C78.7918 57.6841 78.4696 57.8068 78.18 57.9878C77.8792 58.1792 77.6309 58.4428 77.4578 58.7545C77.2522 59.1523 77.1542 59.597 77.1734 60.0444C77.1566 60.4826 77.2311 60.9195 77.3923 61.3273C77.513 61.6174 77.7004 61.8749 77.9393 62.079C78.1492 62.2516 78.3965 62.3728 78.6614 62.433C78.9055 62.4898 79.1551 62.5194 79.4057 62.5214C79.7065 62.5263 80.0056 62.4762 80.2884 62.3737C80.5158 62.2913 80.7315 62.1798 80.9301 62.0419C81.1196 61.9014 81.2932 61.7407 81.4479 61.5627L81.6378 62.3737H83.0678ZM86.8903 51.7583H85.2269V62.3737H86.8903V51.7583ZM91.4136 62.3737L88.8167 57.8473L91.122 54.5596H89.152L87.1385 57.9063L89.5167 62.5211L91.4136 62.3737ZM96.1392 57.9063H93.3815C93.3398 57.288 93.4712 56.6702 93.7609 56.1223C93.8823 55.9473 94.0468 55.8065 94.2385 55.7136C94.4302 55.6206 94.6426 55.5786 94.8552 55.5917C95.0486 55.5801 95.2414 55.623 95.4116 55.7155C95.5818 55.808 95.7227 55.9464 95.8183 56.115C96.066 56.6783 96.176 57.2924 96.1393 57.9067L96.1392 57.9063ZM97.7587 58.4665C97.7967 57.7683 97.7203 57.0686 97.5325 56.3951C97.4011 55.9377 97.1665 55.5166 96.8468 55.1641C96.5857 54.8851 96.2563 54.6792 95.8911 54.5668C95.555 54.4657 95.2061 54.4136 94.8552 54.412C94.4763 54.4134 94.0998 54.4731 93.7391 54.589C93.354 54.7135 93.0056 54.9313 92.725 55.223C92.3927 55.5792 92.1436 56.0047 91.9956 56.4688C91.7931 57.1148 91.6994 57.7899 91.7183 58.4665C91.6916 59.1995 91.7978 59.9313 92.032 60.6264C92.196 61.0954 92.4743 61.516 92.8418 61.8503C93.1588 62.1239 93.5405 62.3116 93.9507 62.3958C94.3443 62.4777 94.7451 62.5196 95.1471 62.5208C95.4205 62.5213 95.6936 62.5016 95.9642 62.4618C96.2267 62.4224 96.4577 62.3782 96.6572 62.3293C96.8566 62.2803 97.0779 62.2164 97.321 62.1376V60.7371C97.04 60.8186 96.7905 60.8875 96.5725 60.9436C96.3546 60.9997 96.1195 61.0482 95.8673 61.089C95.6319 61.1283 95.3937 61.1488 95.155 61.1501C94.9647 61.1484 94.7749 61.1285 94.5883 61.0907C94.3772 61.0475 94.1799 60.9531 94.0139 60.8157C93.8138 60.6431 93.6592 60.4239 93.5639 60.1774C93.4273 59.8047 93.3655 59.4086 93.3821 59.0119H97.7448L97.7593 58.4664L97.7587 58.4665ZM103.831 59.2553C103.752 59.0256 103.634 58.8115 103.481 58.6227C103.34 58.4501 103.17 58.3033 102.978 58.1888C102.789 58.0766 102.592 57.9805 102.387 57.9017L101.643 57.6222C101.516 57.5732 101.392 57.5241 101.271 57.4751C101.154 57.4288 101.043 57.367 100.943 57.2913C100.847 57.2201 100.768 57.13 100.709 57.0266C100.646 56.9014 100.616 56.762 100.622 56.6218C100.609 56.4921 100.634 56.3614 100.694 56.2454C100.753 56.1293 100.845 56.0328 100.957 55.9673C101.239 55.832 101.55 55.7688 101.862 55.7833C102.055 55.7849 102.248 55.8022 102.438 55.8349C102.647 55.8695 102.842 55.9064 103.022 55.9454C103.202 55.9845 103.413 56.0386 103.656 56.1078V54.7548C103.462 54.6852 103.277 54.6281 103.102 54.5836C102.927 54.539 102.725 54.4993 102.496 54.4644C102.252 54.4285 102.006 54.4111 101.76 54.4122C101.405 54.4102 101.053 54.4522 100.709 54.5372C100.396 54.6124 100.102 54.7476 99.8408 54.9352C99.5887 55.1221 99.3859 55.3675 99.2499 55.6503C99.0961 55.9826 99.0211 56.3459 99.0311 56.7119C99.0232 57.0147 99.0779 57.3158 99.1916 57.5965C99.2869 57.8249 99.4255 58.0327 99.5999 58.2083C99.7564 58.3639 99.9329 58.4978 100.125 58.6064C100.295 58.7025 100.47 58.7888 100.65 58.8648L101.336 59.1448C101.482 59.2038 101.618 59.2603 101.744 59.3143C101.861 59.3627 101.97 59.4299 102.065 59.5134C102.163 59.5991 102.241 59.7061 102.291 59.8262C102.342 59.9463 102.364 60.0763 102.357 60.2064C102.365 60.3779 102.327 60.5484 102.247 60.7003C102.179 60.8193 102.077 60.9164 101.956 60.9803C101.823 61.0479 101.68 61.0928 101.533 61.1132C101.366 61.1382 101.198 61.1505 101.029 61.15C100.843 61.1468 100.657 61.1271 100.475 61.091C100.261 61.0517 100.057 61.0074 99.862 60.9582C99.6675 60.9089 99.434 60.845 99.1615 60.7665V62.182C99.3948 62.2507 99.6065 62.3072 99.7963 62.3514C99.9862 62.3956 100.195 62.435 100.424 62.4694C100.648 62.5035 100.875 62.5208 101.102 62.5211C101.444 62.5209 101.786 62.4939 102.123 62.4402C102.45 62.3915 102.763 62.2764 103.043 62.1019C103.323 61.921 103.552 61.6699 103.707 61.3735C103.893 60.9842 103.981 60.5548 103.962 60.1235C103.968 59.8288 103.924 59.5353 103.831 59.2556L103.831 59.2553ZM110.66 54.5596H108.996V62.3737H110.66V54.5596ZM110.565 51.6403C110.47 51.5401 110.356 51.4607 110.229 51.4073C110.102 51.354 109.966 51.3278 109.828 51.3306C109.691 51.3274 109.556 51.3533 109.43 51.4068C109.304 51.4602 109.191 51.5398 109.098 51.6403C108.911 51.8458 108.807 52.114 108.807 52.3922C108.807 52.6705 108.911 52.9386 109.098 53.1441C109.191 53.2446 109.304 53.3242 109.43 53.3776C109.556 53.431 109.691 53.4569 109.828 53.4537C109.966 53.4565 110.102 53.4304 110.229 53.3771C110.356 53.3237 110.47 53.2444 110.565 53.1441C110.757 52.9408 110.864 52.6718 110.864 52.3922C110.864 52.1126 110.757 51.8436 110.565 51.6403ZM116.986 62.2262V60.8845C116.782 60.9435 116.609 60.9877 116.468 61.0171C116.327 61.0465 116.179 61.076 116.023 61.1056C115.898 61.1316 115.771 61.1465 115.644 61.1499C115.483 61.1586 115.323 61.1201 115.184 61.0393C115.072 60.9656 115.016 60.7863 115.016 60.5011V55.7538H116.592L116.767 54.5596H115.016V52.2006L113.455 52.8051L113.353 54.5597H112.039V55.7538H113.353V60.4866C113.341 60.8364 113.391 61.1856 113.498 61.5187C113.572 61.749 113.705 61.9557 113.884 62.1177C114.064 62.2796 114.283 62.3909 114.52 62.4401C114.769 62.4958 115.023 62.523 115.279 62.5212C115.56 62.5212 115.84 62.4965 116.117 62.4473C116.329 62.4131 116.539 62.3663 116.745 62.3074C116.886 62.2631 116.966 62.2363 116.985 62.2263L116.986 62.2262ZM128.79 62.3737V56.7417C128.8 56.3642 128.745 55.9878 128.629 55.6285C128.541 55.3578 128.388 55.1125 128.184 54.9133C127.989 54.7334 127.754 54.6021 127.498 54.53C127.211 54.4487 126.914 54.409 126.616 54.412C126.293 54.4108 125.972 54.4656 125.667 54.5742C125.393 54.6702 125.127 54.7886 124.872 54.9281C124.608 55.0799 124.357 55.2525 124.121 55.4441V51.7583H122.457V62.3737H124.121V56.5498C124.329 56.4206 124.546 56.3049 124.77 56.2035C124.975 56.1142 125.184 56.0355 125.397 55.9675C125.611 55.8962 125.835 55.8588 126.061 55.8568C126.333 55.8419 126.605 55.8978 126.849 56.0192C127.034 56.1274 127.126 56.3781 127.126 56.7712V62.3737H128.79ZM134.406 60.6191C134.27 60.7334 134.123 60.8347 133.968 60.9213C133.815 61.0023 133.657 61.0713 133.494 61.1278C133.309 61.1927 133.114 61.2251 132.917 61.2237C132.778 61.2244 132.638 61.2096 132.502 61.1795C132.372 61.1512 132.254 61.0874 132.159 60.9953C132.051 60.8852 131.971 60.7513 131.925 60.6045C131.861 60.3945 131.831 60.1753 131.838 59.9557C131.83 59.7145 131.87 59.4741 131.955 59.2481C132.023 59.0725 132.143 58.9213 132.297 58.8133C132.468 58.7021 132.659 58.6269 132.859 58.5922C133.114 58.5446 133.373 58.5175 133.632 58.5111L134.406 58.4963V60.6193L134.406 60.6191ZM136.069 62.3737V56.9479C136.085 56.5033 136.013 56.0598 135.857 55.6432C135.737 55.341 135.538 55.0764 135.281 54.8765C135.028 54.6906 134.736 54.5646 134.427 54.5079C134.088 54.4428 133.744 54.4107 133.399 54.4121C133.079 54.4115 132.76 54.4338 132.443 54.4788C132.137 54.5232 131.867 54.5724 131.633 54.6263C131.4 54.6801 131.142 54.7514 130.86 54.8401V56.2113C130.899 56.201 130.996 56.1731 131.152 56.1274C131.307 56.0818 131.495 56.0333 131.714 55.9822C131.932 55.9313 132.166 55.8855 132.414 55.8447C132.647 55.8053 132.884 55.7849 133.121 55.7837C133.302 55.7823 133.482 55.7923 133.661 55.8133C133.803 55.8286 133.94 55.8743 134.062 55.9472C134.177 56.0201 134.266 56.1266 134.318 56.2521C134.384 56.4302 134.413 56.6197 134.405 56.8094V57.5382H133.107C132.779 57.5396 132.452 57.5692 132.129 57.6266C131.792 57.6841 131.47 57.8068 131.181 57.9878C130.88 58.1791 130.631 58.4427 130.458 58.7545C130.253 59.1523 130.155 59.597 130.174 60.0444C130.157 60.4826 130.232 60.9194 130.393 61.3273C130.513 61.6174 130.701 61.8749 130.94 62.079C131.15 62.2516 131.397 62.3729 131.662 62.433C131.906 62.4898 132.156 62.5194 132.406 62.5214C132.707 62.5264 133.006 62.4765 133.289 62.374C133.516 62.2917 133.732 62.1802 133.931 62.0423C134.12 61.9018 134.294 61.7411 134.449 61.563L134.638 62.374L136.069 62.3737ZM142.459 59.9262C142.392 60.2353 142.26 60.5267 142.073 60.7814C141.936 60.9613 141.748 61.0951 141.533 61.1648C141.341 61.2226 141.142 61.2523 140.942 61.2532C140.796 61.2533 140.649 61.2434 140.504 61.2237C140.358 61.2041 140.222 61.1796 140.096 61.15C139.97 61.1205 139.863 61.0909 139.775 61.0615C139.687 61.032 139.629 61.0125 139.6 61.0025V56.2846C139.663 56.2266 139.732 56.1747 139.804 56.1296C139.916 56.0577 140.033 55.9936 140.154 55.9379C140.3 55.8706 140.451 55.8163 140.607 55.7758C140.773 55.7312 140.945 55.7088 141.117 55.7091C141.32 55.7075 141.521 55.7348 141.716 55.79C141.909 55.8507 142.076 55.9755 142.19 56.1439C142.346 56.3904 142.451 56.6665 142.496 56.9549C142.579 57.4392 142.616 57.9303 142.606 58.4216C142.618 58.9269 142.569 59.4319 142.46 59.9253L142.459 59.9262ZM143.984 56.2552C143.844 55.8057 143.602 55.3946 143.277 55.0534C143.019 54.797 142.696 54.616 142.343 54.5301C142.032 54.4551 141.714 54.4155 141.395 54.4121C141.152 54.4089 140.91 54.4463 140.68 54.5228C140.484 54.5882 140.295 54.6747 140.118 54.7807C139.974 54.8667 139.839 54.9681 139.717 55.0829C139.635 55.1598 139.557 55.241 139.483 55.3262L139.221 54.5595H137.937V65.1748H139.6V62.182C139.656 62.2156 139.715 62.2452 139.775 62.2704C139.881 62.3161 139.991 62.353 140.103 62.3809C140.235 62.4153 140.381 62.4472 140.541 62.4767C140.702 62.5063 140.866 62.5211 141.03 62.521C141.23 62.5192 141.43 62.5044 141.628 62.4767C141.868 62.443 142.103 62.3811 142.328 62.2924C142.584 62.1919 142.822 62.0528 143.036 61.8798C143.283 61.6767 143.492 61.4322 143.656 61.1573C143.86 60.8086 144.01 60.4307 144.101 60.0368C144.222 59.5073 144.278 58.9653 144.269 58.4223C144.294 57.6892 144.198 56.9569 143.984 56.2552H143.984ZM149.76 59.9262C149.692 60.2353 149.56 60.5267 149.373 60.7814C149.236 60.9613 149.048 61.095 148.833 61.1648C148.641 61.2226 148.442 61.2523 148.242 61.2532C148.096 61.2533 147.949 61.2434 147.804 61.2237C147.658 61.2041 147.522 61.1796 147.396 61.15C147.27 61.1205 147.163 61.0909 147.075 61.0615C146.988 61.032 146.929 61.0125 146.9 61.0025V56.2846C146.963 56.2266 147.031 56.1747 147.104 56.1296C147.216 56.0577 147.333 55.9936 147.454 55.9379C147.6 55.8705 147.751 55.8163 147.907 55.7758C148.073 55.7312 148.245 55.7088 148.417 55.7091C148.619 55.7075 148.821 55.7348 149.015 55.79C149.209 55.8507 149.376 55.9755 149.49 56.1439C149.646 56.3904 149.751 56.6665 149.796 56.9549C149.879 57.4392 149.916 57.9303 149.906 58.4216C149.918 58.9269 149.869 59.4319 149.76 59.9253L149.76 59.9262ZM151.285 56.2552C151.144 55.8057 150.902 55.3946 150.577 55.0534C150.319 54.797 149.996 54.616 149.643 54.5301C149.332 54.4551 149.014 54.4156 148.695 54.4121C148.452 54.4089 148.21 54.4463 147.98 54.5228C147.784 54.5882 147.595 54.6747 147.418 54.7807C147.274 54.8667 147.139 54.968 147.017 55.0829C146.935 55.1598 146.857 55.241 146.783 55.3262L146.521 54.5595H145.237V65.1748H146.9V62.182C146.956 62.2156 147.015 62.2451 147.075 62.2704C147.181 62.3161 147.291 62.353 147.403 62.3809C147.535 62.4153 147.681 62.4472 147.841 62.4767C148.002 62.5063 148.166 62.5211 148.33 62.521C148.53 62.5192 148.73 62.5044 148.928 62.4767C149.168 62.443 149.403 62.3811 149.628 62.2924C149.884 62.1919 150.122 62.0528 150.336 61.8798C150.583 61.6767 150.793 61.4322 150.956 61.1573C151.16 60.8086 151.31 60.4307 151.401 60.0368C151.522 59.5073 151.578 58.9653 151.569 58.4223C151.594 57.6892 151.498 56.9569 151.284 56.2552H151.285ZM157.497 57.9063H154.739C154.698 57.288 154.829 56.6702 155.119 56.1223C155.24 55.9473 155.405 55.8065 155.596 55.7136C155.788 55.6206 156 55.5786 156.213 55.5917C156.406 55.5801 156.599 55.623 156.769 55.7156C156.94 55.8081 157.081 55.9465 157.176 56.115C157.424 56.6783 157.534 57.2924 157.497 57.9067V57.9063ZM159.117 58.4665C159.155 57.7683 159.078 57.0686 158.891 56.3951C158.759 55.9377 158.524 55.5166 158.205 55.1641C157.944 54.8851 157.614 54.6792 157.249 54.5668C156.913 54.4657 156.564 54.4136 156.213 54.412C155.834 54.4134 155.458 54.4731 155.097 54.589C154.712 54.7135 154.364 54.9313 154.083 55.223C153.751 55.5792 153.502 56.0047 153.354 56.4688C153.151 57.1148 153.057 57.7899 153.076 58.4665C153.05 59.1995 153.156 59.9313 153.39 60.6264C153.554 61.0954 153.832 61.516 154.2 61.8503C154.517 62.1238 154.898 62.3116 155.309 62.3958C155.702 62.4777 156.103 62.5196 156.505 62.5208C156.778 62.5213 157.051 62.5016 157.322 62.4618C157.584 62.4224 157.815 62.3782 158.015 62.3293C158.214 62.2803 158.435 62.2164 158.678 62.1376V60.7371C158.397 60.8186 158.148 60.8875 157.93 60.9436C157.712 60.9997 157.477 61.0482 157.225 61.089C156.989 61.1283 156.751 61.1487 156.512 61.1501C156.322 61.1484 156.132 61.1285 155.946 61.0907C155.735 61.0475 155.537 60.9531 155.371 60.8157C155.171 60.6431 155.017 60.4239 154.921 60.1774C154.785 59.8047 154.723 59.4086 154.74 59.0119H159.102L159.117 58.4664L159.117 58.4665ZM166.68 62.3737V56.7417C166.689 56.3642 166.635 55.9878 166.519 55.6285C166.429 55.3563 166.277 55.1088 166.074 54.906C165.881 54.7225 165.646 54.5907 165.388 54.5227C165.1 54.4462 164.803 54.409 164.506 54.412C164.17 54.4095 163.837 54.4644 163.521 54.5742C163.243 54.6696 162.974 54.7905 162.718 54.9354C162.456 55.0918 162.204 55.2667 161.967 55.4588L161.675 54.5595H160.347V62.3737H162.01V56.5352C162.234 56.3977 162.436 56.2847 162.616 56.1962C162.816 56.1002 163.023 56.0212 163.236 55.9602C163.468 55.8916 163.709 55.8568 163.951 55.8568C164.093 55.8559 164.234 55.8658 164.374 55.8863C164.494 55.9036 164.608 55.9464 164.71 56.0118C164.81 56.0791 164.888 56.1738 164.936 56.2846C164.996 56.4395 165.023 56.6052 165.016 56.7712V62.3737H166.68Z" fill="white"/>
<path d="M168 25.0403H142.351L155.175 47.7715L168 25.0403ZM156.204 40.7768L156.232 33.1995L162.618 29.545L156.204 40.7769V40.7768ZM147.742 29.545L154.128 33.1995L154.155 40.7767L147.742 29.545ZM161.682 27.8555L155.175 31.6153L148.857 27.8555H161.682Z" fill="white"/>
<path d="M29.3417 36.1579C30.4004 36.1082 31.3986 35.6497 32.1262 34.8788C32.8537 34.108 33.2538 33.085 33.2423 32.0251V29.21C33.2492 28.1357 32.8349 27.1014 32.0881 26.329C31.3414 25.5566 30.3216 25.1076 29.2477 25.0784H18V47.8096L29.8048 47.7999C30.8478 47.7297 31.824 47.2618 32.5321 46.4928C33.2401 45.7238 33.626 44.7124 33.61 43.6672V40.2899C33.6059 39.7369 33.4917 39.1902 33.274 38.6818C33.0564 38.1734 32.7396 37.7135 32.3423 37.3288C31.9449 36.9442 31.475 36.6425 30.9598 36.4415C30.4446 36.2404 29.8945 36.144 29.3417 36.1579ZM28.2181 34.4686H23.014V29.2103H28.2181V34.4686ZM28.5954 43.677H23.014V38.037H28.5953V43.6767L28.5954 43.677Z" fill="white"/>
<path d="M134.214 36.1198C135.273 36.0702 136.271 35.6119 136.998 34.8412C137.726 34.0704 138.126 33.0475 138.115 31.9877V29.1725C138.121 28.0981 137.707 27.0637 136.96 26.2913C136.214 25.5188 135.194 25.0697 134.12 25.0403H122.872V47.7714H127.886V37.9986H133.468V47.7714H138.482V40.2517C138.478 39.6987 138.364 39.1521 138.146 38.6437C137.928 38.1354 137.612 37.6755 137.214 37.2909C136.817 36.9062 136.347 36.6046 135.832 36.4036C135.317 36.2025 134.767 36.1061 134.214 36.1199L134.214 36.1198ZM133.09 34.4303H127.886V29.1727H133.09V34.4304V34.4303Z" fill="white"/>
<path d="M99.9564 47.7766C98.8674 47.7673 97.8263 47.3277 97.0601 46.5538C96.294 45.7798 95.865 44.7343 95.8667 43.6452V25.0464H101.26V43.6452H106.642V47.7766H99.9564Z" fill="white"/>
<path d="M70.7916 47.7711V28.7903H66.1458V25.0403H80.8299V28.7903H76.1841V47.7711H70.7916Z" fill="white"/>
<path d="M49.6218 29.1895C49.6198 28.1004 50.0486 27.0547 50.8147 26.2805C51.5808 25.5064 52.6219 25.0666 53.711 25.0571H61.1527C62.2417 25.0666 63.2829 25.5064 64.0489 26.2806C64.815 27.0547 65.2437 28.1004 65.2417 29.1895V47.7877H60.2178V28.8078H54.646V47.7878H49.6218V29.1895Z" fill="white"/>
<path d="M39.4051 47.7698C38.3162 47.7604 37.2752 47.3207 36.5091 46.5467C35.7431 45.7728 35.3142 44.7273 35.3159 43.6383V29.1807C35.314 28.0916 35.7429 27.046 36.5089 26.2719C37.275 25.4978 38.3161 25.058 39.4051 25.0486H48.1405V29.1807H40.3299V34.439H47.2057V38.0083H40.3299V43.648H48.1405V47.7794L39.4051 47.7698Z" fill="white"/>
<path d="M85.8597 47.7698C84.7708 47.7604 83.7298 47.3207 82.9637 46.5467C82.1977 45.7728 81.7688 44.7273 81.7705 43.6383V29.1807C81.7686 28.0916 82.1975 27.046 82.9635 26.2719C83.7296 25.4978 84.7707 25.058 85.8597 25.0486H94.5951V29.1807H86.7851V34.439H93.6608V38.0083H86.7852V43.648H94.5952V47.7794L85.8598 47.7698H85.8597Z" fill="white"/>
<path d="M112.445 47.7698C111.356 47.7606 110.314 47.321 109.548 46.547C108.782 45.773 108.353 44.7274 108.355 43.6383V29.1807C108.353 28.0915 108.782 27.0457 109.548 26.2716C110.314 25.4975 111.356 25.0578 112.445 25.0486H121.18V29.1807H113.369V34.439H120.244V38.0083H113.369V43.648H121.18V47.7794L112.445 47.7698Z" fill="white"/>
</svg>
