<svg width="185" height="90" viewBox="0 0 185 90" fill="none" xmlns="http://www.w3.org/2000/svg">
<g clip-path="url(#clip0_1572_2944)">
<path d="M143.707 36.7422L138.508 27.8457H155.864L152.971 32.7959H158.756L161.649 37.746H145.465C144.739 37.746 144.073 37.3636 143.712 36.7475L143.707 36.7422Z" fill="white"/>
<path d="M152.965 32.7944H164.535L173.213 17.9492H162.815C162.089 17.9492 161.422 18.3316 161.062 18.9477L152.97 32.7944H152.965Z" fill="white"/>
<path d="M150.081 27.8452H155.866L158.759 22.895L152.973 13L147.774 21.8965C147.414 22.5126 147.414 23.2774 147.774 23.8988L150.081 27.8452Z" fill="white"/>
<path d="M144.294 47.6464H154.693C155.419 47.6464 156.086 47.264 156.446 46.6479L158.752 42.6962L155.86 37.7461H150.074L144.289 47.6464H144.294Z" fill="white"/>
<path d="M155.857 37.7446L164.535 52.5898L169.734 43.6933C170.094 43.0772 170.094 42.3123 169.734 41.6909L167.422 37.7446L161.637 27.8496L158.744 32.7998L161.637 37.7499H155.852L155.857 37.7446Z" fill="white"/>
<path d="M167.43 37.7446H179.001L173.802 28.8481C173.441 28.2267 172.769 27.8496 172.049 27.8496H167.436L164.543 32.7998L167.436 37.7499L167.43 37.7446Z" fill="white"/>
<path d="M40.7118 51.6074V71.8754C39.3784 72.0985 38.4966 72.1941 37.4482 72.1941C34.4695 72.1941 32.6414 70.9725 32.6414 66.5641V51.6074H25.2969V66.5641C25.2969 74.8338 30.5875 78.0047 37.4751 78.0047C42.1151 78.0047 44.8787 77.3355 48.1263 75.9652V51.6127H40.7064L40.7118 51.6074Z" fill="white"/>
<path d="M7 77.463V51.6074H14.3499V71.4027H23.6731V77.463H7Z" fill="white"/>
<path d="M85.5551 77.4948C85.012 65.6612 83.3883 59.1176 78.8504 51.634H72.6618C71.6187 53.1636 68.6132 57.4924 68.1024 60.881H67.855C67.355 57.4924 64.3333 53.1424 63.2902 51.6074H57.1017C52.5638 59.0858 50.94 65.6346 50.4023 77.463H58.0856C58.0856 73.8459 57.806 66.1764 61.0912 59.7709C62.9945 62.2885 64.1451 68.2744 64.1451 72.8793V77.463L71.8123 77.4948V72.9058C71.8123 68.3009 72.9629 62.3151 74.8662 59.8028C78.1514 66.2029 77.8718 73.8725 77.8718 77.4948H85.5497H85.5551Z" fill="white"/>
<path d="M132.59 64.4077L140.284 51.6074H131.412L127.837 58.5706C127.67 58.8999 127.547 59.2823 127.471 59.6435H127.342C127.245 59.2664 127.1 58.8786 126.934 58.5706L123.39 51.6074H114.616L122.208 64.2378L113.75 77.463H122.595L126.891 69.6659C127.047 69.3366 127.181 69.0286 127.267 68.7152H127.375C127.444 69.0339 127.584 69.3366 127.729 69.6288L131.993 77.463H140.757L132.59 64.4077Z" fill="white"/>
<path d="M95.3222 51.6074C87.5529 60.9447 87.4615 75.9492 87.4023 77.463H95.4297C95.4297 67.5202 97.6826 60.1427 99.8279 57.6836H99.8386C101.989 60.1427 104.242 67.5202 104.242 77.463H112.264C112.2 75.9492 112.108 60.9447 104.344 51.6074H95.3276H95.3222Z" fill="white"/>
</g>
<defs>
<clipPath id="clip0_1572_2944">
<rect width="172" height="65" fill="white" transform="translate(7 13)"/>
</clipPath>
</defs>
</svg>
