<svg width="185" height="90" viewBox="0 0 185 90" fill="none" xmlns="http://www.w3.org/2000/svg">
<path d="M157.93 35.376C157.93 40.8589 155.519 45.53 151.212 50.1515C140.404 61.6472 117.656 67.1963 91.3506 67.1963C64.7289 67.1963 41.7821 61.9122 31.1068 50.1515C27.0827 45.6791 24.8047 40.6601 24.8047 35.376C24.8047 30.092 27.0827 24.6754 31.1068 20.203C41.7821 8.4423 64.7289 2.74414 91.3673 2.74414C117.673 2.74414 140.42 8.69077 151.229 20.1865C155.519 24.8079 157.93 29.9595 157.93 35.376Z" fill="white"/>
<path d="M115.266 46.4077H128.618V41.8525H120.021V36.7838H128.202V32.4936H120.021V28.0875H128.485V23.5488H115.266V46.4077Z" fill="#313D47"/>
<path d="M68.4922 28.0875H72.9818V46.4077H77.7541V28.0875H82.2437V23.5488H68.4922V28.0875Z" fill="#313D47"/>
<path d="M90.702 23.5488H85.9297V46.4077H90.702V23.5488Z" fill="#313D47"/>
<path d="M112.303 23.5488H106.799L101.295 31.4335L100.896 32.2948V23.5488H96.1406V46.4077H100.896V37.1151L101.295 37.8439L106.799 46.4077H112.503L104.521 34.7795L112.303 23.5488Z" fill="#313D47"/>
<path d="M142.501 37.1813L143.648 36.9163C146.325 36.055 148.071 33.504 148.071 30.7709C148.071 27.8224 146.259 23.5488 140.09 23.5488H132.773V46.4077H137.546V37.2476L138.011 38.1089L143.515 46.3912H149.219L142.9 37.7114L142.501 37.1813ZM137.529 33.9016V27.8887H140.073C142.285 27.8887 143.366 29.2967 143.366 30.8372C143.366 32.3114 142.434 33.7194 140.073 33.9182H137.529V33.9016Z" fill="#313D47"/>
<path d="M56.8833 41.8527V36.8337H64.9978V32.4938H56.8833V28.1539H65.3304V23.6153H52.111V26.4975C49.966 24.3607 47.4884 23.4165 44.6616 23.4165C41.3692 23.4165 38.6256 24.5594 36.281 26.8288C33.9364 29.0981 32.7891 31.8478 32.7891 34.9785C32.7891 38.5895 34.0694 41.5214 36.6135 43.741C38.9581 45.7453 41.5854 46.7558 44.462 46.7558C47.3387 46.7558 50.1655 45.6128 52.111 43.6748V46.4742H65.3969V41.9355L56.8833 41.8527ZM51.7119 37.5128C51.7119 37.5791 51.7119 37.5791 51.6454 37.6453C51.5789 37.7779 51.5124 37.8441 51.5124 37.9766C51.4459 38.0429 51.4459 38.1091 51.3794 38.1754C51.3129 38.2417 51.2463 38.3742 51.2463 38.4404C51.1798 38.5067 51.1133 38.6392 51.1133 38.7055C51.0468 38.7717 50.9803 38.838 50.9138 38.9705C50.8473 39.103 50.7808 39.1693 50.6477 39.3018C50.5812 39.368 50.5812 39.4343 50.5147 39.5006C50.3817 39.6331 50.2486 39.8318 50.0491 39.9644C49.9826 40.0306 49.9826 40.0306 49.9161 40.0969C48.5692 41.3061 46.8898 41.9687 44.9443 41.9687C43.0653 41.9687 41.3858 41.3061 39.9724 40.0306C38.559 38.7552 37.8274 37.0821 37.8274 35.0779C37.8274 33.1398 38.4925 31.5331 39.9059 30.2576C40.5045 29.7275 41.1198 29.2472 41.7849 28.9821C42.7161 28.5183 43.7969 28.3196 45.0108 28.3196C47.0228 28.3196 48.7022 28.9821 50.1156 30.3239C50.2486 30.4564 50.4482 30.6552 50.5812 30.7877C50.6477 30.8539 50.6477 30.9202 50.7142 30.9864C50.7807 31.119 50.8473 31.1852 50.9803 31.3177C51.0468 31.384 51.1133 31.4502 51.1133 31.5828C51.1798 31.649 51.2463 31.7815 51.2463 31.8478C51.3129 31.9141 51.3794 32.0466 51.3794 32.1128C51.4459 32.1791 51.4459 32.2453 51.5124 32.3116C51.5789 32.4441 51.6454 32.5104 51.6454 32.6429C51.6454 32.7091 51.6454 32.7091 51.7119 32.7754C51.978 33.5042 52.111 34.3159 52.111 35.1772C52.1775 35.9723 52.0445 36.784 51.7119 37.5128Z" fill="#313D47"/>
<path d="M151.096 9.10498H152.027L153.64 11.7719H154.787L153.041 9.03873C153.507 8.97247 153.906 8.83995 154.189 8.57492C154.521 8.30989 154.654 7.91234 154.654 7.36572C154.654 6.7694 154.455 6.28903 154.122 6.024C153.723 5.75897 153.191 5.62646 152.443 5.62646H150.098V11.8381H151.113L151.096 9.10498ZM151.096 8.22707V6.42155H152.31C152.443 6.42155 152.642 6.42155 152.775 6.42155C152.908 6.42155 153.108 6.48781 153.174 6.55406C153.308 6.62032 153.441 6.68658 153.507 6.81909C153.574 6.95161 153.64 7.08412 153.64 7.2829C153.64 7.48167 153.574 7.68044 153.507 7.81296C153.441 7.94547 153.308 8.01173 153.174 8.07799C153.041 8.14425 152.908 8.2105 152.709 8.2105C152.509 8.2105 152.376 8.2105 152.177 8.2105H151.096V8.22707ZM157.265 6.28903C156.999 5.62646 156.6 5.01357 156.051 4.54977C155.519 4.08596 154.97 3.68842 154.305 3.40682C153.64 3.14179 152.958 3.00928 152.227 3.00928C151.495 3.00928 150.747 3.14179 150.082 3.40682C149.417 3.67185 148.801 4.0694 148.336 4.54977C147.804 5.01357 147.471 5.62646 147.122 6.28903C146.856 6.95161 146.656 7.76326 146.656 8.55836C146.656 9.35345 146.789 10.0988 147.055 10.7614C147.321 11.424 147.72 12.0369 148.203 12.5007C148.668 12.9645 149.283 13.362 149.949 13.7099C150.614 13.9749 151.362 14.1074 152.16 14.1074C152.892 14.1074 153.574 13.9749 154.239 13.7099C154.904 13.4449 155.519 13.0473 155.985 12.5669C156.517 12.1031 156.849 11.4903 157.199 10.8277C157.465 10.1651 157.664 9.35345 157.664 8.55836C157.664 7.76326 157.531 6.96817 157.265 6.28903ZM156.184 10.4467C155.985 10.9768 155.652 11.5234 155.253 11.9209C154.854 12.3185 154.388 12.6498 153.906 12.8485C153.374 13.0473 152.825 13.1798 152.227 13.1798C151.562 13.1798 150.946 13.0473 150.414 12.8485C149.882 12.5835 149.4 12.2522 149.067 11.8381C148.668 11.4406 148.402 10.9105 148.203 10.3639C148.003 9.81725 147.937 9.22093 147.937 8.55836C147.937 7.89578 148.07 7.2829 148.269 6.68658C148.469 6.09026 148.801 5.60989 149.2 5.21234C149.599 4.8148 150.065 4.48351 150.547 4.28474C151.079 4.08596 151.628 3.95345 152.227 3.95345C152.825 3.95345 153.374 4.08596 153.906 4.28474C154.438 4.48351 154.92 4.8148 155.253 5.21234C155.652 5.60989 155.918 6.07369 156.184 6.68658C156.384 7.21664 156.517 7.89578 156.517 8.55836C156.517 9.22093 156.384 9.90008 156.184 10.4467Z" fill="white"/>
<path d="M37.347 76.9524C37.7461 76.9524 38.0121 77.0187 38.3613 77.1512C38.6273 77.2837 38.8934 77.4162 39.0929 77.615C39.2925 77.8138 39.492 78.0788 39.5585 78.3438C39.6915 78.6089 39.6915 78.9401 39.6915 79.2052C39.6915 79.669 39.5585 80.1328 39.359 80.4806C39.1594 80.8119 38.8269 81.077 38.3447 81.2757C38.5442 81.342 38.7437 81.4082 38.8768 81.5408C39.0098 81.6733 39.1428 81.8058 39.2093 82.0046C39.2758 82.2033 39.3424 82.3359 39.4089 82.6009C39.4754 82.7997 39.4754 82.9984 39.4754 83.1972C39.4754 83.3297 39.4754 83.4622 39.4754 83.661C39.4754 83.8598 39.4754 83.9923 39.5419 84.1911C39.5419 84.3898 39.6084 84.5224 39.6084 84.7211C39.6749 84.8536 39.7414 85.0524 39.8079 85.1187H37.9955C37.929 84.8536 37.8624 84.5224 37.7959 84.1911C37.7959 83.8598 37.7294 83.4622 37.6629 83.1144C37.5964 82.7168 37.4634 82.3855 37.2638 82.1868C37.0643 81.988 36.7317 81.8555 36.2495 81.8555H34.7031V85.1352H32.8906V76.853H37.3137V76.9524H37.347ZM36.7484 80.696C37.1474 80.696 37.48 80.6297 37.6795 80.4309C37.8791 80.2322 38.0121 79.9671 38.0121 79.5033C38.0121 79.1058 37.8791 78.8408 37.6795 78.642C37.48 78.4432 37.1474 78.377 36.7484 78.377H34.7364V80.7125L36.7484 80.696Z" fill="white"/>
<path d="M42.8479 83.7773C43.114 84.0423 43.4466 84.1086 43.9288 84.1086C44.2613 84.1086 44.5274 84.0423 44.7934 83.8435C45.0595 83.711 45.1925 83.5122 45.259 83.3135H46.6724C46.4729 84.0423 46.0738 84.5889 45.5916 84.854C45.126 85.1852 44.5108 85.3178 43.8456 85.3178C43.38 85.3178 42.981 85.2515 42.5653 85.119C42.1662 84.9865 41.9001 84.7877 41.6341 84.4564C41.368 84.1914 41.1685 83.8601 41.0355 83.446C40.9024 83.0484 40.8359 82.6509 40.8359 82.1705C40.8359 81.7067 40.9024 81.3092 41.0355 80.8951C41.1685 80.4975 41.368 80.1662 41.6341 79.8846C41.9001 79.6196 42.2327 79.3546 42.5653 79.2221C42.9643 79.0895 43.3634 78.957 43.7791 78.957C44.3112 78.957 44.7103 79.0233 45.126 79.2221C45.5251 79.4208 45.7911 79.6859 46.0572 80.0172C46.3232 80.3484 46.4563 80.746 46.5893 81.1601C46.7223 81.5742 46.7223 82.0214 46.7223 82.5018H42.4489C42.4489 83.1644 42.5819 83.5619 42.8479 83.7773ZM44.6604 80.63C44.4609 80.4313 44.1948 80.2988 43.7958 80.2988C43.5297 80.2988 43.3302 80.365 43.1306 80.4313C42.9311 80.4975 42.7981 80.63 42.7315 80.7626C42.5985 80.8951 42.532 81.0276 42.532 81.1601C42.532 81.2926 42.4655 81.4251 42.4655 81.5576H45.1426C44.993 81.1601 44.86 80.8288 44.6604 80.63Z" fill="white"/>
<path d="M49.4332 76.9526V85.2349H47.8203V76.9526H49.4332Z" fill="white"/>
<path d="M50.7031 78.2944V76.9526H52.3161V78.2944H50.7031ZM52.3826 79.222V85.2349H50.7696V79.222H52.3826Z" fill="white"/>
<path d="M53.5912 81.0938C53.5912 80.6963 53.7242 80.365 53.8572 80.1662C54.0568 79.9012 54.2563 79.7024 54.5223 79.5699C54.7884 79.4374 55.0544 79.3049 55.387 79.2386C55.7196 79.1724 56.0521 79.1724 56.4013 79.1724C56.6674 79.1724 56.9999 79.1724 57.3325 79.2386C57.6651 79.3049 57.9311 79.3711 58.1972 79.5037C58.4632 79.6362 58.6628 79.7687 58.7958 80.0337C58.9288 80.2325 59.0618 80.5638 59.0618 80.8951V84.0423C59.0618 84.3073 59.0618 84.5724 59.1283 84.8374C59.1283 85.1024 59.1949 85.2349 59.2614 85.3675H57.5154C57.5154 85.3012 57.4489 85.1687 57.4489 85.1024C57.4489 85.0362 57.4489 84.9037 57.3824 84.8374C57.1163 85.1024 56.8503 85.3012 56.4512 85.4337C56.1186 85.5662 55.7196 85.5662 55.3704 85.5662C55.1043 85.5662 54.8383 85.5 54.5722 85.4337C54.3062 85.3675 54.1066 85.2349 53.9071 85.1024C53.7076 84.9699 53.5745 84.7711 53.508 84.5724C53.375 84.3736 53.375 84.1086 53.375 83.7773C53.375 83.446 53.4415 83.181 53.5745 82.9159C53.7076 82.7171 53.8406 82.5184 54.0401 82.3859C54.2397 82.2533 54.4392 82.1871 54.7053 82.1208C54.9713 82.0546 55.1708 81.9883 55.4369 81.9883C55.7029 81.9221 55.9025 81.9221 56.1685 81.9221C56.4346 81.9221 56.6341 81.8558 56.7671 81.7895C56.9667 81.7233 57.0997 81.657 57.2327 81.5908C57.3658 81.5245 57.3658 81.392 57.3658 81.1932C57.3658 80.9945 57.3658 80.8619 57.2992 80.7957C57.2327 80.6632 57.1662 80.5969 57.0997 80.5306C57.0332 80.4644 56.9002 80.4644 56.7671 80.3981C56.6341 80.3981 56.5011 80.3981 56.3681 80.3981C56.0355 80.3981 55.7695 80.4644 55.6364 80.5969C55.4369 80.7294 55.3704 80.9945 55.3039 81.2595H53.5912V81.0938ZM57.4156 82.303C57.3491 82.3693 57.2826 82.4356 57.1496 82.4356C57.0166 82.5018 56.9501 82.5018 56.817 82.5018C56.684 82.5018 56.551 82.5681 56.418 82.5681C56.2849 82.5681 56.1519 82.6343 56.0189 82.6343C55.8859 82.6343 55.7528 82.7006 55.6863 82.7006C55.5533 82.7668 55.4868 82.7668 55.3538 82.8331C55.2872 82.8994 55.2207 82.9656 55.1542 83.0981C55.0877 83.2306 55.0877 83.2969 55.0877 83.4957C55.0877 83.6282 55.0877 83.7607 55.1542 83.8932C55.2207 84.0257 55.2872 84.092 55.3538 84.1583C55.4203 84.2245 55.5533 84.2245 55.6863 84.2908C55.8193 84.2908 55.9524 84.357 56.0854 84.357C56.418 84.357 56.684 84.2908 56.817 84.2245C57.0166 84.092 57.1496 83.9595 57.2161 83.827C57.2826 83.6945 57.3491 83.4957 57.3491 83.3632C57.3491 83.2306 57.3491 83.0981 57.3491 82.9656V82.303H57.4156Z" fill="white"/>
<path d="M61.905 76.9526V79.9674C62.1045 79.6361 62.3706 79.4373 62.7032 79.3048C63.0357 79.1723 63.3683 79.106 63.784 79.106C64.05 79.106 64.3826 79.1723 64.6487 79.3048C64.9147 79.4373 65.1808 79.6361 65.4468 79.9011C65.6463 80.1661 65.8459 80.4974 66.0454 80.9115C66.1784 81.3091 66.245 81.7729 66.245 82.3195C66.245 82.8496 66.1784 83.3299 66.0454 83.7275C65.9124 84.125 65.7129 84.4563 65.4468 84.7379C65.2473 85.0029 64.9812 85.2017 64.6487 85.3342C64.3826 85.4667 64.05 85.533 63.784 85.533C63.3184 85.533 62.9858 85.4667 62.5701 85.3342C62.2376 85.2017 61.9715 84.9367 61.772 84.6054V85.3342H60.2422V77.052H61.905V76.9526ZM64.5988 81.4913C64.5323 81.2925 64.4657 81.0275 64.3327 80.895C64.1997 80.6962 64.0667 80.5637 63.9336 80.4974C63.7341 80.3649 63.5346 80.3649 63.335 80.3649C63.069 80.3649 62.8694 80.4312 62.7364 80.4974C62.5369 80.6299 62.4038 80.7625 62.2708 80.895C62.1378 81.0937 62.0713 81.2925 62.0048 81.4913C61.9383 81.6901 61.9383 81.9551 61.9383 82.2201C61.9383 82.4852 61.9383 82.6839 62.0048 82.949C62.0713 83.1477 62.1378 83.4128 62.2708 83.5453C62.4038 83.7441 62.5369 83.8766 62.7364 83.9428C62.936 84.0753 63.1355 84.0753 63.335 84.0753C63.6011 84.0753 63.8006 84.0091 63.9336 83.9428C64.1332 83.8103 64.2662 83.6778 64.3327 83.5453C64.4657 83.3465 64.5323 83.1477 64.5988 82.949C64.6653 82.7502 64.6653 82.4852 64.6653 82.2201C64.6653 81.9717 64.6653 81.7563 64.5988 81.4913Z" fill="white"/>
<path d="M69.027 76.9526V85.2349H67.4141V76.9526H69.027Z" fill="white"/>
<path d="M72.0511 83.7773C72.3171 84.0423 72.6497 84.1086 73.1319 84.1086C73.4645 84.1086 73.7305 84.0423 73.9966 83.8435C74.2626 83.711 74.3956 83.5122 74.4622 83.3135H75.8756C75.676 84.0423 75.2769 84.5889 74.7947 84.854C74.3291 85.1852 73.7139 85.3178 73.0488 85.3178C72.5832 85.3178 72.1841 85.2515 71.7684 85.119C71.3693 84.9865 71.1033 84.7877 70.8372 84.4564C70.5712 84.1914 70.3716 83.8601 70.2386 83.446C70.1056 83.0484 70.0391 82.6509 70.0391 82.1705C70.0391 81.7067 70.1056 81.3092 70.2386 80.8951C70.3716 80.4975 70.5712 80.1662 70.8372 79.8846C71.1033 79.6196 71.4358 79.3546 71.7684 79.2221C72.1675 79.0895 72.5665 78.957 72.9822 78.957C73.5144 78.957 73.9134 79.0233 74.3291 79.2221C74.7282 79.4208 74.9943 79.6859 75.2603 80.0172C75.5264 80.3484 75.6594 80.746 75.7924 81.1601C75.9254 81.5576 75.9254 82.0214 75.9254 82.5018H71.652C71.7185 83.1644 71.8515 83.5619 72.0511 83.7773ZM73.9301 80.63C73.7305 80.4313 73.4645 80.2988 73.0654 80.2988C72.7993 80.2988 72.5998 80.365 72.4003 80.4313C72.2007 80.4975 72.0677 80.63 72.0012 80.7626C71.8682 80.8951 71.8016 81.0276 71.8016 81.1601C71.7351 81.2926 71.7351 81.4251 71.7351 81.5576H74.4123C74.2626 81.1601 74.1296 80.8288 73.9301 80.63Z" fill="white"/>
<path d="M85.6047 79.1556C85.4717 78.9568 85.3386 78.8243 85.2056 78.6918C85.0726 78.5593 84.8731 78.4268 84.6735 78.3605C84.474 78.2942 84.2744 78.228 84.0084 78.228C83.6093 78.228 83.2768 78.2943 82.9941 78.493C82.728 78.6255 82.462 78.8906 82.3289 79.1556C82.1294 79.4206 81.9964 79.7519 81.9299 80.0832C81.8634 80.4145 81.7968 80.7458 81.7968 81.1599C81.7968 81.4912 81.8634 81.8225 81.9299 82.1703C81.9964 82.5016 82.1294 82.7666 82.3289 83.0317C82.5285 83.2967 82.728 83.4955 82.9941 83.628C83.2601 83.7605 83.5927 83.893 84.0084 83.893C84.5405 83.893 85.0227 83.6943 85.2888 83.363C85.6213 83.0317 85.7544 82.5679 85.8874 82.0212H87.6333C87.5668 82.5513 87.5003 83.0317 87.3008 83.4292C87.1012 83.8268 86.8352 84.2243 86.5691 84.5059C86.2366 84.7709 85.904 85.036 85.4218 85.1685C85.0227 85.301 84.5571 85.3673 84.0084 85.3673C83.4098 85.3673 82.7945 85.2347 82.3289 85.036C81.7968 84.8372 81.3978 84.5059 81.0486 84.1084C80.716 83.7108 80.45 83.247 80.2504 82.7666C80.0509 82.2366 79.9844 81.69 79.9844 81.0936C79.9844 80.4973 80.0509 79.8844 80.2504 79.3544C80.45 78.8243 80.716 78.3439 81.0486 77.9464C81.3811 77.5489 81.7802 77.2176 82.3289 77.0188C82.8611 76.82 83.4098 76.6875 84.0084 76.6875C84.474 76.6875 84.8731 76.7538 85.2888 76.8863C85.6878 77.0188 86.0204 77.2176 86.3696 77.4826C86.7022 77.7476 86.9682 78.0127 87.1677 78.4102C87.3673 78.8077 87.5003 79.2053 87.5668 79.6857H85.8209C85.8042 79.4869 85.7377 79.3544 85.6047 79.1556Z" fill="white"/>
<path d="M88.762 80.9611C88.8951 80.5636 89.0946 80.2323 89.3607 79.9507C89.6267 79.6857 89.9593 79.4869 90.2918 79.2881C90.6909 79.1556 91.09 79.0894 91.5722 79.0894C92.0544 79.0894 92.4369 79.1556 92.8526 79.2881C93.2516 79.4206 93.5842 79.6194 93.8669 79.9507C94.1329 80.2157 94.3325 80.547 94.4655 80.9611C94.5985 81.3587 94.665 81.7562 94.665 82.3029C94.665 82.7667 94.5985 83.2305 94.4655 83.5783C94.3325 83.9759 94.1329 84.3071 93.8669 84.5887C93.6008 84.8538 93.2683 85.0525 92.8526 85.1851C92.4535 85.3176 92.0544 85.3838 91.5722 85.3838C91.09 85.3838 90.7075 85.3176 90.2918 85.1851C89.8928 85.0525 89.6267 84.8538 89.3607 84.5887C89.0946 84.3237 88.8951 83.9924 88.762 83.5783C88.629 83.1808 88.5625 82.7832 88.5625 82.3029C88.5625 81.7562 88.629 81.2924 88.762 80.9611ZM90.2253 82.9654C90.2918 83.1642 90.3583 83.363 90.4914 83.5617C90.6244 83.7605 90.7574 83.893 90.957 84.0256C91.1565 84.1581 91.356 84.1581 91.6221 84.1581C91.8881 84.1581 92.1542 84.0918 92.2872 84.0256C92.4867 83.893 92.6198 83.7605 92.7528 83.5617C92.8858 83.363 92.9523 83.1642 93.0189 82.9654C93.0854 82.7667 93.0854 82.5016 93.0854 82.2366C93.0854 81.9716 93.0854 81.7728 93.0189 81.5078C92.9523 81.309 92.8858 81.044 92.7528 80.9114C92.6198 80.7127 92.4867 80.5802 92.2872 80.4476C92.0877 80.3151 91.8881 80.2489 91.6221 80.2489C91.356 80.2489 91.09 80.3151 90.957 80.4476C90.7574 80.5802 90.6244 80.7127 90.4914 80.9114C90.3583 81.1102 90.2918 81.309 90.2253 81.5078C90.1588 81.7065 90.1588 81.9716 90.1588 82.2366C90.1588 82.5016 90.1588 82.7004 90.2253 82.9654Z" fill="white"/>
<path d="M97.3421 79.2219V80.0832H97.4086C97.6081 79.7519 97.8742 79.4869 98.2067 79.3544C98.5393 79.2219 98.8719 79.0894 99.2211 79.0894C99.6867 79.0894 100.019 79.1556 100.302 79.2881C100.568 79.4206 100.767 79.5532 100.967 79.7519C101.1 79.9507 101.233 80.2157 101.3 80.547C101.366 80.8783 101.366 81.2096 101.366 81.5575V85.2348H99.7532V81.8225C99.7532 81.3587 99.6867 80.9611 99.5536 80.6795C99.4206 80.4145 99.1546 80.3483 98.7555 80.3483C98.2899 80.3483 98.0238 80.4808 97.8243 80.7458C97.6248 81.0108 97.5582 81.4746 97.5582 82.0875V85.2348H95.9453V79.2219H97.3421Z" fill="white"/>
<path d="M104.19 79.2219V80.0832H104.256C104.456 79.7519 104.722 79.4869 105.055 79.3544C105.387 79.2219 105.72 79.0894 106.069 79.0894C106.534 79.0894 106.867 79.1556 107.15 79.2881C107.416 79.4206 107.615 79.5532 107.815 79.7519C107.948 79.9507 108.081 80.2157 108.147 80.547C108.214 80.8783 108.214 81.2096 108.214 81.5575V85.2348H106.534V81.8225C106.534 81.3587 106.468 80.9611 106.335 80.6795C106.202 80.4145 105.936 80.3483 105.537 80.3483C105.071 80.3483 104.805 80.4808 104.606 80.7458C104.406 81.0108 104.339 81.4746 104.339 82.0875V85.2348H102.727V79.2219H104.19Z" fill="white"/>
<path d="M111.16 83.7773C111.426 84.0423 111.759 84.1086 112.241 84.1086C112.574 84.1086 112.84 84.0423 113.106 83.8435C113.372 83.711 113.505 83.5122 113.572 83.3135H114.985C114.785 84.0423 114.386 84.5889 113.904 84.854C113.439 85.1852 112.823 85.3178 112.158 85.3178C111.693 85.3178 111.293 85.2515 110.878 85.119C110.479 84.9865 110.213 84.7877 109.947 84.4564C109.681 84.1914 109.481 83.8601 109.348 83.446C109.215 83.0484 109.148 82.6509 109.148 82.1705C109.148 81.7067 109.215 81.3092 109.348 80.8951C109.481 80.4975 109.681 80.1662 109.947 79.8846C110.213 79.6196 110.545 79.3546 110.878 79.2221C111.277 79.0895 111.676 78.957 112.092 78.957C112.624 78.957 113.023 79.0233 113.439 79.2221C113.838 79.4208 114.104 79.6859 114.37 80.0172C114.636 80.3484 114.769 80.746 114.902 81.1601C115.035 81.5576 115.035 82.0214 115.035 82.5018H110.745C110.828 83.1644 110.961 83.5619 111.16 83.7773ZM113.039 80.63C112.84 80.4313 112.574 80.2988 112.175 80.2988C111.909 80.2988 111.709 80.365 111.51 80.4313C111.31 80.4975 111.177 80.63 111.111 80.7626C110.978 80.8951 110.911 81.0276 110.911 81.1601C110.845 81.2926 110.845 81.4251 110.845 81.5576H113.522C113.389 81.1601 113.256 80.8288 113.039 80.63Z" fill="white"/>
<path d="M118.959 80.2985C118.693 80.2985 118.493 80.3647 118.294 80.4973C118.094 80.6298 117.961 80.7623 117.895 80.9611C117.762 81.1598 117.695 81.3586 117.629 81.5574C117.562 81.7562 117.562 82.0212 117.562 82.22C117.562 82.4187 117.562 82.6838 117.629 82.8825C117.695 83.0813 117.762 83.2801 117.828 83.4788C117.961 83.6776 118.094 83.8101 118.227 83.9427C118.427 84.0752 118.626 84.1414 118.892 84.1414C119.291 84.1414 119.557 84.0089 119.823 83.8101C120.023 83.6114 120.156 83.2801 120.223 82.9488H121.835C121.702 83.7439 121.436 84.3568 120.904 84.7543C120.372 85.1519 119.757 85.3506 118.959 85.3506C118.493 85.3506 118.094 85.2844 117.745 85.1519C117.346 85.0193 117.08 84.8206 116.814 84.5555C116.548 84.2905 116.348 83.9592 116.215 83.5451C116.082 83.1476 116.016 82.75 116.016 82.2696C116.016 81.8058 116.082 81.4083 116.215 80.9942C116.348 80.5966 116.548 80.2654 116.814 79.9838C117.08 79.7187 117.412 79.4537 117.745 79.3212C118.144 79.1887 118.543 79.0562 119.025 79.0562C119.358 79.0562 119.69 79.1224 120.04 79.1887C120.372 79.2549 120.638 79.4537 120.904 79.5862C121.17 79.785 121.37 79.9838 121.503 80.315C121.636 80.5801 121.769 80.9114 121.769 81.3255H120.156C120.023 80.6298 119.624 80.2985 118.959 80.2985Z" fill="white"/>
<path d="M125.989 79.2221V80.365H124.775V83.3797C124.775 83.6448 124.841 83.8435 124.908 83.9098C124.974 83.9761 125.174 84.0423 125.44 84.0423C125.506 84.0423 125.639 84.0423 125.706 84.0423C125.772 84.0423 125.839 84.0423 125.972 83.9761V85.2515C125.839 85.2515 125.706 85.3178 125.506 85.3178C125.307 85.3178 125.174 85.3178 125.041 85.3178C124.775 85.3178 124.575 85.3178 124.309 85.2515C124.11 85.1853 123.91 85.119 123.71 85.0527C123.511 84.9202 123.378 84.7877 123.311 84.6552C123.245 84.4564 123.178 84.2576 123.178 83.9264V80.3816H122.164V79.2386H123.178V77.4331H124.791V79.2386H125.989V79.2221Z" fill="white"/>
<path d="M126.805 78.2944V76.9526H128.418V78.2944H126.805ZM128.418 79.222V85.2349H126.805V79.222H128.418Z" fill="white"/>
<path d="M129.746 80.9611C129.879 80.5636 130.079 80.2323 130.345 79.9507C130.611 79.6857 130.944 79.4869 131.276 79.2881C131.675 79.1556 132.074 79.0894 132.557 79.0894C133.022 79.0894 133.421 79.1556 133.837 79.2881C134.236 79.4206 134.569 79.6194 134.851 79.9507C135.117 80.2157 135.317 80.547 135.45 80.9611C135.583 81.3587 135.649 81.7562 135.649 82.3029C135.649 82.7667 135.583 83.2305 135.45 83.5783C135.317 83.9759 135.117 84.3071 134.851 84.5887C134.585 84.8538 134.253 85.0525 133.837 85.1851C133.438 85.3176 133.039 85.3838 132.557 85.3838C132.091 85.3838 131.692 85.3176 131.276 85.1851C130.877 85.0525 130.611 84.8538 130.345 84.5887C130.079 84.3237 129.879 83.9924 129.746 83.5783C129.613 83.1808 129.547 82.7832 129.547 82.3029C129.547 81.7562 129.613 81.2924 129.746 80.9611ZM131.226 82.9654C131.293 83.1642 131.359 83.363 131.492 83.5617C131.625 83.7605 131.758 83.893 131.958 84.0256C132.157 84.1581 132.357 84.1581 132.623 84.1581C132.889 84.1581 133.155 84.0918 133.288 84.0256C133.488 83.893 133.621 83.7605 133.754 83.5617C133.887 83.363 133.953 83.1642 134.02 82.9654C134.086 82.7667 134.086 82.5016 134.086 82.2366C134.086 81.9716 134.086 81.7728 134.02 81.5078C133.953 81.309 133.887 81.044 133.754 80.9114C133.621 80.7127 133.488 80.5802 133.288 80.4476C133.089 80.3151 132.889 80.2489 132.623 80.2489C132.357 80.2489 132.091 80.3151 131.958 80.4476C131.758 80.5802 131.625 80.7127 131.492 80.9114C131.359 81.1102 131.293 81.309 131.226 81.5078C131.16 81.7065 131.16 81.9716 131.16 82.2366C131.16 82.5016 131.226 82.7004 131.226 82.9654Z" fill="white"/>
<path d="M138.35 79.2219V80.0832H138.416C138.616 79.7519 138.882 79.4869 139.215 79.3544C139.547 79.2219 139.88 79.0894 140.229 79.0894C140.694 79.0894 141.027 79.1556 141.31 79.2881C141.576 79.4206 141.775 79.5532 141.975 79.7519C142.108 79.9507 142.241 80.2157 142.307 80.547C142.374 80.8783 142.374 81.2096 142.374 81.5575V85.2348H140.761V81.8225C140.761 81.3587 140.694 80.9611 140.561 80.6795C140.428 80.4145 140.162 80.3483 139.763 80.3483C139.298 80.3483 139.032 80.4808 138.832 80.7458C138.633 81.0108 138.566 81.4746 138.566 82.0875V85.2348H136.953V79.2219H138.35Z" fill="white"/>
<path d="M144.983 83.7773C145.049 83.9099 145.116 83.9761 145.249 84.1086C145.382 84.1749 145.515 84.2411 145.648 84.3074C145.781 84.3737 145.981 84.3737 146.114 84.3737C146.247 84.3737 146.38 84.3737 146.446 84.3074C146.579 84.3074 146.712 84.2411 146.779 84.1749C146.912 84.1086 146.978 84.0424 147.045 83.9761C147.111 83.9099 147.178 83.7773 147.178 83.6448C147.178 83.3798 147.045 83.2473 146.712 83.1148C146.38 82.9823 145.914 82.8497 145.365 82.7172C145.099 82.651 144.9 82.5847 144.7 82.5184C144.501 82.4522 144.301 82.3197 144.102 82.2534C143.902 82.1209 143.769 81.9884 143.703 81.7896C143.57 81.5908 143.57 81.3921 143.57 81.127C143.57 80.7295 143.636 80.3982 143.769 80.1994C143.902 79.9344 144.102 79.7356 144.368 79.6031C144.634 79.4706 144.9 79.3381 145.166 79.2718C145.498 79.2056 145.764 79.2056 146.097 79.2056C146.43 79.2056 146.696 79.2056 147.028 79.2718C147.361 79.3381 147.627 79.4043 147.826 79.6031C148.092 79.7356 148.292 79.9344 148.425 80.1994C148.558 80.4645 148.691 80.7295 148.691 81.127H147.211C147.211 80.7958 147.078 80.597 146.879 80.4645C146.679 80.3319 146.413 80.2657 146.147 80.2657C146.08 80.2657 145.947 80.2657 145.881 80.2657C145.748 80.2657 145.681 80.3319 145.615 80.3319C145.548 80.3982 145.482 80.3982 145.415 80.5307C145.349 80.597 145.349 80.7295 145.349 80.7958C145.349 80.9283 145.415 81.0608 145.482 81.127C145.615 81.1933 145.748 81.3258 145.881 81.3258C146.08 81.3921 146.28 81.4583 146.479 81.4583C146.679 81.5246 146.945 81.5246 147.145 81.5908C147.411 81.6571 147.61 81.7234 147.81 81.7896C148.009 81.8559 148.209 81.9884 148.408 82.1209C148.608 82.2534 148.741 82.3859 148.807 82.5847C148.94 82.7835 148.94 82.9823 148.94 83.3135C148.94 83.7111 148.874 84.0424 148.674 84.324C148.541 84.589 148.342 84.7878 148.076 84.9866C147.81 85.1191 147.544 85.2516 147.211 85.3178C146.879 85.3841 146.546 85.3841 146.197 85.3841C145.848 85.3841 145.532 85.3178 145.182 85.2516C144.85 85.1853 144.584 85.0528 144.318 84.9203C144.052 84.7878 143.852 84.5227 143.719 84.2577C143.586 83.9927 143.453 83.6614 143.453 83.2473H145C144.916 83.4295 144.916 83.6283 144.983 83.7773Z" fill="white"/>
</svg>
