<svg width="211" height="179" viewBox="0 0 211 179" fill="none" xmlns="http://www.w3.org/2000/svg">
<mask id="mask0_655_4851" style="mask-type:alpha" maskUnits="userSpaceOnUse" x="0" y="0" width="172" height="172">
<path d="M104.664 73.6769C106.035 71.074 111.437 65.8281 111.437 55.9005C111.437 35.67 92.5536 31.8662 91.5497 31.1555C91.4798 30.4204 91.3007 28.5289 91.2462 27.9522C89.7672 12.4384 76.8877 0.73999 61.2907 0.73999C45.8601 0.73999 33.0201 12.444 31.4234 27.9629L31.0955 31.1458C30.0925 31.8522 10.8104 35.5911 10.8104 55.9005C10.8104 65.8164 16.2162 71.0813 17.5831 73.6769C16.6207 74.6862 0.78125 82.748 0.78125 101.366C0.78125 117.957 14.6118 131.119 31.2031 131.119H91.3782C107.969 131.119 121.466 117.623 121.466 101.032C121.466 82.3037 105.807 74.8761 104.664 73.6769Z" fill="black"/>
<path d="M155.138 73.6769C156.508 71.074 161.91 65.8281 161.91 55.9005C161.91 35.67 142.693 31.8662 141.689 31.1555C141.619 30.4204 141.44 28.5289 141.386 27.9522C139.907 12.4384 127.027 0.73999 111.43 0.73999C104.659 0.73999 98.4606 3.0905 93.418 6.93234C97.101 11.8961 99.7718 17.6876 100.848 24.1284C118.678 32.5954 121.459 47.3697 121.459 55.9005C121.459 62.3352 119.789 67.4331 117.919 71.2432C127.027 79.4701 131.488 89.3916 131.488 101.032C131.488 113.07 126.048 123.76 117.624 131.119H141.518C158.109 131.119 171.939 117.623 171.939 101.032C171.939 82.3037 156.281 74.8761 155.138 73.6769Z" fill="black"/>
<path d="M131.491 161.875V141.148H111.433V161.875H71.316V141.148H51.2576V161.875H31.1992V171.905H151.549V161.875H131.491Z" fill="black"/>
</mask>
<g mask="url(#mask0_655_4851)">
<rect x="0.777344" y="1.5708" width="171.165" height="194.43" fill="url(#paint0_linear_655_4851)"/>
</g>
<path d="M209.869 129.033L190.994 147.755C190.286 148.457 189.332 148.851 188.339 148.851C187.345 148.851 186.391 148.457 185.683 147.755L166.808 129.033C166.274 128.504 165.908 127.828 165.757 127.089C165.606 126.351 165.677 125.584 165.961 124.886C166.245 124.188 166.729 123.591 167.351 123.171C167.974 122.751 168.706 122.527 169.456 122.526L177.009 122.527L177.009 111.131C177.011 109.117 177.808 107.186 179.224 105.761C180.64 104.337 182.56 103.536 184.562 103.534L192.115 103.534C194.118 103.536 196.037 104.337 197.453 105.761C198.869 107.186 199.666 109.117 199.668 111.131L199.668 122.527L207.221 122.527C207.971 122.527 208.703 122.751 209.326 123.171C209.948 123.591 210.432 124.188 210.716 124.886C211 125.584 211.071 126.351 210.92 127.089C210.769 127.828 210.404 128.504 209.869 129.033V129.033Z" fill="url(#paint1_linear_655_4851)"/>
<path fill-rule="evenodd" clip-rule="evenodd" d="M128.417 178.055C107.872 178.055 91.1562 161.34 91.1562 140.794C91.1562 120.247 107.873 103.534 128.417 103.534C148.963 103.534 165.679 120.249 165.679 140.795C165.679 161.342 148.962 178.056 128.417 178.056V178.055ZM150.229 152.335H143.713C142.23 152.335 141.508 150.509 142.591 149.495L146.669 145.797C149.515 143.491 146.37 142.212 145.486 143.527C144.279 145.325 141.558 143.49 142.761 141.698C146.414 136.255 155.448 142.894 148.737 148.35L147.916 149.053C149.467 149.053 151.871 148.66 151.871 150.694C151.871 151.599 151.135 152.335 150.229 152.335ZM131.619 148.846C127.135 148.846 123.487 145.196 123.487 140.71C123.487 136.225 127.136 132.576 131.619 132.576C136.106 132.576 139.755 136.225 139.755 140.71C139.753 145.196 136.105 148.846 131.619 148.846V148.846ZM131.619 135.861C125.235 135.861 125.238 145.562 131.619 145.562C138.005 145.562 138.003 135.861 131.619 135.861ZM116.287 151.902C110.044 151.902 104.964 146.822 104.964 140.577C104.964 131.93 114.27 126.55 121.729 130.643C123.623 131.683 122.046 134.561 120.15 133.523C114.852 130.621 108.247 134.438 108.247 140.577C108.247 146.739 114.885 150.528 120.149 147.633C122.042 146.591 123.625 149.468 121.73 150.509C120.072 151.42 118.191 151.902 116.287 151.902Z" fill="url(#paint2_linear_655_4851)"/>
<defs>
<linearGradient id="paint0_linear_655_4851" x1="-9.97213" y1="1.5708" x2="171.41" y2="189.568" gradientUnits="userSpaceOnUse">
<stop stop-color="#2BB04C"/>
<stop offset="1" stop-color="#63D0FF" stop-opacity="0"/>
</linearGradient>
<linearGradient id="paint1_linear_655_4851" x1="168.701" y1="103.534" x2="197.439" y2="156.694" gradientUnits="userSpaceOnUse">
<stop stop-color="#F47920"/>
<stop offset="1" stop-color="white"/>
</linearGradient>
<linearGradient id="paint2_linear_655_4851" x1="119.049" y1="103.383" x2="151.619" y2="178.056" gradientUnits="userSpaceOnUse">
<stop stop-color="#F47920"/>
<stop offset="1" stop-color="white"/>
</linearGradient>
</defs>
</svg>
