<svg width="197" height="193" viewBox="0 0 197 193" fill="none" xmlns="http://www.w3.org/2000/svg">
<g clip-path="url(#clip0_655_4886)">
<path d="M114.087 0.395508H19.5312V175.424H156.637V42.9448L114.087 0.395508ZM70.9458 122.276L56.3601 133.945C55.8233 134.374 55.1786 134.584 54.5369 134.584C53.7872 134.584 53.0375 134.295 52.4715 133.729L46.6373 127.895C45.4967 126.754 45.4967 124.91 46.6373 123.77C47.7779 122.629 49.6215 122.629 50.7621 123.77L54.7498 127.758L67.2964 117.72C68.5508 116.713 70.3915 116.918 71.395 118.175C72.4072 119.435 72.203 121.27 70.9458 122.276ZM70.9458 90.1878L56.3601 101.856C55.8233 102.285 55.1786 102.495 54.5369 102.495C53.7872 102.495 53.0375 102.206 52.4715 101.641L46.6373 95.8062C45.4967 94.6656 45.4967 92.822 46.6373 91.6814C47.7779 90.5408 49.6215 90.5408 50.7621 91.6814L54.7498 95.6691L67.2964 85.6313C68.5508 84.6249 70.3915 84.8291 71.395 86.0863C72.4072 87.3466 72.203 89.1814 70.9458 90.1878ZM70.9458 58.0994L56.3601 69.7679C55.8233 70.1967 55.1786 70.4067 54.5369 70.4067C53.7872 70.4067 53.0375 70.118 52.4715 69.552L46.6373 63.7178C45.4967 62.5772 45.4967 60.7335 46.6373 59.5929C47.7779 58.4523 49.6215 58.4523 50.7621 59.5929L54.7498 63.5807L67.2964 53.5428C68.5508 52.5364 70.3915 52.7406 71.395 53.9979C72.4072 55.2581 72.203 57.0929 70.9458 58.0994ZM124.548 131.667H77.874C76.2637 131.667 74.9568 130.363 74.9568 128.749C74.9568 127.136 76.2637 125.832 77.874 125.832H124.548C126.158 125.832 127.465 127.136 127.465 128.749C127.465 130.363 126.158 131.667 124.548 131.667ZM124.548 99.5781H77.874C76.2637 99.5781 74.9568 98.2741 74.9568 96.661C74.9568 95.0478 76.2637 93.7438 77.874 93.7438H124.548C126.158 93.7438 127.465 95.0478 127.465 96.661C127.465 98.2741 126.158 99.5781 124.548 99.5781ZM124.548 67.4896H77.874C76.2637 67.4896 74.9568 66.1857 74.9568 64.5725C74.9568 62.9593 76.2637 61.6553 77.874 61.6553H124.548C126.158 61.6553 127.465 62.9593 127.465 64.5725C127.465 66.1857 126.158 67.4896 124.548 67.4896ZM109.962 47.0697V6.22978L150.802 47.0697H109.962Z" fill="url(#paint0_linear_655_4886)"/>
</g>
<path d="M178.435 178.584C189.322 172.164 196.002 160.474 196.002 147.843V112.884L154.661 97.0369L113.32 112.884V147.843C113.32 160.474 120.001 172.165 130.888 178.585L154.661 192.604L178.435 178.584ZM151.776 162.964L132.621 145.344L141.183 136.053L150.931 145.02L167.723 126.374L177.119 134.821L151.776 162.964Z" fill="url(#paint1_linear_655_4886)"/>
<defs>
<linearGradient id="paint0_linear_655_4886" x1="55.1158" y1="7.00034" x2="144.852" y2="146.196" gradientUnits="userSpaceOnUse">
<stop stop-color="#2BB04C"/>
<stop offset="1" stop-color="#63D0FF" stop-opacity="0"/>
</linearGradient>
<linearGradient id="paint1_linear_655_4886" x1="144.267" y1="96.8431" x2="190.084" y2="187.724" gradientUnits="userSpaceOnUse">
<stop stop-color="#F47920"/>
<stop offset="1" stop-color="white"/>
</linearGradient>
<clipPath id="clip0_655_4886">
<rect width="175.028" height="175.028" fill="white" transform="translate(0.570312 0.395508)"/>
</clipPath>
</defs>
</svg>
