<svg width="135" height="178" viewBox="0 0 135 178" fill="none" xmlns="http://www.w3.org/2000/svg">
<mask id="mask0_677_3561" style="mask-type:alpha" maskUnits="userSpaceOnUse" x="0" y="0" width="107" height="178">
<path d="M105.925 76.083C105.375 74.152 104.077 72.8929 102.639 72.8929H64.8684L71.8589 6.89061C72.0928 4.68198 71.3229 2.50539 69.9508 1.49529C68.5783 0.484855 66.9147 0.871047 65.827 2.45095L1.04602 96.5467C0.0285321 98.0246 -0.275766 100.247 0.274723 102.178C0.825449 104.109 2.12281 105.368 3.56153 105.368H41.3316L34.341 171.371C34.1071 173.579 34.877 175.756 36.2491 176.766C37.6216 177.776 39.2852 177.39 40.3729 175.81L105.154 81.7147C106.172 80.2364 106.476 78.014 105.925 76.083V76.083Z" fill="black"/>
</mask>
<g mask="url(#mask0_677_3561)">
<rect x="-32.3906" y="-5.36255" width="157.489" height="184.487" fill="url(#paint0_linear_677_3561)"/>
</g>
<mask id="mask1_677_3561" style="mask-type:alpha" maskUnits="userSpaceOnUse" x="55" y="89" width="80" height="82">
<path d="M133.676 134.45C132.591 132.571 130.84 131.228 128.745 130.666C128.056 130.482 127.348 130.388 126.64 130.388C122.975 130.388 119.752 132.861 118.801 136.403C118.791 136.441 118.782 136.479 118.773 136.517C117.649 140.657 115.442 144.456 112.391 147.507C107.715 152.183 101.497 154.759 94.8844 154.759C89.0784 154.759 83.5775 152.774 79.1568 149.125L83.4424 144.839C84.1294 144.152 84.3349 143.119 83.9632 142.221C83.5915 141.324 82.7153 140.738 81.7438 140.738H61.5273C60.2006 140.738 59.125 141.814 59.125 143.141V163.357C59.125 164.329 59.7102 165.205 60.608 165.577C61.5057 165.948 62.539 165.743 63.2261 165.056L67.6408 160.641C75.1537 167.339 84.738 171 94.8845 171C105.836 171 116.132 166.735 123.876 158.991C128.972 153.895 132.643 147.539 134.493 140.61C134.509 140.55 134.523 140.489 134.534 140.428C135.031 138.389 134.728 136.273 133.676 134.45V134.45Z" fill="black"/>
<path d="M63.1279 129.612C66.7943 129.612 70.0179 127.136 70.9675 123.591C70.9788 123.549 70.9883 123.51 70.9958 123.475C72.1209 119.338 74.3261 115.542 77.3756 112.493C82.0518 107.816 88.2695 105.241 94.8827 105.241C100.689 105.241 106.189 107.226 110.61 110.875L106.325 115.16C105.637 115.847 105.432 116.881 105.804 117.778C106.175 118.676 107.052 119.261 108.023 119.261H128.24C129.567 119.261 130.642 118.186 130.642 116.859V96.6421C130.642 95.6705 130.057 94.7946 129.159 94.4227C128.262 94.0513 127.228 94.2566 126.541 94.9435L122.126 99.3584C114.613 92.6613 105.029 89 94.8825 89C83.9314 89 73.6355 93.2646 65.8913 101.008C60.7949 106.105 57.1235 112.461 55.2745 119.389C55.2581 119.45 55.2444 119.511 55.2331 119.573C54.7363 121.611 55.0386 123.727 56.0914 125.55C57.1758 127.429 58.927 128.772 61.0223 129.334C61.7111 129.518 62.4196 129.612 63.1279 129.612V129.612Z" fill="black"/>
</mask>
<g mask="url(#mask1_677_3561)">
<rect x="50.8555" y="83.8276" width="93.1041" height="93.1041" fill="url(#paint1_linear_677_3561)"/>
</g>
<defs>
<linearGradient id="paint0_linear_677_3561" x1="-42.2812" y1="-5.36255" x2="160.033" y2="270.366" gradientUnits="userSpaceOnUse">
<stop stop-color="#2BB04C"/>
<stop offset="1" stop-color="#63D0FF" stop-opacity="0"/>
</linearGradient>
<linearGradient id="paint1_linear_677_3561" x1="67.2116" y1="78.3865" x2="159.009" y2="163.105" gradientUnits="userSpaceOnUse">
<stop stop-color="#F47920"/>
<stop offset="1" stop-color="white"/>
</linearGradient>
</defs>
</svg>
