<svg width="207" height="182" viewBox="0 0 207 182" fill="none" xmlns="http://www.w3.org/2000/svg">
<mask id="mask0_655_4895" style="mask-type:alpha" maskUnits="userSpaceOnUse" x="0" y="0" width="177" height="176">
<path d="M145.982 36.1491C145.223 38.4163 143.936 40.5029 142.252 42.187L136.692 47.7471C135.732 48.7073 135.184 50.0345 135.184 51.3867V57.4193C135.184 60.2596 137.491 62.5673 140.332 62.5673C148.848 62.5673 155.775 69.495 155.775 78.0111V85.8788C155.775 88.2616 155.212 90.6496 154.147 92.7812L152.387 96.3003C151.226 98.6179 152.156 100.573 152.613 101.308C153.065 102.042 154.398 103.751 156.992 103.751H175.262C176.161 98.7277 176.71 93.5842 176.71 88.3069C176.71 63.6229 166.054 41.3376 149.561 25.4126L145.982 36.1491Z" fill="black"/>
<path d="M45.9572 62.0395C44.7808 64.1762 45.5602 66.9863 47.7371 68.4343L58.4351 75.5679C58.3044 67.4891 62.8744 59.6214 70.9027 55.4989C72.4059 54.7298 73.4115 52.7592 73.4115 50.5922V47.1236C73.4115 38.6075 80.3393 31.6798 88.8553 31.6798H95.0688C96.7481 31.6798 98.2764 30.8956 99.2517 29.5279C100.232 28.1606 100.483 26.4663 99.9405 24.8728L91.7941 0.597921C90.8101 0.565318 89.8471 0.448975 88.855 0.448975C60.7424 0.448975 35.4088 14.1703 19.3867 34.8351L35.8423 38.8639C45.9466 41.3743 51.0214 52.8007 45.9572 62.0395Z" fill="black"/>
<path d="M107.626 35.5207C104.735 39.5625 100.04 41.9759 95.0678 41.9759H88.8542C86.0139 41.9759 83.7063 44.2835 83.7063 47.1238V50.5925C83.7063 56.6152 80.5242 62.1352 75.6024 64.6587C69.6198 67.7303 67.1063 74.482 69.8813 80.027L71.446 83.159H77.3417C86.4007 83.159 94.5502 88.1964 98.6071 96.3003C100.904 100.895 105.525 103.751 110.663 103.751H119.742C122.587 103.751 124.89 106.053 124.89 108.899V119.194C124.89 126.132 122.17 132.637 117.238 137.509C109.291 145.352 101.637 161.51 96.2864 175.788C132.303 172.739 162.523 147.497 172.838 114.047H156.994C151.6 114.047 146.688 111.307 143.853 106.722C141.022 102.137 140.766 96.5165 143.179 91.6953L144.938 88.1761C145.295 87.4674 145.481 86.673 145.481 85.8788V78.011C145.481 75.1708 143.174 72.8631 140.334 72.8631C131.817 72.8631 124.89 65.9354 124.89 57.4193V51.3866C124.89 47.2642 126.499 43.3833 129.414 40.4675L134.975 34.9074C135.538 34.3442 135.965 33.6455 136.221 32.8863L141.097 18.2621C130.104 10.0412 117.15 4.02052 103.043 1.70532L109.682 21.5551C111.286 26.2555 110.517 31.4786 107.626 35.5207V35.5207Z" fill="black"/>
<path d="M80.3466 175.734C75.4589 165.508 73.4103 144.389 73.4103 135.362C73.4103 132.949 72.4703 130.682 70.766 128.978L64.6228 122.834C62.612 120.824 62.612 117.566 64.6228 115.555L67.6896 112.488C70.4444 109.733 71.1233 105.54 69.384 102.061L64.2686 91.8308L42.0254 77.0003C35.4447 72.6167 33.2026 63.869 36.9276 57.0823C38.7297 53.8151 36.9564 49.752 33.3481 48.8528L13.2283 43.906C5.50946 56.9426 0.996094 72.0902 0.996094 88.3069C0.996094 133.692 36.0696 171.44 80.3466 175.734V175.734Z" fill="black"/>
<path d="M114.59 119.194V114.047H110.658C101.599 114.047 93.4497 109.009 89.3928 100.905C87.0954 96.3102 82.4753 93.4548 77.3374 93.4548H76.5882L78.589 97.4565C82.1936 104.666 80.9467 113.293 75.5273 119.185L78.0409 121.698C81.6911 125.348 83.7019 130.199 83.7019 135.362C83.7019 143.723 85.4464 159.173 88.2867 167.91C92.9922 156.101 100.669 139.389 110 130.184C112.961 127.258 114.59 123.357 114.59 119.194V119.194Z" fill="black"/>
</mask>
<g mask="url(#mask0_655_4895)">
<rect x="-19.3867" y="-4.47095" width="203.128" height="185.556" fill="url(#paint0_linear_655_4895)"/>
</g>
<mask id="mask1_655_4895" style="mask-type:alpha" maskUnits="userSpaceOnUse" x="106" y="104" width="101" height="78">
<path d="M205.965 125.503C205.785 124.381 204.968 123.466 203.873 123.16C189.148 119.002 174.028 123.045 163.91 133.847C166.143 141.347 166.585 149.348 165.037 157.166V166.234C195.787 161.064 189.645 139.531 204.712 128.383C205.656 127.75 206.146 126.626 205.965 125.503V125.503Z" fill="black"/>
<path d="M109.091 104.962C107.966 105.129 107.041 105.935 106.723 107.026C106.404 108.117 106.749 109.294 107.607 110.04C123.882 125.598 111.97 151.105 153.389 159.412V178.109C153.543 181.973 159.061 181.97 159.213 178.109V156.577C165.675 127.093 139.196 99.8008 109.091 104.962V104.962Z" fill="black"/>
</mask>
<g mask="url(#mask1_655_4895)">
<rect x="103.844" y="100.466" width="115.042" height="82.8303" fill="url(#paint1_linear_655_4895)"/>
</g>
<defs>
<linearGradient id="paint0_linear_655_4895" x1="-32.1435" y1="-4.47095" x2="135.641" y2="211.776" gradientUnits="userSpaceOnUse">
<stop stop-color="#2BB04C"/>
<stop offset="1" stop-color="#63D0FF" stop-opacity="0"/>
</linearGradient>
<linearGradient id="paint1_linear_655_4895" x1="95.5607" y1="100.466" x2="221.426" y2="266.157" gradientUnits="userSpaceOnUse">
<stop stop-color="#F47920"/>
<stop offset="1" stop-color="white" stop-opacity="0"/>
</linearGradient>
</defs>
</svg>
