<svg width="18" height="20" viewBox="0 0 18 20" fill="none" xmlns="http://www.w3.org/2000/svg">
<path fill-rule="evenodd" clip-rule="evenodd" d="M12.8017 3.68654C15.3012 5.06496 17 7.75875 17 10.8542C17 15.35 13.4153 19 9 19C4.5847 19 1 15.35 1 10.8542C1 7.75875 2.69878 5.06496 5.19826 3.68654L5.62122 4.25958C3.2887 5.50271 1.69565 7.99037 1.69565 10.8542C1.69565 14.959 4.9687 18.2917 9 18.2917C13.0313 18.2917 16.3043 14.959 16.3043 10.8542C16.3043 7.99037 14.7113 5.50271 12.3788 4.25958L12.8017 3.68654ZM9.34783 2V12.5017L11.9544 9.24058L12.4783 9.71233L9 14.0417L5.52174 9.72012L6.03443 9.23917L8.65217 12.5032V2H9.34783Z" fill="#313D47" stroke="#313D47" stroke-width="0.5"/>
</svg>
