<svg width="179" height="163" viewBox="0 0 179 163" fill="none" xmlns="http://www.w3.org/2000/svg">
<mask id="mask0_655_4868" style="mask-type:alpha" maskUnits="userSpaceOnUse" x="0" y="0" width="142" height="159">
<path d="M10.6094 46.3982L18.9242 145.899C19.52 153.075 25.6858 158.701 32.9519 158.701H109.564C116.83 158.701 122.996 153.075 123.592 145.899L131.906 46.3982H10.6094ZM47.7821 140.087C45.3248 140.087 43.2574 138.192 43.1016 135.725L38.4073 60.6492C38.2468 58.0817 40.2134 55.8732 42.799 55.7141C45.4806 55.5276 47.6125 57.5 47.7774 60.0675L52.4717 135.143C52.6378 137.802 50.5157 140.087 47.7821 140.087ZM75.9521 135.434C75.9521 138.006 73.8525 140.087 71.2578 140.087C68.6632 140.087 66.5636 138.006 66.5636 135.434V60.3585C66.5636 57.7864 68.6632 55.7051 71.2578 55.7051C73.8525 55.7051 75.9521 57.7864 75.9521 60.3585V135.434ZM104.108 60.6495L99.4141 135.725C99.2598 138.168 97.2059 140.203 94.4357 140.078C91.8501 139.919 89.8835 137.711 90.044 135.143L94.7383 60.0678C94.8988 57.5004 97.1681 55.6325 99.7167 55.7144C102.302 55.8735 104.269 58.082 104.108 60.6495Z" fill="white"/>
<path d="M132.283 18.6709H104.118V14.0174C104.118 6.31941 97.8006 0.0571289 90.035 0.0571289H52.4808C44.7152 0.0571289 38.398 6.31941 38.398 14.0174V18.6709H10.2323C5.047 18.6709 0.84375 22.8375 0.84375 27.9777C0.84375 33.1173 5.047 37.2846 10.2323 37.2846C53.409 37.2846 89.1083 37.2846 132.283 37.2846C137.469 37.2846 141.672 33.1173 141.672 27.9777C141.672 22.8375 137.469 18.6709 132.283 18.6709ZM94.7293 18.6709H47.7865V14.0174C47.7865 11.45 49.8908 9.36399 52.4808 9.36399H90.035C92.625 9.36399 94.7293 11.45 94.7293 14.0174V18.6709Z" fill="white"/>
</mask>
<g mask="url(#mask0_655_4868)">
<rect x="-10.4258" y="-10.3701" width="155.528" height="171.306" fill="url(#paint0_linear_655_4868)"/>
</g>
<path d="M85.2633 106.67L96.2595 103.966C96.9204 101.881 97.7707 99.8596 98.7965 97.926C97.1455 95.1778 93.6758 89.3935 93.6758 89.3935C93.0121 88.2882 93.1877 86.8729 94.0982 85.9624L102.041 78.0194C102.952 77.1061 104.364 76.9306 105.472 77.597L114.019 82.7177C115.941 81.7001 117.952 80.8581 120.022 80.2026L122.727 69.2064C123.04 67.9556 124.161 67.0779 125.45 67.0779H136.685C137.974 67.0779 139.098 67.9556 139.408 69.2062C139.408 69.2062 141.281 76.881 142.11 80.1998C144.318 80.8991 146.451 81.807 148.484 82.9151L157.346 77.597C158.454 76.9387 159.863 77.1089 160.777 78.0194L168.72 85.9624C169.63 86.8729 169.806 88.2882 169.142 89.3935L163.662 98.546C164.545 100.288 165.286 102.1 165.875 103.957L176.871 106.67C178.122 106.982 179 108.104 179 109.393V120.627C179 121.917 178.122 123.041 176.872 123.351L165.873 126.055C165.206 128.17 164.34 130.224 163.289 132.196L168.193 140.37C168.857 141.475 168.681 142.89 167.77 143.801L159.828 151.744C158.92 152.651 157.505 152.824 156.396 152.166C156.396 152.166 150.897 148.869 148.204 147.256C146.254 148.296 144.213 149.154 142.11 149.821L139.408 160.814C139.098 162.065 137.974 162.943 136.685 162.943H125.45C124.161 162.943 123.04 162.065 122.727 160.815L120.025 149.821C117.861 149.135 115.777 148.249 113.794 147.174C111.026 148.834 105.472 152.166 105.472 152.166C104.367 152.827 102.952 152.657 102.041 151.744L94.0984 143.801C93.1879 142.89 93.0122 141.475 93.676 140.37L98.7254 131.958C97.7299 130.068 96.9041 128.09 96.2597 126.055L85.2635 123.351C84.0125 123.038 83.135 121.917 83.135 120.627V109.393C83.135 108.104 84.0125 106.982 85.2633 106.67ZM131.067 134.67C141.907 134.67 150.727 125.85 150.727 115.01C150.727 104.171 141.907 95.3506 131.067 95.3506C120.228 95.3506 111.408 104.171 111.408 115.01C111.408 125.85 120.228 134.67 131.067 134.67Z" fill="url(#paint1_linear_655_4868)"/>
<defs>
<linearGradient id="paint0_linear_655_4868" x1="-20.1933" y1="-10.3701" x2="171.325" y2="152.285" gradientUnits="userSpaceOnUse">
<stop stop-color="#2BB04C"/>
<stop offset="1" stop-color="#63D0FF" stop-opacity="0"/>
</linearGradient>
<linearGradient id="paint1_linear_655_4868" x1="114.727" y1="67.441" x2="158.302" y2="170.205" gradientUnits="userSpaceOnUse">
<stop stop-color="#F47920"/>
<stop offset="1" stop-color="white"/>
</linearGradient>
</defs>
</svg>
