<svg width="165" height="181" viewBox="0 0 165 181" fill="none" xmlns="http://www.w3.org/2000/svg">
<path d="M54.4579 6.52377C59.1189 -1.42729 64.054 -1.15311 68.715 6.52377C90.1006 38.328 122.453 86.0343 122.453 109.887C122.453 126.612 115.599 141.966 104.632 152.933C93.6648 163.9 78.3111 170.754 61.5865 170.754C44.8618 170.754 29.5081 163.9 18.5411 152.933C7.57415 141.966 0.719791 126.612 0.719791 109.887C0.719791 85.7601 33.0723 38.328 54.4579 6.52377ZM17.7186 137.031C22.1054 144.159 28.4114 150.465 36.0883 154.852C39.6525 156.771 44.0393 155.675 45.9585 152.11C48.1519 148.272 46.7811 143.885 43.2168 141.966C37.7333 138.95 33.3465 134.563 30.0564 129.354C26.7663 124.145 24.8471 118.113 24.573 111.807C24.2988 107.694 21.0087 104.678 16.8961 104.952C12.7835 105.226 9.76754 108.517 10.0417 112.629C10.5901 121.403 13.3318 129.628 17.7186 137.031Z" fill="url(#paint0_linear_655_4891)"/>
<path d="M76.767 127.368L87.1176 124.822C87.7397 122.86 88.54 120.957 89.5057 119.137C87.9516 116.55 84.6856 111.106 84.6856 111.106C84.0608 110.065 84.2262 108.733 85.0832 107.876L92.5598 100.399C93.4169 99.5397 94.7464 99.3746 95.7894 100.002L103.834 104.822C105.644 103.864 107.536 103.071 109.485 102.454L112.031 92.1039C112.325 90.9266 113.381 90.1003 114.595 90.1003H125.169C126.383 90.1003 127.441 90.9266 127.733 92.1037C127.733 92.1037 129.496 99.3279 130.276 102.452C132.354 103.11 134.362 103.965 136.276 105.008L144.617 100.002C145.66 99.3822 146.987 99.5424 147.847 100.399L155.323 107.876C156.18 108.733 156.346 110.065 155.721 111.106L150.563 119.721C151.394 121.36 152.091 123.067 152.646 124.814L162.996 127.368C164.174 127.662 165 128.718 165 129.931V140.506C165 141.719 164.174 142.778 162.997 143.069L152.643 145.615C152.016 147.605 151.2 149.539 150.211 151.395L154.827 159.089C155.452 160.129 155.287 161.461 154.43 162.318L146.953 169.795C146.099 170.649 144.767 170.812 143.724 170.192C143.724 170.192 138.547 167.089 136.012 165.571C134.177 166.55 132.256 167.358 130.276 167.985L127.733 178.333C127.441 179.511 126.383 180.337 125.169 180.337H114.595C113.381 180.337 112.325 179.51 112.031 178.333L109.488 167.985C107.451 167.34 105.489 166.506 103.622 165.494C101.018 167.056 95.7896 170.192 95.7896 170.192C94.7493 170.815 93.417 170.655 92.56 169.795L85.0834 162.318C84.2263 161.461 84.061 160.129 84.6858 159.089L89.4387 151.171C88.5016 149.392 87.7244 147.53 87.1178 145.615L76.7672 143.069C75.5897 142.775 74.7637 141.719 74.7637 140.506V129.931C74.7637 128.718 75.5897 127.662 76.767 127.368ZM119.882 153.724C130.085 153.724 138.387 145.421 138.387 135.219C138.387 125.016 130.085 116.713 119.882 116.713C109.679 116.713 101.376 125.016 101.376 135.219C101.376 145.421 109.679 153.724 119.882 153.724Z" fill="url(#paint1_linear_655_4891)"/>
<defs>
<linearGradient id="paint0_linear_655_4891" x1="34.9059" y1="29.4509" x2="118.529" y2="138.435" gradientUnits="userSpaceOnUse">
<stop stop-color="#63D0FF"/>
<stop offset="1" stop-color="#2BB04C" stop-opacity="0"/>
</linearGradient>
<linearGradient id="paint1_linear_655_4891" x1="104.501" y1="90.4421" x2="145.517" y2="187.173" gradientUnits="userSpaceOnUse">
<stop stop-color="#F47920"/>
<stop offset="1" stop-color="white"/>
</linearGradient>
</defs>
</svg>
