<svg width="66" height="66" viewBox="0 0 66 66" fill="none" xmlns="http://www.w3.org/2000/svg">
<g clip-path="url(#clip0_2381_2778)">
<path d="M10.3399 60.7517C13.15 60.7517 15.4279 58.4737 15.4279 55.6637C15.4279 52.8537 13.15 50.5757 10.3399 50.5757C7.52992 50.5757 5.25195 52.8537 5.25195 55.6637C5.25195 58.4737 7.52992 60.7517 10.3399 60.7517Z" stroke="#2BB04C" stroke-width="1.5" stroke-miterlimit="10" stroke-linecap="round" stroke-linejoin="round"/>
<path d="M25.1134 60.7517C27.9234 60.7517 30.2014 58.4737 30.2014 55.6637C30.2014 52.8537 27.9234 50.5757 25.1134 50.5757C22.3034 50.5757 20.0254 52.8537 20.0254 55.6637C20.0254 58.4737 22.3034 60.7517 25.1134 60.7517Z" stroke="#2BB04C" stroke-width="1.5" stroke-miterlimit="10" stroke-linecap="round" stroke-linejoin="round"/>
<path d="M39.8868 60.7517C42.6968 60.7517 44.9748 58.4737 44.9748 55.6637C44.9748 52.8537 42.6968 50.5757 39.8868 50.5757C37.0768 50.5757 34.7988 52.8537 34.7988 55.6637C34.7988 58.4737 37.0768 60.7517 39.8868 60.7517Z" stroke="#2BB04C" stroke-width="1.5" stroke-miterlimit="10" stroke-linecap="round" stroke-linejoin="round"/>
<path d="M54.6622 60.7517C57.4722 60.7517 59.7502 58.4737 59.7502 55.6637C59.7502 52.8537 57.4722 50.5757 54.6622 50.5757C51.8522 50.5757 49.5742 52.8537 49.5742 55.6637C49.5742 58.4737 51.8522 60.7517 54.6622 60.7517Z" stroke="#2BB04C" stroke-width="1.5" stroke-miterlimit="10" stroke-linecap="round" stroke-linejoin="round"/>
<path d="M10.3394 64.0772C5.7 64.0772 1.92578 60.3028 1.92578 55.6636C1.92578 51.0243 5.70012 47.25 10.3394 47.25H54.6608C59.3002 47.25 63.0744 51.0243 63.0744 55.6636C63.0744 60.3028 59.3002 64.0772 54.6608 64.0772H10.3394Z" stroke="#636466" stroke-width="1.5" stroke-miterlimit="10" stroke-linecap="round" stroke-linejoin="round"/>
<path d="M10.3399 50.5757H54.6614C57.4714 50.5757 59.7494 52.8537 59.7494 55.6637C59.7494 58.4737 57.4714 60.7517 54.6614 60.7517H10.3399C7.52992 60.7517 5.25195 58.4737 5.25195 55.6637C5.25195 52.8537 7.52992 50.5757 10.3399 50.5757Z" stroke="#636466" stroke-width="1.5" stroke-miterlimit="10" stroke-linecap="round" stroke-linejoin="round"/>
<path d="M34.8543 42.174H28.1831L24.9984 38.6542C24.2989 37.8811 23.305 37.4399 22.2625 37.4399H12.2909C11.2134 37.4399 10.3398 38.3134 10.3398 39.391V47.2502H54.6614V44.1251C54.6614 43.0476 53.7879 42.174 52.7104 42.174H39.169" stroke="#636466" stroke-width="1.5" stroke-miterlimit="10" stroke-linecap="round" stroke-linejoin="round"/>
<circle cx="54.6611" cy="55.6636" r="0.922852" fill="#636466"/>
<circle cx="39.8877" cy="55.6636" r="0.922852" fill="#636466"/>
<circle cx="25.1123" cy="55.6636" r="0.922852" fill="#636466"/>
<circle cx="10.3389" cy="55.6636" r="0.922852" fill="#636466"/>
<path d="M17.0664 37.4397L18.3706 29.6282C18.9587 26.1131 22.0001 23.5366 25.5645 23.5366C27.3473 23.5366 28.9985 24.1814 30.2781 25.2641C31.5564 26.348 32.4631 27.87 32.7572 29.6282L34.8537 42.1742" stroke="#636466" stroke-width="1.5" stroke-miterlimit="10" stroke-linecap="round" stroke-linejoin="round"/>
<path d="M22.0993 42.3447H15.4277" stroke="#636466" stroke-width="1.5" stroke-miterlimit="10" stroke-linecap="round" stroke-linejoin="round"/>
<path d="M25.5635 32.4034C26.9922 32.4034 28.1504 31.2452 28.1504 29.8164C28.1504 28.3877 26.9922 27.2295 25.5635 27.2295C24.1348 27.2295 22.9766 28.3877 22.9766 29.8164C22.9766 31.2452 24.1348 32.4034 25.5635 32.4034Z" stroke="#F47920" stroke-width="1.5" stroke-miterlimit="10" stroke-linecap="round" stroke-linejoin="round"/>
<path d="M23.8084 23.7507L12.5371 13.7983" stroke="#636466" stroke-width="1.5" stroke-miterlimit="10" stroke-linecap="round" stroke-linejoin="round"/>
<path d="M6.83398 15.3276C6.83768 15.3313 6.84014 15.3338 6.84383 15.3362L19.615 26.6125" stroke="#636466" stroke-width="1.5" stroke-miterlimit="10" stroke-linecap="round" stroke-linejoin="round"/>
<path d="M8.47502 15.9528C7.66684 15.9528 6.87528 15.5551 6.40475 14.8253C5.66819 13.6832 5.99698 12.1602 7.13922 11.4237L19.7122 3.31589C20.8543 2.57933 22.3771 2.90811 23.1138 4.05035C23.8503 5.19247 23.5216 6.71542 22.3793 7.45198L9.80638 15.5598C9.39393 15.8257 8.93177 15.9528 8.47502 15.9528Z" stroke="#636466" stroke-width="1.5" stroke-miterlimit="10" stroke-linecap="round" stroke-linejoin="round"/>
<path d="M40.4045 6.24512H23.3496" stroke="#636466" stroke-width="1.5" stroke-miterlimit="10" stroke-linecap="round" stroke-linejoin="round"/>
<path d="M21.043 2.92334C21.0442 2.92334 21.0442 2.92334 21.0454 2.92334H51.1498C52.0676 2.92334 52.8108 3.66642 52.8108 4.58435C52.8108 5.50093 52.0678 6.24536 51.1498 6.24536H44.7194" stroke="#636466" stroke-width="1.5" stroke-miterlimit="10" stroke-linecap="round" stroke-linejoin="round"/>
<path d="M50.4995 11.7285C52.4754 11.7285 54.0772 13.3303 54.0772 15.3062V18.8839H46.9219V15.3062C46.9219 13.3302 48.5236 11.7285 50.4995 11.7285Z" stroke="#636466" stroke-width="1.5" stroke-miterlimit="10" stroke-linecap="round" stroke-linejoin="round"/>
<path d="M46.9217 18.8838L45.1642 20.6957C44.6588 21.2166 44.5739 22.015 44.9585 22.6304L46.0265 24.3407" stroke="#636466" stroke-width="1.5" stroke-miterlimit="10" stroke-linecap="round" stroke-linejoin="round"/>
<path d="M54.0781 18.8838L55.8356 20.6957C56.341 21.2166 56.4259 22.015 56.0413 22.6304L54.9733 24.3407" stroke="#636466" stroke-width="1.5" stroke-miterlimit="10" stroke-linecap="round" stroke-linejoin="round"/>
<path d="M51.4114 11.7285H49.59C48.8165 11.7285 48.1895 11.1014 48.1895 10.3279V7.64551C48.1895 6.87204 48.8165 6.24512 49.59 6.24512H51.4114C52.1849 6.24512 52.812 6.87216 52.812 7.64551V10.3279C52.8118 11.1014 52.1848 11.7285 51.4114 11.7285Z" stroke="#636466" stroke-width="1.5" stroke-miterlimit="10" stroke-linecap="round" stroke-linejoin="round"/>
</g>
<defs>
<clipPath id="clip0_2381_2778">
<rect width="63" height="63" fill="white" transform="translate(1 2)"/>
</clipPath>
</defs>
</svg>
