<svg width="66" height="66" viewBox="0 0 66 66" fill="none" xmlns="http://www.w3.org/2000/svg">
<g clip-path="url(#clip0_2381_2776)">
<path d="M39.6289 21.2524V27.747" stroke="#636466" stroke-width="1.5" stroke-miterlimit="10" stroke-linecap="round" stroke-linejoin="round"/>
<path d="M54.2592 41.4627C53.7724 33.8063 47.4083 27.7471 39.6291 27.7471C33.5567 27.7471 28.3466 31.4391 26.1211 36.7007" stroke="#F47920" stroke-width="1.5" stroke-miterlimit="10" stroke-linecap="round" stroke-linejoin="round"/>
<path d="M43.3816 9.46316C43.3816 6.88853 41.8986 4.61327 39.6293 3.23047C37.3599 4.61327 35.877 6.88841 35.877 9.46316C35.877 12.0378 37.3599 14.3131 39.6293 15.6959C41.8987 14.3131 43.3816 12.0378 43.3816 9.46316Z" stroke="#2BB04C" stroke-width="1.5" stroke-miterlimit="10" stroke-linecap="round" stroke-linejoin="round"/>
<path d="M39.3763 21.2259C40.0174 18.5855 39.4445 15.8682 37.583 14.0068C35.7216 12.1452 33.0043 11.5724 30.3639 12.2135C29.7228 14.854 30.2957 17.5712 32.1572 19.4327C34.0186 21.2941 36.7359 21.867 39.3763 21.2259Z" stroke="#2BB04C" stroke-width="1.5" stroke-miterlimit="10" stroke-linecap="round" stroke-linejoin="round"/>
<path d="M39.8815 21.2259C39.2404 18.5855 39.8133 15.8682 41.6747 14.0068C43.5362 12.1452 46.2534 11.5724 48.8939 12.2135C49.535 14.854 48.9621 17.5712 47.1006 19.4327C45.2392 21.2941 42.5219 21.867 39.8815 21.2259Z" stroke="#2BB04C" stroke-width="1.5" stroke-miterlimit="10" stroke-linecap="round" stroke-linejoin="round"/>
<path d="M22.4149 57.8477L35.0557 57.8659C37.8173 57.8748 40.532 57.152 42.9237 55.7712L61.1154 45.2683C62.6953 44.3561 63.2367 42.3358 62.3245 40.7558C61.4123 39.1759 59.392 38.6345 57.812 39.5467L47.5863 45.4505C44.1835 47.4151 40.194 48.1082 36.328 47.4066L35.9299 47.3344L26.7312 45.7046L35.5758 47.2839C38.0493 47.7257 40.3275 45.8406 40.3565 43.3281C40.3779 41.4829 39.154 39.8546 37.3755 39.3622L30.5101 37.4614C23.3886 35.4899 15.7791 37.9791 11.1997 43.7784L2.23242 48.3576L9.8425 63.7695L15.3256 60.2894C17.396 58.7937 19.8616 57.9106 22.4149 57.8477Z" stroke="#636466" stroke-width="1.5" stroke-miterlimit="10" stroke-linecap="round" stroke-linejoin="round"/>
</g>
<defs>
<clipPath id="clip0_2381_2776">
<rect width="63" height="63" fill="white" transform="translate(1 2)"/>
</clipPath>
</defs>
</svg>
