<svg width="66" height="66" viewBox="0 0 66 66" fill="none" xmlns="http://www.w3.org/2000/svg">
<g clip-path="url(#clip0_2381_2779)">
<mask id="mask0_2381_2779" style="mask-type:luminance" maskUnits="userSpaceOnUse" x="2" y="2" width="62" height="62">
<path d="M2 2.00001H64V64H2V2.00001Z" fill="white"/>
</mask>
<g mask="url(#mask0_2381_2779)">
<path d="M59.2855 25.5647C60.8295 23.3583 62.302 20.6446 63.0818 17.5979C63.0818 17.5979 63.3676 15.595 60.6999 12.9273C60.6999 12.9273 56.8733 18.6599 52.9717 20.6555C52.9717 20.6555 50.1357 19.6771 48.2297 17.7699C46.3224 15.8638 45.344 13.0278 45.344 13.0278C47.3396 9.12618 53.0722 5.29962 53.0722 5.29962C50.4045 2.63192 48.4016 2.9177 48.4016 2.9177C41.4036 4.70747 36.1651 10.1555 34.7822 11.7127C34.5449 11.9804 34.4177 12.3279 34.4322 12.6839C34.5969 16.9476 36.5817 21.7914 36.5817 21.7914L34.8924 23.4806L21.4486 36.9233L20.6857 37.6874C16.0066 35.9182 10.5199 36.916 6.75263 40.6832C1.62673 45.8091 1.62673 54.1198 6.75263 59.2469C11.8797 64.3728 20.1904 64.3728 25.3163 59.2469C29.0835 55.4797 30.0813 49.9929 28.3122 45.3138L29.0763 44.5509L42.5189 31.1071L44.2081 29.4179C44.2081 29.4179 49.0519 31.4026 53.3156 31.5673C53.6716 31.5818 54.0191 31.4547 54.2868 31.2173C54.8341 30.7305 55.8634 29.7678 57.0453 28.4188" stroke="#636466" stroke-width="1.5" stroke-miterlimit="10" stroke-linecap="round" stroke-linejoin="round"/>
<path d="M9.43555 46.0668L10.0071 43.9356L18.2415 41.7293L24.2707 47.7585L22.0644 55.9929L13.8288 58.1992L7.80078 52.1712L8.49586 49.5749" stroke="#2BB04C" stroke-width="1.5" stroke-miterlimit="10" stroke-linecap="round" stroke-linejoin="round"/>
</g>
</g>
<defs>
<clipPath id="clip0_2381_2779">
<rect width="62" height="62" fill="white" transform="translate(2 2)"/>
</clipPath>
</defs>
</svg>
