<svg width="185" height="91" viewBox="0 0 185 91" fill="none" xmlns="http://www.w3.org/2000/svg">
<g clip-path="url(#clip0_112_257)">
<path d="M37.5286 73.0973H35.0455V82.1959H37.5286C40.4108 82.1959 42.2731 80.4118 42.2731 77.6466C42.2731 74.8813 40.4108 73.0973 37.5286 73.0973M36.7527 74.7475H37.4621C39.4353 74.7475 40.5216 75.7733 40.5216 77.6466C40.5216 79.5198 39.4353 80.5456 37.4621 80.5456H36.7527V74.7475V74.7475Z" fill="white"/>
<path d="M45.8868 73.0973H44.1575V82.1959H45.8868V73.0973Z" fill="white"/>
<path d="M47.5052 74.7475H50.0327V82.1959H51.7398V74.7475H54.245V73.0973H47.5052V74.7475Z" fill="white"/>
<path d="M60.9183 73.0973L58.8343 76.7323L56.7281 73.0973H54.7771L57.9696 78.5832V82.1959H59.6767V78.5832L62.8249 73.0973H60.9183Z" fill="white"/>
<path d="M80.8273 77.379C81.2485 76.9553 81.4702 76.3755 81.4702 75.6618C81.4702 74.1008 80.3839 73.0973 78.6768 73.0973H75.4843V82.1959H78.8541C80.6943 82.1959 81.8693 81.1255 81.8693 79.4752C81.8693 78.5609 81.5146 77.825 80.8273 77.379M78.6103 74.7252C79.3862 74.7252 79.7631 75.0374 79.7631 75.7064C79.7631 76.3755 79.4527 76.6877 78.7433 76.6877H77.1914V74.7252H78.6103V74.7252ZM77.2135 78.2933H78.7655C79.6745 78.2933 80.1622 78.6724 80.1622 79.4306C80.1622 80.1888 79.7188 80.5679 78.7876 80.5679H77.2135V78.2933V78.2933Z" fill="white"/>
<path d="M85.461 73.0973H83.7317V82.1959H85.461V73.0973Z" fill="white"/>
<path d="M93.9077 75.9963C93.9077 74.2569 92.644 73.0973 90.7374 73.0973H87.8552V82.1959H89.5623V78.8731H90.6487L92.6884 82.1959H94.6615L92.378 78.5163C93.3535 78.048 93.9077 77.156 93.9077 75.9963M89.5402 74.7475H90.6709C91.6685 74.7475 92.1563 75.1712 92.1563 76.0187C92.1563 76.5539 92.0011 77.2452 90.6709 77.2452H89.5402V74.7475Z" fill="white"/>
<path d="M97.6546 73.0973H95.9253V82.1959H101.401V80.5679H97.6546V73.0973Z" fill="white"/>
<path d="M119.448 78.8731H121.887V80.0327C121.377 80.4119 120.712 80.5903 119.891 80.5903C118.184 80.5903 116.943 79.3414 116.943 77.602C116.943 75.8626 118.118 74.6137 119.758 74.6137C120.956 74.6137 121.532 75.082 121.931 75.5281L122.242 75.8849L123.461 74.7252L123.151 74.3907C122.286 73.4318 121.177 72.9635 119.758 72.9635C117.187 72.9635 115.169 74.9928 115.169 77.602C115.169 80.2112 117.187 82.2405 119.869 82.2405C121.31 82.2405 122.419 81.8391 123.394 80.9917L123.55 80.8579V77.2452H119.426V78.8731" fill="white"/>
<path d="M131.597 75.9518C131.597 74.2124 130.334 73.0527 128.427 73.0527H125.545V82.1513H127.252V78.8285H128.338L130.378 82.1513H132.351L130.068 78.4717C131.043 78.0034 131.597 77.0891 131.597 75.9518M127.252 74.6807H128.383C129.38 74.6807 129.846 75.1044 129.846 75.9518C129.846 76.487 129.691 77.1783 128.383 77.1783H127.252V74.6807Z" fill="white"/>
<path d="M137.716 72.9635C135.122 72.9635 133.105 74.9928 133.105 77.602C133.105 80.2112 135.122 82.2405 137.716 82.2405C140.31 82.2405 142.35 80.2112 142.35 77.602C142.35 74.9928 140.31 72.9635 137.716 72.9635ZM137.716 80.5903C136.054 80.5903 134.834 79.3414 134.834 77.602C134.834 75.8626 136.054 74.6137 137.716 74.6137C139.379 74.6137 140.599 75.8626 140.599 77.602C140.599 79.3414 139.379 80.5903 137.716 80.5903Z" fill="white"/>
<path d="M149.023 78.8509C149.023 80.0105 148.469 80.5903 147.405 80.5903C146.341 80.5903 145.786 79.9882 145.786 78.8509V73.0527H144.079V78.8954C144.079 80.9248 145.387 82.2182 147.405 82.2182C149.422 82.2182 150.73 80.9025 150.73 78.8954V73.0527H149.023V78.8509Z" fill="white"/>
<path d="M155.852 73.0527H152.992V82.1513H154.699V78.8954H155.83C157.759 78.8954 159 77.7581 159 75.9741C159.022 74.2124 157.781 73.0527 155.852 73.0527M154.721 74.6807H155.808C156.805 74.6807 157.271 75.1044 157.271 75.9741C157.271 76.8438 156.783 77.2452 155.808 77.2452H154.721V74.6807Z" fill="white"/>
<path d="M26 82.1736H27.6849L28.4387 80.3004H31.2765L32.0303 82.1736H33.7375L29.8798 72.7628L26 82.1736ZM29.0595 78.7616L29.8576 76.7769L30.6558 78.7616H29.0595V78.7616Z" fill="white"/>
<path d="M62.2042 82.1959H63.8892L64.6208 80.3227H67.4586L68.2124 82.1959H69.9195L66.0619 72.7852L62.2042 82.1959ZM65.2416 78.8063L66.0397 76.8215L66.8378 78.8063H65.2416Z" fill="white"/>
<path d="M102.488 82.1736H104.173L104.927 80.3004H107.764L108.518 82.1736H110.225L106.368 72.7628L102.488 82.1736ZM105.525 78.7616L106.323 76.7769L107.121 78.7616H105.525V78.7616Z" fill="white"/>
<path d="M138.648 44.9095L126.188 50.6854L112.509 33.5363L127.784 8.49292H138.648V44.9095Z" fill="white"/>
<path d="M138.647 66.2958V44.9097L126.188 50.6855L138.647 66.2958Z" fill="#F47920"/>
<path d="M112.509 33.5363L92.511 8.49292H127.784L112.509 33.5363Z" fill="#F47920"/>
<path d="M107.01 42.5457L112.486 33.5587L92.511 8.51526V38.5094H92.644C97.9206 38.4871 102.842 39.9812 107.01 42.5457" fill="white"/>
<path d="M92.644 38.4871H92.511V66.2957L107.01 42.5457C102.82 39.9812 97.9206 38.4871 92.644 38.4871" fill="#F47920"/>
<path d="M117.741 54.6103L126.188 50.6854L112.509 33.5364L107.01 42.5458C111.666 45.4002 115.413 49.5927 117.741 54.6103Z" fill="#F47920"/>
<path d="M107.01 42.5458L92.511 66.3181L117.741 54.6103C115.413 49.5927 111.666 45.4002 107.01 42.5458" fill="white"/>
<path d="M126.188 50.6854L117.741 54.6103C119.382 58.1561 120.313 62.1256 120.313 66.318H138.648L126.188 50.6854Z" fill="white"/>
<path d="M92.511 66.2957H120.29C120.29 62.1256 119.381 58.1561 117.741 54.588L92.511 66.2957Z" fill="#F47920"/>
<path d="M46.3967 44.9095L58.8565 50.6854L72.5356 33.5363L57.2602 8.49292H46.3967V44.9095Z" fill="#F47920"/>
<path d="M46.3967 66.2958V44.9097L58.8565 50.6855L46.3967 66.2958Z" fill="white"/>
<path d="M72.5356 33.5363L92.5111 8.49292H57.2603L72.5356 33.5363Z" fill="white"/>
<path d="M78.0117 42.5457L72.5356 33.5587L92.5111 8.51526V38.5094H92.3781C87.1237 38.4871 82.2019 39.9812 78.0117 42.5457" fill="#F47920"/>
<path d="M92.378 38.4871H92.5111V66.2957L78.0338 42.5457C82.2018 39.9812 87.1237 38.4871 92.378 38.4871Z" fill="white"/>
<path d="M67.3034 54.6103L58.8564 50.6854L72.5356 33.5364L78.0116 42.5235C73.3559 45.4002 69.6091 49.5927 67.3034 54.6103Z" fill="white"/>
<path d="M78.0116 42.5458L92.511 66.3181L67.3033 54.6103C69.6091 49.5927 73.3559 45.4002 78.0116 42.5458" fill="#F47920"/>
<path d="M58.8565 50.6854L67.3034 54.6103C65.6628 58.1561 64.7316 62.1256 64.7316 66.318H46.3967L58.8565 50.6854Z" fill="#F47920"/>
<path d="M92.511 66.2957H64.7316C64.7316 62.1256 65.6406 58.1561 67.3033 54.588L92.511 66.2957Z" fill="white"/>
<path d="M138.648 8.51526H46.3967V66.318H138.648V8.51526Z" stroke="white" stroke-width="0.99" stroke-miterlimit="10"/>
</g>
<defs>
<clipPath id="clip0_112_257">
<rect width="133" height="73.8346" fill="white" transform="translate(26 8.40601)"/>
</clipPath>
</defs>
</svg>
