<svg width="185" height="90" viewBox="0 0 185 90" fill="none" xmlns="http://www.w3.org/2000/svg">
<path fill-rule="evenodd" clip-rule="evenodd" d="M109.756 66.194C101.605 72.2271 89.7917 75.4459 79.6203 75.4459C65.3584 75.4459 52.519 70.1486 42.8054 61.3382C42.0425 60.6452 42.7262 59.7011 43.6419 60.2407C54.1247 66.3657 67.0862 70.0505 80.475 70.0505C89.5047 70.0505 99.4379 68.1744 108.571 64.2811C109.951 63.6925 111.105 65.1885 109.756 66.194" fill="white"/>
<path fill-rule="evenodd" clip-rule="evenodd" d="M113.144 62.3009C112.106 60.9643 106.257 61.6694 103.632 61.9821C102.832 62.0802 102.71 61.3812 103.431 60.8785C108.089 57.5861 115.733 58.5364 116.624 59.64C117.515 60.7498 116.392 68.4443 112.014 72.1168C111.343 72.6809 110.702 72.3805 111.001 71.6324C111.984 69.1678 114.188 63.6437 113.144 62.3009" fill="white"/>
<path fill-rule="evenodd" clip-rule="evenodd" d="M103.816 37.6351V34.4347C103.816 33.9503 104.182 33.6254 104.621 33.6254H118.889C119.347 33.6254 119.714 33.9564 119.714 34.4347V37.1752C119.708 37.6351 119.323 38.236 118.639 39.1863L111.246 49.787C113.993 49.7196 116.893 50.1304 119.384 51.5406C119.946 51.8593 120.098 52.3254 120.141 52.7851V56.2002C120.141 56.6661 119.628 57.2118 119.091 56.9298C114.701 54.6184 108.871 54.367 104.017 56.9543C103.523 57.2242 103.004 56.6846 103.004 56.2186V52.9753C103.004 52.4541 103.01 51.5651 103.529 50.7742L112.094 38.4384H104.64C104.182 38.4384 103.816 38.1134 103.816 37.6351V37.6351ZM51.7683 57.6042H47.4274C47.0123 57.5736 46.6827 57.2609 46.6521 56.8623V34.4899C46.6521 34.0423 47.0245 33.6866 47.4884 33.6866H51.5362C51.9576 33.705 52.2933 34.03 52.3239 34.4346V37.3593H52.4033C53.4594 34.5329 55.4436 33.2148 58.1177 33.2148C60.8345 33.2148 62.5319 34.5329 63.7529 37.3593C64.803 34.5329 67.1902 33.2148 69.7483 33.2148C71.5676 33.2148 73.558 33.9689 74.7729 35.6611C76.1465 37.5433 75.8657 40.2777 75.8657 42.675L75.8596 56.795C75.8596 57.2426 75.4872 57.6043 75.0232 57.6043H70.6885C70.2551 57.5737 69.907 57.2243 69.907 56.795V44.9374C69.907 43.9931 69.9925 41.6386 69.7849 40.7437C69.4614 39.2415 68.4907 38.8184 67.2328 38.8184C66.1827 38.8184 65.0838 39.5235 64.6381 40.6517C64.1925 41.7799 64.2353 43.6681 64.2353 44.9374V56.7948C64.2353 57.2425 63.8628 57.6042 63.3988 57.6042H59.064C58.6245 57.5736 58.2825 57.2242 58.2825 56.7948L58.2765 44.9374C58.2765 42.4419 58.6855 38.7695 55.6024 38.7695C52.4827 38.7695 52.6047 42.3499 52.6047 44.9374V56.7948C52.6047 57.2425 52.2323 57.6042 51.7683 57.6042V57.6042ZM131.997 33.2147C138.438 33.2147 141.925 38.7694 141.925 45.8325C141.925 52.6564 138.072 58.0702 131.997 58.0702C125.672 58.0702 122.229 52.5154 122.229 45.5933C122.229 38.6284 125.715 33.2147 131.997 33.2147V33.2147ZM132.034 37.7823C128.835 37.7823 128.633 42.1599 128.633 44.8882C128.633 47.6228 128.591 53.4595 131.997 53.4595C135.362 53.4595 135.52 48.7509 135.52 45.8815C135.52 43.9931 135.441 41.7368 134.873 39.9466C134.385 38.3892 133.414 37.7823 132.034 37.7823H132.034ZM150.277 57.6042H145.954C145.521 57.5736 145.173 57.2242 145.173 56.7948L145.167 34.4163C145.203 34.0055 145.563 33.6866 146.003 33.6866H150.026C150.405 33.705 150.716 33.9627 150.802 34.312V37.7333H150.881C152.096 34.6739 153.799 33.2147 156.797 33.2147C158.745 33.2147 160.643 33.9196 161.864 35.851C163 37.6412 163 40.6517 163 42.816V56.8991C162.951 57.2915 162.591 57.6042 162.164 57.6042H157.81C157.414 57.5736 157.084 57.2792 157.041 56.8991V44.7472C157.041 42.3009 157.322 38.7202 154.324 38.7202C153.268 38.7202 152.297 39.4315 151.815 40.5106C151.205 41.8779 151.125 43.239 151.125 44.7473V56.7948C151.119 57.2425 150.741 57.6042 150.277 57.6042V57.6042ZM92.4415 46.9177C92.4415 48.6159 92.4843 50.0323 91.6294 51.5404C90.9396 52.7668 89.8407 53.5208 88.6257 53.5208C86.959 53.5208 85.9821 52.2457 85.9821 50.3633C85.9821 46.6478 89.2974 45.9734 92.4415 45.9734V46.9177V46.9177ZM96.8189 57.5429C96.5321 57.8004 96.1169 57.8188 95.7933 57.6471C94.3525 56.4454 94.0899 55.8875 93.3024 54.741C90.9213 57.1812 89.2302 57.9108 86.1469 57.9108C82.4899 57.9108 79.651 55.6483 79.651 51.1176C79.651 47.5798 81.5558 45.1703 84.2787 43.9931C86.6354 42.9508 89.9261 42.7668 92.4416 42.4787V41.9147C92.4416 40.8785 92.5209 39.6522 91.9103 38.7571C91.3854 37.954 90.3717 37.6229 89.4744 37.6229C87.8198 37.6229 86.3485 38.475 85.9883 40.2408C85.915 40.6332 85.628 41.0195 85.2312 41.0379L81.0246 40.5842C80.6706 40.5045 80.2737 40.2163 80.3775 39.6707C81.3422 34.5451 85.9577 33 90.085 33C92.1974 33 94.957 33.5641 96.6238 35.1705C98.736 37.1509 98.5346 39.7932 98.5346 42.6688V49.462C98.5346 51.5038 99.3773 52.3988 100.171 53.5025C100.446 53.8949 100.507 54.367 100.153 54.6612C99.2673 55.4031 97.6921 56.7826 96.8252 57.5552L96.8192 57.5429H96.8189ZM35.5344 46.9177C35.5344 48.6159 35.5772 50.0323 34.7223 51.5404C34.0325 52.7668 32.9397 53.5208 31.7186 53.5208C30.0519 53.5208 29.0811 52.2457 29.0811 50.3633C29.0811 46.6478 32.3963 45.9734 35.5344 45.9734V46.9177ZM39.9118 57.5429C39.625 57.8004 39.2098 57.8188 38.8862 57.6471C37.4454 56.4454 37.1889 55.8875 36.3953 54.741C34.0142 57.1812 32.3293 57.9108 29.2399 57.9108C25.589 57.9108 22.7439 55.6483 22.7439 51.1176C22.7439 47.5798 24.6549 45.1703 27.3716 43.9931C29.7284 42.9508 33.0191 42.7668 35.5344 42.4787V41.9147C35.5344 40.8785 35.6138 39.6522 35.0093 38.7571C34.4781 37.954 33.4648 37.6229 32.5733 37.6229C30.9189 37.6229 29.4414 38.475 29.0811 40.2408C29.0079 40.6332 28.7209 41.0195 28.3302 41.0379L24.1176 40.5842C23.7634 40.5045 23.3728 40.2163 23.4704 39.6707C24.4411 34.5451 29.0507 33 33.1778 33C35.2901 33 38.0498 33.5641 39.7166 35.1705C41.8288 37.1509 41.6274 39.7932 41.6274 42.6688V49.462C41.6274 51.5038 42.4699 52.3988 43.2636 53.5025C43.5446 53.8949 43.6056 54.367 43.2514 54.6612C42.3661 55.4031 40.7911 56.7826 39.9241 57.5552L39.9119 57.5429" fill="white"/>
</svg>
