<svg width="95" height="70" viewBox="0 0 95 70" fill="none" xmlns="http://www.w3.org/2000/svg">
<path d="M42.7977 27.4326H38.5969V23.2317H32.9997V27.4326H28.7988V33.0297H32.9997V37.2306H38.5969V33.0297H42.7977V27.4326Z" stroke="#55AE56" stroke-linejoin="round"/>
<path d="M66.9551 6.19971L66.9792 11.183" stroke="#F47920"/>
<path d="M57.7246 10.3645L61.6246 14.4209" stroke="#F47920"/>
<path d="M72.0371 14.4209L76.1778 10.4487" stroke="#F47920"/>
<path d="M57.4479 45.8854L57.4841 16.7681C57.5081 14.4811 56.2443 13.2894 53.8008 13.1089H15.4512C12.9234 13.4098 11.8522 15.0228 11.8883 17.6107L11.7559 55.6834L20.2058 55.4668" stroke="#636466"/>
<path d="M57.666 20.2104H61.9271L62.3123 18.8864C63.54 14.529 68.3548 14.529 69.4742 18.9104C69.5585 19.6928 69.9557 20.1502 70.5696 20.391C72.8325 20.6076 74.3492 21.5345 75.1075 23.1956L79.4769 35.7862L82.6546 38.9759C83.4611 40.0593 83.8342 41.1546 83.9426 42.2379L83.9787 54.8887C84.0028 55.8758 82.7148 55.9359 81.0296 56.2128L75.589 56.6702" stroke="#636466"/>
<path d="M35.25 56.0566H56.9164" stroke="#636466"/>
<path d="M37.0566 50.6396H62.3341" stroke="#636466"/>
<path d="M73.168 50.6396H84.0012" stroke="#636466"/>
<path d="M11.7793 50.6399H21.4088" stroke="#636466"/>
<path d="M59.9277 41.0103H64.7425" stroke="#636466"/>
<path d="M61.9258 20.2107C64.7063 21.619 67.3544 21.8236 69.7859 20.2588" stroke="#636466"/>
<path d="M59.8906 35.7261L59.8666 27.6012C59.8305 25.9401 60.5286 25.1938 61.7564 25.0854L68.9905 25.2058C70.5433 25.2058 71.2655 25.7716 71.5063 26.6502L73.8294 34.6307C74.1905 36.1714 73.6609 36.8937 72.6498 37.1705L61.8166 37.0862C60.6971 37.0622 59.9268 36.7251 59.8906 35.714V35.7261Z" stroke="#636466"/>
<path d="M28.0291 62.6768C32.3502 62.6768 35.8531 59.1739 35.8531 54.8528C35.8531 50.5318 32.3502 47.0288 28.0291 47.0288C23.7081 47.0288 20.2051 50.5318 20.2051 54.8528C20.2051 59.1739 23.7081 62.6768 28.0291 62.6768Z" stroke="#636466"/>
<path d="M28.0288 57.862C29.6907 57.862 31.038 56.5147 31.038 54.8527C31.038 53.1908 29.6907 51.8435 28.0288 51.8435C26.3668 51.8435 25.0195 53.1908 25.0195 54.8527C25.0195 56.5147 26.3668 57.862 28.0288 57.862Z" stroke="#636466"/>
<path d="M67.7517 63.8804C72.0728 63.8804 75.5757 60.3775 75.5757 56.0564C75.5757 51.7354 72.0728 48.2324 67.7517 48.2324C63.4307 48.2324 59.9277 51.7354 59.9277 56.0564C59.9277 60.3775 63.4307 63.8804 67.7517 63.8804Z" stroke="#636466"/>
<path d="M67.7534 59.0658C69.4153 59.0658 70.7626 57.7185 70.7626 56.0566C70.7626 54.3947 69.4153 53.0474 67.7534 53.0474C66.0914 53.0474 64.7441 54.3947 64.7441 56.0566C64.7441 57.7185 66.0914 59.0658 67.7534 59.0658Z" stroke="#636466"/>
</svg>
