<svg width="185" height="90" viewBox="0 0 185 90" fill="none" xmlns="http://www.w3.org/2000/svg">
<path d="M125.203 6.3877H80.4095C71.3468 6.3877 64 13.7345 64 22.7972V67.5905C64 76.6532 71.3468 84 80.4095 84H125.203C134.266 84 141.612 76.6532 141.612 67.5905V22.7972C141.612 13.7345 134.266 6.3877 125.203 6.3877Z" fill="white"/>
<path d="M77.9803 40.6309C79.103 40.6309 80.1054 40.9114 80.9875 41.4726C81.8777 42.0257 82.5753 42.8111 83.0806 43.8291C83.5697 44.8071 83.8143 45.9573 83.8143 47.2798C83.8143 48.5624 83.5697 49.7086 83.0806 50.7187C82.5914 51.7285 81.9017 52.5182 81.0116 53.0872C80.1134 53.6644 79.103 53.9529 77.9803 53.9529C77.1624 53.9529 76.3925 53.7846 75.6708 53.448C74.9491 53.1114 74.3316 52.6384 73.8184 52.0292V53.6522H69.6323V36.4347H73.8184V42.5426C74.3316 41.9334 74.9491 41.4644 75.6708 41.1358C76.3925 40.7992 77.1624 40.6309 77.9803 40.6309ZM76.7293 50.4781C77.3227 50.4781 77.852 50.3419 78.3171 50.0694C78.7823 49.7969 79.1471 49.4161 79.4118 48.9272C79.6764 48.4462 79.8087 47.8971 79.8087 47.2798C79.8087 46.6786 79.6764 46.1336 79.4118 45.6446C79.1471 45.1557 78.7823 44.7749 78.3171 44.5024C77.852 44.2299 77.3227 44.0937 76.7293 44.0937C76.168 44.0937 75.6668 44.2299 75.2257 44.5024C74.7847 44.7669 74.4399 45.1397 74.1912 45.6207C73.9426 46.1096 73.8184 46.6627 73.8184 47.2798C73.8184 47.8971 73.9426 48.4502 74.1912 48.9391C74.4399 49.4201 74.7847 49.7969 75.2257 50.0694C75.6668 50.3419 76.168 50.4781 76.7293 50.4781Z" fill="#F47922"/>
<path d="M84.3872 53.6522V36.4347H88.5733V53.6522H84.3872Z" fill="#F47922"/>
<path d="M89.7603 53.6524V40.9195H93.9223V53.6524H89.7603Z" fill="#F47922"/>
<path d="M102.964 40.6309C103.854 40.6309 104.656 40.8393 105.37 41.2562C106.083 41.6649 106.645 42.2421 107.054 42.9874C107.447 43.7409 107.643 44.5946 107.643 45.5486V53.6522H103.65V46.4864C103.65 46.0214 103.557 45.6087 103.373 45.2479C103.197 44.8791 102.944 44.5946 102.615 44.3942C102.294 44.1939 101.918 44.0937 101.484 44.0937C101.075 44.0937 100.699 44.1939 100.354 44.3942C100.009 44.5866 99.7402 44.8512 99.5477 45.1878C99.3472 45.5085 99.247 45.8852 99.247 46.3181L99.2231 53.6522H95.061V40.9194H99.2231V42.3743C99.616 41.8292 100.141 41.4043 100.799 41.0999C101.456 40.7872 102.178 40.6309 102.964 40.6309Z" fill="#F47922"/>
<path d="M116.84 46.4864L121.568 53.6522H116.84L114.074 49.1436L112.799 50.6224V53.6522H108.613V36.4347H112.799V45.9453L116.816 40.9194H121.543L116.84 46.4864Z" fill="#F47922"/>
<path d="M89.7579 36.4362H93.9335V39.7003H89.7579V36.4362Z" fill="#F47922"/>
<path d="M122.232 53.6142V40.8813H126.394V53.6142H122.232Z" fill="#F47920"/>
<path d="M135.194 50.0192L136.024 52.7006C135.647 53.0612 135.17 53.3539 134.593 53.5783C134.024 53.8027 133.466 53.9149 132.921 53.9149C132.135 53.9149 131.433 53.7426 130.816 53.3978C130.198 53.0452 129.717 52.5563 129.372 51.9309C129.028 51.3218 128.855 50.6204 128.855 49.827V44.2121H127.183V40.8814H128.855V36.4362H132.849V40.8814H135.483V44.2121H132.849V49.0575C132.849 49.4662 132.957 49.7988 133.174 50.0554C133.39 50.3119 133.667 50.4401 134.004 50.4401C134.244 50.4401 134.469 50.404 134.677 50.3319C134.886 50.2598 135.058 50.1556 135.194 50.0192Z" fill="#F47920"/>
<path d="M122.199 36.4362H126.374V39.7003H122.199V36.4362Z" fill="#F47920"/>
</svg>
