<svg width="185" height="90" viewBox="0 0 185 90" fill="none" xmlns="http://www.w3.org/2000/svg">
<path d="M116.969 4H69.4191C59.7988 4 52 11.7988 52 21.4191V68.9686C52 78.5889 59.7988 86.3877 69.4191 86.3877H116.969C126.589 86.3877 134.388 78.5889 134.388 68.9686V21.4191C134.388 11.7988 126.589 4 116.969 4Z" fill="white"/>
<path d="M66.8382 40.3499C68.03 40.3499 69.0941 40.6476 70.0304 41.2434C70.9753 41.8305 71.716 42.6642 72.2523 43.7449C72.7715 44.783 73.0311 46.004 73.0311 47.4079C73.0311 48.7694 72.7715 49.9862 72.2523 51.0584C71.733 52.1304 71.0009 52.9686 70.056 53.5726C69.1026 54.1853 68.03 54.4916 66.8382 54.4916C65.9699 54.4916 65.1527 54.3129 64.3866 53.9556C63.6204 53.5983 62.965 53.0962 62.4202 52.4496V54.1724H57.9766V35.8955H62.4202V42.3792C62.965 41.7326 63.6204 41.2347 64.3866 40.8858C65.1527 40.5285 65.9699 40.3499 66.8382 40.3499ZM65.5102 50.803C66.1402 50.803 66.702 50.6584 67.1957 50.3691C67.6895 50.0798 68.0768 49.6757 68.3577 49.1566C68.6386 48.6461 68.7791 48.0632 68.7791 47.4079C68.7791 46.7697 68.6386 46.1911 68.3577 45.6721C68.0768 45.1531 67.6895 44.7489 67.1957 44.4596C66.702 44.1703 66.1402 44.0258 65.5102 44.0258C64.9144 44.0258 64.3823 44.1703 63.9141 44.4596C63.4459 44.7404 63.0799 45.1361 62.816 45.6467C62.5521 46.1657 62.4202 46.7528 62.4202 47.4079C62.4202 48.0632 62.5521 48.6503 62.816 49.1693C63.0799 49.6799 63.4459 50.0798 63.9141 50.3691C64.3823 50.6584 64.9144 50.803 65.5102 50.803Z" fill="#313D47"/>
<path d="M73.6406 54.1724V35.8955H78.0843V54.1724H73.6406Z" fill="#313D47"/>
<path d="M79.3438 54.173V40.6567H83.7618V54.173H79.3438Z" fill="#313D47"/>
<path d="M93.3579 40.3501C94.3028 40.3501 95.154 40.5714 95.9117 41.0139C96.6692 41.4477 97.2652 42.0605 97.6993 42.8516C98.1164 43.6515 98.325 44.5578 98.325 45.5704V54.1726H94.0858V46.5659C94.0858 46.0723 93.9879 45.6342 93.792 45.2512C93.6049 44.8598 93.3368 44.5578 92.9877 44.345C92.647 44.1324 92.2471 44.026 91.7874 44.026C91.3531 44.026 90.9532 44.1324 90.5871 44.345C90.2211 44.5493 89.9358 44.8301 89.7315 45.1874C89.5187 45.5278 89.4123 45.9277 89.4123 46.3872L89.3869 54.1726H84.9688V40.6563H89.3869V42.2008C89.804 41.6222 90.3614 41.1712 91.0596 40.848C91.7575 40.5161 92.5237 40.3501 93.3579 40.3501Z" fill="#313D47"/>
<path d="M108.093 46.5657L113.112 54.1724H108.093L105.156 49.3864L103.803 50.9562V54.1724H99.3594V35.8955H103.803V45.9913L108.068 40.6561H113.086L108.093 46.5657Z" fill="#313D47"/>
<path d="M79.3438 35.8975H83.7762V39.3625H79.3438V35.8975Z" fill="#313D47"/>
<path d="M113.812 54.1325V40.6162H118.23V54.1325H113.812Z" fill="#313D47"/>
<path d="M127.574 50.3162L128.455 53.1626C128.055 53.5454 127.549 53.8561 126.936 54.0943C126.331 54.3325 125.74 54.4516 125.161 54.4516C124.327 54.4516 123.582 54.2687 122.927 53.9027C122.271 53.5284 121.76 53.0094 121.394 52.3456C121.028 51.6989 120.845 50.9544 120.845 50.1122V44.1518H119.07V40.6162H120.845V35.8975H125.084V40.6162H127.881V44.1518H125.084V49.2953C125.084 49.7292 125.199 50.0823 125.429 50.3546C125.659 50.627 125.953 50.763 126.31 50.763C126.566 50.763 126.804 50.7247 127.025 50.6482C127.247 50.5716 127.43 50.461 127.574 50.3162Z" fill="#313D47"/>
<path d="M113.781 35.8975H118.214V39.3625H113.781V35.8975Z" fill="#313D47"/>
</svg>
