<svg width="20" height="25" viewBox="0 0 20 25" fill="none" xmlns="http://www.w3.org/2000/svg">
<path d="M0.578826 0.257692C0.642676 0.175997 0.7185 0.111187 0.801961 0.066967C0.885422 0.0227489 0.974884 -1.14441e-05 1.06523 -1.14441e-05C1.15558 -1.14441e-05 1.24504 0.0227489 1.3285 0.066967C1.41197 0.111187 1.48779 0.175997 1.55164 0.257692L10.001 11.0565L18.4538 0.257692C18.5828 0.0928173 18.7578 0.000192642 18.9402 0.000192642C19.1227 0.000192642 19.2976 0.0928173 19.4266 0.257692C19.5556 0.422565 19.6281 0.646183 19.6281 0.879351C19.6281 1.11252 19.5556 1.33613 19.4266 1.50101L10.9738 12.2998L19.4232 23.1031C19.5522 23.2679 19.6247 23.4916 19.6247 23.7247C19.6247 23.9579 19.5522 24.1815 19.4232 24.3464C19.2942 24.5113 19.1192 24.6039 18.9368 24.6039C18.7544 24.6039 18.5794 24.5113 18.4504 24.3464L10.001 13.5432L1.5482 24.342C1.41668 24.4859 1.2475 24.5612 1.07448 24.5526C0.90145 24.5441 0.737316 24.4524 0.614876 24.2959C0.492436 24.1394 0.420708 23.9297 0.414025 23.7085C0.407341 23.4874 0.466196 23.2712 0.578826 23.1031L9.0282 12.2998L0.578826 1.49661C0.450779 1.33198 0.378906 1.10928 0.378906 0.877153C0.378906 0.645021 0.450779 0.422321 0.578826 0.257692Z" fill="white"/>
</svg>
