<svg width="66" height="66" viewBox="0 0 66 66" fill="none" xmlns="http://www.w3.org/2000/svg">
<g clip-path="url(#clip0_2384_2982)">
<mask id="mask0_2384_2982" style="mask-type:luminance" maskUnits="userSpaceOnUse" x="1" y="2" width="63" height="63">
<path d="M1 2H64V65H1V2Z" fill="white"/>
</mask>
<g mask="url(#mask0_2384_2982)">
<path d="M33.6561 14.4658L35.3883 12.1562V10.4241C35.3883 8.8363 34.0892 7.53717 32.5014 7.53717C30.9136 7.53717 29.6144 8.8363 29.6144 10.4241V12.1562L31.3466 14.4658M33.6561 14.4658H31.3466M33.6561 14.4658L38.7476 16.4604V20.9723M31.3466 14.4658L26.2551 16.4604V20.9722M54.1279 34.9377L55.8602 32.6282V30.8959C55.8602 29.3082 54.5611 28.009 52.9733 28.009C51.3855 28.009 50.0864 29.3081 50.0864 30.8959V32.6282L51.8185 34.9377M54.1279 34.9377H51.8185M54.1279 34.9377L59.2195 36.9323V41.4441M51.8185 34.9377L46.727 36.9323V41.4441M13.1842 34.9377L14.9164 32.6282V30.8959C14.9164 29.3082 13.6172 28.009 12.0294 28.009C10.4416 28.009 9.14251 29.3081 9.14251 30.8959V32.6282L10.8746 34.9377M13.1842 34.9377H10.8746M13.1842 34.9377L18.2757 36.9323V41.4441M10.8746 34.9377L5.7832 36.9323V41.4441M33.6561 55.4095L35.3883 53.1V51.3678C35.3883 49.7801 34.0892 48.4809 32.5014 48.4809C30.9136 48.4809 29.6144 49.78 29.6144 51.3678V53.1L31.3466 55.4095M33.6561 55.4095H31.3466M33.6561 55.4095L38.7476 57.4041V61.916M31.3466 55.4095L26.2551 57.4041V61.916" stroke="#636466" stroke-width="1.5" stroke-miterlimit="22.926"/>
<path d="M60.7402 27.0364C62.1997 28.7883 63.0781 31.0415 63.0781 33.5C63.0781 39.081 58.5537 43.6052 52.9728 43.6052C47.3919 43.6052 42.8675 39.081 42.8675 33.5C42.8675 27.9191 47.3919 23.3948 52.9728 23.3948C55.4314 23.3948 57.6846 24.2731 59.4364 25.7325M26.0372 5.26075C27.7893 3.80129 30.0424 2.92286 32.501 2.92286C38.0819 2.92286 42.6062 7.44717 42.6062 13.0281C42.6062 18.6091 38.0819 23.1333 32.501 23.1333C26.9199 23.1333 22.3958 18.6091 22.3958 13.0281C22.3958 10.5696 23.2739 8.31637 24.7335 6.56443M19.7964 27.0364C21.256 28.7883 22.1343 31.0415 22.1343 33.5C22.1343 39.081 17.61 43.6052 12.0291 43.6052C6.44814 43.6052 1.92383 39.081 1.92383 33.5C1.92383 27.9191 6.44814 23.3948 12.0291 23.3948C14.4875 23.3948 16.7408 24.2731 18.4927 25.7325M26.0372 46.2045C27.7893 44.745 30.0424 43.8667 32.501 43.8667C38.0819 43.8667 42.6062 48.391 42.6062 53.9719C42.6062 59.553 38.0819 64.0771 32.501 64.0771C26.9199 64.0771 22.3958 59.553 22.3958 53.9719C22.3958 51.5134 23.2739 49.2601 24.7335 47.5083" stroke="#636466" stroke-width="1.5" stroke-miterlimit="22.926"/>
<path d="M32.5007 37.8579L28.7743 34.5376C25.3026 31.4443 29.7537 26.885 32.5007 30.4347C35.2478 26.885 39.6989 31.4443 36.2272 34.5376L32.5007 37.8579Z" stroke="#2BB04C" stroke-width="1.5" stroke-miterlimit="22.926"/>
<path d="M22.396 53.9722L14.9402 46.5164M45.5174 51.0612L52.9731 43.6055M50.0622 20.4841L42.6064 13.0283M12.0293 23.395L19.4851 15.9392" stroke="#636466" stroke-width="1.5" stroke-miterlimit="22.926"/>
<path d="M32.5012 19.0799V17.2341M12.0293 39.3406V37.4949M32.5012 59.8125V57.9668M52.9731 39.5519V37.706" stroke="#F47920" stroke-width="1.5" stroke-miterlimit="2.613"/>
</g>
</g>
<defs>
<clipPath id="clip0_2384_2982">
<rect width="63" height="63" fill="white" transform="translate(1 2)"/>
</clipPath>
</defs>
</svg>
