<svg width="185" height="90" viewBox="0 0 185 90" fill="none" xmlns="http://www.w3.org/2000/svg">
<path d="M12.189 32.4466C10.8192 32.6434 10.2029 33.8888 9.09882 34.572C8.08295 35.2005 6.73215 35.0736 5.81056 35.8245C4.8677 36.5927 4.97138 37.8485 4.46479 38.8644C4.20985 39.3756 3.8502 39.8614 3.43351 40.2511C2.91654 40.7345 2.34684 41.1377 2.11618 41.8435C1.84484 42.6738 2.18163 43.3966 2.39743 44.187C2.53169 44.6788 2.56434 45.1497 2.56188 45.6567C2.55621 46.8388 1.70923 47.8785 2.1434 49.0727C2.51458 50.0936 3.60113 50.6077 4.18311 51.4957C4.85245 52.5169 4.75099 53.9385 5.58981 54.8255C6.41382 55.6968 7.75904 55.589 8.78188 56.1021C9.84007 56.6329 10.4358 57.7914 11.5155 58.2302C12.8566 58.7754 14.0882 57.8227 15.4376 57.8561C16.5551 57.8838 17.6105 58.5409 18.7259 58.3956C20.068 58.2207 20.7127 56.8726 21.8161 56.2394C22.8721 55.6335 24.3399 55.7504 25.2196 54.8684C25.7901 54.2964 25.8594 53.5447 26.0612 52.8065C26.2044 52.2826 26.4545 51.7743 26.7744 51.3368C27.4474 50.4162 28.5915 49.8815 28.804 48.6755C29.0113 47.4992 28.2228 46.3812 28.2753 45.18C28.3277 43.979 29.1235 42.9386 28.682 41.7243C28.3258 40.7444 27.2526 40.2333 26.6892 39.3808C26.3961 38.9373 26.1767 38.4632 26.0325 37.9508C25.834 37.2453 25.7787 36.5726 25.2458 36.0113C24.4301 35.1519 23.1022 35.2682 22.0934 34.7624C21.0084 34.2185 20.3948 33.0356 19.2805 32.5966C17.9561 32.0748 16.6295 33.0183 15.2792 32.9851C14.2316 32.9594 13.2339 32.2966 12.189 32.4466ZM92.375 34.8129V55.7855H95.6237V34.8129H92.375ZM116.819 34.8129V55.7855H121.692V48.4372C121.692 47.1465 121.589 45.7672 122.531 44.7437C123.947 43.2045 126.704 43.78 127.444 45.6964C127.868 46.795 127.714 48.1153 127.714 49.2713V55.7855H132.547V48.0399C132.547 46.0418 132.577 43.9751 131.424 42.2407C129.853 39.8792 126.798 39.2939 124.228 40.162C123.359 40.4555 122.122 41.1241 121.732 42.0024H121.692V34.8129H116.819ZM104.062 49.7877H98.8723C98.9603 50.2624 98.9531 50.7421 99.0656 51.2176C99.3453 52.3978 100.009 53.4377 100.932 54.219C101.77 54.9278 102.807 55.395 103.864 55.6613C107.543 56.5878 112.62 55.6656 113.71 51.4162C113.852 50.8626 113.887 50.3165 113.887 49.7479C113.887 49.2638 113.845 48.7857 113.712 48.318C112.965 45.6934 110.271 44.8283 107.984 43.9905C106.818 43.563 104.88 43.2234 104.271 42.0024C103.762 40.9824 104.42 39.8183 105.488 39.5749C106.857 39.2633 108.265 40.1152 108.381 41.5654H113.65C113.638 40.9913 113.522 40.4071 113.361 39.8574C112.243 36.0534 107.669 35.1753 104.26 35.7497C102.106 36.1129 99.9654 37.3673 99.2427 39.5397C98.4916 41.7993 99.0712 44.3488 101.012 45.7966C102.019 46.5483 103.28 46.9445 104.458 47.3382C105.782 47.7807 108.016 48.1178 108.662 49.5493C109.421 51.2333 107.516 52.1851 106.122 52.045C104.865 51.9185 104.275 50.9194 104.062 49.7877ZM35.7615 36.0839V55.7855H40.7533C43.2888 55.7855 45.7534 55.7042 48.0429 54.4625C53.8085 51.3358 54.3497 41.7558 48.9145 37.9916C46.3639 36.225 43.5455 36.0839 40.5552 36.0839H35.7615Z" fill="white"/>
<path d="M21.7367 36.9843C21.3483 37.0942 21.057 37.5597 20.7859 37.8317L18.9239 39.6986C18.6895 39.9336 18.3985 40.3611 18.0919 40.4937C17.9038 40.5751 17.5653 40.3659 17.3788 40.3112C16.8337 40.1514 16.2453 40.0233 15.6753 40.0165C13.1065 39.9859 10.6618 41.1403 9.35336 43.4323C8.9947 44.0607 8.76132 44.7496 8.62337 45.4581C8.50277 46.0773 8.49172 46.7408 8.57254 47.3647C9.10286 51.4582 13.3683 54.0221 17.26 52.9087C17.931 52.7167 18.5775 52.421 19.1616 52.0381C19.6363 51.7268 20.0816 51.3621 20.4623 50.9396C22.6241 48.5398 22.1725 45.2695 22.1725 42.2804V38.1494C22.1725 37.8674 22.2409 36.8418 21.7367 36.9843ZM39.0496 38.7453V53.1242C41.5432 53.1242 44.335 53.4464 46.5374 52.0243C48.363 50.8454 49.1315 48.818 49.2746 46.7292C49.4469 44.2081 48.8114 41.5024 46.6562 39.9539C44.4828 38.3924 41.5693 38.7453 39.0496 38.7453Z" fill="#F47922"/>
<path d="M146.651 53.6406H146.691V55.7855H151.564V39.9369H146.691V42.0818C146.136 41.3602 145.526 40.7641 144.71 40.3444C141.952 38.9269 138.348 39.9299 136.528 42.3599C134.206 45.4608 134.285 50.643 136.75 53.6406C138.616 55.9093 142.018 56.7313 144.67 55.3981C145.385 55.0387 146.351 54.4235 146.651 53.6406ZM181.634 50.5026H178.226C177.697 50.5026 177.088 50.4183 176.566 50.5085C176.35 50.546 176.215 50.9356 176.091 51.0985C175.846 51.4211 175.506 51.6596 175.136 51.8185C173.209 52.6462 171.033 51.1563 171.016 49.0727H176.642H180.524H181.515C181.62 49.0727 181.793 49.1034 181.882 49.0319C181.98 48.9517 181.952 48.7492 181.967 48.6358C182.024 48.2064 181.99 47.7577 181.99 47.325C181.99 45.3228 181.277 43.3131 179.851 41.8832C176.927 38.9519 171.233 38.947 168.334 41.9297C166.867 43.4376 166.369 45.2976 166.176 47.325C166.003 49.1506 166.46 51.0935 167.428 52.6476C169.917 56.6473 176.13 57.0882 179.534 54.0837C180.48 53.2488 181.527 51.8133 181.634 50.5026ZM159.923 42.5187H159.883V39.9369H155.011V55.7855H159.883V48.9138C159.883 47.8394 159.922 46.5164 160.795 45.7481C161.883 44.7911 163.494 44.9417 164.836 44.9417V39.778C162.992 39.778 160.755 40.7629 159.923 42.5187ZM69.6742 51.0985H67.3368C67.006 51.0985 66.5531 51.017 66.2358 51.1111C66.0076 51.1789 65.8056 51.708 65.6546 51.8929C65.2858 52.3438 64.8222 52.7186 64.2862 52.9484C61.5637 54.1157 58.2358 52.229 58.1059 49.1919H69.9912C70.3097 46.6639 69.9115 43.8123 67.9691 41.9694C65.1962 39.3386 60.2987 39.1305 57.3531 41.6226C55.9404 42.8178 55.0739 44.5877 54.8287 46.4114C54.343 50.0273 55.6646 53.8886 59.2152 55.4111C62.2729 56.7222 66.2362 56.1025 68.4096 53.4817C68.9429 52.8386 69.5494 51.9457 69.6742 51.0985ZM84.8874 53.5612V55.7855H88.1756V40.1355H84.8874V42.3599C82.4323 39.0935 77.0229 39.1391 74.313 42.0421C70.7879 45.8182 71.579 52.9967 76.3696 55.3583C77.6524 55.9907 79.0862 56.1443 80.4898 55.9861C82.2679 55.7859 83.6988 54.8549 84.8874 53.5612Z" fill="white"/>
<path d="M58.1454 46.5703H66.7028C66.7016 46.0961 66.6077 45.6264 66.4516 45.18C65.2278 41.6831 59.7598 41.9565 58.4702 45.2198C58.3031 45.6431 58.1549 46.1118 58.1454 46.5703ZM79.6181 42.774C79.008 42.8572 78.4118 43.04 77.875 43.3478C74.1477 45.4844 74.9211 52.0463 79.1427 53.0794C79.7164 53.2198 80.3027 53.2355 80.8859 53.1526C86.0397 52.42 86.2454 44.0119 81.2424 42.8624C80.7254 42.7436 80.1458 42.7019 79.6181 42.774Z" fill="#F47922"/>
<path d="M11.7928 50.1849C12.4477 50.015 13.2547 49.7625 13.9322 49.7589C14.2487 49.7572 14.5996 49.9362 14.9226 49.9749C15.7143 50.0698 16.5749 49.9003 17.2601 49.4916C17.7506 49.199 18.1577 48.8062 18.4561 48.318C18.7278 47.8733 18.8965 47.3699 18.9254 46.8483C18.9813 45.8403 18.6859 44.8286 17.932 44.1143C16.0861 42.3654 12.6326 43.0112 11.9467 45.617C11.8047 46.1567 11.7628 46.81 11.8499 47.3647C11.892 47.6332 12.0633 47.8901 12.0669 48.1591C12.076 48.837 11.7984 49.5065 11.7928 50.1849Z" fill="white"/>
<path d="M171.016 46.3319H177.038C176.99 44.0342 174.347 43.0076 172.482 44.0405C171.58 44.54 171.258 45.3948 171.016 46.3319ZM142.888 44.0053C141.897 44.1405 141.01 44.6431 140.459 45.4978C139.13 47.5604 139.9 51.079 142.491 51.6744C142.925 51.7741 143.36 51.7818 143.799 51.7225C147.594 51.2097 147.698 44.8144 143.997 44.0602C143.636 43.9867 143.254 43.9553 142.888 44.0053Z" fill="#F47922"/>
</svg>
