<svg width="185" height="90" viewBox="0 0 185 90" fill="none" xmlns="http://www.w3.org/2000/svg">
<path d="M16.0907 32.8116C14.7815 32.9997 14.1925 34.19 13.1373 34.8429C12.1664 35.4436 10.8754 35.3223 9.99466 36.0399C9.09356 36.7742 9.19264 37.9744 8.70849 38.9452C8.46484 39.4338 8.12111 39.8981 7.72287 40.2705C7.22879 40.7325 6.68431 41.1179 6.46387 41.7924C6.20455 42.5859 6.52643 43.2768 6.73267 44.0322C6.86099 44.5021 6.89218 44.9522 6.88984 45.4367C6.88442 46.5665 6.07494 47.5602 6.48989 48.7015C6.84463 49.6772 7.88307 50.1685 8.43928 51.0172C9.07898 51.9932 8.98201 53.3518 9.78369 54.1995C10.5712 55.0323 11.8569 54.9292 12.8344 55.4196C13.8457 55.9269 14.4151 57.0341 15.447 57.4535C16.7287 57.9745 17.9057 57.0641 19.1954 57.096C20.2634 57.1224 21.2721 57.7505 22.3381 57.6116C23.6208 57.4444 24.2369 56.156 25.2914 55.5509C26.3007 54.9717 27.7035 55.0835 28.5443 54.2405C29.0895 53.6939 29.1557 52.9754 29.3486 52.2699C29.4854 51.7693 29.7245 51.2834 30.0302 50.8653C30.6734 49.9855 31.7668 49.4745 31.9699 48.3219C32.1681 47.1977 31.4145 46.1291 31.4646 44.9812C31.5148 43.8333 32.2752 42.839 31.8533 41.6785C31.5129 40.742 30.4872 40.2536 29.9488 39.4387C29.6687 39.0149 29.459 38.5618 29.3211 38.0721C29.1314 37.3978 29.0786 36.7549 28.5693 36.2185C27.7897 35.3971 26.5206 35.5082 25.5565 35.0249C24.5196 34.5051 23.933 33.3745 22.8682 32.955C21.6024 32.4563 20.3346 33.358 19.044 33.3263C18.0428 33.3017 17.0893 32.6682 16.0907 32.8116ZM92.7259 35.0731V55.1171H95.8307V35.0731H92.7259ZM116.088 35.0731V55.1171H120.745V48.0941C120.745 46.8606 120.646 45.5423 121.546 44.5642C122.9 43.0932 125.535 43.6432 126.242 45.4747C126.647 46.5246 126.5 47.7864 126.5 48.8913V55.1171H131.119V47.7145C131.119 45.8048 131.148 43.8296 130.046 42.172C128.545 39.9151 125.624 39.3557 123.168 40.1853C122.338 40.4658 121.156 41.1049 120.783 41.9442H120.745V35.0731H116.088ZM103.896 49.3848H98.9355C99.0196 49.8385 99.0128 50.297 99.1203 50.7514C99.3876 51.8794 100.022 52.8732 100.904 53.6199C101.705 54.2974 102.696 54.7439 103.706 54.9984C107.223 55.8839 112.074 55.0025 113.116 50.9412C113.252 50.4121 113.286 49.8903 113.286 49.3468C113.286 48.8842 113.245 48.4272 113.118 47.9802C112.404 45.4719 109.83 44.645 107.644 43.8444C106.529 43.4358 104.677 43.1112 104.095 41.9442C103.609 40.9695 104.237 39.8569 105.259 39.6243C106.567 39.3265 107.913 40.1406 108.023 41.5267H113.059C113.047 40.978 112.937 40.4196 112.783 39.8943C111.714 36.2587 107.343 35.4195 104.085 35.9685C102.026 36.3156 99.9802 37.5144 99.2895 39.5906C98.5717 41.7502 99.1256 44.1868 100.98 45.5704C101.943 46.2888 103.148 46.6675 104.274 47.0438C105.54 47.4667 107.674 47.7889 108.292 49.157C109.017 50.7665 107.196 51.6761 105.865 51.5421C104.663 51.4213 104.099 50.4665 103.896 49.3848ZM38.6193 36.2879V55.1171H43.3901C45.8133 55.1171 48.1688 55.0393 50.3569 53.8526C55.8672 50.8644 56.3844 41.7086 51.1899 38.1111C48.7523 36.4227 46.0587 36.2879 43.2008 36.2879H38.6193Z" fill="white"/>
<path d="M25.2168 37.1482C24.8456 37.2531 24.5672 37.6981 24.3081 37.958L22.5285 39.7422C22.3045 39.9668 22.0264 40.3754 21.7334 40.5021C21.5536 40.5799 21.2301 40.38 21.0519 40.3277C20.5309 40.175 19.9686 40.0525 19.4238 40.046C16.9687 40.0168 14.6323 41.1201 13.3818 43.3106C13.039 43.9111 12.816 44.5696 12.6841 45.2467C12.5689 45.8385 12.5583 46.4726 12.6355 47.0689C13.1424 50.9811 17.2189 53.4315 20.9383 52.3673C21.5796 52.1838 22.1975 51.9013 22.7557 51.5353C23.2094 51.2379 23.6349 50.8893 23.9988 50.4855C26.0649 48.1919 25.6333 45.0664 25.6333 42.2097V38.2617C25.6333 37.9921 25.6986 37.0119 25.2168 37.1482ZM41.7631 38.8311V52.5734C44.1462 52.5734 46.8144 52.8812 48.9193 51.5221C50.664 50.3954 51.3985 48.4578 51.5352 46.4615C51.6999 44.0521 51.0926 41.4662 49.0328 39.9862C46.9557 38.4939 44.1712 38.8311 41.7631 38.8311Z" fill="#313D47"/>
<path d="M144.599 53.067H144.637V55.117H149.294V39.9701H144.637V42.0201C144.107 41.3304 143.524 40.7608 142.744 40.3596C140.108 39.0049 136.663 39.9634 134.924 42.2858C132.705 45.2494 132.781 50.2021 135.136 53.067C136.919 55.2353 140.171 56.0209 142.706 54.7467C143.389 54.4033 144.312 53.8152 144.599 53.067ZM178.032 50.068H174.776C174.27 50.068 173.688 49.9874 173.19 50.0736C172.983 50.1094 172.854 50.4818 172.735 50.6375C172.501 50.9458 172.176 51.1738 171.823 51.3256C169.981 52.1167 167.902 50.6927 167.885 48.7014H173.262H176.972H177.919C178.019 48.7014 178.185 48.7307 178.269 48.6624C178.364 48.5857 178.337 48.3923 178.351 48.2838C178.405 47.8734 178.373 47.4447 178.373 47.0311C178.373 45.1175 177.692 43.1969 176.329 41.8303C173.534 39.0288 168.093 39.0241 165.321 41.8747C163.92 43.3158 163.443 45.0935 163.259 47.0311C163.094 48.7759 163.531 50.6327 164.456 52.118C166.835 55.9406 172.772 56.362 176.026 53.4905C176.93 52.6925 177.931 51.3207 178.032 50.068ZM157.283 42.4377H157.245V39.9701H152.588V55.117H157.245V48.5495C157.245 47.5227 157.282 46.2583 158.117 45.524C159.156 44.6094 160.696 44.7533 161.978 44.7533V39.8183C160.216 39.8183 158.079 40.7595 157.283 42.4377ZM71.0307 50.6375H68.7968C68.4806 50.6375 68.0479 50.5596 67.7446 50.6495C67.5265 50.7143 67.3334 51.22 67.1891 51.3967C66.8366 51.8277 66.3936 52.1859 65.8813 52.4055C63.2794 53.5211 60.0988 51.7179 59.9747 48.8153H71.3336C71.6381 46.3992 71.2575 43.6739 69.4011 41.9126C66.751 39.3983 62.0704 39.1995 59.2553 41.5812C57.9051 42.7234 57.077 44.415 56.8426 46.1579C56.3784 49.6137 57.6415 53.304 61.0348 54.7591C63.9571 56.0121 67.745 55.4199 69.8221 52.9152C70.3318 52.3005 70.9115 51.4472 71.0307 50.6375ZM85.5702 52.9911V55.117H88.7129V40.1599H85.5702V42.2858C83.2239 39.1641 78.054 39.2077 75.4641 41.9821C72.0951 45.591 72.8512 52.4516 77.4296 54.7087C78.6556 55.313 80.0259 55.4598 81.3674 55.3087C83.0667 55.1173 84.4343 54.2276 85.5702 52.9911Z" fill="white"/>
<path d="M60.0156 46.3095H68.1941C68.193 45.8563 68.1032 45.4074 67.954 44.9808C66.7844 41.6387 61.5586 41.9 60.3261 45.0188C60.1663 45.4234 60.0247 45.8713 60.0156 46.3095ZM80.5375 42.6813C79.9544 42.7609 79.3846 42.9356 78.8715 43.2298C75.3094 45.2717 76.0485 51.543 80.0832 52.5304C80.6314 52.6645 81.1918 52.6796 81.7491 52.6004C86.6748 51.9002 86.8713 43.8644 82.0899 42.7658C81.5958 42.6523 81.0419 42.6125 80.5375 42.6813Z" fill="#313D47"/>
<path d="M15.7109 49.7645C16.3368 49.6021 17.1081 49.3608 17.7556 49.3573C18.058 49.3557 18.3934 49.5268 18.7021 49.5638C19.4587 49.6545 20.2813 49.4925 20.9361 49.1019C21.4049 48.8223 21.794 48.4469 22.0791 47.9802C22.3388 47.5553 22.5 47.0741 22.5277 46.5756C22.5811 45.6122 22.2988 44.6453 21.5783 43.9627C19.8141 42.2912 16.5135 42.9085 15.858 45.3988C15.7223 45.9146 15.6822 46.539 15.7654 47.0691C15.8057 47.3257 15.9694 47.5713 15.9728 47.8284C15.9816 48.4763 15.7163 49.1161 15.7109 49.7645Z" fill="white"/>
<path d="M167.886 46.0819H173.641C173.596 43.886 171.069 42.9048 169.287 43.892C168.425 44.3693 168.118 45.1863 167.886 46.0819ZM141.003 43.8583C140.056 43.9876 139.209 44.4679 138.682 45.2847C137.412 47.256 138.148 50.6188 140.625 51.1878C141.039 51.2831 141.455 51.2904 141.874 51.2338C145.501 50.7437 145.601 44.6316 142.063 43.9108C141.719 43.8405 141.353 43.8105 141.003 43.8583Z" fill="#313D47"/>
</svg>
