<svg width="185" height="90" viewBox="0 0 185 90" fill="none" xmlns="http://www.w3.org/2000/svg">
<path fill-rule="evenodd" clip-rule="evenodd" d="M74.5164 32.5624L65.5233 48.2638C65.3375 48.5982 63.5603 51.3009 59.9558 51.5467C56.366 51.7139 53.33 48.3297 53.389 44.6947C53.506 41.0775 56.2087 38.187 59.8132 38.1289C62.8817 38.1879 65.1299 40.5464 65.0945 40.5552C65.7486 41.1237 66.1744 41.5338 66.6642 42.2685L69.9471 36.5583C69.36 35.9416 69.1111 35.6751 68.3774 35.1312C66.5127 33.4603 63.7835 32.1267 59.9558 31.9909C56.2608 31.9152 52.5481 33.4534 49.6783 37.1297C47.9129 39.4832 47.2008 41.5859 47.1094 44.6947C47.1507 48.3248 48.4676 51.2733 50.3923 53.4026C53.689 56.8488 57.679 57.6769 59.8142 57.6857C62.8797 57.551 65.1113 56.8114 67.2366 55.4001C67.9024 54.9388 68.6292 54.3202 69.3777 53.5442H75.0878V57.1133H80.9406V32.5624H74.5164V32.5624ZM75.0878 48.4064H71.9475L75.0878 42.8399V48.4064ZM86.7049 57.2579V38.3719H82.0795V32.6656H97.5322V38.3719H92.8015V57.2579H86.7049ZM110.938 47.8488H104.701V57.2579H98.6042V32.6656H104.701V42.0039H110.938V32.6656H117.07V57.2579H110.938V47.8488V47.8488ZM167.672 32.6656V46.3273L158.527 32.6656H153.025V40.9742C152.402 39.0839 151.319 37.3372 149.788 35.8482C147.37 33.4957 144.216 32.2162 140.887 32.2162C137.348 32.2162 134.266 33.4268 131.812 35.8138C129.359 38.1997 128.027 41.3125 128.027 44.7036C128.027 47.4023 128.688 49.7765 129.992 51.828H125.329V32.6656H119.266V57.2569H132.441V54.6595C134.753 56.6708 137.595 57.7064 140.851 57.7064C144.32 57.7064 147.615 56.356 150.033 53.8668C151.415 52.4633 152.44 50.7495 153.024 48.8687V57.2569H159.121V43.5608L168.406 57.2579H173.767V32.6656H167.672ZM140.852 51.6195C137.418 51.6195 134.3 48.6445 134.3 44.7715C134.3 41.1738 137.208 38.303 140.923 38.303C144.426 38.303 147.335 41.1738 147.335 44.7715C147.335 48.7821 144.427 51.6195 140.852 51.6195Z" fill="white"/>
<path fill-rule="evenodd" clip-rule="evenodd" d="M47.1002 37.9855V32.5615H33.5398V42.6807C33.1297 39.7519 31.9584 37.359 30.07 35.6045C27.4766 33.1831 24.709 32.6648 20.7495 32.6648H12.2344V57.2561H21.5904C25.0936 57.2561 27.4422 56.7702 30.1055 54.2112C31.9869 52.3829 33.1346 50.0717 33.5398 47.3444V57.1125H47.1012V51.8321H39.5352V47.2638H46.102V41.9814H39.5352V37.9845H47.1002V37.9855V37.9855ZM20.7849 51.8616H18.332V37.957H20.7495C25.2342 37.957 27.6526 40.4472 27.6526 44.8749C27.6516 49.7166 25.4447 51.8616 20.7849 51.8616V51.8616Z" fill="white"/>
</svg>
