<svg width="18" height="19" viewBox="0 0 18 19" fill="none" xmlns="http://www.w3.org/2000/svg">
<path fill-rule="evenodd" clip-rule="evenodd" d="M12.8017 2.68654C15.3012 4.06496 17 6.75875 17 9.85417C17 14.35 13.4153 18 9 18C4.5847 18 1 14.35 1 9.85417C1 6.75875 2.69878 4.06496 5.19826 2.68654L5.62122 3.25958C3.2887 4.50271 1.69565 6.99037 1.69565 9.85417C1.69565 13.959 4.9687 17.2917 9 17.2917C13.0313 17.2917 16.3043 13.959 16.3043 9.85417C16.3043 6.99037 14.7113 4.50271 12.3788 3.25958L12.8017 2.68654ZM9.34783 1V11.5017L11.9544 8.24058L12.4783 8.71233L9 13.0417L5.52174 8.72012L6.03443 8.23917L8.65217 11.5032V1H9.34783Z" fill="white" stroke="white" stroke-width="0.5"/>
</svg>
