<svg width="13" height="7" viewBox="0 0 13 7" fill="none" xmlns="http://www.w3.org/2000/svg">
<path d="M2.03033 0.46967C1.73744 0.176776 1.26256 0.176776 0.96967 0.469669C0.676777 0.762563 0.676777 1.23744 0.96967 1.53033L2.03033 0.46967ZM6.5 6L5.96967 6.53033C6.11032 6.67098 6.30109 6.75 6.5 6.75C6.69891 6.75 6.88968 6.67098 7.03033 6.53033L6.5 6ZM12.0303 1.53033C12.3232 1.23744 12.3232 0.762563 12.0303 0.46967C11.7374 0.176777 11.2626 0.176777 10.9697 0.46967L12.0303 1.53033ZM0.96967 1.53033L5.96967 6.53033L7.03033 5.46967L2.03033 0.46967L0.96967 1.53033ZM7.03033 6.53033L12.0303 1.53033L10.9697 0.46967L5.96967 5.46967L7.03033 6.53033Z" fill="white"/>
</svg>
