<svg width="43" height="42" viewBox="0 0 43 42" fill="none" xmlns="http://www.w3.org/2000/svg">
<path opacity="0.5" fill-rule="evenodd" clip-rule="evenodd" d="M21.2918 41.1167C32.3698 41.1167 41.3502 32.1363 41.3502 21.0584C41.3502 9.98044 32.3698 1 21.2918 1C10.2139 1 1.23346 9.98044 1.23346 21.0584C1.23346 32.1363 10.2139 41.1167 21.2918 41.1167Z" stroke="#313D47" stroke-width="1.76063"/>
<path d="M19.02 12.4226H25.6861C28.2256 12.4226 30.2889 14.4859 30.2889 17.0254V23.6915C30.2889 24.9122 29.804 26.0829 28.9408 26.9461C28.0776 27.8093 26.9068 28.2943 25.6861 28.2943H19.02C16.4806 28.2943 14.4172 26.2309 14.4172 23.6915V17.0254C14.4172 15.8047 14.9022 14.6339 15.7654 13.7707C16.6285 12.9075 17.7993 12.4226 19.02 12.4226ZM18.8613 14.0098C18.1036 14.0098 17.3769 14.3108 16.8412 14.8465C16.3054 15.3823 16.0044 16.109 16.0044 16.8667V23.8502C16.0044 25.4294 17.2821 26.7071 18.8613 26.7071H25.8448C26.6025 26.7071 27.3292 26.4061 27.865 25.8703C28.4007 25.3346 28.7017 24.6079 28.7017 23.8502V16.8667C28.7017 15.2874 27.4241 14.0098 25.8448 14.0098H18.8613ZM26.5194 15.2001C26.7825 15.2001 27.0348 15.3047 27.2208 15.4907C27.4068 15.6767 27.5113 15.929 27.5113 16.1921C27.5113 16.4552 27.4068 16.7075 27.2208 16.8936C27.0348 17.0796 26.7825 17.1841 26.5194 17.1841C26.2563 17.1841 26.004 17.0796 25.8179 16.8936C25.6319 16.7075 25.5274 16.4552 25.5274 16.1921C25.5274 15.929 25.6319 15.6767 25.8179 15.4907C26.004 15.3047 26.2563 15.2001 26.5194 15.2001ZM22.3531 16.3905C23.4054 16.3905 24.4147 16.8086 25.1588 17.5527C25.9029 18.2968 26.321 19.3061 26.321 20.3584C26.321 21.4108 25.9029 22.42 25.1588 23.1642C24.4147 23.9083 23.4054 24.3263 22.3531 24.3263C21.3007 24.3263 20.2915 23.9083 19.5473 23.1642C18.8032 22.42 18.3851 21.4108 18.3851 20.3584C18.3851 19.3061 18.8032 18.2968 19.5473 17.5527C20.2915 16.8086 21.3007 16.3905 22.3531 16.3905ZM22.3531 17.9777C21.7216 17.9777 21.1161 18.2285 20.6696 18.675C20.2231 19.1215 19.9723 19.727 19.9723 20.3584C19.9723 20.9898 20.2231 21.5954 20.6696 22.0419C21.1161 22.4884 21.7216 22.7392 22.3531 22.7392C22.9845 22.7392 23.59 22.4884 24.0365 22.0419C24.483 21.5954 24.7338 20.9898 24.7338 20.3584C24.7338 19.727 24.483 19.1215 24.0365 18.675C23.59 18.2285 22.9845 17.9777 22.3531 17.9777Z" fill="#313D47"/>
</svg>
