<svg width="95" height="70" viewBox="0 0 95 70" fill="none" xmlns="http://www.w3.org/2000/svg">
<path d="M73.0611 8H36.3384C35.9013 8 35.5469 8.35429 35.5469 8.79152C35.5469 9.22876 35.9013 9.58305 36.3384 9.58305H73.0611C73.179 9.58305 73.2748 9.67888 73.2748 9.79665V43.7942C73.2748 44.2314 73.6292 44.5857 74.0663 44.5857C74.5035 44.5857 74.8579 44.2314 74.8579 43.7942V9.79665C74.8578 8.80598 74.0518 8 73.0611 8Z" fill="#F47920"/>
<path d="M74.0649 46.785C73.6278 46.785 73.2734 47.1393 73.2734 47.5765V60.2035C73.2734 60.3212 73.1776 60.4171 73.0597 60.4171H22.7968C22.679 60.4171 22.5832 60.3212 22.5832 60.2035V9.79665C22.5832 9.67888 22.679 9.58305 22.7968 9.58305H32.5202C32.9573 9.58305 33.3117 9.22876 33.3117 8.79152C33.3117 8.35429 32.9573 8 32.5202 8H22.7968C21.8061 8 21 8.80598 21 9.79665V60.2033C21 61.1941 21.806 62 22.7967 62H73.0597C74.0505 62 74.8565 61.194 74.8565 60.2033V47.5765C74.8565 47.1393 74.5022 46.785 74.0649 46.785V46.785Z" fill="#F47920"/>
<path d="M40.9957 48.733C41.3499 48.733 41.5543 48.3652 41.5543 47.9429C41.5543 47.5751 41.3772 47.1799 40.9957 47.1799H36.1457C35.7505 47.1799 35.3691 47.3707 35.3691 47.7385V56.5802C35.3691 56.948 35.7505 57.1388 36.1457 57.1388H40.9957C41.3772 57.1388 41.5543 56.7438 41.5543 56.3759C41.5543 55.9536 41.3499 55.5858 40.9957 55.5858H37.1403V52.8475H39.2111C39.5926 52.8475 39.7697 52.4797 39.7697 52.1663C39.7697 51.7985 39.5653 51.4579 39.2111 51.4579H37.1403V48.7331H40.9957V48.733Z" fill="#2BB04C" stroke="#DADADA" stroke-width="0.5"/>
<path d="M41.9512 56.3211C41.9512 56.8114 42.6324 57.2067 43.1092 57.2067C43.3272 57.2067 43.5044 57.084 43.5997 56.9206L45.5887 53.4193L47.5914 56.9206C47.673 57.084 47.8502 57.2067 48.0682 57.2067C48.5586 57.2067 49.2262 56.8115 49.2262 56.3211C49.2262 56.2257 49.199 56.1167 49.1309 55.9941L46.774 52.1522L49.0491 48.3241C49.1309 48.1878 49.1718 48.0652 49.1718 47.9426C49.1718 47.4658 48.5451 47.1116 48.0411 47.1116C47.7549 47.1116 47.5779 47.2614 47.4416 47.493L45.5888 50.8308L43.736 47.493C43.6134 47.2614 43.4227 47.1116 43.1502 47.1116C42.6461 47.1116 42.0195 47.4658 42.0195 47.9426C42.0195 48.0652 42.0603 48.1878 42.1421 48.3241L44.4172 52.1522L42.0603 55.9941C41.9921 56.1168 41.9512 56.2257 41.9512 56.3211Z" fill="#2BB04C" stroke="#DADADA" stroke-width="0.5"/>
<path d="M50.2324 47.7248V56.5802C50.2324 56.948 50.6684 57.1388 51.118 57.1388C51.5539 57.1388 52.0035 56.948 52.0035 56.5802V47.7248C52.0035 47.3434 51.5539 47.1799 51.118 47.1799C50.6684 47.1799 50.2324 47.3434 50.2324 47.7248Z" fill="#2BB04C" stroke="#DADADA" stroke-width="0.5"/>
<path d="M56.4311 57.1388C56.8671 57.1388 57.3166 56.948 57.3166 56.5802V48.7739H59.3057C59.6599 48.7739 59.8643 48.3924 59.8643 47.9701C59.8643 47.5887 59.6872 47.1799 59.3057 47.1799H53.543C53.1615 47.1799 52.9844 47.5887 52.9844 47.9701C52.9844 48.4061 53.1888 48.7739 53.543 48.7739H55.5456V56.5802C55.5455 56.9481 55.9815 57.1388 56.4311 57.1388Z" fill="#2BB04C" stroke="#DADADA" stroke-width="0.5"/>
<path d="M52.8609 19.763C55.2182 19.763 57.136 17.8452 57.136 15.488C57.136 13.1307 55.2182 11.2129 52.8609 11.2129C50.5036 11.2129 48.5859 13.1307 48.5859 15.488C48.5859 17.8452 50.5036 19.763 52.8609 19.763V19.763ZM52.8609 12.7959C54.3453 12.7959 55.5529 14.0035 55.5529 15.488C55.5529 16.9724 54.3453 18.18 52.8609 18.18C51.3765 18.18 50.169 16.9724 50.169 15.488C50.169 14.0035 51.3765 12.7959 52.8609 12.7959Z" fill="#636466" stroke="#DADADA" stroke-width="0.5"/>
<path d="M38.0682 38.0166H42.4636C43.242 38.0166 43.9165 37.5161 44.142 36.7711L45.2642 33.0654C45.3908 32.647 45.1544 32.2052 44.7361 32.0784C44.3178 31.9513 43.8757 32.1881 43.7491 32.6065L42.6269 36.3123C42.605 36.3848 42.5393 36.4334 42.4636 36.4334H38.0682C36.5292 36.4334 35.2773 37.6854 35.2773 39.2242C35.2773 40.7631 36.5293 42.0151 38.0682 42.0151H43.6179C45.2789 42.0151 46.7601 40.9003 47.2201 39.3041L48.3751 35.295C48.3832 35.2668 48.4079 35.1811 48.526 35.1721C48.6442 35.1626 48.6815 35.244 48.6972 35.2777L53.0844 44.5245C53.399 45.2048 53.9625 45.714 54.6712 45.9583C54.9636 46.0591 55.2643 46.1092 55.5636 46.1092C55.9897 46.1092 56.4128 46.0077 56.8048 45.8068C58.1251 45.1297 58.6604 43.5494 58.0207 42.2029L52.0921 30.0104L52.3045 29.0246C52.3106 28.9961 52.3293 28.9096 52.4456 28.8919C52.562 28.8752 52.6055 28.9513 52.6199 28.9766L52.836 29.359C53.4998 30.5335 54.7503 31.2632 56.0994 31.2632H59.7056C61.024 31.2632 62.0966 30.1906 62.0966 28.8721C62.0966 27.5538 61.024 26.4812 59.7056 26.4812H56.4719C56.4077 26.4812 56.3495 26.4456 56.3202 26.3885L54.1771 22.2183C53.5003 20.9013 52.1602 20.0833 50.6796 20.0833C50.2794 20.0833 49.8827 20.144 49.5005 20.2641L42.1801 22.5649C40.9496 22.9516 40.016 23.9262 39.6827 25.172L38.953 27.8987C38.7593 28.6224 38.9099 29.3784 39.3661 29.9727C39.8223 30.5669 40.5136 30.9077 41.2627 30.9077H41.4187C42.4976 30.9077 43.447 30.18 43.7276 29.1383L44.5115 26.2266C44.527 26.1691 44.5722 26.1233 44.6293 26.107L45.8204 25.7666L44.8539 28.9583C44.7273 29.3768 44.9637 29.8186 45.3822 29.9453C45.8003 30.0721 46.2423 29.8356 46.3691 29.4172L47.5645 25.4695C47.687 25.0656 47.579 24.6278 47.283 24.3271C46.9868 24.0262 46.5505 23.9115 46.1453 24.0275L44.1946 24.5847C43.6063 24.7528 43.142 25.2244 42.983 25.815L42.1991 28.7266C42.1043 29.0787 41.7835 29.3246 41.4188 29.3246H41.2628C41.0098 29.3246 40.7761 29.2094 40.6219 29.0086C40.4678 28.8077 40.4169 28.5522 40.4823 28.3076L41.212 25.5811C41.4046 24.8614 41.9439 24.2984 42.6547 24.075L49.9751 21.7742C50.2035 21.7024 50.4404 21.6661 50.6796 21.6661C51.5642 21.6661 52.3648 22.1548 52.7691 22.9416L54.9122 27.112C55.214 27.6992 55.8117 28.064 56.4719 28.064H59.7056C60.151 28.064 60.5136 28.4265 60.5136 28.8719C60.5136 29.3175 60.151 29.6799 59.7056 29.6799H56.0994C55.32 29.6799 54.5976 29.2584 54.2141 28.5798L53.9979 28.1974C53.6364 27.5578 52.9333 27.2162 52.2072 27.3266C51.4809 27.4373 50.9116 27.9728 50.7568 28.6911L50.5323 29.7332C50.4669 30.0369 50.5044 30.3588 50.6407 30.6457L56.5938 42.8884C56.861 43.4508 56.6364 44.1139 56.0824 44.398C55.8024 44.5415 55.4843 44.5639 55.1871 44.4617C54.8898 44.3592 54.6533 44.1455 54.518 43.8529L50.1308 34.6061C49.8203 33.9346 49.142 33.5371 48.4054 33.5935C47.6677 33.65 47.0587 34.1457 46.8539 34.8567L45.6989 38.8658C45.4332 39.7879 44.5775 40.432 43.6179 40.432H38.0682C37.4021 40.432 36.8604 39.89 36.8604 39.2241C36.8604 38.5582 37.4022 38.0166 38.0682 38.0166V38.0166Z" fill="#636466" stroke="#DADADA" stroke-width="0.5"/>
</svg>
