<svg width="185" height="90" viewBox="0 0 185 90" fill="none" xmlns="http://www.w3.org/2000/svg">
<path d="M35.0871 27.003C35.735 25.5551 36.8768 24.0708 39.8017 22.8107C41.1423 22.3079 42.6626 22.2594 44.1635 22.3745C45.1257 22.5139 46.0173 22.7017 46.9217 23.356C47.5696 23.8346 48.365 24.5737 48.6087 25.8338C48.6216 25.9913 48.179 25.9307 48.025 25.9125C47.3387 25.8338 46.9859 26.1306 46.4086 26.4517C46.2482 26.5426 45.9724 26.6456 45.7671 26.4941C45.2604 25.967 44.8563 25.5914 44.3496 25.0583C43.0795 24.0405 41.2257 24.4707 39.8787 25.3915C38.3264 26.6334 37.6529 27.8087 37.1718 28.978C36.6907 30.2381 36.4919 31.4921 36.2289 32.7462C35.9916 34.7756 35.9787 36.7264 35.9851 38.7014C35.998 39.707 36.0429 40.7127 36.2674 41.6699C36.6138 42.3726 37.1013 42.9663 38.0698 43.1965C39.0961 43.3116 40.116 43.4267 41.1423 43.5418C41.694 43.6206 42.1302 43.8629 42.3932 44.3718C42.5086 45.0079 42.3547 45.4138 41.9955 45.4926C40.8537 45.4744 39.6734 45.4805 38.5188 45.5471C37.0435 45.8621 37.2616 46.9829 37.1462 47.8916C37.9993 53.2955 38.7498 58.6389 39.3591 64.0973C39.3078 65.1454 38.9614 65.3089 38.4419 65.4059C38.2623 65.5755 37.6529 65.4725 37.159 64.8243C35.9146 58.2693 34.9204 51.6356 33.5156 45.0625C33.4065 44.3112 33.0089 43.9175 32.3418 43.869C30.7702 43.8024 29.2051 43.7357 27.6336 43.6691C26.928 43.5661 26.3956 43.3419 26.1711 42.9057C25.8824 42.0152 25.9466 41.0701 26.6778 40.3128C27.0434 39.9675 27.3257 39.6464 28.3392 39.7494C29.0191 39.9191 29.5194 40.2644 30.148 41.0035C30.6997 41.4336 31.7452 41.4942 32.701 41.2821C33.1243 41.1792 33.4514 40.8217 33.3039 39.9675C33.0217 37.8956 33.0089 36.1024 33.1307 34.1214C33.3873 31.4679 33.9005 29.402 35.0871 27.003V27.003ZM47.1591 35.9206C47.4541 35.2785 47.7877 34.8241 48.6857 34.9816C49.5003 35.127 49.8788 35.9267 50.2893 36.7567C50.9949 39.5737 51.0462 42.5604 51.4182 45.4744C51.7133 49.1639 51.9571 52.9078 52.111 56.6881C52.2201 58.2814 52.0789 59.3598 51.5081 59.9838C50.5587 60.6017 49.6928 60.1413 49.3143 59.1538C48.3073 51.6598 46.5561 43.457 47.1591 35.9206" fill="white"/>
<path d="M46.9281 30.0258C47.8454 29.7411 48.6151 29.8683 49.3527 30.0743C50.0198 30.4681 50.3277 30.983 50.2251 31.7645C50.0198 33.3942 48.6856 33.9576 47.05 33.5154C46.4149 33.2488 45.921 32.8005 45.9082 31.7221C45.9339 31.0557 46.184 30.462 46.9281 30.0258V30.0258ZM60.3535 38.1923C61.4696 36.3566 62.5408 35.7448 64.0097 36.1446C65.3182 36.6474 66.4279 37.6955 67.4029 38.6103C68.4485 39.6705 69.4555 40.7428 70.0777 41.9362C70.2766 42.3361 70.0521 43.1358 69.4363 43.6022C68.5511 44.2565 67.7044 44.1657 67.1014 43.7416C66.1072 43.0267 65.5684 41.7666 64.401 40.9185C63.086 40.0219 61.9443 40.6095 61.4632 41.1669C60.8795 41.9726 60.7127 43.6568 60.6101 45.2622C60.3535 49.2727 60.655 53.3923 61.0655 57.5724C61.3285 59.5413 61.1874 60.8439 60.6357 61.4921C60.0841 62.2675 59.5132 62.3645 58.9166 61.7889C58.5574 61.4981 58.3137 61.0135 58.1982 60.3471C57.4798 55.5732 56.8704 50.5207 56.9282 45.3409C56.9987 42.9358 56.9731 40.8155 57.0436 38.4043C57.0885 37.6046 57.1848 36.9928 57.4542 36.496C57.7685 35.7993 58.6023 35.7508 59.1219 36.3082C59.4747 36.6838 59.8788 37.5259 59.9045 38.1378C59.9109 38.3619 60.2829 38.3983 60.3535 38.1923V38.1923ZM75.3247 35.3995C76.5884 34.2363 77.6403 33.1397 79.6865 32.6369C80.6808 32.4431 81.675 32.3401 82.6115 32.4249C84.2408 32.5885 86.1202 32.8792 87.2812 34.3877C87.4993 35.0602 87.4993 35.7145 87.0311 36.2355C86.6783 36.5687 85.2543 36.496 85.0875 36.2415C84.0868 35.3025 83.625 34.6482 82.3165 34.3938C79.5134 34.0242 78.455 35.3025 77.9931 36.4112C77.6788 37.1139 77.7301 37.9075 77.9867 38.5437C78.4037 39.4524 79.3145 40.0703 80.3087 40.5974C82.4832 41.6212 84.5615 42.3845 86.5949 43.0449C88.423 43.9415 90.3345 44.7048 91.1491 47.2008C91.348 48.5215 91.4955 49.8482 90.9759 51.1871C89.847 54.3434 88.2049 55.2097 86.6141 56.3002C84.7219 57.0635 83.3171 57.2089 81.9252 57.3422C80.6295 57.318 79.4107 57.1665 78.4999 56.8939C76.1779 56.0761 74.369 55.1916 73.3363 53.8224C73.0733 52.8107 72.8167 51.4476 73.2272 50.5328C73.5608 49.7877 74.1317 49.2848 74.9399 49.0183C75.6326 48.8547 76.2228 49.0122 76.4986 49.5029C77.0053 50.8176 76.4024 51.0902 76.0496 51.8172C76.0881 52.8713 76.9219 53.6164 78.301 54.0829C79.3402 54.4282 80.6808 54.5131 82.0342 54.6039C83.7405 54.5191 85.4788 53.0106 86.1779 52.2836C88.2883 50.03 88.346 48.5518 87.9547 47.2856C87.076 45.5833 82.8553 44.5837 80.8219 44.0869C78.9938 43.7719 77.6339 43.1782 76.242 42.1846C74.7474 41.179 74.2471 39.6765 74.3433 37.7743C74.4203 36.9201 74.6897 36.1022 75.3247 35.3995V35.3995ZM94.7091 23.6829C95.1196 23.174 95.5494 23.2407 95.9728 23.3861C96.7232 24.0646 97.153 25.4034 97.3904 27.6995C97.7431 29.8199 97.679 33.8061 98.0895 33.9334C98.7887 33.9455 99.9754 32.9641 100.995 32.7823C101.656 32.8792 101.938 33.2246 102.182 33.8243C102.554 34.7331 102.394 35.7145 101.977 36.1325C101.002 36.8171 100.161 37.0715 99.3403 37.2593C98.5257 37.5683 98.4744 37.8591 98.5257 38.1438C98.9555 40.8337 99.212 43.5417 99.6418 46.2315C100.014 48.1459 100.456 50.0118 101.271 51.7869C101.803 53.0046 102.888 53.5134 104.036 53.5377C104.414 53.5256 104.902 53.5013 105.229 53.9799C105.517 54.7433 105.421 55.337 104.985 55.6278C104.215 56.0579 103.138 56.0155 102.022 55.9004C100.655 55.5853 99.6418 55.1007 98.7823 54.4161C97.9676 53.2287 97.4673 51.6051 97.2107 49.9149C96.7104 46.4738 96.2165 43.0388 95.7162 39.5978C95.6841 39.1919 95.5943 38.8708 95.1517 39.1252C93.9137 39.7311 92.6758 40.3308 91.4378 40.9366C89.4685 41.4274 89.5199 38.5861 90.4371 37.8046C91.2518 37.1745 92.6244 37.0533 93.6123 36.3869C94.0164 36.1143 94.4782 35.872 94.7219 35.5449C95.171 35.0541 95.1261 34.8906 95.1966 34.5089C95.1774 33.8667 95.2287 33.2609 95.2159 32.6187C95.0555 29.6502 94.8823 26.6696 94.7091 23.6829" fill="white"/>
<path d="M108.141 34.8058C110.315 33.3336 112.176 32.643 115.004 32.9641C116.941 33.4851 118.936 33.8728 119.815 35.7569C119.95 37.0594 118.911 37.5441 117.166 37.7319C115.344 37.7864 114.735 36.7383 113.709 35.8599C111.56 35.0057 110.354 35.4177 108.814 37.0897C106.909 39.0465 108.763 46.2436 111.618 48.2126C113.292 49.4787 115.062 49.5938 116.775 49.194C117.512 49.0183 118.128 48.4912 118.314 47.734C118.519 46.5466 119.661 46.389 120.328 46.801C121.688 47.8733 121.739 49.8664 120.258 50.7812C119.052 51.5264 117.506 51.6778 116.133 51.7263C112.368 52.005 110.174 50.3269 108.192 48.3701C105.793 44.6443 104.158 38.1378 108.141 34.8058" fill="white"/>
<path d="M127.038 28.2387C128.148 26.4031 129.225 25.7912 130.694 26.191C132.003 26.6938 133.112 27.7419 134.087 28.6567C135.133 29.7169 136.146 30.7892 136.762 31.9887C136.961 32.3825 136.737 33.1882 136.121 33.6547C135.236 34.309 134.382 34.2181 133.786 33.794C132.792 33.0792 132.253 31.8191 131.085 30.9709C129.77 30.0804 128.629 30.668 128.148 31.2193C127.557 32.0251 127.391 33.7092 127.294 35.3147C127.038 39.3252 127.339 43.4447 127.75 47.6249C128.019 49.5938 127.878 50.8963 127.327 51.5445C126.775 52.32 126.198 52.4169 125.614 51.8475C125.248 51.5567 125.011 51.072 124.895 50.4056C124.171 45.6257 123.561 40.5671 123.619 35.3934C123.696 32.9883 123.664 30.8619 123.734 28.4568C123.779 27.6571 123.876 27.0452 124.145 26.5484C124.459 25.8518 125.293 25.8033 125.813 26.3606C126.159 26.7423 126.57 27.5783 126.589 28.1963C126.595 28.4083 126.961 28.4447 127.038 28.2387" fill="white"/>
<path d="M138.115 30.9104C138.237 30.4075 138.584 29.9713 139.7 29.8502C140.412 29.7835 140.957 30.141 141.117 30.6559C141.265 33.4427 141.124 35.9387 141.894 38.8587C142.798 41.0336 143.735 43.1721 145.883 44.2929C147.955 44.9956 149.995 44.2929 151.939 40.4944C153.44 37.1321 154.459 33.8365 155.37 30.3954C155.576 29.3958 157.218 29.7593 157.205 30.7468C158.103 34.6604 158.013 38.6043 158.366 42.536C158.917 46.4738 159.264 50.3814 158.744 54.3495C158.43 56.8152 157.859 59.2082 155.839 61.9404C153.696 64.7211 148.693 67.1202 145.229 65.5935C144.126 64.9392 142.804 64.4061 142.189 60.1775C142.163 59.0264 141.958 58.148 142.554 57.7905C143.093 57.4573 143.709 57.2453 144.318 57.9783C144.761 58.2813 145.268 59.7534 145.755 61.6254C147.115 62.9824 148.77 63.7457 152.529 60.335C153.363 58.9477 154.261 57.6149 154.678 55.8519C155.447 53.1015 155.871 50.3571 155.864 47.6249C155.973 45.2016 155.916 42.7541 155.806 40.3975C155.768 39.7917 155.467 39.6887 155.261 40.0037C154.524 41.8757 153.587 43.4811 151.971 45.0078C149.771 47.007 147.243 48.0187 144.37 46.5223C142.182 45.2804 140.335 43.3115 139.251 39.7432C138.686 36.8171 137.987 33.9273 138.115 30.9104" fill="white"/>
<path d="M116.73 55.234L118.564 55.1855L121.496 51.9444L120.688 55.131L136.217 54.7251C138.045 54.6766 139.892 56.2275 139.944 57.9541L140.11 63.7033C140.162 65.4299 138.513 67.0475 136.685 67.0959L116.82 67.6109C114.992 67.6593 113.196 66.0055 113.144 64.2789L112.984 58.7417C112.933 57.009 114.902 55.2825 116.73 55.234" fill="white"/>
<path d="M115.877 63.043C116.242 63.0309 116.55 63.352 116.563 63.7639C116.576 64.1698 116.287 64.5091 115.922 64.5212C115.556 64.5333 115.248 64.2062 115.235 63.8003C115.222 63.3883 115.511 63.0491 115.877 63.043ZM121.932 58.9658L121.425 60.0018C121.117 59.711 120.72 59.5656 120.219 59.5777C119.738 59.5898 119.366 59.7776 119.097 60.1169C118.827 60.4683 118.705 60.9469 118.725 61.5466C118.763 62.7643 119.315 63.3641 120.405 63.3338C120.867 63.3217 121.278 63.146 121.624 62.8007L122.118 63.8487C121.765 64.1032 121.444 64.2668 121.175 64.3395C120.906 64.4122 120.578 64.4546 120.206 64.4667C119.373 64.4909 118.712 64.2425 118.205 63.7336C117.705 63.2247 117.448 62.5099 117.416 61.5769C117.391 60.6682 117.628 59.917 118.141 59.3354C118.661 58.7659 119.366 58.457 120.277 58.4388C120.906 58.4267 121.457 58.6023 121.932 58.9658V58.9658ZM122.849 61.3709C122.824 60.4864 123.042 59.7655 123.497 59.19C123.959 58.6205 124.581 58.3297 125.357 58.3116C126.185 58.2934 126.826 58.5418 127.294 59.0628C127.763 59.5959 128.013 60.3168 128.038 61.2437C128.064 62.1767 127.859 62.9097 127.41 63.4671C126.961 64.0244 126.339 64.3152 125.53 64.3395C124.716 64.3576 124.062 64.0971 123.593 63.5579C123.125 63.0188 122.875 62.2918 122.849 61.3709ZM124.164 61.3406C124.203 62.6189 124.645 63.249 125.498 63.2247C125.89 63.2126 126.21 63.043 126.428 62.7037C126.647 62.3645 126.743 61.898 126.73 61.274C126.691 60.02 126.249 59.402 125.396 59.4202C125.004 59.4323 124.697 59.608 124.466 59.9412C124.241 60.2805 124.145 60.753 124.164 61.3406ZM135.723 63.9578L135.62 60.3229C135.601 59.5717 135.274 59.19 134.632 59.2082C134.446 59.2142 134.26 59.2869 134.087 59.402C133.927 59.5292 133.805 59.6686 133.741 59.82L133.863 64.0123L132.599 64.0426L132.484 60.1957C132.477 59.917 132.387 59.6868 132.214 59.5293C132.047 59.3657 131.804 59.2869 131.502 59.293C131.348 59.299 131.175 59.3657 130.989 59.4929C130.809 59.6322 130.675 59.7655 130.598 59.923L130.72 64.0911L129.462 64.1214L129.289 58.3237L130.162 58.2994L130.431 58.8023C130.771 58.3843 131.22 58.1601 131.772 58.148C132.496 58.1298 133.035 58.3237 133.414 58.7356C133.561 58.5418 133.786 58.3843 134.062 58.2631C134.325 58.1419 134.613 58.0692 134.902 58.0632C135.498 58.045 135.986 58.2207 136.326 58.5781C136.666 58.9477 136.858 59.4384 136.878 60.0927L136.987 63.9214L135.723 63.9578Z" fill="#F47920"/>
</svg>
