<svg width="185" height="90" viewBox="0 0 185 90" fill="none" xmlns="http://www.w3.org/2000/svg">
<g clip-path="url(#clip0_2942_7673)">
<path d="M36.8046 26.5432C37.433 25.1386 38.5406 23.6988 41.3781 22.4764C42.6787 21.9886 44.1534 21.9416 45.6095 22.0532C46.5429 22.1884 47.4078 22.3706 48.2852 23.0053C48.9137 23.4696 49.6853 24.1866 49.9217 25.409C49.9342 25.5618 49.5048 25.503 49.3555 25.4854C48.6897 25.409 48.3474 25.6969 47.7874 26.0084C47.6318 26.0966 47.3642 26.1965 47.1651 26.0496C46.6735 25.5383 46.2815 25.1739 45.7899 24.6567C44.5579 23.6694 42.7595 24.0867 41.4528 24.98C39.9469 26.1847 39.2936 27.3249 38.8269 28.4591C38.3602 29.6815 38.1673 30.8981 37.9122 32.1146C37.6819 34.0834 37.6695 35.9758 37.6757 37.8917C37.6882 38.8673 37.7317 39.8429 37.9495 40.7714C38.2855 41.4532 38.7584 42.0291 39.698 42.2524C40.6937 42.3641 41.683 42.4757 42.6787 42.5874C43.2138 42.6638 43.6369 42.8989 43.8921 43.3926C44.0041 44.0096 43.8547 44.4034 43.5063 44.4798C42.3986 44.4622 41.2537 44.468 40.1336 44.5327C38.7024 44.8383 38.914 45.9255 38.802 46.8071C39.6296 52.0494 40.3576 57.2329 40.9488 62.528C40.899 63.5447 40.563 63.7034 40.059 63.7975C39.8847 63.962 39.2936 63.8621 38.8144 63.2333C37.6073 56.8744 36.6428 50.4391 35.28 44.0625C35.1742 43.3338 34.7884 42.9518 34.1413 42.9048C32.6168 42.8401 31.0985 42.7755 29.5739 42.7108C28.8894 42.6109 28.373 42.3935 28.1552 41.9703C27.8752 41.1064 27.9374 40.1896 28.6468 39.455C29.0015 39.12 29.2752 38.8085 30.2584 38.9084C30.918 39.073 31.4034 39.408 32.0132 40.125C32.5483 40.5422 33.5626 40.601 34.4898 40.3953C34.9004 40.2954 35.2178 39.9486 35.0747 39.12C34.8009 37.1101 34.7884 35.3705 34.9067 33.4487C35.1556 30.8746 35.6534 28.8705 36.8046 26.5432V26.5432ZM48.5154 35.1942C48.8017 34.5712 49.1252 34.1304 49.9964 34.2832C50.7867 34.4243 51.1538 35.2 51.552 36.0052C52.2365 38.738 52.2863 41.6353 52.6472 44.4622C52.9334 48.0413 53.1699 51.6732 53.3192 55.3405C53.425 56.8861 53.2881 57.9322 52.7343 58.5376C51.8134 59.137 50.9733 58.6904 50.6062 57.7324C49.6293 50.4626 47.9305 42.5051 48.5154 35.1942" fill="white"/>
<path d="M48.2941 29.4756C49.1839 29.1993 49.9306 29.3228 50.6462 29.5226C51.2933 29.9046 51.592 30.4041 51.4925 31.1623C51.2934 32.7432 49.9991 33.2897 48.4123 32.8607C47.7963 32.6021 47.3171 32.1672 47.3047 31.1211C47.3296 30.4746 47.5723 29.8987 48.2941 29.4756V29.4756ZM61.3179 37.3977C62.4006 35.617 63.4398 35.0234 64.8648 35.4113C66.1342 35.8991 67.2107 36.9158 68.1565 37.8033C69.1708 38.8317 70.1477 39.872 70.7513 41.0297C70.9442 41.4176 70.7264 42.1934 70.1291 42.6459C69.2703 43.2806 68.449 43.1924 67.864 42.7811C66.8995 42.0876 66.3768 40.8652 65.2443 40.0424C63.9687 39.1726 62.8611 39.7427 62.3944 40.2833C61.8282 41.065 61.6664 42.6988 61.5668 44.2562C61.3179 48.1468 61.6104 52.1431 62.0086 56.1982C62.2637 58.1082 62.1268 59.3718 61.5917 60.0006C61.0566 60.7529 60.5027 60.8469 59.924 60.2886C59.5756 60.0065 59.3391 59.5364 59.2271 58.8899C58.5302 54.2588 57.939 49.3574 57.9951 44.3326C58.0635 41.9994 58.0386 39.9425 58.1071 37.6034C58.1506 36.8277 58.244 36.2341 58.5053 35.7522C58.8102 35.0763 59.6191 35.0293 60.1232 35.57C60.4654 35.9344 60.8574 36.7513 60.8823 37.3448C60.8885 37.5623 61.2495 37.5976 61.3179 37.3977V37.3977ZM75.8414 34.6884C77.0672 33.5601 78.0877 32.4963 80.0727 32.0085C81.0372 31.8205 82.0017 31.7206 82.9102 31.8028C84.4907 31.9615 86.3139 32.2436 87.4402 33.707C87.6518 34.3593 87.6518 34.9941 87.1975 35.4995C86.8553 35.8227 85.4739 35.7522 85.3121 35.5054C84.3414 34.5944 83.8934 33.9597 82.624 33.7129C79.9047 33.3544 78.878 34.5944 78.43 35.6699C78.125 36.3516 78.1748 37.1215 78.4237 37.7386C78.8282 38.6202 79.7118 39.2196 80.6763 39.7309C82.7857 40.7241 84.8019 41.4646 86.7744 42.1052C88.5478 42.975 90.4022 43.7155 91.1924 46.1368C91.3853 47.418 91.5284 48.7051 91.0244 50.0039C89.9292 53.0658 88.3363 53.9062 86.7931 54.9641C84.9574 55.7046 83.5947 55.8456 82.2444 55.9749C80.9874 55.9514 79.8051 55.8045 78.9215 55.54C76.669 54.7466 74.9142 53.8886 73.9124 52.5604C73.6572 51.5789 73.4083 50.2566 73.8066 49.3692C74.1302 48.6463 74.684 48.1585 75.468 47.8999C76.14 47.7412 76.7125 47.894 76.9801 48.3701C77.4717 49.6454 76.8868 49.9098 76.5445 50.6151C76.5818 51.6377 77.3908 52.3605 78.7286 52.8131C79.7367 53.1481 81.0372 53.2303 82.3502 53.3185C84.0054 53.2362 85.6917 51.7729 86.3699 51.0676C88.4172 48.8814 88.4732 47.4474 88.0936 46.2191C87.2411 44.5677 83.1467 43.598 81.1741 43.116C79.4007 42.8104 78.0815 42.2345 76.7312 41.2707C75.2813 40.2951 74.796 38.8376 74.8893 36.9922C74.964 36.1636 75.2253 35.3702 75.8414 34.6884V34.6884ZM94.646 23.3224C95.0442 22.8287 95.4611 22.8933 95.8718 23.0344C96.5998 23.6926 97.0168 24.9914 97.247 27.2188C97.5892 29.2757 97.527 33.1428 97.9252 33.2662C98.6035 33.278 99.7547 32.3259 100.744 32.1496C101.385 32.2436 101.659 32.5786 101.895 33.1604C102.256 34.042 102.101 34.9941 101.696 35.3996C100.75 36.0637 99.9351 36.3105 99.1386 36.4927C98.3484 36.7924 98.2986 37.0745 98.3484 37.3507C98.7653 39.9601 99.0142 42.5871 99.4311 45.1965C99.792 47.0536 100.221 48.8637 101.012 50.5857C101.528 51.767 102.58 52.2606 103.694 52.2841C104.061 52.2724 104.534 52.2489 104.851 52.7132C105.131 53.4537 105.038 54.0296 104.614 54.3117C103.868 54.729 102.822 54.6878 101.74 54.5762C100.414 54.2706 99.4311 53.8004 98.5973 53.1363C97.807 51.9844 97.3217 50.4094 97.0728 48.7697C96.5874 45.4316 96.1083 42.0993 95.6229 38.7612C95.5918 38.3674 95.5047 38.056 95.0753 38.3028C93.8744 38.8905 92.6734 39.4723 91.4724 40.06C89.5621 40.536 89.6119 37.7797 90.5017 37.0216C91.292 36.4104 92.6236 36.2929 93.5819 35.6464C93.9739 35.3819 94.4219 35.1469 94.6584 34.8295C95.094 34.3535 95.0504 34.1948 95.1189 33.8245C95.1002 33.2016 95.15 32.6139 95.1375 31.9909C94.982 29.1112 94.814 26.2197 94.646 23.3224" fill="white"/>
<path d="M107.672 34.1126C109.782 32.6845 111.586 32.0146 114.33 32.326C116.209 32.8315 118.145 33.2076 118.997 35.0353C119.128 36.2989 118.12 36.769 116.427 36.9512C114.66 37.0041 114.069 35.9874 113.073 35.1352C110.989 34.3066 109.819 34.7062 108.326 36.3283C106.477 38.2265 108.276 45.2084 111.045 47.1184C112.669 48.3467 114.386 48.4584 116.048 48.0705C116.763 47.9001 117.361 47.3888 117.541 46.6541C117.74 45.5022 118.848 45.3494 119.495 45.7491C120.814 46.7893 120.864 48.7228 119.427 49.6103C118.257 50.3331 116.757 50.4801 115.425 50.5271C111.773 50.7974 109.645 49.1695 107.722 47.2712C105.395 43.6569 103.808 37.345 107.672 34.1126" fill="white"/>
<path d="M126.008 27.7418C127.084 25.9611 128.13 25.3675 129.555 25.7554C130.824 26.2432 131.901 27.2599 132.846 28.1473C133.861 29.1758 134.844 30.216 135.441 31.3797C135.634 31.7617 135.416 32.5433 134.819 32.9958C133.96 33.6306 133.133 33.5424 132.554 33.131C131.589 32.4375 131.067 31.2151 129.934 30.3923C128.659 29.5284 127.551 30.0985 127.084 30.6333C126.512 31.4149 126.35 33.0487 126.257 34.6061C126.008 38.4967 126.3 42.493 126.699 46.5482C126.96 48.4582 126.823 49.7217 126.288 50.3506C125.753 51.1028 125.193 51.1969 124.626 50.6444C124.272 50.3623 124.041 49.8922 123.929 49.2457C123.226 44.6088 122.635 39.7015 122.691 34.6825C122.766 32.3494 122.735 30.2865 122.803 27.9534C122.847 27.1776 122.94 26.584 123.201 26.1021C123.506 25.4263 124.315 25.3793 124.819 25.9199C125.155 26.2902 125.554 27.1012 125.572 27.7007C125.578 27.9064 125.933 27.9416 126.008 27.7418" fill="white"/>
<path d="M136.749 30.3337C136.868 29.8459 137.204 29.4227 138.286 29.3052C138.977 29.2405 139.506 29.5873 139.661 30.0868C139.805 32.7902 139.668 35.2116 140.414 38.0443C141.292 40.1541 142.2 42.2287 144.285 43.3159C146.295 43.9977 148.274 43.3159 150.159 39.6311C151.615 36.3693 152.604 33.1722 153.488 29.8341C153.687 28.8644 155.28 29.217 155.268 30.175C156.139 33.9715 156.052 37.7974 156.394 41.6116C156.929 45.4316 157.265 49.2223 156.761 53.0717C156.456 55.4637 155.902 57.7851 153.942 60.4356C151.864 63.1331 147.01 65.4604 143.65 63.9794C142.58 63.3447 141.298 62.8275 140.701 58.7254C140.676 57.6088 140.477 56.7566 141.055 56.4099C141.578 56.0866 142.175 55.8809 142.767 56.592C143.196 56.8859 143.687 58.314 144.16 60.13C145.48 61.4464 147.085 62.1869 150.731 58.8782C151.54 57.5324 152.412 56.2394 152.816 54.5292C153.563 51.8611 153.973 49.1988 153.967 46.5483C154.073 44.1975 154.017 41.8232 153.911 39.537C153.874 38.9493 153.581 38.8494 153.382 39.155C152.667 40.971 151.758 42.5284 150.19 44.0094C148.056 45.9488 145.604 46.9303 142.816 45.4787C140.694 44.2739 138.902 42.3639 137.851 38.9023C137.303 36.0637 136.625 33.2604 136.749 30.3337" fill="white"/>
<path d="M116.002 53.9295L117.782 53.8825L120.625 50.7383L119.841 53.8296L134.906 53.4358C136.68 53.3888 138.472 54.8933 138.522 56.5683L138.683 62.1455C138.733 63.8205 137.134 65.3896 135.361 65.4366L116.089 65.9362C114.316 65.9832 112.573 64.3788 112.524 62.7038L112.368 57.3323C112.318 55.6514 114.229 53.9765 116.002 53.9295" fill="white"/>
<path d="M115.177 61.505C115.532 61.4932 115.831 61.8047 115.843 62.2043C115.856 62.5981 115.576 62.9272 115.221 62.939C114.866 62.9507 114.568 62.6334 114.555 62.2396C114.543 61.84 114.823 61.5109 115.177 61.505ZM121.051 57.5498L120.56 58.5547C120.261 58.2726 119.875 58.1316 119.39 58.1433C118.923 58.1551 118.562 58.3373 118.301 58.6664C118.04 59.0073 117.921 59.4715 117.94 60.0534C117.977 61.2346 118.513 61.8165 119.57 61.7871C120.018 61.7753 120.417 61.6049 120.753 61.2699L121.232 62.2866C120.89 62.5335 120.579 62.6921 120.317 62.7627C120.056 62.8332 119.738 62.8743 119.378 62.8861C118.569 62.9096 117.928 62.6686 117.436 62.175C116.951 61.6813 116.702 60.9878 116.671 60.0827C116.646 59.2012 116.876 58.4725 117.374 57.9083C117.878 57.3558 118.562 57.0561 119.446 57.0385C120.056 57.0267 120.591 57.1971 121.051 57.5498V57.5498ZM121.941 59.8829C121.916 59.0249 122.128 58.3255 122.57 57.7672C123.018 57.2148 123.621 56.9327 124.374 56.915C125.177 56.8974 125.799 57.1384 126.254 57.6438C126.708 58.161 126.95 58.8603 126.975 59.7595C127 60.6646 126.801 61.3757 126.366 61.9164C125.93 62.4571 125.326 62.7391 124.542 62.7627C123.752 62.7803 123.117 62.5276 122.663 62.0045C122.209 61.4815 121.966 60.7762 121.941 59.8829ZM123.217 59.8535C123.254 61.0936 123.684 61.7048 124.511 61.6813C124.891 61.6695 125.202 61.505 125.413 61.1759C125.625 60.8468 125.718 60.3942 125.706 59.7889C125.669 58.5724 125.239 57.9729 124.412 57.9905C124.032 58.0023 123.733 58.1727 123.509 58.496C123.292 58.8251 123.198 59.2835 123.217 59.8535ZM134.43 62.3924L134.33 58.8662C134.312 58.1375 133.994 57.7672 133.372 57.7848C133.192 57.7907 133.011 57.8612 132.843 57.9729C132.688 58.0963 132.569 58.2315 132.507 58.3784L132.625 62.4453L131.4 62.4747L131.288 58.7428C131.281 58.4725 131.194 58.2491 131.026 58.0963C130.864 57.9376 130.628 57.8612 130.336 57.8671C130.186 57.873 130.018 57.9376 129.838 58.0611C129.663 58.1962 129.533 58.3255 129.458 58.4783L129.576 62.5217L128.357 62.5511L128.189 56.9268L129.035 56.9033L129.296 57.3911C129.626 56.9856 130.062 56.7681 130.597 56.7564C131.3 56.7387 131.823 56.9268 132.19 57.3264C132.333 57.1384 132.551 56.9856 132.818 56.868C133.073 56.7505 133.353 56.68 133.633 56.6741C134.212 56.6565 134.685 56.8269 135.015 57.1736C135.345 57.5321 135.531 58.0082 135.55 58.6429L135.656 62.3571L134.43 62.3924Z" fill="#313D47"/>
</g>
<defs>
<clipPath id="clip0_2942_7673">
<rect width="129" height="46" fill="white" transform="translate(28 22)"/>
</clipPath>
</defs>
</svg>
