<svg width="185" height="90" viewBox="0 0 185 90" fill="none" xmlns="http://www.w3.org/2000/svg">
<path d="M102.077 42.5276C95.2609 42.5276 91.344 45.4628 91.344 50.5678C91.344 55.6198 95.2609 58.5438 102.077 58.5438C108.9 58.5438 112.797 55.6198 112.797 50.5678C112.797 45.4628 108.9 42.5279 102.077 42.5279V42.5276ZM102.077 54.8383C98.3498 54.8383 96.4618 53.412 96.4618 50.5678C96.4618 47.6902 98.3498 46.2484 102.077 46.2484C105.802 46.2484 107.704 47.6899 107.704 50.5678C107.704 53.412 105.802 54.8383 102.077 54.8383ZM114.193 42.9211V46.3376H120.656V56.9413C120.656 57.9547 122.198 58.3229 123.501 58.3229C124.809 58.3229 126.354 57.9712 126.354 56.9413V46.3376H132.805V42.9211H114.193ZM167.19 54.6262C165.611 54.6262 164.524 54.358 163.93 53.8725C163.16 53.2165 163.075 52.2494 163.052 51.5085V44.0253C163.052 43.0289 161.589 42.7008 160.331 42.7008C159.067 42.7008 157.591 43.0289 157.591 44.007V51.2571C157.591 54.0274 158.476 55.9672 160.25 57.0253C162.437 58.2936 166.407 58.2462 170.226 58.1958H174.988L175 57.5095V54.6262H167.19ZM78.923 53.4915C78.923 56.1948 81.1964 58.0357 85.056 58.3495V42.0589H93.7167V38.2907H71.1465V42.0589H78.923V53.4915ZM155.385 58.2004L155.248 57.5847C153.979 51.3215 146.857 44.1649 145.378 43.1069C144.902 42.7818 144.394 42.6981 143.734 42.6828C143.062 42.6981 142.536 42.7818 142.064 43.1069C140.594 44.1647 133.463 51.3215 132.211 57.585L132.07 58.2004H137.114L137.205 57.7592C137.41 56.8688 137.737 55.9086 138.177 54.9177H149.264C149.7 55.9086 150.038 56.8688 150.225 57.7592L150.333 58.2004H155.385ZM139.96 51.7025C141.051 50.0462 142.316 48.5116 143.735 47.125C145.148 48.5204 146.42 50.0903 147.487 51.7025H139.96Z" fill="white"/>
<path d="M56.7566 47.63C56.7214 47.5207 56.6822 47.4127 56.6392 47.3062C52.9095 51.5614 43.7532 54.3148 35.5172 53.7007C30.6633 53.3408 21.6774 50.8329 17.1445 48.0584C21.9314 52.6417 27.5395 56.1321 33.8859 58.0131C41.4267 60.2502 49.4741 60.0996 54.0082 57.7384C57.3347 55.4955 58.0859 51.4972 56.7566 47.63" fill="white"/>
<path d="M46.3835 20.8754C61.2343 29.6354 52.3964 57.2065 40.5786 66.063C29.5806 74.3025 17.887 70.5052 15.3511 62.9102C17.5685 66.1996 21.9644 67.397 25.8702 66.0881C36.7247 61.7394 42.3131 42.0909 43.0362 35.2637C43.5208 29.391 42.7516 25.4487 40.7127 22.9604C38.3752 20.4914 34.7932 19.2955 29.5526 20.9395C33.1594 17.9808 40.876 17.6333 46.3835 20.8754" fill="white"/>
<path d="M54.6938 57.346C54.7547 57.3122 54.8139 57.2754 54.8711 57.2357C54.8754 57.2287 54.892 57.222 54.9017 57.2149C55.2035 57.0154 55.5079 56.7906 55.7914 56.5339C55.9158 56.4153 56.0497 56.2925 56.1768 56.1529C61.9552 50.2955 63.1812 34.0049 48.9518 26.2888C43.8843 23.5421 32.0986 19.6972 20.3505 25.6271C16.467 27.5837 12.4593 31.6604 10.2976 37.1965C11.8937 34.5701 14.6491 32.7867 20.0796 32.0176C25.5003 31.3409 32.9686 32.1823 40.2746 34.7586C44.9873 36.4907 48.8021 38.6383 51.7782 41.068C54.2386 43.1752 55.8192 45.1738 56.6388 47.3091C56.6822 47.4179 56.7198 47.5224 56.7562 47.63C58.0855 51.4971 57.3343 55.4957 54.0109 57.7383C54.0084 57.7438 54.0136 57.7341 54.0109 57.7383C54.1709 57.6558 54.3284 57.5683 54.4829 57.4759C54.5049 57.4629 54.5263 57.4489 54.5471 57.434C54.5905 57.4102 54.6406 57.3839 54.6938 57.3463" fill="white"/>
<path d="M12.1356 46.5695C12.4107 47.0021 13.0237 47.7375 13.4273 48.205C16.2847 41.5006 31.9158 37.1434 36.5256 37.1938C26.1698 33.8625 16.0166 35.4535 11.9322 38.9913C10.4492 40.6409 9.98968 43.1166 12.1358 46.5695" fill="white"/>
<path d="M42.6176 61.78C34.3005 61.3153 22.1742 58.1069 13.5846 48.3823C13.5356 48.3209 13.4839 48.2618 13.4296 48.2051C13.0248 47.7376 12.4118 47.0049 12.1354 46.5695C9.98898 43.1167 10.4512 40.6409 11.9327 38.9901C11.6659 39.2342 11.3336 39.537 10.9596 40.0213C8.76002 42.8627 8.49617 47.4751 9.996 52.3612C13.2718 62.9744 27.5809 69.358 39.2033 67.6023C46.6222 66.4844 51.2722 62.3117 53.2064 60.6049C49.0046 61.7996 45.8976 61.9613 42.6173 61.78" fill="white"/>
</svg>
