<svg width="185" height="90" viewBox="0 0 185 90" fill="none" xmlns="http://www.w3.org/2000/svg">
<path d="M178.278 44.5271C177.821 44.5271 177.383 44.7077 177.06 45.0291C176.737 45.3505 176.556 45.7865 176.556 46.241C176.556 46.6956 176.737 47.1315 177.06 47.453C177.383 47.7744 177.821 47.955 178.278 47.955C178.735 47.955 179.173 47.7744 179.496 47.453C179.819 47.1315 180 46.6956 180 46.241C180 45.7865 179.819 45.3505 179.496 45.0291C179.173 44.7077 178.735 44.5271 178.278 44.5271V44.5271ZM178.278 47.6305C177.497 47.6305 176.877 47.0134 176.877 46.2365C176.877 45.4664 177.497 44.8494 178.278 44.8494C179.047 44.8494 179.672 45.4664 179.672 46.2365C179.672 47.0134 179.047 47.6305 178.278 47.6305ZM179.185 45.8868C179.185 45.6972 179.134 45.5166 178.969 45.4069C178.81 45.3387 178.637 45.3105 178.464 45.3247H177.566V47.1688H177.929V46.3896H178.292L178.707 47.1688H179.132L178.68 46.3896C179.01 46.3667 179.185 46.2296 179.185 45.8868ZM178.473 46.1131H177.929V45.5875H178.379C178.558 45.5875 178.824 45.5875 178.824 45.832C178.824 46.0674 178.68 46.1176 178.475 46.1131H178.473ZM62.4287 26.9493C60.2337 26.9493 58.5369 27.0087 57.2901 27.0087C56.1352 27.0087 54.9482 27.0087 53.7864 26.9493V27.7194C55.125 27.7491 56.5187 27.5709 56.5187 30.2331V44.566C56.4337 46.577 55.5704 46.6341 53.7864 46.8101V47.5802C55.125 47.5528 56.4314 47.5208 57.7677 47.5208C59.1637 47.5208 60.5597 47.5802 62.0728 47.5802C72.5887 47.5802 74.3084 40.2218 74.3084 37.2944C74.3084 32.0636 70.1204 26.9493 62.4287 26.9493ZM62.5205 46.6341C61.0648 46.6341 59.4301 46.369 59.4301 44.0929V28.0142C59.9673 27.9845 60.5276 27.8954 61.7491 27.8954C67.4823 27.8954 71.0412 31.8853 71.0412 37.4133C71.0412 41.8169 68.9334 46.6341 62.5182 46.6341H62.5205ZM81.7844 34.0723C77.803 34.0723 74.9812 37.2944 74.9812 41.1085C74.9812 45.3041 78.2186 48.0235 82.1678 48.0235C85.9723 48.0235 88.9985 44.8014 88.9985 40.9896C88.9985 36.7917 85.9104 34.0723 81.7844 34.0723V34.0723ZM82.1379 47.2534C79.0222 47.2534 77.7158 43.2337 77.7158 40.8114C77.7158 38.2702 78.873 34.8424 81.8142 34.8424C84.9598 34.8424 86.2685 38.8598 86.2685 41.2844C86.2685 43.8256 85.109 47.2534 82.1379 47.2534ZM101.184 45.8366V38.2085C101.184 35.9027 100.293 34.0723 97.7671 34.0723C95.7788 34.0723 94.3254 35.0755 92.6309 36.2889V34.3671C92.6309 34.1294 92.5413 34.07 92.4518 34.07C91.0282 34.6893 89.8113 35.0755 88.5324 35.4891V36.0513C89.9284 36.6134 90.2545 36.9082 90.2545 38.0029V45.832C90.2545 46.8078 89.6598 46.8078 88.8309 46.8078H88.2936V47.5779C89.3659 47.5505 90.4313 47.5185 91.5035 47.5185C92.5735 47.5185 93.609 47.5779 94.6491 47.5779V46.8078H94.1141C93.2852 46.8078 92.6309 46.8078 92.6309 45.832V37.0865C93.609 36.4375 95.1244 35.6697 96.0749 35.6697C97.7671 35.6697 98.8072 36.4969 98.8072 38.1834V45.8343C98.8072 46.8101 98.2126 46.8101 97.3814 46.8101H96.8464V47.5802C97.9141 47.5528 98.9863 47.5208 100.052 47.5208C101.122 47.5208 102.164 47.5802 103.202 47.5802V46.8101H102.665C101.836 46.8101 101.184 46.8101 101.184 45.8343V45.8366ZM114.641 46.4284C113.989 46.4284 113.569 45.9554 113.569 44.7419V36.5563C113.569 34.9292 111.284 34.0723 109.948 34.0723C108.823 34.0723 108.317 34.4859 107.275 35.0184C105.197 36.0833 103.861 36.8214 103.861 38.3891C103.861 38.5947 103.948 38.9764 104.396 38.9764C105.108 38.9764 106.058 38.565 106.058 37.7378C106.118 36.4078 107.009 35.6697 108.315 35.6697C110.216 35.6697 111.194 36.5563 111.194 38.2108V40.1624C104.782 42.347 103.565 42.7927 103.445 45.1556C103.445 46.7232 104.752 48.0235 106.651 48.0235C108.492 48.0235 109.828 47.1094 111.224 45.8343C111.284 46.8992 111.851 48.0235 113.068 48.0235C114.255 48.0235 115.176 47.1963 116.007 46.4261L115.738 45.9234C115.601 46.0794 115.433 46.2048 115.243 46.2914C115.054 46.3781 114.849 46.424 114.641 46.4261V46.4284ZM111.194 44.9179C110.216 45.7749 109.323 46.6318 107.927 46.6318C107.366 46.6228 106.831 46.3952 106.437 45.9978C106.043 45.6004 105.821 45.065 105.819 44.5066C105.819 42.2899 109.681 41.6112 111.192 41.0193L111.194 44.9179ZM120.477 45.8343V25.4136C120.477 25.1782 120.418 25 120.239 25C120.151 25 119.917 25.1463 119.586 25.3222C118.967 25.6787 117.717 26.2089 116.53 26.5951V27.0658C117.655 27.3903 118.103 27.4543 118.103 29.3739V45.8343C118.103 46.8101 117.511 46.8101 116.675 46.8101H116.11V47.5802C117.212 47.5528 118.28 47.5208 119.348 47.5208C120.418 47.5208 121.46 47.5802 122.47 47.5802V46.8101H121.965C121.132 46.8101 120.477 46.8101 120.477 45.8343V45.8343ZM134.924 45.0367V25.4136C134.924 25.1782 134.864 25 134.685 25C134.598 25 134.362 25.1463 134.035 25.3222C133.411 25.6787 132.164 26.2089 130.975 26.5951V27.0658C132.104 27.3903 132.55 27.4543 132.55 29.3739V34.6047C131.662 34.2493 130.713 34.0685 129.756 34.0723C125.657 34.0723 122.422 37.6189 122.422 41.6112C122.422 44.9202 124.381 48.0235 127.946 48.0235C129.756 48.0235 131.418 46.9609 132.488 45.8663H132.548V47.226C132.548 47.5802 132.577 48.0235 132.874 48.0235C133.055 48.0235 133.824 47.7264 134.745 47.4339C135.606 47.1666 136.407 46.9312 136.857 46.8398H136.883V46.2479H136.377C135.223 46.2479 134.924 46.2479 134.924 45.0367V45.0367ZM132.548 44.5066C132.548 45.5989 130.559 46.2479 129.668 46.2479C126.964 46.2479 124.975 43.8256 124.975 40.5737C124.975 36.586 127.292 35.0184 129.4 35.0184C130.706 35.0184 132.548 35.5485 132.548 37.7378V44.5066ZM139.916 36.9677C139.916 35.6994 141.041 35.0184 142.23 35.0184C144.129 35.0184 145.169 36.0833 145.467 37.9434H146.149L145.943 34.9292C144.893 34.3926 143.736 34.0997 142.556 34.0723C139.291 34.0723 137.953 36.1998 137.953 37.8566C137.953 42.6144 144.427 41.4924 144.427 44.9796C144.427 46.0125 143.775 47.0774 142.023 47.0774C139.854 47.0774 138.667 45.4229 138.281 43.4714L137.746 43.6199L138.072 47.018C139.114 47.6122 140.508 48.0235 141.695 48.0235C145.231 48.0235 146.804 45.9554 146.804 44.0015C146.804 39.3626 139.916 40.4275 139.916 36.9677ZM154.397 34.0723C150.418 34.0723 147.596 37.2944 147.596 41.1085C147.596 45.3041 150.833 48.0235 154.783 48.0235C158.585 48.0235 161.613 44.8014 161.613 40.9896C161.613 36.7917 158.525 34.0723 154.397 34.0723V34.0723ZM154.753 47.2534C151.635 47.2534 150.328 43.2337 150.328 40.8114C150.328 38.2702 151.485 34.8424 154.427 34.8424C157.572 34.8424 158.881 38.8598 158.881 41.2844C158.881 43.8256 157.724 47.2534 154.753 47.2534ZM173.658 45.8366V38.2108C173.658 35.905 172.77 34.0746 170.244 34.0746C168.258 34.0746 166.8 35.0778 165.11 36.2912V34.3694C165.11 34.1317 165.023 34.0723 164.931 34.0723C163.508 34.6916 162.286 35.0778 161.009 35.4914V36.0536C162.405 36.6157 162.731 36.9105 162.731 38.0051V45.8366C162.731 46.8101 162.137 46.8101 161.308 46.8101H160.773V47.5802C161.838 47.5528 162.908 47.5208 163.978 47.5208C165.05 47.5208 166.091 47.5802 167.126 47.5802V46.8101H166.593C165.76 46.8101 165.108 46.8101 165.108 45.8366V37.0888C166.088 36.4375 167.606 35.6697 168.552 35.6697C170.244 35.6697 171.284 36.4969 171.284 38.1834V45.8366C171.284 46.8101 170.69 46.8101 169.861 46.8101H169.323V47.5802C170.396 47.5528 171.466 47.5208 172.533 47.5208C173.599 47.5208 174.641 47.5802 175.679 47.5802V46.8101H175.146C174.313 46.8101 173.658 46.8101 173.658 45.8366V45.8366ZM14.1314 50.1373C14.1314 51.8768 14.8256 53.545 16.0614 54.7749C17.2972 56.0049 18.9733 56.6959 20.721 56.6959C22.4687 56.6959 24.1448 56.0049 25.3806 54.7749C26.6164 53.545 27.3107 51.8768 27.3107 50.1373C27.3107 48.3979 26.6164 46.7297 25.3806 45.4997C24.1448 44.2698 22.4687 43.5788 20.721 43.5788C18.9733 43.5788 17.2972 44.2698 16.0614 45.4997C14.8256 46.7297 14.1314 48.3979 14.1314 50.1373V50.1373ZM20.7256 40.8868C23.0056 40.8868 25.0927 41.7049 26.7091 43.0577C25.6829 41.2528 24.1878 39.7557 22.3805 38.7235C20.5733 37.6912 18.5203 37.1617 16.4367 37.1904C14.3532 37.2191 12.3158 37.8051 10.5379 38.8868C8.76009 39.9685 7.30727 41.5062 6.33171 43.3388C5.79019 44.4697 5.38703 45.6612 5.13087 46.8878C5.09139 47.1235 5.05999 47.3606 5.03674 47.5985H11.7848C12.3404 45.665 13.5135 43.9643 15.1266 42.7533C16.7397 41.5424 18.7051 40.8872 20.7256 40.8868V40.8868ZM29.772 37.0842C27.1137 35.255 23.9574 34.2775 20.7256 34.2825C18.0834 34.2797 15.4822 34.9332 13.1578 36.1838C14.9931 35.6867 16.9152 35.5935 18.7903 35.9105C20.6655 36.2275 22.4487 36.9473 24.0161 38.0197C25.5835 39.0921 26.8974 40.4914 27.8664 42.1203C28.8355 43.7493 29.4364 45.5687 29.6274 47.4522L29.6687 47.5985H36.4512V27.0361H29.7697L29.772 37.0842ZM20.7256 59.397C18.5366 59.4003 16.4174 58.6311 14.7444 57.2261C15.7712 59.0309 17.2667 60.5276 19.0742 61.5596C20.8818 62.5916 22.9349 63.1209 25.0186 63.0919C27.1022 63.0629 29.1397 62.4768 30.9176 61.395C32.6955 60.3131 34.1484 58.7753 35.1241 56.9427C35.6647 55.8108 36.0671 54.6186 36.3227 53.3915C36.3606 53.1562 36.3928 52.9199 36.4191 52.6831H29.6687C29.1137 54.6175 27.9406 56.3193 26.3269 57.5307C24.7132 58.7422 22.7469 59.3973 20.7256 59.397V59.397ZM11.8307 52.8316L11.7848 52.6831H5C5.4077 55.1796 6.40934 57.5429 7.92134 59.5757C9.43335 61.6086 11.4119 63.2521 13.6919 64.3692C15.9719 65.4863 18.4872 66.0445 21.028 65.9972C23.5688 65.95 26.0615 65.2987 28.298 64.0977C26.463 64.5952 24.5411 64.6889 22.6661 64.3721C20.7911 64.0554 19.0079 63.3358 17.4406 62.2636C15.8733 61.1913 14.5596 59.7921 13.5908 58.1632C12.622 56.5343 12.0214 54.7149 11.8307 52.8316V52.8316ZM54.3811 52.9367H57.4784V53.5423H55.1158V55.1557H57.3407V55.7567H55.1158V58.1059H54.3811V52.9367ZM60.1326 58.1059H60.8513V52.9367H60.1326V58.1059ZM63.9693 52.9367H64.6811V57.4683H67.1011V58.1082H63.9693V52.9367ZM70.311 58.1059V53.5423H68.5706V52.9344H72.7655V53.5423H71.0205V58.1059H70.311ZM75.2314 52.9367H77.0912C77.3576 52.9367 77.9017 52.9367 78.2852 53.1767C78.6755 53.4212 78.8592 53.8165 78.8592 54.2324C78.8592 54.5935 78.726 54.918 78.4941 55.1465C78.325 55.3133 78.1128 55.4303 77.8811 55.4847C78.3793 55.6127 78.602 55.8367 78.6732 56.4811C78.7444 57.0912 78.7972 57.5323 78.9993 58.1059H78.2278C78.113 57.7631 78.0395 57.1324 77.9913 56.7393C77.9017 55.9852 77.7227 55.7727 76.8525 55.7727H75.9432V58.1059H75.2314V52.9367ZM75.9317 55.1625H77.0683C77.1463 55.1625 77.5573 55.1625 77.7502 55.0483C77.8512 54.9911 78.1038 54.8037 78.1038 54.3764C78.1038 53.5354 77.3576 53.5354 77.0706 53.5354H75.9317V55.1625ZM83.4674 52.9367H84.2365L86.3397 58.1059H85.5545L84.9942 56.7599H82.5834L82.0185 58.1082H81.2792L83.4674 52.9367ZM82.8153 56.1817H84.7761L83.8186 53.6451L82.8153 56.1817ZM89.5634 58.1059V53.5423H87.8184V52.9344H92.0178V53.5423H90.2728V58.1059H89.5634ZM94.4999 58.1059H95.2185V52.9367H94.4999V58.1059ZM98.759 53.4943C99.2986 52.9116 100.013 52.7973 100.497 52.7973C101.934 52.7973 102.844 53.716 102.844 55.471C102.844 56.8421 102.288 58.2293 100.437 58.2293C98.6649 58.2293 98.0909 56.9724 98.0909 55.5556C98.0909 54.9683 98.1919 54.1022 98.759 53.4943V53.4943ZM99.3078 57.1484C99.6017 57.514 100.049 57.6214 100.458 57.6214C100.885 57.6214 101.308 57.5026 101.611 57.1484C102.035 56.6319 102.079 55.8138 102.079 55.4619C102.079 54.2873 101.689 53.3983 100.502 53.3983C99.1861 53.3983 98.8486 54.4541 98.8486 55.5121C98.8486 56.0789 98.9473 56.7005 99.3078 57.1484V57.1484ZM105.748 52.9367H106.749L109.307 57.2123V52.9344H109.968V58.1059H109.048L106.405 53.716V58.1059H105.748V52.9367ZM117.417 56.5953C117.43 56.9518 117.474 57.6191 118.668 57.6191C119.747 57.6191 119.885 56.9518 119.885 56.6959C119.885 56.1154 119.419 56.0012 118.691 55.8229C117.899 55.6287 117.545 55.5419 117.279 55.3636C117.109 55.2547 116.969 55.1038 116.875 54.9257C116.78 54.7475 116.734 54.5481 116.739 54.3467C116.739 53.2909 117.74 52.8339 118.719 52.8339C119.063 52.8339 119.763 52.8887 120.181 53.3412C120.47 53.6566 120.484 54.0085 120.498 54.2233H119.749C119.713 53.5789 119.166 53.4349 118.654 53.4349C117.936 53.4349 117.502 53.7548 117.502 54.2736C117.502 54.7306 117.807 54.8906 118.438 55.0391C119.676 55.3545 119.814 55.3842 120.115 55.5876C120.282 55.7009 120.418 55.8548 120.509 56.0347C120.6 56.2146 120.644 56.4146 120.636 56.6159C120.636 57.53 119.915 58.2316 118.583 58.2316C118.186 58.2316 117.38 58.163 116.969 57.642C116.75 57.3381 116.644 56.9683 116.668 56.5953H117.417ZM123.958 53.4943C124.5 52.9116 125.209 52.7973 125.694 52.7973C127.134 52.7973 128.04 53.716 128.04 55.471C128.04 56.8421 127.485 58.2293 125.634 58.2293C123.866 58.2293 123.29 56.9724 123.29 55.5556C123.29 54.9683 123.389 54.1022 123.958 53.4943V53.4943ZM124.505 57.1484C124.801 57.514 125.246 57.6214 125.657 57.6214C126.084 57.6214 126.507 57.5026 126.81 57.1484C127.235 56.6319 127.278 55.8138 127.278 55.4619C127.278 54.2873 126.888 53.3983 125.699 53.3983C124.383 53.3983 124.045 54.4541 124.045 55.5121C124.045 56.0789 124.146 56.7005 124.505 57.1484V57.1484ZM130.931 52.9367H131.645V57.4683H134.065V58.1082H130.931V52.9367ZM137.452 52.9367V56.136C137.452 56.689 137.576 56.9176 137.684 57.0684C138.005 57.4957 138.51 57.5757 138.871 57.5757C140.276 57.5757 140.276 56.4811 140.276 56.1086V52.9344H140.974V56.12C140.974 56.4034 140.967 56.9815 140.549 57.4957C140.037 58.1356 139.247 58.2133 138.873 58.2133C138.382 58.2133 137.519 58.0762 137.036 57.3906C136.876 57.1621 136.736 56.8604 136.736 56.0835V52.9367H137.452ZM145.357 58.1059V53.5423H143.615V52.9344H147.812V53.5423H146.067V58.1059H145.357ZM150.291 58.1059H151.012V52.9367H150.291V58.1059ZM154.553 53.4943C155.095 52.9116 155.807 52.7973 156.289 52.7973C157.728 52.7973 158.635 53.716 158.635 55.471C158.635 56.8421 158.084 58.2293 156.231 58.2293C154.461 58.2293 153.885 56.9724 153.885 55.5556C153.885 54.9683 153.986 54.1022 154.555 53.4943H154.553ZM155.102 57.1484C155.398 57.514 155.841 57.6214 156.254 57.6214C156.679 57.6214 157.104 57.5026 157.407 57.1484C157.829 56.6319 157.873 55.8138 157.873 55.4619C157.873 54.2873 157.483 53.3983 156.298 53.3983C154.98 53.3983 154.64 54.4541 154.64 55.5121C154.64 56.0789 154.741 56.7005 155.099 57.1484H155.102ZM161.542 52.9367H162.543L165.099 57.2123V52.9344H165.762V58.1059H164.844L162.199 53.716V58.1059H161.542V52.9367ZM169.408 56.5953C169.424 56.9518 169.468 57.6191 170.662 57.6191C171.741 57.6191 171.879 56.9518 171.879 56.6959C171.879 56.1154 171.413 56.0012 170.685 55.8229C169.893 55.6287 169.539 55.5419 169.273 55.3636C169.103 55.2547 168.963 55.1038 168.869 54.9257C168.774 54.7475 168.728 54.5481 168.733 54.3467C168.733 53.2909 169.732 52.8339 170.713 52.8339C171.057 52.8339 171.757 52.8887 172.175 53.3412C172.462 53.6566 172.476 54.0085 172.492 54.2233H171.743C171.707 53.5789 171.16 53.4349 170.648 53.4349C169.927 53.4349 169.496 53.7548 169.496 54.2736C169.496 54.7306 169.799 54.8906 170.432 55.0391C171.67 55.3545 171.808 55.3842 172.108 55.5876C172.591 55.9006 172.627 56.4034 172.627 56.6159C172.627 57.53 171.909 58.2316 170.575 58.2316C170.18 58.2316 169.374 58.163 168.963 57.642C168.743 57.3385 168.636 56.9686 168.66 56.5953H169.408Z" fill="white"/>
</svg>
