<svg width="185" height="90" viewBox="0 0 185 90" fill="none" xmlns="http://www.w3.org/2000/svg">
<path d="M144.754 33.7549C144.754 34.4587 144.475 35.1337 143.978 35.6317C143.48 36.1297 142.806 36.41 142.102 36.411C141.397 36.411 140.722 36.1311 140.224 35.633C139.726 35.1349 139.446 34.4593 139.446 33.7549C139.446 33.0505 139.726 32.3749 140.224 31.8768C140.722 31.3787 141.397 31.0989 142.102 31.0989C142.451 31.0983 142.796 31.1666 143.118 31.2999C143.441 31.4332 143.734 31.6289 143.98 31.8757C144.226 32.1225 144.422 32.4156 144.555 32.7381C144.687 33.0606 144.755 33.4061 144.754 33.7549V33.7549Z" fill="white"/>
<path d="M5.84399 31.4862H9.42307V55.4295H23.6726V58.4488H5.84399V31.4862ZM26.8152 31.4862H44.5067V34.5055H30.3952V43.076H42.7691V46.0954H30.3943V58.4488H26.8143V31.4862H26.8152Z" fill="white"/>
<path d="M51.3267 39.7676H53.8048V56.3563H63.6765V58.4479H51.3137V39.7676H51.3267ZM72.4462 39.3283C78.3774 39.3283 81.38 44.0399 81.38 49.1147C81.38 54.1886 78.3774 58.8993 72.4462 58.8993C66.5151 58.8993 63.5124 54.1886 63.5124 49.1147C63.5124 44.0399 66.5151 39.3283 72.4462 39.3283V39.3283ZM72.4462 56.8067C76.9872 56.8067 78.9019 52.8866 78.9019 49.1147C78.9019 45.3429 77.0002 41.4218 72.4462 41.4218C67.9042 41.4218 65.9896 45.3429 65.9896 49.1138C65.9896 52.8856 67.9042 56.8076 72.4462 56.8076V56.8067ZM98.3727 56.1302C96.9335 58.0976 94.5814 58.8993 92.3915 58.8993C86.8237 58.8993 83.5078 54.3517 83.5078 49.478C83.5078 44.0399 86.4854 39.3293 92.3915 39.3293C96.4701 39.3293 99.7109 41.1586 100.412 45.531H97.9344C97.4339 42.6998 95.169 41.4218 92.3915 41.4218C87.8746 41.4218 85.985 45.3429 85.985 49.3529C85.985 53.2489 88.2369 56.8076 92.3915 56.8076C96.2329 56.8076 98.5349 54.1136 98.3727 50.7059H92.4166V48.6134H100.6V58.4489H99.0353L98.3727 56.1311V56.1302ZM103.715 39.7676H106.193V58.447H103.715V39.7676ZM120.518 45.2428C120.23 42.5738 118.453 41.4218 115.888 41.4218C113.799 41.4218 111.709 42.1855 111.709 44.6163C111.709 46.9221 114.687 47.2603 117.69 47.9368C120.668 48.6134 123.646 49.6652 123.646 53.324C123.646 57.296 119.755 58.8993 116.352 58.8993C112.172 58.8993 108.644 56.8576 108.644 52.3092H110.996C110.996 55.4536 113.611 56.8076 116.439 56.8076C118.692 56.8076 121.169 56.1051 121.169 53.399C121.169 50.831 118.19 50.3927 115.213 49.7412C112.235 49.0897 109.232 48.225 109.232 44.7924C109.232 40.9955 112.597 39.3163 116.001 39.3163C119.818 39.3163 122.72 41.1207 122.87 45.2298H120.518V45.2428V45.2428ZM129.978 41.8593H123.76V39.7676H138.687V41.8593H132.468V58.4479H129.99V41.8593H129.978V41.8593ZM140.85 39.7676H143.327V58.447H140.85V39.7676V39.7676ZM159.982 45.3929C159.457 42.7499 157.342 41.4218 154.752 41.4218C150.31 41.4218 148.433 45.0797 148.433 48.9896C148.433 53.2489 150.31 56.8076 154.79 56.8076C158.055 56.8076 159.932 54.5019 160.17 51.4195H162.647C162.171 56.081 159.282 58.9002 154.577 58.9002C148.772 58.9002 145.956 54.6149 145.956 49.1648C145.956 43.7526 149.034 39.3293 154.79 39.3293C158.681 39.3293 161.896 41.4218 162.472 45.3929H159.982V45.3929ZM175.872 45.2428C175.585 42.5738 173.808 41.4218 171.243 41.4218C169.154 41.4218 167.064 42.1855 167.064 44.6163C167.064 46.9221 170.042 47.2603 173.045 47.9368C176.023 48.6134 179 49.6652 179 53.324C179 57.296 175.11 58.8993 171.706 58.8993C167.527 58.8993 163.999 56.8576 163.999 52.3092H166.351C166.351 55.4536 168.965 56.8076 171.781 56.8076C174.033 56.8076 176.511 56.1051 176.511 53.399C176.511 50.831 173.532 50.3927 170.555 49.7412C167.577 49.0897 164.575 48.225 164.575 44.7924C164.575 40.9955 167.939 39.3163 171.343 39.3163C175.16 39.3163 178.062 41.1207 178.212 45.2298H175.872V45.2428V45.2428Z" fill="white"/>
</svg>
