<svg width="185" height="90" viewBox="0 0 185 90" fill="none" xmlns="http://www.w3.org/2000/svg">
<path d="M141.205 68.063V47.166H145.755V63.883H156.157V67.969H141.205V68.063ZM137.211 43.081H132.848V34.722H124.305V30.359H132.848V22.093H137.211V30.359H145.755V34.722H137.211V43.081ZM137.211 47.166V51.254H125.883V55.525H136.005V59.61H125.883V63.975H137.305V68.062H121.333V47.259H137.211V47.166ZM112.788 54.411L107.123 63.326L101.551 54.503V68.063H97.094V47.166H101.922L107.214 55.988L112.418 47.166H117.341V68.157H112.79L112.788 54.411ZM102.666 29.802V43.081H98.116V22.186H102.388L112.697 35.002V22.186H117.247V43.082H113.347L102.666 29.802ZM79.541 29.802V43.081H74.991V22.186H79.263L89.571 35.002V22.186H94.122V43.082H90.221L79.541 29.802ZM66.354 38.438H57.253L55.396 43.082H50.752L59.761 22H64.032L73.04 43.081H68.304L66.354 38.438ZM61.804 27.664L58.832 34.352H64.682L61.804 27.664ZM55.119 59.61C55.119 61.933 56.604 64.162 59.39 64.162H59.763C62.641 64.162 64.034 61.933 64.034 59.61V47.259H68.585V59.426C68.585 62.398 67.192 68.434 60.133 68.434H58.925C52.982 68.434 50.382 64.069 50.382 59.426V47.259H55.026V59.611H55.119V59.61ZM44.346 29.429L38.403 38.344L32.459 29.521V43.084H28.001V22.188H32.923L38.495 31.01L43.882 22.188H48.804V43.177H44.253V29.431L44.346 29.429ZM32.55 55.525H41.838V47.166H46.388V68.157H41.838V59.703H32.55V68.157H28V47.166H32.55V55.525ZM82.979 55.988L88.086 47.166H93.008V68.157H88.457V54.411L82.792 63.327L77.22 54.504V68.065H72.67V47.168H77.592L82.979 55.988Z" fill="white"/>
</svg>
