<svg width="185" height="90" viewBox="0 0 185 90" fill="none" xmlns="http://www.w3.org/2000/svg">
<path d="M145.595 50.8543C145.595 52.6527 145.391 54.4095 142.972 54.4095C142.15 54.4095 141.576 54.3067 141.162 54.0851C140.757 53.8814 140.502 53.5476 140.36 53.0374C140.26 53.0374 135.781 53.0374 135.618 53.0374C135.937 54.7207 136.774 55.8853 138.175 56.5935C139.313 57.1687 140.781 57.4365 142.799 57.4365C145.803 57.4365 147.912 56.5689 149.069 54.8565C150.044 53.4146 150.156 51.6531 150.156 50.4507C150.156 50.4507 150.156 37.5288 150.156 37.3901C150.022 37.3901 145.754 37.3901 145.621 37.3901C145.621 37.5052 145.621 39.2611 145.621 39.2611C145.621 39.2611 144.562 36.9583 141.508 36.9583C139.533 36.9583 137.876 37.6976 136.71 39.0998C135.632 40.3955 135.039 42.208 135.039 44.2033C135.039 46.3628 135.579 48.1781 136.605 49.4493C137.73 50.8515 139.382 51.5625 141.508 51.5625C143.081 51.5625 144.702 50.7563 145.571 49.405L145.594 49.3729V50.8543H145.595ZM144.962 46.8918C144.436 47.5897 143.636 47.9603 142.656 47.9603C141.712 47.9603 140.946 47.568 140.44 46.8324C140.011 46.2053 139.776 45.334 139.776 44.3769C139.776 43.6451 139.882 42.6012 140.399 41.7761C140.901 40.9707 141.671 40.5624 142.684 40.5624C143.716 40.5624 144.502 40.9679 145.022 41.7676C145.567 42.6031 145.68 43.6621 145.68 44.4042C145.68 45.4094 145.433 46.2695 144.962 46.8918Z" fill="white"/>
<path d="M19.5099 42.6795C19.5099 42.6795 20.9574 42.2249 21.9325 40.553C22.4483 39.676 22.7218 38.617 22.7218 37.492C22.7218 33.2777 19.0525 31.7755 15.6209 31.7755C15.6219 31.7755 5.38841 31.7755 5.25073 31.7755C5.25073 31.9141 5.25073 52.1962 5.25073 52.1962H10.4457V44.7088H14.5601C15.7171 44.7088 16.514 45.1558 16.9949 46.0714C17.4164 46.8749 17.54 47.9424 17.6116 48.9768L17.6409 49.3239C17.6993 50.0688 17.8191 51.6022 18.185 52.1962C18.2623 52.1962 23.0075 52.1962 23.2791 52.1962C22.701 51.3815 22.5746 49.1041 22.5133 47.9791L22.4935 47.6368C22.387 46.4364 22.1409 45.4349 21.7618 44.6588C20.8405 42.8219 19.5504 42.7134 19.5099 42.6795ZM17.5494 38.2134C17.5494 39.8335 16.6403 40.7274 14.9891 40.7274H10.4231V35.9012H14.7609C14.7609 35.9012 17.5494 35.7682 17.5494 38.2134Z" fill="white"/>
<path d="M77.7282 39.4346L77.7489 39.4007C78.5731 37.9862 80.6798 36.9592 82.5299 36.9592C84.6715 36.9592 86.1803 37.6476 87.013 39.0093C87.74 40.1956 87.824 41.6724 87.824 42.6767C87.824 42.6767 87.824 52.0586 87.824 52.1963C87.6891 52.1963 83.0882 52.1963 83.0882 52.1963C83.0882 52.1963 83.0882 44.2864 83.0882 44.1374C83.0882 42.9011 83.1825 40.8501 80.5808 40.8501C78.5825 40.8501 77.8706 42.6106 77.8706 44.1176C77.8706 44.1176 77.8706 52.0577 77.8706 52.1963C77.7376 52.1963 73.2696 52.1963 73.1357 52.1963C73.1357 52.0586 73.1357 37.5288 73.1357 37.3911C73.2696 37.3911 77.5943 37.3911 77.7272 37.3911C77.7282 37.509 77.7282 39.4346 77.7282 39.4346Z" fill="white"/>
<path d="M94.8738 50.4677C94.8738 50.4677 96.2911 52.6291 99.1022 52.6291C101.233 52.6291 102.97 51.7606 104.126 50.116C105.131 48.6873 105.686 46.6778 105.686 44.4627C105.686 42.4522 105.137 40.6049 104.14 39.2582C103.024 37.7542 101.41 36.9592 99.4757 36.9592C96.3769 36.9592 95.102 39.0319 95.102 39.0319V31.7755H90.3672V52.1962H94.8729V50.4677H94.8738ZM97.9546 49.0249C96.8786 49.0249 96.0837 48.6166 95.5886 47.8151C95.1454 47.0927 94.9313 46.0535 94.9313 44.6352C94.9313 41.6327 96.5061 40.5634 97.9819 40.5634C100.171 40.5634 100.95 42.6663 100.95 44.6352C100.951 46.757 100.164 49.0249 97.9546 49.0249Z" fill="white"/>
<path d="M134.404 37.2053C134.404 37.3156 134.404 41.347 134.404 41.5205C133.088 41.1669 131.116 40.9736 129.82 42.3447C129.208 42.9925 128.868 43.8874 128.868 44.8644C128.868 44.8644 128.868 52.0576 128.868 52.1953C128.734 52.1953 124.265 52.1953 124.133 52.1953C124.133 52.0576 124.133 37.5278 124.133 37.3901C124.266 37.3901 128.593 37.3901 128.725 37.3901C128.725 37.5156 128.725 40.0108 128.725 40.0108C129.85 37.1365 132.749 36.9488 134.404 37.2053Z" fill="white"/>
<path d="M179 37.2053C179 37.3156 179 41.347 179 41.5205C177.684 41.1669 175.713 40.9736 174.417 42.3447C173.803 42.9925 173.465 43.8874 173.465 44.8644C173.465 44.8644 173.465 52.0576 173.465 52.1953C173.33 52.1953 168.861 52.1953 168.729 52.1953C168.729 52.0576 168.729 37.5278 168.729 37.3901C168.862 37.3901 173.188 37.3901 173.321 37.3901C173.321 37.5156 173.321 40.0108 173.321 40.0108C174.446 37.1365 177.343 36.9488 179 37.2053Z" fill="white"/>
<path d="M60.6343 45.9178H71.5656C71.5656 45.9178 71.8428 41.596 69.3816 39.1225C68.002 37.7391 66.1245 36.9592 63.8613 36.9592C61.7244 36.9592 59.7309 37.7381 58.2485 39.1527C56.7359 40.5992 55.9014 42.5861 55.9014 44.7494C55.9014 47.1559 56.6727 49.1626 58.1344 50.5526C59.563 51.9096 61.583 52.6291 63.9772 52.6291C65.6794 52.6291 67.2391 52.2359 68.4829 51.4975C69.8503 50.6837 70.7725 49.5031 71.228 47.9895C71.0469 47.9895 66.8421 47.9895 66.7648 47.9895C66.2744 48.8958 65.2333 49.4559 64.0348 49.4559C60.5749 49.4559 60.6343 45.9178 60.6343 45.9178ZM60.6258 43.3236L60.639 43.2425C60.9427 41.3225 62.178 40.1296 63.8622 40.1296C65.4625 40.1296 66.7374 41.4706 66.8289 43.25L66.8336 43.3236H60.6258Z" fill="white"/>
<path d="M111.629 45.9178H122.562C122.562 45.9178 122.839 41.596 120.376 39.1225C118.998 37.7391 117.119 36.9592 114.856 36.9592C112.719 36.9592 110.726 37.7381 109.243 39.1527C107.73 40.5992 106.896 42.5861 106.896 44.7494C106.896 47.1559 107.669 49.1626 109.129 50.5526C110.558 51.9096 112.578 52.6291 114.971 52.6291C116.677 52.6291 118.235 52.2359 119.479 51.4975C120.845 50.6837 121.767 49.5031 122.223 47.9895C122.043 47.9895 117.837 47.9895 117.76 47.9895C117.268 48.8958 116.229 49.4559 115.03 49.4559C111.571 49.4559 111.629 45.9178 111.629 45.9178ZM111.62 43.3236L111.632 43.2425C111.936 41.3225 113.171 40.1296 114.856 40.1296C116.456 40.1296 117.731 41.4706 117.823 43.25L117.827 43.3236H111.62Z" fill="white"/>
<path d="M156.165 45.9178H167.098C167.098 45.9178 167.376 41.596 164.914 39.1225C163.533 37.7391 161.658 36.9592 159.394 36.9592C157.257 36.9592 155.263 37.7381 153.78 39.1527C152.267 40.5992 151.432 42.5861 151.432 44.7494C151.432 47.1559 152.206 49.1626 153.666 50.5526C155.094 51.9096 157.114 52.6291 159.509 52.6291C161.212 52.6291 162.771 52.2359 164.015 51.4975C165.382 50.6837 166.305 49.5031 166.759 47.9895C166.579 47.9895 162.373 47.9895 162.297 47.9895C161.806 48.8958 160.766 49.4559 159.566 49.4559C156.105 49.4559 156.165 45.9178 156.165 45.9178ZM156.157 43.3236L156.169 43.2425C156.474 41.3225 157.708 40.1296 159.394 40.1296C160.993 40.1296 162.268 41.4706 162.359 43.25L162.365 43.3236H156.157Z" fill="white"/>
<path d="M49.8435 41.4441C49.6879 39.8947 47.6096 39.9871 47.6096 39.9871C47.0749 39.9871 45.4454 39.9871 45.4454 41.18C45.4454 42.3776 47.5718 42.7652 49.6295 43.1405C50.1161 43.2311 50.5762 43.314 51.0072 43.4093H51.0081C54.633 44.1363 54.7368 47.0427 54.7368 47.3708C54.7368 49.1739 53.9711 50.5563 52.4585 51.4767C51.2382 52.2188 49.5361 52.629 47.6661 52.629C45.7896 52.629 44.1733 52.2839 42.9917 51.637C41.5649 50.8524 40.7322 49.6265 40.5144 47.9894C40.6681 47.9894 44.9493 47.9894 45.0484 47.9894C45.0484 47.9894 45.3888 49.601 47.6397 49.601C48.7779 49.601 50.0029 49.0824 50.0029 47.947C50.0029 46.838 48.678 46.5419 47.8019 46.3477C47.8019 46.3477 46.6062 46.0723 46.1281 45.9714C44.7938 45.6885 43.416 45.399 42.3976 44.7606C41.2462 44.0402 40.7105 42.9934 40.7105 41.4676C40.7105 39.8768 41.4734 38.6735 42.9747 37.8908C44.5316 37.0808 46.4393 36.9601 47.4389 36.9601C49.2985 36.9601 50.8073 37.2675 51.92 37.8767C53.2874 38.6226 54.0512 39.8278 54.1955 41.4554C54.0484 41.4554 49.9595 41.4554 49.8416 41.4554" fill="white"/>
<path d="M37.4024 39.213C35.9813 37.7589 33.9878 36.9592 31.7915 36.9592C27.2962 36.9592 24.0325 40.2588 24.0325 44.8069C24.0325 49.339 27.2962 52.6282 31.7915 52.6282C36.3057 52.6282 39.5807 49.338 39.5807 44.8069C39.5798 42.6361 38.8074 40.6483 37.4024 39.213ZM31.7915 49.025C30.7344 49.025 29.9319 48.5544 29.4038 47.6293C28.9936 46.9089 28.7682 45.9064 28.7682 44.8078C28.7682 43.7074 28.9936 42.7012 29.4038 41.9722C29.9328 41.0368 30.7363 40.5624 31.7915 40.5624C34.0434 40.5624 34.844 42.7549 34.844 44.8069C34.844 46.8476 34.0425 49.025 31.7915 49.025Z" fill="white"/>
</svg>
