<svg width="185" height="90" viewBox="0 0 185 90" fill="none" xmlns="http://www.w3.org/2000/svg">
<path fill-rule="evenodd" clip-rule="evenodd" d="M178.319 32.6467C176.879 32.6467 175.615 33.7541 175.615 35.2615C175.615 36.7905 176.879 37.9196 178.319 37.9196C179.78 37.9196 181 36.7896 181 35.2615C181 33.7541 179.78 32.6467 178.319 32.6467ZM178.319 37.4763C177.121 37.4763 176.191 36.5462 176.191 35.2605C176.191 34.0201 177.121 33.0891 178.319 33.0891C179.515 33.0891 180.467 34.0201 180.467 35.2605C180.467 36.5462 179.515 37.4763 178.319 37.4763Z" fill="white"/>
<path fill-rule="evenodd" clip-rule="evenodd" d="M179.537 34.6181C179.537 34.0201 179.181 33.7531 178.474 33.7531H177.32V36.7886H177.786V35.4812H178.295L178.318 35.5038L179.092 36.7886H179.624L178.76 35.4595C179.204 35.3935 179.537 35.1501 179.537 34.6181V34.6181ZM177.787 35.0841V34.1531H178.406C178.717 34.1531 179.049 34.2191 179.049 34.5964C179.049 35.0624 178.717 35.0841 178.32 35.0841H177.787V35.0841ZM17.7522 54.1373L12.0143 58.8122C11.837 58.8122 11.6596 58.8339 11.5049 58.8339C6.16505 58.8339 4.52563 56.6624 4.52563 52.0536V38.1186C4.52563 33.5107 6.16505 31.3167 11.5049 31.3167C16.9995 31.3167 18.6389 33.5107 18.6389 38.1186V42.8161H13.1887V37.1433C13.1887 36.2792 12.5454 35.8359 11.6596 35.8359C10.9069 35.8359 10.1079 36.2792 10.1079 37.1433V53.0742C10.1079 53.96 10.9059 54.5363 11.6596 54.5363C12.4133 54.5363 13.1887 54.0713 13.1887 53.0742V47.6457H18.6389V52.0545C18.6389 52.6082 18.3729 53.6506 17.7522 54.1373V54.1373ZM32.8192 32.159H24.3995L19.835 52.5422L28.4763 45.5639L28.632 45.4535L37.3837 52.5432L32.8192 32.159V32.159ZM28.4763 44.4555H26.8369L28.4763 37.0555V37.0772L30.1157 44.4555H28.4763ZM45.4034 58.9904L40.3521 54.9353V37.2546H36.3196V32.159H50.5876V37.2546H46.5778V58.9904H45.4034V58.9904ZM52.161 58.9904H65.3659V54.0052H57.9442V47.6683H64.1698V42.7501H57.9442V37.0772H64.9678V32.159H52.161V58.9904ZM83.423 55.7333V49.22C83.423 46.2072 81.6515 45.3205 80.0998 44.9885V44.8772C81.3403 44.4348 83.423 43.0387 83.423 40.2249V37.0791C83.423 33.9776 80.3432 32.1609 77.7068 32.1609H68.158V58.9923H74.0289V47.2476L75.8457 47.2259H75.9117C76.8201 47.2042 77.7954 48.3333 77.7954 49.153V55.6229C77.7954 56.9747 77.9511 58.0821 78.3491 58.9904H83.9541C83.5569 58.0821 83.423 56.9737 83.423 55.7333V55.7333ZM77.6407 41.1324C77.6407 42.1737 76.7097 42.7944 75.8457 42.8831C75.7796 42.9048 75.691 42.9048 75.624 42.9048H74.0289V36.5679L75.8457 36.6122H75.957C77.0427 36.6339 77.6407 37.3215 77.6407 38.4733V41.1324V41.1324ZM174.174 55.7333V49.22C174.174 46.2072 172.425 45.3205 170.853 44.9885V44.8772C172.093 44.4348 174.174 43.0387 174.174 40.2249V37.0791C174.174 33.9776 171.118 32.1609 168.459 32.1609H158.91V58.9923H164.802V47.2476L166.596 47.2259H166.664C167.594 47.2042 168.57 48.3333 168.57 49.153V55.6229C168.57 56.9747 168.703 58.0821 169.102 58.9904H174.706C174.308 58.0821 174.174 56.9737 174.174 55.7333V55.7333ZM168.415 41.1324C168.415 42.1737 167.485 42.7944 166.596 42.8831C166.53 42.9048 166.463 42.9048 166.397 42.9048H164.802V36.5679L166.596 36.6122H166.708C167.816 36.6339 168.415 37.3215 168.415 38.4733V41.1324V41.1324ZM96.3628 32.159H86.4141V58.9904H92.2407V48.1777H95.2535C100.239 48.1777 101.547 45.6516 101.547 39.892C101.547 36.3905 100.75 32.159 96.3628 32.159ZM93.9924 43.6368C93.7934 43.6585 93.5943 43.6585 93.3491 43.6585H92.2417V36.7678H93.2161C93.5038 36.7678 93.7707 36.7895 93.9924 36.8122C96.0742 37.0555 95.7648 38.3846 95.7648 40.2466C95.7648 41.9964 96.0959 43.4141 93.9924 43.6368V43.6368ZM103.474 58.9904H109.236V32.159H103.474V58.9904ZM112.648 58.9904H124.877V53.9609H118.585V32.159H112.648V58.9904ZM126.406 58.9904H138.615V53.9609H132.321V32.159H126.406V58.9904V58.9904ZM152.195 32.159H144.264L139.701 58.9904H145.573L146.216 54.1373H150.58L151.155 58.9904H157.294L152.195 32.159V32.159ZM148.275 49.3304H146.768L148.275 37.3659L148.319 37.0772L149.782 49.3294H148.275V49.3304V49.3304Z" fill="white"/>
<path fill-rule="evenodd" clip-rule="evenodd" d="M28.6537 47.6467L14.5847 58.9905H42.7226L28.6537 47.6467Z" fill="white"/>
</svg>
