<svg width="66" height="67" viewBox="0 0 66 67" fill="none" xmlns="http://www.w3.org/2000/svg">
<path d="M47.1749 37.6278L43.8984 35.2377" stroke="#636466" stroke-width="1.5" stroke-miterlimit="10" stroke-linecap="round" stroke-linejoin="round"/>
<path d="M42.7917 40.9678L39.8789 38.8447" stroke="#636466" stroke-width="1.5" stroke-miterlimit="10" stroke-linecap="round" stroke-linejoin="round"/>
<path d="M37.9723 44.0095L35.8965 42.4886" stroke="#636466" stroke-width="1.5" stroke-miterlimit="10" stroke-linecap="round" stroke-linejoin="round"/>
<path d="M16.0883 39.0137C15.0632 38.1908 14.9368 36.7371 15.806 35.7666L18.0814 33.238C18.9506 32.2675 20.4863 32.1478 21.5113 32.9707C22.5364 33.7935 22.6628 35.2473 21.7936 36.2178L19.5182 38.7465C18.6489 39.7169 17.1134 39.8366 16.0883 39.0137Z" stroke="#636466" stroke-width="1.5" stroke-miterlimit="10" stroke-linecap="round" stroke-linejoin="round"/>
<path d="M19.8011 41.9936C18.776 41.1707 18.6497 39.7169 19.5188 38.7464L21.7944 36.2179C22.6635 35.2474 24.1991 35.1277 25.2242 35.9506C26.2493 36.7734 26.3756 38.2273 25.5065 39.1976L23.231 41.7263C22.3618 42.6968 20.8262 42.8165 19.8011 41.9936Z" stroke="#636466" stroke-width="1.5" stroke-miterlimit="10" stroke-linecap="round" stroke-linejoin="round"/>
<path d="M23.5141 44.9734C22.489 44.1505 22.3626 42.6968 23.2318 41.7263L25.5073 39.1976C26.3764 38.2272 27.9121 38.1075 28.9372 38.9305C29.9622 39.7533 30.0886 41.207 29.2194 42.1775L26.9439 44.7062C26.0747 45.6767 24.5392 45.7963 23.5141 44.9734Z" stroke="#636466" stroke-width="1.5" stroke-miterlimit="10" stroke-linecap="round" stroke-linejoin="round"/>
<path d="M27.225 47.9533C26.1999 47.1304 26.0735 45.6766 26.9427 44.7061L29.2181 42.1776C30.0873 41.2071 31.623 41.0874 32.648 41.9103C33.6731 42.7331 33.7995 44.1869 32.9303 45.1573L30.6549 47.686C29.7857 48.6565 28.2501 48.7762 27.225 47.9533Z" stroke="#636466" stroke-width="1.5" stroke-miterlimit="10" stroke-linecap="round" stroke-linejoin="round"/>
<path d="M51.2584 33.9836L50.0345 33.1286L44.2782 29.1066L43.6186 28.6676C38.1843 29.5415 34.5411 26.7226 33.0581 25.2565C32.6219 24.8252 31.9019 24.8088 31.4327 25.2078C26.337 29.5405 23.3862 28.43 21.9535 27.1411C21.2646 26.5214 21.3831 25.4532 22.183 24.9672C24.9219 23.3029 27.4795 21.1963 29.3069 19.5546L28.9815 19.4392C27.8247 19.0288 26.609 18.7867 25.3757 18.7211L22.0058 18.5419C21.5644 18.5184 21.1217 18.5132 20.6806 18.54C19.8851 18.5885 19.0865 18.4625 18.3476 18.1698L15.9077 17.2033L9.92383 31.5631L14.6545 34.3877L16.1516 35.3839L18.0829 33.238C18.952 32.2674 20.4875 32.1478 21.5126 32.9706C22.5377 33.7935 22.6641 35.2473 21.7949 36.2178C22.6641 35.2473 24.1997 35.1276 25.2248 35.9505C26.2499 36.7734 26.3763 38.2272 25.5071 39.1977C26.3763 38.2272 27.9119 38.1075 28.9369 38.9304C29.962 39.7532 30.0885 41.2071 29.2192 42.1774C30.0885 41.2071 31.624 41.0874 32.6491 41.9102C33.6742 42.7331 33.8006 44.187 32.9314 45.1573L32.0084 46.183L34.0401 47.6026C35.1684 48.3909 36.7585 48.3004 37.7272 47.3407C38.6702 46.4067 38.7264 45.0007 37.9726 44.0095L38.9913 44.7212C40.1531 45.533 41.7986 45.4084 42.7535 44.3832C43.6786 43.3901 43.6551 41.933 42.7913 40.9677L43.3636 41.3674C44.4715 42.1414 46.0285 42.0712 47.0032 41.1506C48.0393 40.1719 48.0668 38.6385 47.1757 37.6278L48.0349 38.2282C49.236 39.0673 50.9273 38.8519 51.8503 37.7338C52.8139 36.5665 52.5176 34.8634 51.2584 33.9836Z" stroke="#636466" stroke-width="1.5" stroke-miterlimit="10" stroke-linecap="round" stroke-linejoin="round"/>
<path d="M37.4873 17.7245L33.9932 17.2002C32.8112 17.0228 31.6099 17.3933 30.7686 18.199C29.0348 19.8595 25.7629 22.7916 22.1827 24.9672C21.3828 25.4533 21.2641 26.5213 21.9531 27.1411C23.3857 28.4299 26.3366 29.5404 31.4323 25.2077C31.9016 24.8087 32.6214 24.8251 33.0577 25.2564C34.5432 26.7249 38.1954 29.5511 43.6441 28.6639L51.8363 34.3877L56.9565 31.2741L51.1095 17.2425L47.5556 18.4845C46.57 18.8289 45.5075 18.9279 44.4699 18.7724L41.7558 18.3651" stroke="#636466" stroke-width="1.5" stroke-miterlimit="10" stroke-linecap="round" stroke-linejoin="round"/>
<path d="M60.0654 19.8981L57.6388 14.0749C57.4445 13.6086 56.8875 13.3796 56.3949 13.5636L51.3866 15.4341C50.8939 15.6182 50.6521 16.1455 50.8464 16.6118L57.1405 31.7161C57.3348 32.1825 57.8919 32.4114 58.3844 32.2275L63.3927 30.3569C63.8855 30.1729 64.1273 29.6457 63.9328 29.1792L61.6438 23.686" stroke="#2BB04C" stroke-width="1.5" stroke-miterlimit="10" stroke-linecap="round" stroke-linejoin="round"/>
<path d="M3.06713 29.1792L9.36118 14.075C9.55548 13.6086 10.1125 13.3795 10.6051 13.5636L15.6134 15.4342C16.106 15.6181 16.348 16.1454 16.1535 16.6118L9.85949 31.7161C9.6652 32.1825 9.10822 32.4115 8.61556 32.2274L3.6073 30.357C3.11463 30.1729 2.87284 29.6456 3.06713 29.1792Z" stroke="#F47920" stroke-width="1.5" stroke-miterlimit="10" stroke-linecap="round" stroke-linejoin="round"/>
</svg>
