<svg width="42" height="44" viewBox="0 0 42 44" fill="none" xmlns="http://www.w3.org/2000/svg">
<path d="M0.0741727 0.0120363C0.202572 0.0120363 0.330971 -0.000244141 0.45937 -0.000244141C13.9413 -0.000244141 27.4232 -0.000244141 40.9051 -0.000244141C41.2436 -0.000244141 41.3137 0.0857187 41.3137 0.42957C41.3137 14.6257 41.3137 28.8219 41.3137 43.0057C41.3137 43.3373 41.267 43.4478 40.9168 43.4478C28.1002 43.4478 15.272 43.4478 2.4554 43.4478H2.05852C2.17525 43.3127 2.24529 43.2268 2.327 43.1531C8.70027 36.448 15.0735 29.7552 21.4351 23.0378C21.6686 22.7922 21.762 22.8413 21.9721 23.0501C23.7113 24.9044 25.4739 26.7465 27.2248 28.5885C27.3182 28.6868 27.3882 28.7973 27.4582 28.8955C27.5983 28.7727 27.5516 28.6622 27.5516 28.5763C27.5516 23.9957 27.5516 19.4151 27.5516 14.8345C27.5516 14.6134 27.5516 14.4906 27.2715 14.4906C22.8359 14.4906 18.4002 14.4906 13.9646 14.4906C13.9296 14.4906 13.8946 14.4906 13.8596 14.4906C13.8012 14.4292 13.7312 14.3801 13.6728 14.3187C9.17885 9.61531 4.70822 4.91192 0.225917 0.208523C0.167554 0.147121 0.120863 0.0857187 0.0625 0.0120363H0.0741727Z" fill="#2BB04C"/>
<path d="M0.0729542 0.0126953C0.131318 0.0740973 0.178008 0.14778 0.236372 0.209182C4.707 4.91258 9.18931 9.62825 13.6599 14.3316C13.7183 14.3931 13.7767 14.4422 13.8467 14.5036C13.9284 14.6018 14.0101 14.7001 14.1035 14.7983C15.8777 16.6649 17.652 18.5438 19.4379 20.3982C19.5897 20.5578 19.6597 20.6438 19.4613 20.8525C13.0296 27.5945 6.60965 34.3487 0.189681 41.1029C0.154663 41.1398 0.107972 41.1889 0.0612815 41.2257C-0.0320998 41.1275 0.0145908 41.017 0.0145908 40.9187C0.0145908 27.398 0.0145908 13.8773 0.0145908 0.356547C0.0145908 0.246023 -0.0437725 0.110939 0.0729542 0.0249757V0.0126953Z" fill="#F47922"/>
</svg>
