<svg width="24" height="25" viewBox="0 0 24 25" fill="none" xmlns="http://www.w3.org/2000/svg">
<path d="M9.00002 5.24997C9.41423 5.24997 9.75002 4.91418 9.75002 4.49997C9.75002 4.08576 9.41423 3.74997 9.00002 3.74997V5.24997ZM4.00004 4.49997V3.74997C3.58582 3.74997 3.25004 4.08575 3.25004 4.49996L4.00004 4.49997ZM3.25 9.49998C3.25 9.9142 3.58578 10.25 3.99999 10.25C4.41421 10.25 4.75 9.91421 4.75 9.49999L3.25 9.49998ZM19.25 9.49999C19.25 9.9142 19.5858 10.25 20 10.25C20.4142 10.25 20.75 9.9142 20.75 9.49999H19.25ZM20 4.5H20.75C20.75 4.08579 20.4142 3.75001 20 3.75L20 4.5ZM15 3.74997C14.5858 3.74997 14.25 4.08575 14.25 4.49996C14.25 4.91418 14.5858 5.24997 15 5.24997L15 3.74997ZM15 19.75C14.5858 19.75 14.25 20.0858 14.25 20.5C14.25 20.9142 14.5858 21.25 15 21.25V19.75ZM20 20.5V21.25C20.4142 21.25 20.75 20.9142 20.75 20.5L20 20.5ZM20.75 15.5C20.75 15.0858 20.4142 14.75 20 14.75C19.5858 14.75 19.25 15.0858 19.25 15.5L20.75 15.5ZM4.75 15.5C4.75 15.0858 4.41421 14.75 4 14.75C3.58579 14.75 3.25 15.0858 3.25 15.5H4.75ZM4 20.5H3.25C3.25 20.9142 3.58578 21.25 3.99999 21.25L4 20.5ZM9.00001 21.25C9.41423 21.25 9.75002 20.9142 9.75002 20.5C9.75002 20.0858 9.41424 19.75 9.00002 19.75L9.00001 21.25ZM9.00002 3.74997H4.00004V5.24997H9.00002V3.74997ZM3.25004 4.49996L3.25 9.49998L4.75 9.49999L4.75004 4.49997L3.25004 4.49996ZM20.75 9.49999V4.5H19.25V9.49999H20.75ZM20 3.75L15 3.74997L15 5.24997L20 5.25L20 3.75ZM15 21.25H20V19.75H15V21.25ZM20.75 20.5L20.75 15.5L19.25 15.5L19.25 20.5L20.75 20.5ZM3.25 15.5L3.25 20.5H4.75L4.75 15.5H3.25ZM3.99999 21.25L9.00001 21.25L9.00002 19.75L4.00001 19.75L3.99999 21.25Z" fill="#DDDDDD"/>
</svg>
