<svg width="66" height="66" viewBox="0 0 66 66" fill="none" xmlns="http://www.w3.org/2000/svg">
<path d="M46.1797 17.9375V10.4062C46.1797 8.3266 44.4936 6.64062 42.4141 6.64062C37.4038 6.64062 28.5961 6.64062 23.5859 6.64062C21.5063 6.64062 19.8203 8.3266 19.8203 10.4062C19.8203 13.692 19.8203 17.9375 19.8203 17.9375" stroke="#2BB04C" stroke-width="1.5" stroke-miterlimit="10" stroke-linecap="round" stroke-linejoin="round"/>
<path d="M61.2422 21.7031C61.2422 20.7044 60.8459 19.7466 60.1389 19.0405C59.4328 18.3343 58.4754 17.9375 57.4766 17.9375C47.2068 17.9375 18.7932 17.9375 8.52352 17.9375C7.52473 17.9375 6.5673 18.3343 5.86125 19.0405C5.15414 19.7466 4.75781 20.7044 4.75781 21.7031C4.75781 29.58 4.75781 47.7168 4.75781 55.5937C4.75781 56.5925 5.15414 57.5503 5.86113 58.2564C6.56719 58.9626 7.52461 59.3593 8.5234 59.3593C18.7932 59.3593 47.2068 59.3593 57.4765 59.3593C58.4753 59.3593 59.4327 58.9626 60.1388 58.2564C60.8457 57.5502 61.2421 56.5924 61.2421 55.5937C61.2422 47.7168 61.2422 29.58 61.2422 21.7031Z" stroke="#636466" stroke-width="1.5" stroke-miterlimit="10" stroke-linecap="round" stroke-linejoin="round"/>
<path d="M33 31.1172V46.1798" stroke="#F47920" stroke-width="1.5" stroke-miterlimit="10" stroke-linecap="round" stroke-linejoin="round"/>
<path d="M25.4688 38.6484H40.5313" stroke="#F47920" stroke-width="1.5" stroke-miterlimit="10" stroke-linecap="round" stroke-linejoin="round"/>
</svg>
