<svg width="28" height="29" viewBox="0 0 28 29" fill="none" xmlns="http://www.w3.org/2000/svg">
<rect y="0.744507" width="27.3913" height="27.7555" rx="13.6957" fill="#D56515"/>
<path d="M13.6953 23.6223L13.386 24.3056C13.5826 24.3946 13.808 24.3946 14.0046 24.3056L13.6953 23.6223ZM15.9453 13.6223C15.9453 14.865 14.938 15.8723 13.6953 15.8723V17.3723C15.7664 17.3723 17.4453 15.6934 17.4453 13.6223H15.9453ZM13.6953 15.8723C12.4527 15.8723 11.4453 14.865 11.4453 13.6223H9.94531C9.94531 15.6934 11.6242 17.3723 13.6953 17.3723V15.8723ZM11.4453 13.6223C11.4453 12.3797 12.4527 11.3723 13.6953 11.3723V9.87231C11.6242 9.87231 9.94531 11.5512 9.94531 13.6223H11.4453ZM13.6953 11.3723C14.938 11.3723 15.9453 12.3797 15.9453 13.6223H17.4453C17.4453 11.5512 15.7664 9.87231 13.6953 9.87231V11.3723ZM20.9453 13.6223C20.9453 17.6043 17.6949 20.9886 13.386 22.9391L14.0046 24.3056C18.5323 22.256 22.4453 18.4768 22.4453 13.6223H20.9453ZM14.0046 22.9391C9.69576 20.9886 6.44531 17.6043 6.44531 13.6223H4.94531C4.94531 18.4768 8.85831 22.256 13.386 24.3056L14.0046 22.9391ZM6.44531 13.6223C6.44531 9.61825 9.69125 6.37231 13.6953 6.37231V4.87231C8.86282 4.87231 4.94531 8.78982 4.94531 13.6223H6.44531ZM13.6953 6.37231C17.6994 6.37231 20.9453 9.61825 20.9453 13.6223H22.4453C22.4453 8.78982 18.5278 4.87231 13.6953 4.87231V6.37231Z" fill="white"/>
</svg>
