<svg width="158" height="52" viewBox="0 0 158 52" fill="none" xmlns="http://www.w3.org/2000/svg">
<path d="M148.13 21.5913C150.485 20.7946 153.105 20.281 155.533 21.0672C156.927 21.5409 157.684 23.0189 157.663 24.4213C157.688 27.3101 157.728 30.201 157.615 33.0898H155.113C155.014 32.6307 154.919 32.1758 154.821 31.7209C153.256 32.9556 151.183 33.834 149.196 33.094C146.928 32.2009 146.654 28.8111 148.355 27.2535C150.067 25.6645 152.544 25.654 154.703 25.1572C154.564 24.4297 154.457 23.4906 153.589 23.2704C151.86 22.7568 150.1 23.5367 148.45 24.0021C148.307 23.2013 148.202 22.3921 148.122 21.5808L148.13 21.5913ZM150.887 28.2744C150.075 28.9159 150.046 30.484 151.097 30.9012C152.371 31.3813 153.605 30.5134 154.615 29.83C154.615 28.8908 154.615 27.9537 154.615 27.0145C153.324 27.2514 151.909 27.3856 150.895 28.2849L150.887 28.2744Z" fill="white"/>
<path d="M82.9004 15.8153C84.3028 15.7251 85.7094 15.7209 87.116 15.7524C88.7812 19.9661 89.8493 24.4062 91.6449 28.5612C93.1272 24.3118 94.4938 20.0248 95.9572 15.7733C97.3589 15.723 98.7606 15.723 100.162 15.7733C100.568 21.5488 101.165 27.3159 101.424 33.0956C100.343 33.0956 99.2624 33.0956 98.1838 33.0956C97.8012 28.9699 97.633 24.8275 97.2167 20.7061C95.5514 24.7563 94.3866 28.9993 92.8707 33.1061C91.8593 33.1459 90.8438 33.1396 89.8325 33.0914C88.3712 28.9846 87.198 24.7625 85.4697 20.7564C85.1165 24.8653 84.9525 28.9909 84.5677 33.0956C83.6005 33.0956 82.6333 33.0956 81.6641 33.0956C81.9038 27.3201 82.5093 21.5719 82.9004 15.8153Z" fill="white"/>
<path d="M130.943 17.1192C131.921 16.923 132.908 16.783 133.902 16.7C133.935 18.094 133.94 19.4902 133.925 20.8927C134.739 20.9136 135.556 20.9535 136.379 20.9681C136.536 21.7669 136.675 22.5635 136.799 23.3685C135.849 23.4146 134.907 23.4523 133.956 23.4712C133.98 25.5822 133.816 27.71 134.034 29.8106C134.337 30.8378 135.678 30.5506 136.492 30.7351C136.656 31.5401 136.765 32.3598 136.858 33.1795C135.308 33.3367 133.574 33.5463 132.197 32.6617C131.286 32.0684 130.998 30.9363 130.954 29.9154C130.838 27.7792 130.983 25.6367 130.893 23.4985C130.327 23.4418 129.764 23.3873 129.211 23.3286C129.228 22.5572 129.251 21.7836 129.28 21.0122L130.922 20.8591C130.893 19.6034 130.912 18.3603 130.943 17.1192Z" fill="white"/>
<path d="M103.242 21.2012C104.283 21.0018 105.337 20.8764 106.396 20.8259C107.351 23.612 108.198 26.4358 109.173 29.2114C110.181 26.5113 110.959 23.7441 111.846 20.9936C112.853 20.9328 113.862 20.9035 114.874 20.9203C113.742 24.6141 112.266 28.1946 111.017 31.8507C110.359 33.5278 109.939 35.4481 108.562 36.7226C107.433 37.7499 105.793 37.7981 104.369 37.5423C104.235 36.7373 104.098 35.9323 103.972 35.1315C104.674 35.1588 105.377 35.1294 106.074 35.0435C107.02 34.7227 107.838 33.5865 107.42 32.5928C106.06 28.7753 104.556 25.0249 103.242 21.2012Z" fill="white"/>
<path d="M116.839 20.9202C117.68 20.9202 118.538 20.939 119.388 20.9579C119.501 21.4862 119.615 22.0061 119.732 22.5386C121.036 21.4631 122.602 20.4296 124.39 20.7126C125.941 20.7797 127.175 22.1801 127.205 23.6916C127.285 26.8172 127.238 29.9492 127.224 33.077C126.254 33.0958 125.287 33.1063 124.322 33.1168C124.049 30.2804 124.377 27.421 124.169 24.5846C124.034 23.4148 122.581 23.1172 121.671 23.5867C120.897 23.9725 119.852 24.5091 119.901 25.5175C119.842 28.0331 119.93 30.5613 119.888 33.0812C118.866 33.0993 117.844 33.0958 116.82 33.0707C116.843 29.0205 116.825 24.9703 116.839 20.9202Z" fill="white"/>
<path d="M139.118 20.9197C139.981 20.9197 140.847 20.9239 141.714 20.9322C141.824 21.6394 141.937 22.3466 142.053 23.0538C143.132 21.9448 144.307 20.7792 145.951 20.6555C146.208 21.625 146.358 22.6198 146.397 23.6219C144.786 23.9824 142.944 24.6575 142.221 26.2549C142.076 28.5274 142.246 30.8124 142.16 33.0869C141.141 33.1009 140.124 33.0953 139.109 33.0702C139.128 29.02 139.118 24.9698 139.118 20.9197Z" fill="white"/>
<path d="M15.6772 4.58076C17.149 2.82191 18.7554 0.930996 21.0156 0.205655C23.566 -0.467278 25.7169 1.53684 27.3233 3.2328C31.5158 8.01041 34.5582 13.6601 37.3966 19.3077C38.942 15.876 40.8406 12.5993 42.8317 9.40868C44.724 6.52409 46.6857 3.5787 49.4022 1.38591C50.6637 0.421581 52.4194 -0.500821 53.9858 0.312568C56.2103 1.48863 57.8986 3.42986 59.4713 5.34384C62.8207 9.63719 65.4447 14.4399 67.8143 19.3203C70.7768 25.6094 73.3377 32.171 74.4226 39.0617C74.7443 42.2524 75.0323 45.8393 73.0959 48.6148C71.6052 50.7888 68.7604 51.5497 66.2521 51.1158C64.0622 50.3292 62.1416 48.9384 60.7139 47.1055C57.3162 42.9127 55.2936 37.8353 53.4118 32.8334C53.1321 31.9571 52.802 31.0976 52.4993 30.2276C52.3015 31.1144 52.0579 31.9905 51.7697 32.8523C49.8521 37.9297 47.8064 43.0972 44.2993 47.3172C42.8966 49.0463 41.045 50.3587 38.9462 51.1116C35.9164 51.7405 32.9918 50.1619 31.0343 47.9545C27.2097 43.7953 25.0799 38.4391 23.1224 33.2275C22.7418 32.1563 22.3592 31.083 22.0879 29.9803C21.7831 31.0976 21.3941 32.194 20.9925 33.2779C19.2327 38.089 17.2079 42.9211 14.0057 46.9608C12.2711 49.0404 9.98772 51.076 7.14297 51.2185C4.52108 51.4428 1.96648 49.7511 0.969867 47.3612C-0.46828 44.0532 -0.0519738 40.3049 0.591408 36.8605C1.94966 30.2591 4.48954 23.9532 7.45835 17.9199C9.8027 13.2618 12.4057 8.67286 15.6772 4.58076ZM17.17 6.03354C13.93 10.1592 11.3544 14.7544 9.04157 19.4419C6.15266 25.4983 3.5518 31.8104 2.44586 38.4517C2.07859 40.3023 2.00763 42.1993 2.2356 44.072C2.45848 45.8267 3.15652 47.7197 4.7818 48.6316C6.33138 49.5372 8.32881 49.1725 9.74593 48.1746C12.269 46.4158 13.951 43.7282 15.4039 41.0742C18.5073 35.1415 20.5531 28.7057 22.0984 22.2216C23.7342 28.8734 25.8052 35.4916 29.0747 41.5438C30.372 43.7827 31.7492 46.1076 33.8769 47.6547C34.945 48.6127 36.3643 49.2899 37.8297 49.1222C39.4655 48.9544 40.8469 47.9167 41.9823 46.8015C43.9482 44.789 45.3758 42.3257 46.631 39.8311C49.316 34.3365 51.1768 28.4772 52.6296 22.5487C54.4378 29.7224 56.6875 36.9108 60.5478 43.2733C61.9986 45.4975 63.7017 47.8098 66.2542 48.8454C68.0497 49.5729 70.3079 48.9356 71.3381 47.2648C72.5787 45.2795 72.6754 42.8037 72.4882 40.5355C72.2359 36.8563 71.1552 33.303 69.9778 29.8314C67.6304 23.1143 64.5402 16.6787 60.7644 10.6434C59.0172 7.9559 57.2069 5.2474 54.77 3.12798C53.908 2.37329 52.6296 1.64586 51.5342 2.40264C49.4316 3.67723 47.9725 5.72328 46.5196 7.65403C42.9644 12.7603 39.9667 18.2307 37.5774 23.9721C37.5059 24.0602 37.3546 24.2279 37.2831 24.3159C37.0899 23.6665 36.8553 23.03 36.5808 22.4103C34.104 17.0646 31.3392 11.8132 27.8405 7.05656C26.6378 5.49058 25.4079 3.88896 23.7868 2.72968C23.095 2.23913 22.1762 1.80937 21.3457 2.23074C19.5985 3.02945 18.3727 4.59543 17.17 6.03354Z" fill="#FEFEFE"/>
<path d="M17.1674 6.03433C18.3701 4.59623 19.5958 3.03025 21.3494 2.23154C22.1904 1.81227 23.0987 2.23154 23.7904 2.73047C25.4115 3.88976 26.6415 5.49138 27.8442 7.05736C31.3428 11.814 34.1077 17.0654 36.5845 22.4111C36.859 23.0308 37.0935 23.6673 37.2867 24.3167C34.0593 18.8431 31.1157 13.162 27.0725 8.23132C25.893 6.85192 24.663 5.38028 22.9536 4.64445C21.9822 4.22518 20.9919 4.77442 20.1951 5.30271C17.2914 7.72191 15.1637 10.8895 13.1347 14.0362C8.3953 21.611 4.79397 29.8371 2.44531 38.4525C3.55126 31.807 6.15212 25.4991 9.04102 19.4427C11.3517 14.7552 13.9274 10.16 17.1674 6.03433Z" fill="#E0E0E0"/>
<path d="M51.5427 2.40345C52.6381 1.64666 53.9165 2.3741 54.7785 3.12879C57.2154 5.24821 59.0257 7.95042 60.7729 10.6442C64.5505 16.6806 67.6421 23.1177 69.9905 29.8364C71.1679 33.308 72.2486 36.8613 72.5009 40.5405C72.0916 37.9823 71.4418 35.4682 70.5603 33.0313C68.3121 26.3357 65.2706 19.9314 61.5004 13.9544C59.8625 11.3905 58.1216 8.86863 56.0106 6.66954C55.1591 5.831 54.2592 4.95891 53.1028 4.57318C52.1966 4.29646 51.3745 4.92537 50.647 5.3698C48.7021 6.89595 47.1778 8.87073 45.7354 10.8539C43.1838 14.4878 40.8717 18.2832 38.8138 22.2162C38.4738 22.8444 38.0617 23.4311 37.5859 23.9645C39.9752 18.2231 42.9729 12.7527 46.5281 7.64645C47.981 5.7157 49.4464 3.67804 51.5427 2.40345Z" fill="#E0E0E0"/>
<path d="M20.1912 5.29574C20.988 4.76746 21.9783 4.22659 22.9497 4.63748C24.6591 5.3733 25.8933 6.84495 27.0686 8.22436C31.1118 13.1613 34.0554 18.8424 37.2828 24.316C35.2623 30.0286 32.8674 35.7873 32.7266 41.9255C32.6257 43.9023 33.1471 45.8331 33.8809 47.6506C31.7531 46.1035 30.3759 43.7787 29.0786 41.5397C25.8092 35.4875 23.7382 28.8693 22.1024 22.2176C20.9123 16.6664 19.819 10.9999 20.1912 5.29574Z" fill="#D3D3D3"/>
<path d="M50.6487 5.37753C51.3762 4.9331 52.1983 4.30418 53.1045 4.5809C54.2609 4.95615 55.1608 5.83872 56.0123 6.67727C58.1149 8.87635 59.8642 11.3983 61.5021 13.9621C65.2723 19.9392 68.3138 26.3434 70.562 33.039C71.4435 35.4759 72.0933 37.99 72.5026 40.5482C72.6898 42.8164 72.593 45.2923 71.3525 47.2775C70.3223 48.9546 68.0641 49.5835 66.2686 48.8582C63.7182 47.8226 62.013 45.504 60.5622 43.286C56.7019 36.9236 54.4522 29.7351 52.644 22.5614C51.4119 16.9222 50.2807 11.1656 50.6487 5.37753Z" fill="white"/>
<path d="M13.139 14.0271C15.1679 10.8826 17.2957 7.7129 20.1993 5.2937C19.8272 11 20.9205 16.6665 22.1106 22.2218C20.5652 28.7205 18.5194 35.1417 15.416 41.0744C13.9611 43.7284 12.2895 46.4159 9.75805 48.1748C8.34093 49.1726 6.3435 49.5374 4.79392 48.6318C3.16865 47.7199 2.48111 45.8269 2.24773 44.0722C2.01975 42.1994 2.09072 40.3025 2.45798 38.4519C4.80324 29.834 8.40175 21.6051 13.139 14.0271V14.0271Z" fill="white"/>
<path d="M45.7325 10.8615C47.1749 8.87836 48.6992 6.90359 50.6441 5.37744C50.2761 11.1676 51.4073 16.9221 52.6394 22.5529C51.1865 28.4814 49.3258 34.3408 46.6408 39.8353C45.3793 42.33 43.958 44.7932 41.9921 46.8057C40.8567 47.921 39.469 48.9587 37.8395 49.1264C36.3677 49.2899 34.9548 48.6128 33.8867 47.659C33.1614 45.8414 32.6252 43.9107 32.7324 41.9338C32.8754 35.7915 35.2681 30.0327 37.2887 24.3244C37.3602 24.2363 37.5115 24.0686 37.583 23.9806C38.0588 23.4471 38.4708 22.8604 38.8109 22.2322C40.8685 18.2964 43.1806 14.4981 45.7325 10.8615V10.8615Z" fill="white"/>
</svg>
