<svg width="185" height="90" viewBox="0 0 185 90" fill="none" xmlns="http://www.w3.org/2000/svg">
<path d="M156 36.4927C156 41.7665 153.685 46.2685 149.568 50.7062C139.214 61.7683 117.411 67.1064 92.1999 67.1064C66.667 67.1064 44.6715 62.0255 34.4455 50.7062C30.5866 46.3971 28.3999 41.5735 28.3999 36.4927C28.3999 31.4118 30.5866 26.2023 34.4455 21.8933C44.6715 10.5739 66.667 5.10718 92.1999 5.10718C117.411 5.10718 139.214 10.8312 149.568 21.8933C153.685 26.331 156 31.2832 156 36.4927Z" fill="white"/>
<path d="M115.096 47.1047H127.894V42.7313H119.662V37.8434H127.508V33.7273H119.662V29.4825H127.766V25.1091H115.096V47.1047Z" fill="#F47920"/>
<path d="M70.2683 29.4825H74.5774V47.1047H79.1437V29.4825H83.4528V25.1091H70.2683V29.4825Z" fill="#F47920"/>
<path d="M91.5566 25.1091H86.9902V47.1047H91.5566V25.1091Z" fill="#F47920"/>
<path d="M112.266 25.1091H106.992L101.718 32.6982L101.332 33.5343V25.1091H96.7659V47.1047H101.332V38.165L101.718 38.8724L106.992 47.1047H112.459L104.805 35.914L112.266 25.1091Z" fill="#F47920"/>
<path d="M141.207 38.2293L142.301 37.972C144.873 37.1359 146.546 34.692 146.546 32.0551C146.546 29.2253 144.809 25.1091 138.892 25.1091H131.882V47.1047H136.448V38.2936L136.898 39.1297L142.172 47.1047H147.639L141.593 38.7438L141.207 38.2293ZM136.448 35.0779V29.2896H138.892C141.015 29.2896 142.044 30.6402 142.044 32.1194C142.044 33.5343 141.143 34.8849 138.892 35.0779H136.448Z" fill="#F47920"/>
<path d="M59.1421 42.7313V37.9077H66.9242V33.7272H59.1421V29.5468H67.2458V25.1734H54.5758V27.9389C52.5177 25.8809 50.1381 24.9805 47.4369 24.9805C44.2855 24.9805 41.6486 26.0738 39.3976 28.2605C37.1466 30.4472 36.0532 33.0841 36.0532 36.1069C36.0532 39.5799 37.2752 42.4097 39.7192 44.5321C41.9702 46.4615 44.4784 47.4262 47.2439 47.4262C50.0095 47.4262 52.7107 46.3329 54.5758 44.4678V47.169H67.3101V42.7956L59.1421 42.7313ZM54.1899 38.5508C54.1899 38.6151 54.1899 38.6151 54.1256 38.6795C54.0613 38.8081 53.997 38.8724 53.997 39.001C53.9327 39.0653 53.9327 39.1297 53.8683 39.194C53.804 39.2583 53.7397 39.3869 53.7397 39.4512C53.6754 39.5156 53.6111 39.6442 53.6111 39.7085C53.5468 39.7728 53.4825 39.8371 53.4181 39.9658C53.3538 40.0944 53.2895 40.1587 53.1609 40.2873C53.0966 40.3516 53.0966 40.416 53.0323 40.4803C52.9036 40.6089 52.775 40.8018 52.5821 40.9305C52.5177 40.9948 52.5177 40.9948 52.4534 41.0591C51.1671 42.2168 49.5593 42.8599 47.6942 42.8599C45.8933 42.8599 44.2855 42.2168 42.9349 40.9948C41.5843 39.7728 40.8768 38.1649 40.8768 36.2355C40.8768 34.3704 41.52 32.8268 42.8706 31.6049C43.4494 31.0903 44.0282 30.6401 44.6714 30.3829C45.5718 29.9327 46.6008 29.7397 47.7585 29.7397C49.6879 29.7397 51.2958 30.3829 52.6464 31.6692C52.775 31.7978 52.9679 31.9908 53.0966 32.1194C53.1609 32.1837 53.1609 32.248 53.2252 32.3123C53.2895 32.441 53.3538 32.5053 53.4825 32.6339C53.5468 32.6982 53.6111 32.7625 53.6111 32.8912C53.6754 32.9555 53.7397 33.0841 53.7397 33.1484C53.804 33.2127 53.8683 33.3414 53.8683 33.4057C53.9327 33.47 53.9327 33.5343 53.997 33.5986C54.0613 33.7272 54.1256 33.7916 54.1256 33.9202C54.1256 33.9845 54.1256 33.9845 54.1899 34.0488C54.4472 34.7563 54.5758 35.528 54.5758 36.3641C54.6401 37.0716 54.5115 37.8434 54.1899 38.5508Z" fill="#F47920"/>
<path d="M149.44 11.2171H150.34L151.884 13.7897H152.977L151.305 11.1528C151.755 11.0885 152.141 10.9599 152.398 10.7026C152.72 10.4453 152.848 10.0595 152.848 9.54495C152.848 8.96611 152.656 8.51591 152.334 8.25866C151.948 8.0014 151.434 7.87277 150.726 7.87277H148.475V13.854H149.44V11.2171ZM149.44 10.381V8.64454H150.597C150.726 8.64454 150.919 8.64454 151.048 8.64454C151.176 8.64454 151.369 8.70886 151.434 8.77317C151.562 8.83749 151.691 8.9018 151.755 9.03043C151.819 9.15906 151.884 9.28769 151.884 9.48063C151.884 9.67357 151.819 9.86652 151.755 9.99515C151.691 10.1238 151.562 10.1881 151.434 10.2524C151.305 10.3167 151.176 10.381 150.983 10.381C150.79 10.381 150.662 10.381 150.469 10.381H149.44ZM155.357 8.51591C155.099 7.87277 154.714 7.29394 154.199 6.84374C153.685 6.39353 153.17 6.00765 152.527 5.75039C151.884 5.49313 151.241 5.3645 150.533 5.3645C149.826 5.3645 149.118 5.49313 148.475 5.75039C147.832 6.00765 147.253 6.39353 146.803 6.84374C146.288 7.29394 145.967 7.87277 145.645 8.51591C145.388 9.15906 145.195 9.93083 145.195 10.7026C145.195 11.4744 145.324 12.1818 145.581 12.825C145.838 13.4681 146.224 14.047 146.674 14.4972C147.124 14.9474 147.703 15.3333 148.346 15.6548C148.99 15.9121 149.697 16.0407 150.469 16.0407C151.176 16.0407 151.819 15.9121 152.463 15.6548C153.106 15.3976 153.685 15.0117 154.135 14.5615C154.649 14.1113 154.971 13.5324 155.292 12.8893C155.55 12.2462 155.743 11.4744 155.743 10.7026C155.743 9.93083 155.614 9.15906 155.357 8.51591ZM154.328 12.5034C154.135 13.0179 153.813 13.5324 153.427 13.9183C153.041 14.3042 152.591 14.6258 152.141 14.8187C151.627 15.0117 151.112 15.1403 150.533 15.1403C149.89 15.1403 149.311 15.0117 148.797 14.8187C148.282 14.5615 147.832 14.2399 147.51 13.854C147.124 13.4681 146.867 12.9536 146.674 12.4391C146.481 11.9246 146.417 11.3458 146.417 10.7026C146.417 10.0595 146.546 9.48063 146.739 8.9018C146.932 8.32297 147.253 7.87277 147.639 7.48688C148.025 7.10099 148.475 6.77942 148.925 6.58648C149.44 6.39353 149.954 6.26491 150.533 6.26491C151.112 6.26491 151.627 6.39353 152.141 6.58648C152.656 6.77942 153.106 7.10099 153.427 7.48688C153.813 7.87277 154.07 8.32297 154.328 8.9018C154.521 9.41632 154.649 10.0595 154.649 10.7026C154.649 11.3458 154.521 11.9889 154.328 12.5034Z" fill="white"/>
<path d="M40.4269 76.4962C40.8128 76.4962 41.07 76.5605 41.3916 76.6891C41.6489 76.8178 41.9061 76.9464 42.0991 77.1393C42.292 77.3323 42.485 77.5895 42.5493 77.8468C42.6779 78.1041 42.6779 78.4256 42.6779 78.6829C42.6779 79.1331 42.5493 79.5833 42.3563 79.9049C42.1634 80.2264 41.8418 80.4837 41.3916 80.6766C41.5845 80.741 41.7775 80.8053 41.9061 80.9339C42.0347 81.0625 42.1634 81.1912 42.2277 81.3841C42.292 81.577 42.3563 81.7057 42.4206 81.9629C42.485 82.1559 42.485 82.3488 42.485 82.5418C42.485 82.6704 42.485 82.799 42.485 82.992C42.485 83.1849 42.485 83.3135 42.5493 83.5065C42.5493 83.6994 42.6136 83.8281 42.6136 84.021C42.6779 84.1496 42.7422 84.3426 42.8065 84.4069H41.07C41.0057 84.1496 40.9414 83.8281 40.8771 83.5065C40.8771 83.1849 40.8128 82.799 40.7485 82.4775C40.6841 82.0916 40.5555 81.77 40.3626 81.577C40.1696 81.3841 39.8481 81.2555 39.3979 81.2555H37.9186V84.4069H36.1821V76.4319H40.4269V76.4962ZM39.8481 80.0978C40.2339 80.0978 40.5555 80.0335 40.7485 79.8406C40.9414 79.6476 41.07 79.3904 41.07 78.9402C41.07 78.5543 40.9414 78.297 40.7485 78.1041C40.5555 77.9111 40.2339 77.8468 39.8481 77.8468H37.9186V80.0978H39.8481Z" fill="white"/>
<path d="M45.7007 83.0564C45.9579 83.3137 46.2795 83.378 46.7297 83.378C47.0513 83.378 47.3085 83.3137 47.5658 83.1207C47.8231 82.9921 47.9517 82.7992 48.016 82.6062H49.3666C49.1737 83.3137 48.7878 83.8282 48.3376 84.0855C47.8874 84.407 47.3085 84.5357 46.6654 84.5357C46.2152 84.5357 45.8293 84.4713 45.4434 84.3427C45.0575 84.2141 44.8003 84.0211 44.543 83.6996C44.2858 83.4423 44.0928 83.1207 43.9642 82.7349C43.8356 82.349 43.7712 81.9631 43.7712 81.5129C43.7712 81.0627 43.8356 80.6768 43.9642 80.2909C44.0928 79.905 44.2858 79.5834 44.543 79.3262C44.8003 79.0689 45.1218 78.8117 45.4434 78.683C45.8293 78.5544 46.2152 78.4258 46.6011 78.4258C47.1156 78.4258 47.5015 78.4901 47.8874 78.683C48.2733 78.876 48.5305 79.1332 48.7878 79.4548C49.045 79.7764 49.1737 80.1623 49.3023 80.5482C49.4309 80.934 49.4309 81.3843 49.4309 81.8345H45.3148C45.3148 82.4776 45.4434 82.8635 45.7007 83.0564ZM47.4372 80.0336C47.2442 79.8407 46.987 79.7121 46.6011 79.7121C46.3438 79.7121 46.1509 79.7764 45.9579 79.8407C45.765 79.905 45.6364 80.0336 45.572 80.1623C45.4434 80.2909 45.3791 80.4195 45.3791 80.5482C45.3791 80.6768 45.3148 80.8054 45.3148 80.934H47.8874C47.7587 80.5482 47.6301 80.2266 47.4372 80.0336Z" fill="white"/>
<path d="M52.0035 76.4963V84.4713H50.46V76.4963H52.0035Z" fill="white"/>
<path d="M53.2253 77.7826V76.4963H54.7689V77.7826H53.2253ZM54.8332 78.683V84.4713H53.2897V78.683H54.8332Z" fill="white"/>
<path d="M55.991 80.4838C55.991 80.0979 56.1197 79.7763 56.2483 79.5834C56.4412 79.3261 56.6342 79.1332 56.8914 79.0045C57.1487 78.8759 57.406 78.7473 57.7275 78.683C58.0491 78.6187 58.3707 78.6187 58.6922 78.6187C58.9495 78.6187 59.2711 78.6187 59.5927 78.683C59.9142 78.7473 60.1715 78.8116 60.4287 78.9402C60.686 79.0689 60.8789 79.1975 61.0076 79.4547C61.1362 79.6477 61.2648 79.9693 61.2648 80.2908V83.3136C61.2648 83.5709 61.2648 83.8281 61.3291 84.0854C61.3291 84.3426 61.3935 84.4713 61.4578 84.5999H59.7856C59.7856 84.5356 59.7213 84.407 59.7213 84.3426C59.7213 84.2783 59.7213 84.1497 59.657 84.0854C59.3997 84.3426 59.1425 84.5356 58.7566 84.6642C58.435 84.7928 58.0491 84.7928 57.7275 84.7928C57.4703 84.7928 57.213 84.7285 56.9558 84.6642C56.6985 84.5999 56.5056 84.4713 56.3126 84.3426C56.1197 84.214 55.991 84.0211 55.9267 83.8281C55.7981 83.6352 55.7981 83.3779 55.7981 83.0564C55.7981 82.7348 55.8624 82.4775 55.991 82.2203C56.1197 82.0273 56.2483 81.8344 56.4412 81.7057C56.6342 81.5771 56.8271 81.5128 57.0844 81.4485C57.3416 81.3842 57.5346 81.3199 57.7918 81.3199C58.0491 81.2555 58.242 81.2555 58.4993 81.2555C58.7566 81.2555 58.9495 81.1912 59.0781 81.1269C59.2711 81.0626 59.3997 80.9983 59.5283 80.934C59.657 80.8697 59.657 80.741 59.657 80.5481C59.657 80.3551 59.657 80.2265 59.5927 80.1622C59.5283 80.0336 59.464 79.9693 59.3997 79.9049C59.3354 79.8406 59.2068 79.8406 59.0781 79.7763C58.9495 79.7763 58.8209 79.7763 58.6922 79.7763C58.3707 79.7763 58.1134 79.8406 57.9848 79.9693C57.7918 80.0979 57.7275 80.3551 57.6632 80.6124H55.991V80.4838ZM59.657 81.6414C59.5927 81.7057 59.5283 81.7701 59.3997 81.7701C59.2711 81.8344 59.2068 81.8344 59.0781 81.8344C58.9495 81.8344 58.8209 81.8987 58.6922 81.8987C58.5636 81.8987 58.435 81.963 58.3064 81.963C58.1777 81.963 58.0491 82.0273 57.9848 82.0273C57.8562 82.0916 57.7918 82.0916 57.6632 82.156C57.5989 82.2203 57.5346 82.2846 57.4703 82.4132C57.406 82.5418 57.406 82.6062 57.406 82.7991C57.406 82.9277 57.406 83.0564 57.4703 83.185C57.5346 83.3136 57.5989 83.3779 57.6632 83.4422C57.7275 83.5066 57.8562 83.5066 57.9848 83.5709C58.1134 83.5709 58.242 83.6352 58.3707 83.6352C58.6922 83.6352 58.9495 83.5709 59.0781 83.5066C59.2711 83.3779 59.3997 83.2493 59.464 83.1207C59.5283 82.992 59.5927 82.7991 59.5927 82.6705C59.5927 82.5418 59.5927 82.4132 59.5927 82.2846V81.6414H59.657Z" fill="white"/>
<path d="M63.966 76.4963V79.3905C64.159 79.0689 64.4162 78.876 64.7378 78.7473C65.0594 78.6187 65.3809 78.5544 65.7668 78.5544C66.0241 78.5544 66.3457 78.6187 66.6029 78.7473C66.8602 78.876 67.1174 79.0689 67.3747 79.3262C67.5676 79.5834 67.7606 79.905 67.9535 80.2909C68.0821 80.6768 68.1465 81.127 68.1465 81.6415C68.1465 82.156 68.0821 82.6062 67.9535 82.9921C67.8249 83.378 67.6319 83.6996 67.3747 83.9568C67.1817 84.2141 66.9245 84.407 66.6029 84.5357C66.3457 84.6643 66.0241 84.7286 65.7668 84.7286C65.3166 84.7286 64.995 84.6643 64.6092 84.5357C64.2876 84.407 64.0303 84.1498 63.8374 83.8282V84.5357H62.3582V76.5607H63.966V76.4963ZM66.5386 80.8697C66.4743 80.6768 66.41 80.4195 66.2813 80.2909C66.1527 80.098 66.0241 79.9693 65.8955 79.905C65.7025 79.7764 65.5096 79.7764 65.3166 79.7764C65.0594 79.7764 64.8664 79.8407 64.7378 79.905C64.5448 80.0336 64.4162 80.1623 64.2876 80.2909C64.159 80.4838 64.0946 80.6768 64.0303 80.8697C63.966 81.0627 63.966 81.3199 63.966 81.5772C63.966 81.8344 63.966 82.0274 64.0303 82.2846C64.0946 82.4776 64.159 82.7348 64.2876 82.8635C64.4162 83.0564 64.5448 83.185 64.7378 83.2494C64.9307 83.378 65.1237 83.378 65.3166 83.378C65.5739 83.378 65.7668 83.3137 65.8955 83.2494C66.0884 83.1207 66.217 82.9921 66.2813 82.8635C66.41 82.6705 66.4743 82.4776 66.5386 82.2846C66.6029 82.0917 66.6029 81.8344 66.6029 81.5772C66.6029 81.3199 66.6029 81.127 66.5386 80.8697Z" fill="white"/>
<path d="M70.7833 76.4963V84.4713H69.2397V76.4963H70.7833Z" fill="white"/>
<path d="M73.6775 83.0564C73.9347 83.3137 74.2563 83.378 74.7065 83.378C75.0281 83.378 75.2853 83.3137 75.5426 83.1207C75.7999 82.9921 75.9285 82.7992 75.9928 82.6062H77.3434C77.1505 83.3137 76.7646 83.8282 76.3144 84.0855C75.8642 84.407 75.2853 84.5357 74.6422 84.5357C74.192 84.5357 73.8061 84.4713 73.4202 84.3427C73.0343 84.2141 72.7771 84.0211 72.5198 83.6996C72.2626 83.4423 72.0696 83.1207 71.941 82.7349C71.8124 82.349 71.748 81.9631 71.748 81.5129C71.748 81.0627 71.8124 80.6768 71.941 80.2909C72.0696 79.905 72.2626 79.5834 72.5198 79.3262C72.7771 79.0689 73.0987 78.8117 73.4202 78.683C73.8061 78.5544 74.192 78.4258 74.5779 78.4258C75.0924 78.4258 75.4783 78.4901 75.8642 78.683C76.2501 78.876 76.5073 79.1332 76.7646 79.4548C77.0218 79.7764 77.1505 80.1623 77.2791 80.5482C77.4077 80.934 77.4077 81.3843 77.4077 81.8345H73.2916C73.3559 82.4776 73.4845 82.8635 73.6775 83.0564ZM75.4783 80.0336C75.2853 79.8407 75.0281 79.7121 74.6422 79.7121C74.3849 79.7121 74.192 79.7764 73.9991 79.8407C73.8061 79.905 73.6775 80.0336 73.6132 80.1623C73.4845 80.2909 73.4202 80.4195 73.4202 80.5482C73.3559 80.6768 73.3559 80.8054 73.3559 80.934H75.9285C75.7999 80.5482 75.6712 80.2266 75.4783 80.0336Z" fill="white"/>
<path d="M86.669 78.6187C86.5404 78.4257 86.4118 78.2971 86.2831 78.1684C86.1545 78.0398 85.9616 77.9112 85.7686 77.8469C85.5757 77.7826 85.3827 77.7182 85.1255 77.7182C84.7396 77.7182 84.418 77.7826 84.1608 77.9755C83.9035 78.1041 83.6462 78.3614 83.5176 78.6187C83.3247 78.8759 83.196 79.1975 83.1317 79.5191C83.0674 79.8406 83.0031 80.1622 83.0031 80.5481C83.0031 80.8697 83.0674 81.1912 83.1317 81.5128C83.196 81.8344 83.3247 82.0916 83.5176 82.3489C83.7106 82.6062 83.9035 82.7991 84.1608 82.9277C84.418 83.0564 84.7396 83.185 85.1255 83.185C85.64 83.185 86.0902 82.992 86.3474 82.6705C86.669 82.3489 86.7977 81.8987 86.9263 81.3842H88.5985C88.5341 81.8987 88.4698 82.3489 88.2769 82.7348C88.0839 83.1207 87.8267 83.5066 87.5694 83.7638C87.2479 84.0211 86.9263 84.2783 86.4761 84.407C86.0902 84.5356 85.64 84.5999 85.1255 84.5999C84.5466 84.5999 83.9678 84.4713 83.5176 84.2783C83.0031 84.0854 82.6172 83.7638 82.2956 83.3779C81.9741 82.992 81.7168 82.5418 81.5239 82.0916C81.3309 81.5771 81.2666 81.0626 81.2666 80.4838C81.2666 79.9049 81.3309 79.3261 81.5239 78.8116C81.7168 78.2971 81.9741 77.8469 82.2956 77.461C82.6172 77.0751 83.0031 76.7535 83.5176 76.5606C84.0321 76.3676 84.5466 76.239 85.1255 76.239C85.5757 76.239 85.9616 76.3033 86.3474 76.432C86.7333 76.5606 87.0549 76.7535 87.3765 77.0108C87.6981 77.268 87.9553 77.5253 88.1483 77.9112C88.3412 78.2971 88.4698 78.683 88.5341 79.1332H86.862C86.862 78.9402 86.7977 78.8116 86.669 78.6187Z" fill="white"/>
<path d="M89.6917 80.3553C89.8204 79.9694 90.0133 79.6478 90.2706 79.3905C90.5278 79.1333 90.8494 78.9403 91.171 78.7474C91.5568 78.6188 91.9427 78.5544 92.3929 78.5544C92.8431 78.5544 93.229 78.6188 93.6149 78.7474C94.0008 78.876 94.3224 79.069 94.5796 79.3905C94.8369 79.6478 95.0298 79.9694 95.1585 80.3553C95.2871 80.7411 95.3514 81.127 95.3514 81.6415C95.3514 82.0917 95.2871 82.5419 95.1585 82.8635C95.0298 83.2494 94.8369 83.571 94.5796 83.8282C94.3224 84.0855 94.0008 84.2784 93.6149 84.4071C93.229 84.5357 92.8431 84.6 92.3929 84.6C91.9427 84.6 91.5568 84.5357 91.171 84.4071C90.7851 84.2784 90.5278 84.0855 90.2706 83.8282C90.0133 83.571 89.8204 83.2494 89.6917 82.8635C89.5631 82.4776 89.4988 82.0917 89.4988 81.6415C89.4988 81.127 89.5631 80.6768 89.6917 80.3553ZM91.1066 82.2847C91.171 82.4776 91.2353 82.6706 91.3639 82.8635C91.4925 83.0565 91.6212 83.1851 91.8141 83.3137C92.007 83.4423 92.2 83.4424 92.4572 83.4424C92.7145 83.4424 92.9718 83.378 93.1004 83.3137C93.2933 83.1851 93.422 83.0565 93.5506 82.8635C93.6792 82.6706 93.7435 82.4776 93.8079 82.2847C93.8722 82.0917 93.8722 81.8345 93.8722 81.5772C93.8722 81.32 93.8722 81.127 93.8079 80.8698C93.7435 80.6768 93.6792 80.4196 93.5506 80.2909C93.422 80.098 93.2933 79.9694 93.1004 79.8407C92.9074 79.7121 92.7145 79.6478 92.4572 79.6478C92.2 79.6478 91.9427 79.7121 91.8141 79.8407C91.6212 79.9694 91.4925 80.098 91.3639 80.2909C91.2353 80.4839 91.171 80.6768 91.1066 80.8698C91.0423 81.0627 91.0423 81.32 91.0423 81.5772C91.0423 81.8345 91.0423 82.0274 91.1066 82.2847Z" fill="white"/>
<path d="M97.9241 78.6831V79.5192H97.9884C98.1813 79.1976 98.4386 78.9403 98.7602 78.8117C99.0818 78.6831 99.4033 78.5544 99.7249 78.5544C100.175 78.5544 100.497 78.6188 100.754 78.7474C101.011 78.876 101.204 79.0046 101.397 79.1976C101.526 79.3905 101.654 79.6478 101.719 79.9694C101.783 80.2909 101.783 80.6125 101.783 80.9341V84.4714H100.239V81.1913C100.239 80.7411 100.175 80.3553 100.046 80.098C99.9178 79.8407 99.6606 79.7764 99.2747 79.7764C98.8245 79.7764 98.5672 79.905 98.3743 80.1623C98.1814 80.4196 98.117 80.8698 98.117 81.4486V84.4714H96.5735V78.6831H97.9241Z" fill="white"/>
<path d="M104.484 78.6831V79.5192H104.549C104.742 79.1976 104.999 78.9403 105.32 78.8117C105.642 78.6831 105.963 78.5544 106.285 78.5544C106.735 78.5544 107.057 78.6188 107.314 78.7474C107.571 78.876 107.764 79.0046 107.957 79.1976C108.086 79.3905 108.214 79.6478 108.279 79.9694C108.343 80.2909 108.343 80.6125 108.343 80.9341V84.4714H106.735V81.1913C106.735 80.7411 106.671 80.3553 106.542 80.098C106.414 79.8407 106.156 79.7764 105.771 79.7764C105.32 79.7764 105.063 79.905 104.87 80.1623C104.677 80.4196 104.613 80.8698 104.613 81.4486V84.4714H103.069V78.6831H104.484Z" fill="white"/>
<path d="M111.173 83.0564C111.43 83.3137 111.752 83.378 112.202 83.378C112.523 83.378 112.781 83.3137 113.038 83.1207C113.295 82.9921 113.424 82.7992 113.488 82.6062H114.839C114.646 83.3137 114.26 83.8282 113.81 84.0855C113.36 84.407 112.781 84.5357 112.138 84.5357C111.687 84.5357 111.301 84.4713 110.916 84.3427C110.53 84.2141 110.272 84.0211 110.015 83.6996C109.758 83.4423 109.565 83.1207 109.436 82.7349C109.308 82.349 109.243 81.9631 109.243 81.5129C109.243 81.0627 109.308 80.6768 109.436 80.2909C109.565 79.905 109.758 79.5834 110.015 79.3262C110.272 79.0689 110.594 78.8117 110.916 78.683C111.301 78.5544 111.687 78.4258 112.073 78.4258C112.588 78.4258 112.974 78.4901 113.36 78.683C113.745 78.876 114.003 79.1332 114.26 79.4548C114.517 79.7764 114.646 80.1623 114.774 80.5482C114.903 80.934 114.903 81.3843 114.903 81.8345H110.787C110.851 82.4776 110.98 82.8635 111.173 83.0564ZM112.974 80.0336C112.781 79.8407 112.523 79.7121 112.138 79.7121C111.88 79.7121 111.687 79.7764 111.494 79.8407C111.301 79.905 111.173 80.0336 111.109 80.1623C110.98 80.2909 110.916 80.4195 110.916 80.5482C110.851 80.6768 110.851 80.8054 110.851 80.934H113.424C113.295 80.5482 113.167 80.2266 112.974 80.0336Z" fill="white"/>
<path d="M118.633 79.7121C118.376 79.7121 118.183 79.7764 117.99 79.9051C117.797 80.0337 117.669 80.1623 117.604 80.3553C117.476 80.5482 117.411 80.7411 117.347 80.9341C117.283 81.127 117.283 81.3843 117.283 81.5772C117.283 81.7702 117.283 82.0274 117.347 82.2204C117.411 82.4133 117.476 82.6063 117.54 82.7992C117.669 82.9921 117.797 83.1208 117.926 83.2494C118.119 83.378 118.312 83.4424 118.569 83.4424C118.955 83.4424 119.212 83.3137 119.469 83.1208C119.662 82.9278 119.791 82.6063 119.855 82.2847H121.399C121.27 83.0565 121.013 83.6353 120.498 84.0212C119.984 84.4071 119.405 84.6 118.633 84.6C118.183 84.6 117.797 84.5357 117.476 84.4071C117.09 84.2784 116.833 84.0855 116.575 83.8282C116.318 83.571 116.125 83.2494 115.996 82.8635C115.868 82.4776 115.803 82.0917 115.803 81.6415C115.803 81.1913 115.868 80.8055 115.996 80.4196C116.125 80.0337 116.318 79.7121 116.575 79.4548C116.833 79.1976 117.154 78.9403 117.476 78.8117C117.862 78.6831 118.247 78.5544 118.698 78.5544C119.019 78.5544 119.341 78.6188 119.662 78.6831C119.984 78.7474 120.241 78.9403 120.498 79.069C120.756 79.2619 120.949 79.4548 121.077 79.7764C121.206 80.0337 121.335 80.3553 121.335 80.7411H119.791C119.662 80.0337 119.276 79.7121 118.633 79.7121Z" fill="white"/>
<path d="M125.386 78.683V79.7764H124.229V82.6705C124.229 82.9278 124.293 83.1207 124.357 83.185C124.422 83.2494 124.615 83.3137 124.872 83.3137C124.936 83.3137 125.065 83.3137 125.129 83.3137C125.193 83.3137 125.258 83.3137 125.386 83.2494V84.4713C125.258 84.4713 125.129 84.5356 124.936 84.5356C124.743 84.5356 124.615 84.5356 124.486 84.5356C124.229 84.5356 124.036 84.5356 123.779 84.4713C123.586 84.407 123.393 84.3427 123.2 84.2784C123.007 84.1498 122.878 84.0211 122.814 83.8925C122.749 83.6996 122.685 83.5066 122.685 83.185V79.7764H121.72V78.683H122.685V76.9465H124.229V78.683H125.386Z" fill="white"/>
<path d="M126.158 77.7826V76.4963H127.702V77.7826H126.158ZM127.702 78.683V84.4713H126.158V78.683H127.702Z" fill="white"/>
<path d="M128.988 80.3553C129.116 79.9694 129.309 79.6478 129.567 79.3905C129.824 79.1333 130.146 78.9403 130.467 78.7474C130.853 78.6188 131.239 78.5544 131.689 78.5544C132.139 78.5544 132.525 78.6188 132.911 78.7474C133.297 78.876 133.619 79.069 133.876 79.3905C134.133 79.6478 134.326 79.9694 134.455 80.3553C134.583 80.7411 134.648 81.127 134.648 81.6415C134.648 82.0917 134.583 82.5419 134.455 82.8635C134.326 83.2494 134.133 83.571 133.876 83.8282C133.619 84.0855 133.297 84.2784 132.911 84.4071C132.525 84.5357 132.139 84.6 131.689 84.6C131.239 84.6 130.853 84.5357 130.467 84.4071C130.081 84.2784 129.824 84.0855 129.567 83.8282C129.309 83.571 129.116 83.2494 128.988 82.8635C128.859 82.4776 128.795 82.0917 128.795 81.6415C128.795 81.127 128.859 80.6768 128.988 80.3553ZM130.403 82.2847C130.467 82.4776 130.531 82.6706 130.66 82.8635C130.789 83.0565 130.917 83.1851 131.11 83.3137C131.303 83.4423 131.496 83.4424 131.753 83.4424C132.011 83.4424 132.268 83.378 132.397 83.3137C132.589 83.1851 132.718 83.0565 132.847 82.8635C132.975 82.6706 133.04 82.4776 133.104 82.2847C133.168 82.0917 133.168 81.8345 133.168 81.5772C133.168 81.32 133.168 81.127 133.104 80.8698C133.04 80.6768 132.975 80.4196 132.847 80.2909C132.718 80.098 132.589 79.9694 132.397 79.8407C132.204 79.7121 132.011 79.6478 131.753 79.6478C131.496 79.6478 131.239 79.7121 131.11 79.8407C130.917 79.9694 130.789 80.098 130.66 80.2909C130.531 80.4839 130.467 80.6768 130.403 80.8698C130.338 81.0627 130.338 81.32 130.338 81.5772C130.338 81.8345 130.403 82.0274 130.403 82.2847Z" fill="white"/>
<path d="M137.22 78.6831V79.5192H137.285C137.477 79.1976 137.735 78.9403 138.056 78.8117C138.378 78.6831 138.699 78.5544 139.021 78.5544C139.471 78.5544 139.793 78.6188 140.05 78.7474C140.307 78.876 140.5 79.0046 140.693 79.1976C140.822 79.3905 140.95 79.6478 141.015 79.9694C141.079 80.2909 141.079 80.6125 141.079 80.9341V84.4714H139.536V81.1913C139.536 80.7411 139.471 80.3553 139.343 80.098C139.214 79.8407 138.957 79.7764 138.571 79.7764C138.121 79.7764 137.863 79.905 137.67 80.1623C137.477 80.4196 137.413 80.8698 137.413 81.4486V84.4714H135.87V78.6831H137.22Z" fill="white"/>
<path d="M143.587 83.0564C143.652 83.185 143.716 83.2493 143.845 83.3779C143.973 83.4422 144.102 83.5066 144.231 83.5709C144.359 83.6352 144.552 83.6352 144.681 83.6352C144.809 83.6352 144.938 83.6352 145.002 83.5709C145.131 83.5709 145.26 83.5066 145.324 83.4422C145.453 83.3779 145.517 83.3136 145.581 83.2493C145.645 83.185 145.71 83.0564 145.71 82.9277C145.71 82.6705 145.581 82.5418 145.26 82.4132C144.938 82.2846 144.488 82.1559 143.973 82.0273C143.716 81.963 143.523 81.8987 143.33 81.8344C143.137 81.7701 142.944 81.6414 142.751 81.5771C142.558 81.4485 142.43 81.3199 142.365 81.1269C142.237 80.934 142.237 80.741 142.237 80.4838C142.237 80.0979 142.301 79.7763 142.43 79.5834C142.558 79.3261 142.751 79.1332 143.009 79.0045C143.266 78.8759 143.523 78.7473 143.78 78.683C144.102 78.6187 144.359 78.6187 144.681 78.6187C145.002 78.6187 145.26 78.6187 145.581 78.683C145.903 78.7473 146.16 78.8116 146.353 79.0045C146.61 79.1332 146.803 79.3261 146.932 79.5834C147.06 79.8406 147.189 80.0979 147.189 80.4838H145.71C145.71 80.1622 145.581 79.9693 145.388 79.8406C145.195 79.712 144.938 79.6477 144.681 79.6477C144.616 79.6477 144.488 79.6477 144.423 79.6477C144.295 79.6477 144.231 79.712 144.166 79.712C144.102 79.7763 144.038 79.7763 143.973 79.9049C143.909 79.9693 143.909 80.0979 143.909 80.1622C143.909 80.2908 143.973 80.4195 144.038 80.4838C144.166 80.5481 144.295 80.6767 144.423 80.6767C144.616 80.741 144.809 80.8053 145.002 80.8053C145.195 80.8697 145.453 80.8697 145.645 80.934C145.903 80.9983 146.096 81.0626 146.289 81.1269C146.482 81.1912 146.674 81.3199 146.867 81.4485C147.06 81.5771 147.189 81.7057 147.253 81.8987C147.382 82.0916 147.382 82.2846 147.382 82.6062C147.382 82.992 147.318 83.3136 147.125 83.5709C146.996 83.8281 146.803 84.0211 146.546 84.214C146.289 84.3426 146.031 84.4713 145.71 84.5356C145.388 84.5999 145.067 84.5999 144.745 84.5999C144.423 84.5999 144.102 84.5356 143.78 84.4713C143.459 84.407 143.202 84.2783 142.944 84.1497C142.687 84.0211 142.494 83.7638 142.365 83.5066C142.237 83.2493 142.108 82.9277 142.108 82.5418H143.587C143.523 82.7348 143.523 82.9277 143.587 83.0564Z" fill="white"/>
</svg>
