<svg width="241" height="241" viewBox="0 0 241 241" fill="none" xmlns="http://www.w3.org/2000/svg">
<path fill-rule="evenodd" clip-rule="evenodd" d="M39.0283 108.429C41.0659 105.703 35.3775 95.395 32.5658 91.4406C31.2873 89.6382 28.1061 88.0171 28.5905 85.3342C30.8929 72.5621 41.88 82.2878 47.7332 78.6455C54.9997 74.1213 55.604 64.8142 59.844 58.5724C61.6919 55.8516 67.4951 52.0231 68.364 48.9092C69.3679 45.309 62.8405 42.0343 61.7368 38.9009C59.4844 32.478 61.632 24.3749 60.743 21.5772C59.6093 17.9894 55.3692 16.7903 55.7338 12.4898C56.3331 5.45609 69.4877 7.15804 73.513 9.96077C77.1538 12.4958 83.5812 17.7277 87.3918 19.2634C92.2561 21.2271 97.5648 13.1286 101.93 16.2764C109.955 22.0646 98.0942 28.0187 98.5287 33.6236C98.6886 35.7007 101.755 40.3927 100.971 42.1356C99.5926 45.215 95.1877 45.8693 94.0391 49.2478C92.336 54.2854 105.805 58.6418 108.128 61.2892C111.039 64.6173 105.076 69.0016 104.452 72.2993C104.377 72.7118 109.93 75.3782 110.415 75.7567C113.232 77.9587 115.879 81.9011 119.235 83.265C123.939 85.1752 128.893 83.1456 133.698 83.7943C140.62 84.7277 148.86 93.9405 156.051 89.1866C160.227 86.4273 154.219 77.7595 158.204 76.382C167.663 73.1113 165.775 83.2924 169.121 85.1128C169.491 85.3146 183.494 83.6056 184.913 83.1247C186.356 82.6337 185.252 79.1204 186.191 77.7105C188.663 73.9814 193.358 67.9939 197.403 65.7785C203.251 62.5798 220.107 67.6219 221.105 75.2949C221.41 77.6061 217.325 77.9872 215.802 78.8707C211.796 81.195 205.848 86.756 204.145 91.0369C203.351 93.0401 205.713 95.8323 206.063 97.8819C206.403 99.9206 204.41 104.026 203.481 105.86C201.873 109.021 196.095 106.131 194.761 111.064C193.388 116.124 200.959 120.986 197.308 125.796C195.925 127.615 191.78 120.008 191.215 118.567C190.991 117.991 191.065 118.137 190.901 117.707C190.826 117.511 190.751 117.315 190.671 117.121C190.601 116.948 190.506 116.695 190.381 116.556C188.863 114.882 182.136 118.998 180.767 115.327C178.355 108.854 180.653 106.831 182.95 101.316C183.389 100.257 180.688 100.92 179.549 100.78C177.306 100.502 175.024 100.51 172.862 99.8068C168.137 98.2706 166.1 89.7001 161.52 95.0119C155.981 101.436 169.735 118.255 165.44 125.274C162.429 130.204 155.727 129.671 151.881 133.326C149.834 135.268 151.262 137.872 149.269 140.021C147.347 142.093 144.61 143.049 142.657 145.138C134.741 153.608 127.495 162.629 119.479 170.909C114.879 175.66 107.663 175.356 103.787 181.377C102.284 183.714 106.344 191.491 106.155 195.063C105.96 198.794 103.293 202.587 102.824 206.438C102.529 208.859 104.412 212.832 103.463 214.911C101.485 219.233 94.673 222.318 91.3219 225.477C88.5302 228.108 86.7123 234.208 81.7231 233.363C72.5688 231.81 73.6226 216.183 70.8609 209.58C69.4175 206.137 66.3112 203.439 64.6332 200C62.0562 194.703 62.5906 188.592 60.3382 183.248C57.6064 176.771 53.1965 171.529 51.7483 164.522C49.3961 153.11 52.872 144.246 51.2288 133.783C51.1539 133.3 50.255 130.142 49.4959 130.048C46.779 129.708 43.5028 134.791 41.1856 135.83C37.5848 137.442 29.4793 131.875 26.9023 129.988C22.3326 126.639 22.1678 125.474 25.494 120.891C26.4778 119.538 20.5047 115.519 19.8306 114.776C19.7556 114.692 20.0503 114.09 20.0553 114.086C21.0791 112.003 26.4828 109.171 28.6153 107.958C31.1974 106.49 35.9369 109.322 39.0283 108.429Z" fill="url(#paint0_linear_554_3213)"/>
<path d="M137.5 40C125.715 40 116.125 49.6567 116.125 61.5294C116.125 78.399 135.491 95.8172 136.315 96.5487C136.655 96.8504 137.077 97 137.5 97C137.923 97 138.345 96.8504 138.685 96.5511C139.509 95.8173 158.875 78.399 158.875 61.5294C158.875 49.6567 149.285 40 137.5 40ZM137.5 73.25C130.952 73.25 125.625 67.9229 125.625 61.375C125.625 54.8271 130.952 49.5 137.5 49.5C144.048 49.5 149.375 54.8271 149.375 61.375C149.375 67.9229 144.048 73.25 137.5 73.25Z" fill="url(#paint1_linear_554_3213)"/>
<path d="M36.375 64C24.5903 64 15 73.6567 15 85.5294C15 102.399 34.3658 119.817 35.1899 120.549C35.5295 120.85 35.9522 121 36.375 121C36.7978 121 37.2205 120.85 37.5601 120.551C38.3842 119.817 57.75 102.399 57.75 85.5294C57.75 73.6567 48.1597 64 36.375 64ZM36.375 97.25C29.8271 97.25 24.5 91.9229 24.5 85.375C24.5 78.8271 29.8271 73.5 36.375 73.5C42.9229 73.5 48.25 78.8271 48.25 85.375C48.25 91.9229 42.9229 97.25 36.375 97.25Z" fill="url(#paint2_linear_554_3213)"/>
<path d="M94.375 141C82.5903 141 73 150.657 73 162.529C73 179.399 92.3658 196.817 93.1899 197.549C93.5295 197.85 93.9522 198 94.375 198C94.7978 198 95.2205 197.85 95.5601 197.551C96.3842 196.817 115.75 179.399 115.75 162.529C115.75 150.657 106.16 141 94.375 141ZM94.375 174.25C87.8271 174.25 82.5 168.923 82.5 162.375C82.5 155.827 87.8271 150.5 94.375 150.5C100.923 150.5 106.25 155.827 106.25 162.375C106.25 168.923 100.923 174.25 94.375 174.25Z" fill="url(#paint3_linear_554_3213)"/>
<defs>
<linearGradient id="paint0_linear_554_3213" x1="164.59" y1="45.7658" x2="61.8743" y2="212.436" gradientUnits="userSpaceOnUse">
<stop stop-color="#2BB04C"/>
<stop offset="1" stop-color="#63D0FF" stop-opacity="0"/>
</linearGradient>
<linearGradient id="paint1_linear_554_3213" x1="144.787" y1="40.2159" x2="113.902" y2="94.8431" gradientUnits="userSpaceOnUse">
<stop stop-color="#F47920"/>
<stop offset="1" stop-color="white"/>
</linearGradient>
<linearGradient id="paint2_linear_554_3213" x1="43.6619" y1="64.2159" x2="12.7773" y2="118.843" gradientUnits="userSpaceOnUse">
<stop stop-color="#F47920"/>
<stop offset="1" stop-color="white"/>
</linearGradient>
<linearGradient id="paint3_linear_554_3213" x1="101.662" y1="141.216" x2="70.7773" y2="195.843" gradientUnits="userSpaceOnUse">
<stop stop-color="#F47920"/>
<stop offset="1" stop-color="white"/>
</linearGradient>
</defs>
</svg>
