<svg width="16" height="22" viewBox="0 0 16 22" fill="none" xmlns="http://www.w3.org/2000/svg">
<path d="M11.8753 0.479004H1.16603C0.522033 0.479004 0 1.00104 0 1.64503V20.3517C0 20.9957 0.522033 21.5178 1.16603 21.5178H14.8337C15.4777 21.5178 15.9998 20.9957 15.9998 20.3517V4.60344L11.8755 0.479165L11.8753 0.479004Z" fill="#E7E6E9"/>
<path d="M11.8756 0.479004V3.43725C11.8756 4.08124 12.3976 4.60327 13.0416 4.60327H15.9999L11.8756 0.479004Z" fill="#D3D3D3"/>
<path d="M4.64282 14.3612C4.39392 14.3612 4.15625 14.2425 4.02402 14.025C3.79775 13.6532 3.90591 13.0389 4.88819 12.4296C5.31602 12.1643 5.80163 11.9305 6.34228 11.7293C6.67575 11.0623 7.0158 10.2803 7.38699 9.42688C7.44379 9.29642 7.50124 9.16402 7.55966 9.03018C7.39068 8.74566 7.26647 8.46578 7.18815 8.19265C7.05239 7.71892 7.06491 7.27857 7.22314 6.95264C7.36323 6.66426 7.61005 6.49576 7.86761 6.51277C8.11828 6.5293 8.3269 6.65496 8.45496 6.86663C8.56938 7.05583 8.61432 7.30088 8.58832 7.59519C8.56264 7.88614 8.46764 8.21929 8.30572 8.58518C8.24618 8.71982 8.18745 8.85334 8.12951 8.98557C8.26993 9.19403 8.43635 9.4057 8.62683 9.61737C9.17294 10.2241 9.63576 10.6489 10.0085 10.9453C10.5145 10.8983 10.9063 10.8835 11.1094 10.8789C11.5583 10.8688 11.9224 11.0575 12.0371 11.36C12.1267 11.5961 12.0471 11.8496 11.8243 12.038C11.6241 12.2075 11.2145 12.3092 10.4009 11.8318C10.2274 11.7301 10.0463 11.6079 9.85866 11.4667C9.51395 11.5027 9.12415 11.5537 8.71044 11.6262C7.97305 11.7554 7.30145 11.9258 6.70014 12.1362C6.18645 13.132 5.66988 13.8784 5.0522 14.2473C4.92301 14.3245 4.78115 14.3612 4.64266 14.3612H4.64282ZM5.97013 12.4265C5.67662 12.5589 5.40445 12.7029 5.1541 12.8582C4.72948 13.1216 4.55488 13.3414 4.48331 13.4794C4.42361 13.5943 4.4135 13.6949 4.4549 13.7628C4.50962 13.8529 4.65903 13.8949 4.79383 13.8143C5.213 13.5638 5.59317 13.08 5.97029 12.4265H5.97013ZM10.6644 11.4016C11.2105 11.7203 11.4556 11.6891 11.4986 11.6529C11.5182 11.6363 11.5809 11.579 11.5655 11.5386C11.5397 11.4704 11.3845 11.3768 11.1208 11.3829C11.0165 11.3854 10.8608 11.3905 10.6644 11.4016ZM7.89458 9.5243C7.87949 9.55896 7.8644 9.59362 7.84948 9.62796C7.55597 10.3028 7.28107 10.9347 7.01099 11.5054C7.50991 11.3557 8.04815 11.23 8.62362 11.1292C8.86434 11.087 9.09735 11.0519 9.31849 11.0227C8.97443 10.7176 8.61608 10.3591 8.25196 9.95454C8.12213 9.81043 8.00306 9.6668 7.89458 9.5243ZM7.83215 7.01587C7.8007 7.01587 7.73281 7.05743 7.67681 7.17298C7.57442 7.38385 7.57298 7.70496 7.67296 8.05384C7.7089 8.17901 7.75753 8.3082 7.81851 8.44011C7.82717 8.42053 7.83584 8.40095 7.84451 8.38121C8.21184 7.55106 8.07431 7.21197 8.02344 7.12788C7.98075 7.05743 7.92073 7.02197 7.8344 7.01619C7.83375 7.01619 7.83295 7.01619 7.83215 7.01619V7.01587Z" fill="#FA2007"/>
<path d="M1.16587 21.5212H14.8336C15.4776 21.5212 15.9996 20.9992 15.9996 20.3552V16.1132H0V20.3552C0 20.9992 0.522033 21.5212 1.16603 21.5212H1.16587Z" fill="#FA2007"/>
<path d="M5.36001 17.2766H4.01184V20.2346H4.49584V19.1249H5.35985C5.86937 19.1249 6.28404 18.7104 6.28404 18.2007C6.28404 17.691 5.86953 17.2765 5.35985 17.2765L5.36001 17.2766ZM5.36001 18.641H4.496V17.7608H5.36001C5.60265 17.7608 5.8002 17.9582 5.8002 18.201C5.8002 18.4438 5.60281 18.6412 5.36001 18.6412V18.641Z" fill="#E7E6E9"/>
<path d="M11.9846 17.7605V17.2765H10.4786H10.2366H9.99463V20.2344H10.4786V19.1249H11.6753V18.6409H10.4786V17.7605H11.9846Z" fill="#E7E6E9"/>
<path d="M7.97237 17.2765H6.98254V20.2614H7.97237C8.70912 20.2614 9.30866 19.662 9.30866 18.9251V18.6128C9.30866 17.876 8.70928 17.2765 7.97237 17.2765ZM8.82466 18.9251C8.82466 19.395 8.44241 19.7774 7.97237 19.7774H7.46654V17.7605H7.97237C8.44225 17.7605 8.82466 18.1427 8.82466 18.6128V18.9251Z" fill="#E7E6E9"/>
</svg>
