<svg width="13" height="17" viewBox="0 0 13 17" fill="none" xmlns="http://www.w3.org/2000/svg">
<path fill-rule="evenodd" clip-rule="evenodd" d="M10.7497 17H2.24967C1.46767 17 0.833008 16.3653 0.833008 15.5833V1.41667C0.833008 0.634667 1.46767 0 2.24967 0H10.7497C11.5317 0 12.1663 0.634667 12.1663 1.41667V15.5833C12.1663 16.3653 11.5317 17 10.7497 17ZM11.458 13.3995H1.54134V15.5833C1.54134 15.9743 1.85938 16.2917 2.24967 16.2917H10.7497C11.1407 16.2917 11.458 15.9743 11.458 15.5833V13.3995ZM6.49967 15.5245C6.10797 15.5245 5.79134 15.2072 5.79134 14.8162C5.79134 14.4252 6.10797 14.1079 6.49967 14.1079C6.89067 14.1079 7.2073 14.4252 7.2073 14.8162C7.2073 15.2072 6.89067 15.5245 6.49967 15.5245ZM11.458 3.48287H1.54134V12.6912H11.458V3.48287ZM10.7497 0.708333H2.24967C1.85938 0.708333 1.54134 1.02637 1.54134 1.41667V2.77454H11.458V1.41667C11.458 1.02637 11.1407 0.708333 10.7497 0.708333ZM7.56217 2.06621H5.43717C5.24167 2.06621 5.08301 1.90754 5.08301 1.71204C5.08301 1.51654 5.24167 1.35787 5.43717 1.35787H7.56217C7.75767 1.35787 7.91634 1.51654 7.91634 1.71204C7.91634 1.90754 7.75767 2.06621 7.56217 2.06621Z" fill="#99A3AD" stroke="#99A3AD" stroke-width="0.25"/>
</svg>
