<svg width="66" height="66" viewBox="0 0 66 66" fill="none" xmlns="http://www.w3.org/2000/svg">
<path d="M33 20.8906V40.2656" stroke="#F47920" stroke-width="1.5" stroke-miterlimit="10"/>
<mask id="mask0_2381_2675" style="mask-type:luminance" maskUnits="userSpaceOnUse" x="2" y="2" width="62" height="62">
<path d="M2 2H64V64H2V2Z" fill="white"/>
</mask>
<g mask="url(#mask0_2381_2675)">
<path d="M60.815 51.0676L39.5025 8.44255C38.3106 6.0587 35.8464 4.42188 33 4.42188C30.1534 4.42188 27.6893 6.0587 26.4975 8.44255L5.18501 51.0676C4.69664 52.0442 4.42188 53.1462 4.42188 54.3125C4.42188 58.3252 7.67482 61.5781 11.6875 61.5781H54.3125C58.3251 61.5781 61.5781 58.3252 61.5781 54.3125C61.5781 53.1462 61.3032 52.0442 60.815 51.0676Z" stroke="#636466" stroke-width="1.5" stroke-miterlimit="10"/>
<path d="M35.4219 47.5313C35.4219 48.8689 34.3376 49.9531 33 49.9531C31.6624 49.9531 30.5781 48.8689 30.5781 47.5313C30.5781 46.1936 31.6624 45.1094 33 45.1094C34.3376 45.1094 35.4219 46.1936 35.4219 47.5313Z" fill="#2BB04C"/>
</g>
</svg>
