<svg width="19" height="20" viewBox="0 0 19 20" fill="none" xmlns="http://www.w3.org/2000/svg">
<path d="M17.4697 19.0303C17.7626 19.3232 18.2374 19.3232 18.5303 19.0303C18.8232 18.7374 18.8232 18.2626 18.5303 17.9697L17.4697 19.0303ZM14.3336 13.773C14.0407 13.4801 13.5659 13.4801 13.273 13.773C12.9801 14.0659 12.9801 14.5408 13.273 14.8336L14.3336 13.773ZM8.5 15.75C4.77208 15.75 1.75 12.7279 1.75 9H0.25C0.25 13.5563 3.94365 17.25 8.5 17.25V15.75ZM1.75 9C1.75 5.27208 4.77208 2.25 8.5 2.25V0.75C3.94365 0.75 0.25 4.44365 0.25 9H1.75ZM8.5 2.25C12.2279 2.25 15.25 5.27208 15.25 9H16.75C16.75 4.44365 13.0563 0.75 8.5 0.75V2.25ZM15.25 9C15.25 12.7279 12.2279 15.75 8.5 15.75V17.25C13.0563 17.25 16.75 13.5563 16.75 9H15.25ZM18.5303 17.9697L14.3336 13.773L13.273 14.8336L17.4697 19.0303L18.5303 17.9697Z" fill="#414042"/>
</svg>
