<svg width="205" height="180" viewBox="0 0 205 180" fill="none" xmlns="http://www.w3.org/2000/svg">
<mask id="mask0_643_3870" style="mask-type:alpha" maskUnits="userSpaceOnUse" x="49" y="12" width="111" height="145">
<path d="M54.8066 95.7656H115.601V108.492H54.8066V95.7656Z" fill="black"/>
<path d="M54.8066 116.989H115.601V157H54.8066V116.989Z" fill="black"/>
<path d="M141.067 53.0633V70.3795C137.609 71.9062 135.11 75.2407 134.813 79.2344L134.4 84.79H156.23L155.817 79.2344C155.52 75.2407 153.021 71.9062 149.563 70.3795V53.0633C149.563 37.5336 136.929 24.8993 121.399 24.8993H113.486C111.905 21.6275 108.555 19.3704 104.677 19.3704H94.9005V12H50.2272V21.777L69.1491 29.142L49.5449 35.6766L52.2314 43.7369L75.3464 36.032V47.2582H75.0717C63.8798 47.2582 54.8068 56.3312 54.8068 67.5231V87.2697H115.601V67.5231C115.601 56.3312 106.528 47.2582 95.3366 47.2582H94.9005V38.9244H104.677C108.555 38.9244 111.905 36.6673 113.486 33.3954H121.399C132.244 33.3954 141.067 42.2183 141.067 53.0633Z" fill="black"/>
<path d="M156.862 93.2861H133.768L131.176 128.146H159.454L156.862 93.2861Z" fill="black"/>
</mask>
<g mask="url(#mask0_643_3870)">
<rect x="40" y="3" width="125" height="163" fill="url(#paint0_linear_643_3870)"/>
</g>
<path fill-rule="evenodd" clip-rule="evenodd" d="M154.473 20.489C154.473 20.2677 154.429 20.0486 154.345 19.8442C154.26 19.6397 154.136 19.454 153.98 19.2975C153.823 19.1411 153.637 19.017 153.433 18.9324C153.229 18.8478 153.009 18.8043 152.788 18.8044H152.776C152.443 18.8068 152.119 18.9077 151.843 19.0943C151.568 19.2808 151.354 19.5447 151.229 19.8526C151.103 20.1606 151.071 20.4988 151.138 20.8247C151.204 21.1505 151.365 21.4495 151.601 21.6838C151.837 21.9181 152.138 22.0773 152.464 22.1413C152.79 22.2053 153.128 22.1713 153.435 22.0435C153.742 21.9158 154.005 21.7 154.189 21.4233C154.374 21.1467 154.472 20.8216 154.472 20.489H154.473ZM173 34.7209C172.142 34.7207 171.304 34.4663 170.591 33.9896C169.878 33.513 169.322 32.8356 168.994 32.0432C168.666 31.2507 168.58 30.3788 168.747 29.5376C168.915 28.6964 169.328 27.9237 169.935 27.3173C170.541 26.7108 171.314 26.2979 172.155 26.1306C172.996 25.9634 173.868 26.0493 174.661 26.3776C175.453 26.7059 176.13 27.2617 176.607 27.9749C177.083 28.6881 177.338 29.5265 177.338 30.3842C177.336 31.5341 176.879 32.6365 176.065 33.4494C175.252 34.2624 174.15 34.7197 173 34.7209ZM173 22.6789C171.476 22.679 169.986 23.131 168.719 23.9777C167.452 24.8244 166.465 26.0278 165.882 27.4358C165.299 28.8437 165.146 30.393 165.443 31.8876C165.741 33.3822 166.475 34.7551 167.552 35.8327C168.63 36.9102 170.003 37.6441 171.497 37.9413C172.992 38.2386 174.541 38.086 175.949 37.5028C177.357 36.9197 178.56 35.9321 179.407 34.665C180.254 33.3979 180.706 31.9082 180.706 30.3842C180.704 28.3413 179.891 26.3826 178.446 24.938C177.002 23.4934 175.043 22.6809 173 22.6789ZM205 6.228C204.998 7.87849 204.342 9.46085 203.175 10.628C202.008 11.7952 200.425 12.4518 198.775 12.4539H147.226C145.575 12.4518 143.993 11.7952 142.826 10.6281C141.659 9.46096 141.002 7.87858 141 6.228V0H205V6.228ZM200.453 16.6155C200.453 31.753 188.138 44.0685 173 44.0685C157.863 44.0685 145.548 31.7534 145.548 16.6155V15.6947L146.17 15.7625C146.52 15.8016 146.873 15.8216 147.226 15.8224H198.775C199.128 15.8216 199.48 15.8016 199.831 15.7625L200.453 15.6947L200.453 16.6155Z" fill="url(#paint1_linear_643_3870)"/>
<mask id="mask1_643_3870" style="mask-type:alpha" maskUnits="userSpaceOnUse" x="0" y="106" width="62" height="74">
<path d="M31 180C48.0943 180 62 161.431 62 138.604V114.135L31 106L0 114.135V138.604C0 161.431 13.9057 180 31 180ZM11.0714 147.319V138.604C11.0714 137.449 11.538 136.34 12.3685 135.523C13.199 134.706 14.3255 134.247 15.5 134.247H22.1429V127.711C22.1429 126.555 22.6094 125.447 23.44 124.63C24.2705 123.813 25.3969 123.353 26.5714 123.353H35.4286C36.6031 123.353 37.7295 123.813 38.56 124.63C39.3906 125.447 39.8571 126.555 39.8571 127.711V134.247H46.5C47.6745 134.247 48.801 134.706 49.6315 135.523C50.462 136.34 50.9286 137.449 50.9286 138.604V147.319C50.9286 148.475 50.462 149.583 49.6315 150.4C48.801 151.218 47.6745 151.677 46.5 151.677H39.8571V158.213C39.8571 159.369 39.3906 160.477 38.56 161.294C37.7295 162.111 36.6031 162.57 35.4286 162.57H26.5714C25.3969 162.57 24.2705 162.111 23.44 161.294C22.6094 160.477 22.1429 159.369 22.1429 158.213V151.677H15.5C14.3255 151.677 13.199 151.218 12.3685 150.4C11.538 149.583 11.0714 148.475 11.0714 147.319Z" fill="black"/>
<path d="M27.0714 152.357V159H35.9286V152.357C35.9286 151.183 36.3951 150.056 37.2257 149.226C38.0562 148.395 39.1826 147.929 40.3571 147.929H47V139.071H40.3571C39.1826 139.071 38.0562 138.605 37.2257 137.774C36.3951 136.944 35.9286 135.817 35.9286 134.643V128H27.0714V134.643C27.0714 135.817 26.6048 136.944 25.7743 137.774C24.9438 138.605 23.8174 139.071 22.6429 139.071H16V147.929H22.6429C23.8174 147.929 24.9438 148.395 25.7743 149.226C26.6048 150.056 27.0714 151.183 27.0714 152.357Z" fill="black"/>
</mask>
<g mask="url(#mask1_643_3870)">
<rect y="106" width="62" height="74" fill="url(#paint2_linear_643_3870)"/>
</g>
<defs>
<linearGradient id="paint0_linear_643_3870" x1="72.4427" y1="9.15094" x2="156.732" y2="137.15" gradientUnits="userSpaceOnUse">
<stop stop-color="#2BB04C"/>
<stop offset="1" stop-color="#63D0FF" stop-opacity="0"/>
</linearGradient>
<linearGradient id="paint1_linear_643_3870" x1="164.954" y1="-0.0893418" x2="179.433" y2="48.1206" gradientUnits="userSpaceOnUse">
<stop stop-color="#F47920"/>
<stop offset="1" stop-color="white"/>
</linearGradient>
<linearGradient id="paint2_linear_643_3870" x1="23.2054" y1="105.85" x2="59.3541" y2="175.288" gradientUnits="userSpaceOnUse">
<stop stop-color="#F47920"/>
<stop offset="1" stop-color="white"/>
</linearGradient>
</defs>
</svg>
