<svg width="7" height="13" viewBox="0 0 7 13" fill="none" xmlns="http://www.w3.org/2000/svg">
<path d="M6.53033 10.9697C6.82322 11.2626 6.82322 11.7374 6.53033 12.0303C6.23744 12.3232 5.76256 12.3232 5.46967 12.0303L6.53033 10.9697ZM1 6.5L0.469669 7.03033C0.329017 6.88968 0.25 6.69891 0.25 6.5C0.25 6.30109 0.329017 6.11032 0.469669 5.96967L1 6.5ZM5.46967 0.96967C5.76256 0.676777 6.23744 0.676777 6.53033 0.96967C6.82322 1.26256 6.82322 1.73744 6.53033 2.03033L5.46967 0.96967ZM5.46967 12.0303L0.469669 7.03033L1.53033 5.96967L6.53033 10.9697L5.46967 12.0303ZM0.469669 5.96967L5.46967 0.96967L6.53033 2.03033L1.53033 7.03033L0.469669 5.96967Z" fill="#DDDDDD"/>
</svg>
