<svg width="7" height="13" viewBox="0 0 7 13" fill="none" xmlns="http://www.w3.org/2000/svg">
<path d="M0.46967 10.9697C0.176777 11.2626 0.176777 11.7374 0.46967 12.0303C0.762563 12.3232 1.23744 12.3232 1.53033 12.0303L0.46967 10.9697ZM6 6.5L6.53033 7.03033C6.67098 6.88968 6.75 6.69891 6.75 6.5C6.75 6.30109 6.67098 6.11032 6.53033 5.96967L6 6.5ZM1.53033 0.96967C1.23744 0.676777 0.762563 0.676777 0.46967 0.96967C0.176777 1.26256 0.176777 1.73744 0.46967 2.03033L1.53033 0.96967ZM1.53033 12.0303L6.53033 7.03033L5.46967 5.96967L0.46967 10.9697L1.53033 12.0303ZM6.53033 5.96967L1.53033 0.96967L0.46967 2.03033L5.46967 7.03033L6.53033 5.96967Z" fill="#DDDDDD"/>
</svg>
