<svg width="185" height="90" viewBox="0 0 185 90" fill="none" xmlns="http://www.w3.org/2000/svg">
<path d="M46.8549 11.0006C42.044 11.0006 38 15.1102 38 19.9884V76C48.0312 69.7161 91.4617 44.8973 147 45.9178V11L46.8549 11.0006ZM94.2313 20.6559H97.0102L104.95 40.2522H101.009L99.3917 36.1933H91.6498L89.949 40.2522H86.0362L94.2313 20.6559ZM65.5074 20.7125H68.0308L73.189 33.2593L78.5495 20.7125H81.1031L84.2491 40.2516H80.5338L78.833 28.4242L73.6445 40.511H72.6245L67.6057 28.4242L65.7051 40.2516H61.9921L65.5074 20.7125ZM53.8246 20.7432C55.8945 20.7432 57.7947 21.4601 59.3826 22.8705L57.454 25.4317C56.4896 24.3385 55.5805 23.8799 54.3894 23.8799C52.8872 23.8799 51.7265 24.8271 51.7265 26.0072C51.7265 27.0425 52.3764 27.589 54.5891 28.4247C56.6876 29.2007 57.51 29.6342 58.3602 30.3538C59.4674 31.3037 60.0332 32.685 60.0332 34.382C60.0332 38.1509 57.37 40.712 53.4553 40.712C50.7334 40.712 48.6637 39.56 46.9633 37.0566L49.345 34.7265C50.1952 36.3655 51.6117 37.2877 53.3136 37.2877C54.987 37.2877 56.2343 36.1379 56.2343 34.5826C56.2343 33.8066 55.8947 33.1453 55.2143 32.6558C54.8447 32.3676 54.1363 32.0797 52.577 31.5049C49.1746 30.2668 47.9277 28.8584 47.9277 26.3259C47.9277 23.1027 50.4223 20.7436 53.8249 20.7436L53.8246 20.7432ZM95.5893 26.2665L92.8405 33.1719H98.2288L95.5893 26.2665Z" fill="white"/>
<path d="M42 78.9983H138.194C142.98 78.9983 147 75.021 147 70.3007L146.999 51.0304C94.6718 50.0676 53.3032 72.2683 42.0009 79" fill="white"/>
</svg>
