<svg width="16" height="20" viewBox="0 0 16 20" fill="none" xmlns="http://www.w3.org/2000/svg">
<path d="M12.0532 4.30355e-08C12.5554 -5.74862e-05 13.0497 0.145612 13.4912 0.42378C13.9327 0.701948 14.3074 1.1038 14.5812 1.59285C14.855 2.08189 15.0193 2.64263 15.0591 3.22415C15.099 3.80566 15.0131 4.38953 14.8094 4.92272C14.6056 5.45592 14.2904 5.92154 13.8924 6.27732C13.4943 6.63309 13.0261 6.86775 12.5301 6.95997C12.0342 7.05218 11.5263 6.99905 11.0525 6.80538C10.5787 6.61172 10.1541 6.28366 9.81721 5.851L5.89285 8.455C6.07666 9.13634 6.07666 9.86666 5.89285 10.548L9.81635 13.154C10.3152 12.5138 11.0001 12.1102 11.7395 12.0207C12.479 11.9313 13.2208 12.1623 13.8226 12.6693C14.4243 13.1764 14.8435 13.9238 14.9998 14.768C15.156 15.6122 15.0382 16.4937 14.6689 17.2431C14.2997 17.9926 13.7051 18.5572 12.9993 18.8285C12.2936 19.0998 11.5264 19.0587 10.8451 18.7131C10.1638 18.3675 9.61646 17.7417 9.30819 16.956C8.99992 16.1702 8.95246 15.2799 9.17491 14.456L5.25142 11.849C4.84278 12.3738 4.30684 12.7425 3.71421 12.9066C3.12158 13.0706 2.50006 13.0223 1.93153 12.768C1.36301 12.5137 0.874147 12.0653 0.529351 11.482C0.184554 10.8986 0 10.2076 0 9.5C0 8.7924 0.184554 8.1014 0.529351 7.51803C0.874147 6.93466 1.36301 6.48629 1.93153 6.23198C2.50006 5.97768 3.12158 5.92937 3.71421 6.09342C4.30684 6.25747 4.84278 6.62619 5.25142 7.151L9.17491 4.547C9.03376 4.02263 9.00082 3.46704 9.07873 2.92515C9.15665 2.38325 9.34325 1.87025 9.62344 1.4276C9.90364 0.984959 10.2696 0.625093 10.6917 0.377093C11.1137 0.129092 11.5802 -8.60801e-05 12.0532 4.30355e-08ZM12.0532 13.5C11.596 13.5 11.1576 13.7109 10.8343 14.0864C10.5111 14.4618 10.3295 14.971 10.3295 15.502C10.3295 16.033 10.5111 16.5422 10.8343 16.9176C11.1576 17.2931 11.596 17.504 12.0532 17.504C12.5103 17.504 12.9488 17.2931 13.272 16.9176C13.5953 16.5422 13.7769 16.033 13.7769 15.502C13.7769 14.971 13.5953 14.4618 13.272 14.0864C12.9488 13.7109 12.5103 13.5 12.0532 13.5ZM3.01459 7.5C2.55744 7.5 2.11902 7.71092 1.79576 8.08637C1.47251 8.46182 1.29091 8.97104 1.29091 9.502C1.29091 10.033 1.47251 10.5422 1.79576 10.9176C2.11902 11.2931 2.55744 11.504 3.01459 11.504C3.47174 11.504 3.91017 11.2931 4.23342 10.9176C4.55668 10.5422 4.73828 10.033 4.73828 9.502C4.73828 8.97104 4.55668 8.46182 4.23342 8.08637C3.91017 7.71092 3.47174 7.5 3.01459 7.5ZM12.0532 1.5C11.596 1.5 11.1576 1.71092 10.8343 2.08637C10.5111 2.46182 10.3295 2.97104 10.3295 3.502C10.3295 4.03296 10.5111 4.54218 10.8343 4.91763C11.1576 5.29308 11.596 5.504 12.0532 5.504C12.5103 5.504 12.9488 5.29308 13.272 4.91763C13.5953 4.54218 13.7769 4.03296 13.7769 3.502C13.7769 2.97104 13.5953 2.46182 13.272 2.08637C12.9488 1.71092 12.5103 1.5 12.0532 1.5Z" fill="black"/>
</svg>
