<svg width="90" height="91" viewBox="0 0 90 91" fill="none" xmlns="http://www.w3.org/2000/svg">
<path d="M44.9999 90.0582C69.6347 90.0582 89.6052 70.152 89.6052 45.5965C89.6052 21.0409 69.6347 1.13477 44.9999 1.13477C20.365 1.13477 0.394531 21.0409 0.394531 45.5965C0.394531 70.152 20.365 90.0582 44.9999 90.0582Z" fill="white"/>
<path d="M45 90.4524C20.1833 90.4524 0 70.3262 0 45.5973C0 20.8684 20.1833 0.742188 45 0.742188C69.8167 0.742188 90 20.8605 90 45.5973C90 70.3341 69.8167 90.4524 45 90.4524ZM45 1.53685C20.6174 1.52898 0.789335 21.3011 0.789335 45.5973C0.789335 69.8935 20.6174 89.6656 45 89.6656C69.3826 89.6656 89.2107 69.9013 89.2107 45.5973C89.2107 21.2932 69.3747 1.52898 45 1.52898V1.53685Z" fill="#676767"/>
<path d="M63.6593 76.7394L37.0271 76.5348C32.1016 76.4955 28.1234 72.4671 28.1629 67.5575L28.4707 27.7379C28.4944 24.2052 25.637 21.3098 22.0929 21.2783C18.5487 21.2547 15.644 24.1029 15.6124 27.6356L15.5808 32.0023L25.0844 32.0731C25.4949 32.0731 25.8264 32.4115 25.8185 32.8206C25.8106 33.2297 25.4791 33.5602 25.0687 33.5523L14.8231 33.4736C14.4126 33.4736 14.0811 33.1353 14.089 32.7262L14.1285 27.6199C14.16 23.2689 17.7357 19.7598 22.1008 19.7992C26.4658 19.8306 29.9862 23.3948 29.9546 27.7458L29.6468 67.5654C29.6152 71.6646 32.9304 75.0242 37.0429 75.0557C41.1553 75.0871 44.5258 71.7826 44.5573 67.6834L44.5731 65.6456C44.5731 65.2365 44.9125 64.906 45.323 64.9139L69.9029 65.1027C70.3134 65.1027 70.6449 65.441 70.637 65.8502L70.6054 69.9336C70.5738 73.7181 67.4639 76.7709 63.6672 76.7473L63.6593 76.7394ZM41.9604 75.095L63.6672 75.2602C66.6508 75.2838 69.0899 72.8841 69.1136 69.9179L69.1372 66.574L46.0334 66.3931V67.6991C46.0018 70.7991 44.3837 73.5214 41.9525 75.095H41.9604Z" fill="#6D6E71"/>
<path d="M61.7251 27.6984C61.3936 27.6984 61.0936 27.4702 61.0147 27.1397C60.1859 23.8588 57.2417 21.5456 53.8396 21.522L22.0847 21.2781C21.6742 21.2781 21.3427 20.9398 21.3506 20.5307C21.3585 20.1216 21.69 19.7911 22.1005 19.799L53.8554 20.0429C57.9284 20.0743 61.4646 22.8439 62.4513 26.7778C62.5539 27.1712 62.3092 27.5725 61.9145 27.6748C61.8514 27.6905 61.7882 27.6984 61.7251 27.6984Z" fill="#6D6E71"/>
<path d="M35.4327 62.3332C34.8486 62.3332 34.5329 62.1758 34.3276 61.7903V61.3891C34.3592 61.3418 34.3829 61.2946 34.4066 61.2474L35.6221 58.4228C37.3192 54.481 39.0163 50.5313 40.7055 46.5895C40.9186 46.0859 41.2027 45.8814 41.7079 45.8814H41.7553C42.1657 45.8892 42.5762 45.8971 42.9866 45.8971C43.2945 45.8971 44.518 45.8971 44.8179 45.8971H46.0808L45.773 45.2913C45.7256 45.1968 45.6862 45.1182 45.6467 45.0395C45.4731 44.6854 45.2994 44.3392 45.1257 43.9852C44.7469 43.222 44.3522 42.4352 44.0049 41.6484C42.8998 39.0913 42.6157 36.6837 43.1366 34.2683C43.9891 30.3107 46.2387 27.911 50.0117 26.9354C50.2959 26.8646 50.5958 26.8095 50.9037 26.7544C51.0379 26.7308 51.1721 26.7072 51.3141 26.6836H52.9875C53.0665 26.7151 53.1454 26.7387 53.2243 26.7465C55.4502 27.0062 57.2973 27.8795 58.7102 29.3587C61.0782 31.8371 61.9465 35 61.2913 38.7609C60.944 40.7593 60.1073 42.5847 58.9549 44.7012L58.3234 45.8656L58.9944 45.8971C59.0891 45.8971 59.168 45.905 59.2469 45.905C59.2469 45.905 60.9203 45.905 61.2755 45.905C61.7412 45.905 62.207 45.905 62.6727 45.8892C63.2173 45.8892 63.5094 46.0859 63.7067 46.5659C64.2198 47.7933 64.7486 49.0128 65.2775 50.2402L66.7535 53.6785C67.8191 56.1569 68.8847 58.6274 69.9424 61.1137C70.0372 61.3418 70.0766 61.6015 70.0529 61.7824C70.0293 61.9162 69.9661 62.3332 69.1373 62.3332H57.171C49.9328 62.3332 42.6867 62.3332 35.4485 62.3411L35.4327 62.3332ZM45.623 53.8516L45.8993 54.2135C45.9309 54.2607 45.9624 54.2922 45.994 54.3236L46.6255 54.9531C48.512 56.8335 50.3906 58.7061 52.2771 60.5787C52.4192 60.7203 52.6481 60.8147 52.8612 60.8226C53.1612 60.8304 53.4532 60.8383 53.7532 60.8383C54.0058 60.8383 54.2584 60.8383 54.5188 60.8226C54.8267 60.8068 55.1187 60.736 55.3555 60.618C58.355 59.0759 61.3545 57.518 64.3539 55.9602L65.2775 55.4802C65.3406 55.4488 65.4038 55.4094 65.4669 55.3622L65.7669 55.1655L65.0801 53.5683C64.2434 51.6328 63.4225 49.7052 62.6016 47.7854C62.428 47.3763 62.0728 47.3763 61.9307 47.3763H61.7412C61.1019 47.3763 60.4625 47.3763 59.8232 47.3763C59.1838 47.3763 58.5208 47.3763 57.8735 47.3684C57.4394 47.3684 57.2263 47.5808 57.0684 47.7933C55.7186 49.6186 54.3294 51.4991 52.9165 53.348C52.6876 53.647 52.4508 53.8044 52.2298 53.8044C51.9456 53.8044 51.6772 53.5605 51.5036 53.3559C51.2036 53.0018 50.9037 52.6399 50.6037 52.2701L50.0512 51.6013L45.6309 53.8516H45.623ZM44.0522 54.7249C43.9102 54.7249 43.7918 54.7879 43.7128 54.8272L37.7455 57.88C37.5955 57.9508 37.4297 58.0373 37.3508 58.2104C37.1061 58.7533 36.8693 59.3041 36.6246 59.8705L36.2141 60.8226H50.0986L49.8381 60.3505L49.8144 60.3033C49.7907 60.2639 49.767 60.2089 49.7118 60.1538L48.212 58.6589C46.9649 57.4157 45.7099 56.1647 44.4627 54.9137C44.3443 54.7879 44.2022 54.7328 44.0522 54.7328V54.7249ZM59.2469 60.2954L59.3969 60.618L59.4837 60.8147H68.198L66.3825 56.6053L59.2548 60.2954H59.2469ZM42.5367 47.3684C42.0552 47.3684 41.8737 47.6516 41.7632 47.8955C41.0528 49.5793 40.3266 51.2552 39.6083 52.9389L38.8821 54.6226C38.8505 54.7013 38.819 54.78 38.7716 54.8901L38.3848 55.8658L49.1119 50.3897L48.4646 49.4534C48.0779 48.8948 47.699 48.344 47.3359 47.7933C47.1385 47.5021 46.9017 47.3684 46.5702 47.3684C45.8835 47.3684 45.2126 47.3763 44.5416 47.3763C43.8707 47.3763 43.2156 47.3763 42.5525 47.3684H42.5367ZM52.1271 28.1785C49.696 28.1785 47.699 29.1148 46.2071 30.9716C44.9521 32.5373 44.3601 34.4886 44.3996 36.9591C44.4311 38.8396 45.11 40.5626 45.7651 42.0025C47.3043 45.3463 49.4197 48.2889 51.0852 50.4762C51.2668 50.7123 51.4562 50.9483 51.6535 51.2001L52.1903 51.8846L52.6481 51.3102C52.7902 51.1293 52.9244 50.964 53.0586 50.7909C54.803 48.5407 57.0052 45.5116 58.6234 42.0103C59.7916 39.4847 60.1863 37.4233 59.9179 35.3305C59.389 31.2391 56.5553 28.446 52.7113 28.21C52.5139 28.1942 52.3166 28.1942 52.1193 28.1942L52.1271 28.1785Z" fill="#6D6E71"/>
<path d="M52.198 38.855C50.6114 38.855 49.3169 37.5647 49.3169 35.9832C49.3169 34.4018 50.6035 33.1036 52.1901 33.0957C53.7845 33.0957 55.079 34.386 55.079 35.9675C55.079 37.5568 53.7924 38.855 52.2059 38.8629H52.1901L52.198 38.855ZM52.198 34.5906C51.4402 34.5906 50.8166 35.2043 50.8087 35.9596C50.8087 36.3216 50.9587 36.6835 51.2192 36.951C51.4876 37.2185 51.827 37.3601 52.1901 37.3601C52.9715 37.3444 53.5872 36.715 53.5793 35.9596C53.5793 35.2043 52.9557 34.5906 52.1901 34.5906H52.198Z" fill="#F47920"/>
<path d="M36.2141 35.6438C36.3483 35.7775 36.5298 35.8562 36.7192 35.8562C36.7587 35.8562 36.7982 35.8562 36.8297 35.8484C37.0587 35.8169 37.256 35.6753 37.3586 35.4707L45.473 25.4627C45.6545 25.1086 45.5124 24.6838 45.1651 24.5028C44.8099 24.3218 44.3837 24.4635 44.2021 24.8096L36.5377 33.9443L34.2723 31.6547C33.996 31.3715 33.5461 31.3715 33.2619 31.6547C32.9778 31.9301 32.9778 32.3786 33.2619 32.6618L36.222 35.6517L36.2141 35.6438Z" fill="#0DB04B"/>
</svg>
