<svg width="185" height="90" viewBox="0 0 185 90" fill="none" xmlns="http://www.w3.org/2000/svg">
<path fill-rule="evenodd" clip-rule="evenodd" d="M10.4271 25.4735H174.73C175.291 25.4733 175.846 25.5834 176.364 25.7975C176.882 26.0115 177.353 26.3255 177.749 26.7212C178.146 27.117 178.46 27.587 178.675 28.1042C178.89 28.6214 179 29.1757 179 29.7356V59.5682C179 60.128 178.89 60.6823 178.675 61.1994C178.46 61.7165 178.146 62.1863 177.749 62.582C177.353 62.9776 176.882 63.2914 176.364 63.5053C175.846 63.7192 175.291 63.8291 174.73 63.8286H10.4271C9.86675 63.8288 9.3118 63.7188 8.794 63.5048C8.27619 63.2908 7.80568 62.977 7.40934 62.5814C7.013 62.1857 6.6986 61.716 6.48409 61.199C6.26959 60.682 6.15918 60.1279 6.15918 59.5682V29.7356C6.15896 29.1758 6.2692 28.6215 6.48361 28.1043C6.69801 27.5871 7.01238 27.1172 7.40874 26.7213C7.80511 26.3255 8.27569 26.0116 8.79361 25.7975C9.31152 25.5834 9.86661 25.4733 10.4271 25.4735" fill="white"/>
<path fill-rule="evenodd" clip-rule="evenodd" d="M174.731 27.6046H10.4272C9.24785 27.6046 8.29321 28.5579 8.29321 29.7356V59.5683C8.29321 60.7443 9.24785 61.6993 10.4272 61.6993H174.731C175.91 61.6993 176.865 60.746 176.865 59.5683V29.7356C176.865 28.5579 175.91 27.6046 174.731 27.6046Z" fill="white"/>
<path d="M45.3701 35.7642L44.5168 36.0071C43.7852 36.1607 43.5098 36.4644 43.2361 37.3164L37.7482 54.854C37.657 55.1273 37.4745 55.3112 37.2295 55.3112H33.6323C33.389 55.3112 33.1761 55.129 33.1153 54.854L29.7006 43.4362L26.4075 54.854C26.3467 55.1273 26.1338 55.3112 25.8888 55.3112H22.2916C22.0483 55.3112 21.8658 55.129 21.7729 54.854L15.8897 37.0127C15.6447 36.2518 15.2797 36.0679 14.4873 35.916L13.6036 35.7642C13.3603 35.7338 13.2065 35.6123 13.2065 35.3676V34.3941C13.2065 34.1494 13.3603 33.9976 13.6036 33.9976H24.7922C25.0355 33.9976 25.1876 34.1494 25.1876 34.3941V35.3676C25.1876 35.6123 25.0355 35.7034 24.7922 35.7338L23.9086 35.8873C23.3594 35.9784 22.9928 36.2214 22.9928 36.6787C22.9928 36.8305 23.0249 36.9807 23.084 37.1646L25.8888 46.6319L29.2427 34.4548C29.3035 34.1815 29.5181 33.9976 29.7614 33.9976H33.2369C33.4802 33.9976 33.6627 34.1815 33.7557 34.4548L37.5962 47.0891L40.2184 37.9272C40.3384 37.529 40.4617 36.9216 40.4617 36.6162C40.4617 36.1607 40.1863 36.0071 39.5477 35.8873L38.784 35.7642C38.5406 35.7338 38.3903 35.6123 38.3903 35.3676V34.3941C38.3903 34.1494 38.5406 33.9976 38.784 33.9976H45.3701C45.6134 33.9976 45.7654 34.1494 45.7654 34.3941V35.3676C45.7654 35.6123 45.6134 35.7034 45.3701 35.7642V35.7642ZM67.4128 55.3095H54.8809C54.6393 55.3095 54.4839 55.1577 54.4839 54.9147V53.9412C54.4839 53.6965 54.668 53.5446 54.913 53.5446L56.04 53.4248C56.9254 53.3641 57.1383 52.8765 56.8645 52.1459L55.7967 49.345H48.3573L47.8082 50.6527C47.5953 51.201 47.4128 51.719 47.4128 52.1155C47.4128 53.0283 47.8386 53.273 48.7848 53.4232L49.6685 53.543C49.9135 53.575 50.0655 53.6965 50.0655 53.9395V54.913C50.0655 55.1577 49.9135 55.3078 49.6685 55.3078H42.4437C42.2004 55.3078 42.0466 55.156 42.0466 54.913V53.9395C42.0466 53.6948 42.2004 53.5733 42.4437 53.543L43.084 53.4232C43.8765 53.2713 44.2718 52.8141 44.6993 51.7781L51.8937 34.4548C52.0153 34.1815 52.1674 33.9976 52.4124 33.9976H57.1383C57.3816 33.9976 57.5657 34.1815 57.6553 34.4548L64.9122 52.4175C65.1251 52.9659 65.4613 53.2392 66.1321 53.3304L67.4128 53.543C67.6544 53.575 67.8082 53.6965 67.8082 53.9395V54.913C67.8082 55.1577 67.6544 55.3095 67.4128 55.3095V55.3095ZM52.2603 39.6618L49.2106 47.1516H55.0043L52.2603 39.6618ZM86.9228 54.7629C85.4596 55.3703 82.8677 55.8883 80.063 55.8883C72.289 55.8883 67.1374 51.2297 67.1374 44.5329C67.1374 37.9559 72.5949 33.4205 80.3367 33.4205C82.349 33.4205 84.9105 33.7563 86.6474 34.3013C87.2878 34.5156 87.4719 34.7282 87.4719 35.6123V40.2709C87.4719 40.5138 87.3182 40.6674 87.0749 40.6674H85.4292C85.0929 40.6674 84.8192 40.5459 84.6976 40.2405L83.8747 38.2006C83.1127 36.3125 82.1969 35.4908 80.308 35.4908C77.2278 35.4908 75.4909 38.9312 75.4909 44.624C75.4909 50.3473 77.2886 53.818 80.5513 53.818C82.4402 53.818 83.5689 52.9659 84.0876 51.5334L85.0017 48.9148C85.125 48.5807 85.3988 48.4896 85.7333 48.4896H87.4415C87.6848 48.4896 87.8386 48.6414 87.8386 48.8827V53.2696C87.8386 54.336 87.7152 54.4271 86.9228 54.7629V54.7629ZM117.775 55.3095H109.055C108.597 55.3095 108.263 55.1273 108.05 54.7308L102.805 45.2011L101.22 46.3889V52.0227C101.22 52.7533 101.587 53.0553 102.134 53.2106L103.202 53.543C103.476 53.6037 103.63 53.6965 103.63 53.9395V54.913C103.63 55.1577 103.476 55.3078 103.233 55.3078H91.2212C90.9779 55.3078 90.8258 55.156 90.8258 54.913V53.9395C90.8258 53.6948 90.9779 53.5733 91.2212 53.543L92.5627 53.2392C93.4768 53.0267 93.7826 52.7213 93.7826 51.8692V37.4396C93.7826 36.434 93.3248 36.2214 92.3803 36.0071L91.2212 35.7642C90.9779 35.7338 90.8258 35.6123 90.8258 35.3676V34.3941C90.8258 34.1494 90.9779 33.9976 91.2212 33.9976H103.233C103.476 33.9976 103.63 34.1494 103.63 34.3941V35.3676C103.63 35.6123 103.476 35.7034 103.202 35.7642L102.562 35.9784C101.678 36.2214 101.22 36.4036 101.22 37.3789V43.2843L107.744 38.0167C108.568 37.3789 109.085 36.8913 109.085 36.5555C109.085 36.191 108.842 36.0392 108.445 35.9481L107.624 35.7642C107.379 35.7338 107.227 35.6123 107.227 35.3676V34.3941C107.227 34.1494 107.379 33.9976 107.624 33.9976H116.037C116.28 33.9976 116.434 34.1494 116.434 34.3941V35.3676C116.434 35.6123 116.28 35.7034 116.037 35.7642L114.725 36.1303C114.085 36.2821 113.477 36.5555 112.745 37.227L108.568 40.88L115.307 52.1138C115.763 52.8731 116.28 53.1785 116.861 53.2983L117.775 53.543C118.018 53.6037 118.171 53.6965 118.171 53.9395V54.913C118.171 55.1577 118.018 55.3095 117.775 55.3095V55.3095ZM140.09 55.3095H120.122C119.879 55.3095 119.725 55.1577 119.725 54.9147V53.9412C119.725 53.6965 119.879 53.575 120.122 53.5446L121.494 53.2409C122.347 53.057 122.684 52.7533 122.684 51.8709V37.4396C122.684 36.5268 122.317 36.2518 121.494 36.0679L120.122 35.7642C119.879 35.7338 119.725 35.6123 119.725 35.3676V34.3941C119.725 34.1494 119.879 33.9976 120.122 33.9976H139.298C139.543 33.9976 139.693 34.1494 139.693 34.3941V39.7529C139.693 39.9958 139.543 40.1477 139.298 40.1477H137.988C137.682 40.1477 137.409 40.0566 137.255 39.7225L136.065 37.4076C135.67 36.6483 135.121 36.4036 133.903 36.4036H130.121V43.0717H132.041C132.59 43.0717 132.987 42.8591 133.141 42.2197L133.353 41.2141C133.414 40.9407 133.506 40.7872 133.718 40.7872H135.03C135.275 40.7872 135.427 40.9407 135.427 41.1837V47.2714C135.427 47.5464 135.275 47.6982 135.03 47.6982H133.718C133.506 47.6982 133.414 47.5464 133.353 47.2714L133.141 46.2674C132.987 45.5993 132.59 45.4154 132.041 45.4154H130.121V52.8444H134.573C135.976 52.8444 136.706 52.539 136.92 51.7477L137.743 48.7646C137.834 48.4592 138.049 48.3681 138.262 48.3681H140.06C140.335 48.3681 140.485 48.5199 140.485 48.8861V54.9147C140.485 55.1577 140.335 55.3095 140.09 55.3095V55.3095ZM168.655 55.3095H160.301C159.845 55.3095 159.662 55.0666 159.541 54.7629L155.852 46.2674H153.565V51.9316C153.565 52.8748 153.747 53.0553 154.418 53.2392L155.486 53.543C155.759 53.6037 155.913 53.6965 155.913 53.9395V54.913C155.913 55.1577 155.759 55.3078 155.518 55.3078H143.596C143.353 55.3078 143.199 55.156 143.199 54.913V53.9395C143.199 53.6948 143.353 53.5733 143.596 53.543L144.968 53.2392C145.821 53.0553 146.157 52.7516 146.157 51.9316V37.4396C146.157 36.5875 145.882 36.2821 145.091 36.0999L143.596 35.7642C143.353 35.7338 143.199 35.6123 143.199 35.3676V34.3941C143.199 34.1494 143.353 33.9976 143.596 33.9976H157.773C163.32 33.9976 166.338 36.0999 166.338 39.9655C166.338 42.493 164.664 44.2596 162.437 45.1117L165.973 51.962C166.338 52.6622 166.705 52.998 167.284 53.1481L168.626 53.543C168.9 53.6037 169.052 53.6965 169.052 53.9395V54.913C169.052 55.1577 168.9 55.3095 168.655 55.3095V55.3095ZM155.15 35.9481H153.565V43.9846H154.724C156.859 43.9846 158.321 42.6145 158.321 39.9655C158.321 37.4076 156.888 35.9481 155.15 35.9481V35.9481Z" fill="#F47920"/>
</svg>
