<svg width="18" height="21" viewBox="0 0 18 21" fill="none" xmlns="http://www.w3.org/2000/svg">
<path d="M9 19.5L8.69071 20.1833C8.8873 20.2722 9.1127 20.2722 9.30929 20.1833L9 19.5ZM11.25 9.5C11.25 10.7426 10.2426 11.75 9 11.75V13.25C11.0711 13.25 12.75 11.5711 12.75 9.5H11.25ZM9 11.75C7.75736 11.75 6.75 10.7426 6.75 9.5H5.25C5.25 11.5711 6.92893 13.25 9 13.25V11.75ZM6.75 9.5C6.75 8.25736 7.75736 7.25 9 7.25V5.75C6.92893 5.75 5.25 7.42893 5.25 9.5H6.75ZM9 7.25C10.2426 7.25 11.25 8.25736 11.25 9.5H12.75C12.75 7.42893 11.0711 5.75 9 5.75V7.25ZM16.25 9.5C16.25 13.482 12.9996 16.8663 8.69071 18.8167L9.30929 20.1833C13.837 18.1337 17.75 14.3545 17.75 9.5H16.25ZM9.30929 18.8167C5.00044 16.8663 1.75 13.482 1.75 9.5H0.25C0.25 14.3545 4.163 18.1337 8.69071 20.1833L9.30929 18.8167ZM1.75 9.5C1.75 5.49594 4.99594 2.25 9 2.25V0.75C4.16751 0.75 0.25 4.66751 0.25 9.5H1.75ZM9 2.25C13.0041 2.25 16.25 5.49594 16.25 9.5H17.75C17.75 4.66751 13.8325 0.75 9 0.75V2.25Z" fill="white"/>
</svg>
