<svg width="185" height="90" viewBox="0 0 185 90" fill="none" xmlns="http://www.w3.org/2000/svg">
<path d="M40.4536 54.5573V49.649L47.8419 54.5573H65.0238L50.282 44.735L52.0561 43.6439L68.3915 54.5573H74.7411V34.9478H64.995V39.8736L57.6585 34.9478H47.7196L40.4536 39.8736V34.9128L30.5845 41.5016V47.9511L24.0888 43.6089L37.197 34.9128H20.791L6.05493 44.735L20.791 54.5573H40.4536Z" fill="white"/>
<path d="M78.0093 54.5573L92.7516 44.735L78.0093 34.9128H78.0155H86.2154L100.963 44.735L86.2154 54.5573H78.5755H78.0093Z" fill="white"/>
<path d="M108.953 43.4871C108.978 42.8623 108.492 42.3354 107.867 42.3105C107.801 42.308 107.734 42.3111 107.669 42.3198C106.064 42.3198 105.749 43.808 105.749 44.818C105.717 45.4472 105.91 46.0677 106.292 46.5689C106.69 46.9909 107.261 47.2063 107.839 47.1526C108.201 47.1726 108.565 47.1289 108.912 47.024V45.6407H107.64V44.5433H110.325V47.8292C109.551 48.0927 108.737 48.215 107.92 48.1913C106.42 48.1913 105.65 47.8292 105.131 47.3161C104.523 46.6463 104.209 45.7618 104.256 44.8592C104.256 42.5246 105.714 41.2817 107.705 41.2817C108.535 41.233 109.347 41.5333 109.946 42.1107C110.269 42.4952 110.438 42.9859 110.419 43.4877H108.953V43.4871Z" fill="white"/>
<path d="M111.603 41.4784H113.009V44.3093L115.215 41.4609H116.861L114.451 44.3792L117.072 48.0091H115.321L112.986 44.6589V48.0091H111.58L111.603 41.4784Z" fill="white"/>
<path d="M117.713 41.4465H119.756L122.219 46.6232V41.4465H123.532V48.024H121.595L119.044 42.5614V48.024H117.713V41.4465V41.4465Z" fill="white"/>
<path d="M130.039 41.4465L132.327 48.024H130.903L130.431 46.6058H127.828L127.338 48.024H125.989L128.364 41.4465H130.039ZM130.074 45.5315L129.163 42.7299L128.195 45.5315H130.074Z" fill="white"/>
<path d="M133.01 41.4578H137.411V42.5314H134.417V44.0957H137.224V45.1694H134.417V46.9204H137.51V48.0115H133.011V41.4578H133.01Z" fill="white"/>
<path d="M138.438 41.4671H140.965C141.662 41.3654 142.372 41.5233 142.961 41.911C143.331 42.2275 143.544 42.6906 143.545 43.1775C143.527 43.984 142.93 44.6601 142.132 44.7768C143.124 44.8642 143.194 45.4304 143.299 46.2887C143.404 47.1464 143.457 47.3798 143.503 47.5608C143.534 47.7313 143.601 47.8929 143.702 48.0334H142.144C142.085 47.6713 141.881 46.0021 141.794 45.7512C141.665 45.3779 141.321 45.3779 141.081 45.3779H139.844V48.0334H138.403L138.438 41.4671ZM139.833 44.3386H140.965C141.218 44.3579 141.47 44.2943 141.683 44.1576C141.925 43.9797 142.063 43.6931 142.051 43.3929C142.072 43.1032 141.939 42.8236 141.701 42.6575C141.416 42.5077 141.091 42.4528 140.772 42.5002H139.827L139.833 44.3386Z" fill="white"/>
<path d="M147.461 41.2963C148.331 41.2463 149.181 41.5716 149.796 42.1889C150.36 42.888 150.656 43.7657 150.63 44.6633C150.66 45.5922 150.369 46.5029 149.807 47.2427C149.193 47.8656 148.347 48.204 147.473 48.1765C146.605 48.2077 145.761 47.8831 145.138 47.2776C144.571 46.5878 144.282 45.7121 144.327 44.8207C144.304 43.0703 145.091 41.2963 147.461 41.2963ZM146.294 46.6128C146.569 46.9742 147.008 47.1715 147.461 47.1378C147.945 47.1821 148.415 46.958 148.686 46.5541C149.03 45.9886 149.188 45.3288 149.136 44.669C149.141 44.2738 149.086 43.8799 148.972 43.5017C148.806 42.8081 148.18 42.3231 147.467 42.3344C146.995 42.3287 146.548 42.5447 146.259 42.918C145.604 44.0834 145.604 45.5054 146.259 46.6709L146.294 46.6128Z" fill="white"/>
<path d="M152.573 45.903C152.475 46.4879 152.869 47.0416 153.454 47.1402C153.558 47.1577 153.665 47.1595 153.769 47.1464C154.534 47.1464 155.012 46.7844 155.012 46.2301C155.012 45.6757 154.604 45.5472 153.769 45.3487C152.199 44.9579 151.347 44.491 151.347 43.3524C151.347 42.2138 152.118 41.3155 153.95 41.3155C154.695 41.2587 155.424 41.5415 155.935 42.0858C156.196 42.4373 156.328 42.868 156.308 43.3056H154.972C154.99 42.7706 154.572 42.3224 154.037 42.3037C153.995 42.3024 153.952 42.3037 153.909 42.3074C153.256 42.3074 152.824 42.6632 152.824 43.2001C152.824 43.7369 153.308 43.9179 154.254 44.1514C155.392 44.4254 156.512 44.735 156.512 46.0191C156.512 47.1864 155.526 48.1608 153.711 48.1608C151.19 48.1608 151.166 46.5384 151.16 45.9023L152.573 45.903Z" fill="white"/>
<path d="M157.481 41.4553H159.513C160.458 41.4553 161.264 41.5196 161.795 42.1732C162.069 42.5215 162.212 42.9553 162.197 43.3985C162.231 44.0864 161.915 44.745 161.357 45.1495C160.897 45.3867 160.38 45.4941 159.864 45.4591H158.912V48.0153H157.482V41.4553H157.481ZM158.87 44.4142H159.454C159.909 44.4142 160.756 44.4142 160.756 43.4104C160.756 42.5178 160.003 42.5178 159.588 42.5178H158.876L158.87 44.4142Z" fill="white"/>
<path d="M165.635 41.4465L167.923 48.024H166.499L166.026 46.6058H163.423L162.933 48.024H161.585L163.96 41.4465H165.635ZM165.676 45.5315L164.765 42.7299L163.791 45.5315H165.676Z" fill="white"/>
<path d="M172.078 43.5466C172.078 43.3187 171.973 42.3793 171.016 42.3793C169.971 42.3793 169.533 43.4704 169.533 44.8244C169.533 45.2151 169.533 47.0828 170.905 47.0828C171.549 47.0847 172.073 46.5629 172.075 45.9187C172.075 45.8906 172.074 45.8625 172.072 45.8344H173.554C173.562 46.4049 173.353 46.9574 172.971 47.3812C172.461 47.8831 171.765 48.1515 171.051 48.1222C168.78 48.1222 168.045 46.4474 168.045 44.8131C168.045 42.7295 169.212 41.3462 171.056 41.3462C172.498 41.3462 173.508 42.2214 173.508 43.5347L172.078 43.5466Z" fill="white"/>
<path d="M174.494 41.4578H178.901V42.5314H175.907V44.0957H178.714V45.1694H175.907V46.9204H179V48.0115H174.5L174.494 41.4578Z" fill="white"/>
</svg>
