<svg width="185" height="90" viewBox="0 0 185 90" fill="none" xmlns="http://www.w3.org/2000/svg">
<g clip-path="url(#clip0_2951_7827)">
<path d="M32.6552 75.0825H29.9297V84.9523H32.6552C35.82 84.9523 37.8636 83.0166 37.8636 80.0163C37.8636 77.016 35.82 75.0825 32.6552 75.0825ZM31.8039 76.8727H32.5865C34.7536 76.8727 35.9459 77.985 35.9459 80.0163C35.9459 82.0475 34.7536 83.1621 32.5865 83.1621H31.8085L31.8039 76.8727Z" fill="white"/>
<path d="M41.8291 75.0825H39.9297V84.9523H41.8291V75.0825Z" fill="white"/>
<path d="M43.6094 76.8727H46.3829V84.9523H48.2571V76.8727H51.0078V75.0825H43.6094V76.8727Z" fill="white"/>
<path d="M58.3276 75.0825L56.0415 79.0245L53.7279 75.0825H51.5859L55.0918 81.033V84.9523H56.966V81.033L60.4215 75.0825H58.3276Z" fill="white"/>
<path d="M80.1832 79.7274C80.4209 79.4801 80.6058 79.1876 80.7269 78.8674C80.8481 78.5473 80.9029 78.2061 80.888 77.8644C80.888 76.1698 79.6958 75.0825 77.8216 75.0825H74.3203V84.9523H78.0184C80.039 84.9523 81.3274 83.7899 81.3274 81.9952C81.3274 81.0035 80.9384 80.2051 80.1832 79.7206M77.7506 76.8454C78.6019 76.8454 79.0161 77.1843 79.0161 77.9099C79.0161 78.6355 78.6751 78.9745 77.8971 78.9745H76.1922V76.8454H77.7506ZM76.2174 80.7123H77.92C78.92 80.7123 79.4555 81.1218 79.4555 81.9452C79.4555 82.7686 78.9681 83.1781 77.9451 83.1781H76.2174V80.7123Z" fill="white"/>
<path d="M85.2744 75.0825H83.375V84.9523H85.2744V75.0825Z" fill="white"/>
<path d="M94.5417 78.2261C94.5417 76.3404 93.1549 75.0825 91.061 75.0825H87.8984V84.9523H89.7726V81.3469H90.9649L93.2029 84.9523H95.3701L92.8528 80.9603C93.9238 80.453 94.5325 79.484 94.5325 78.2307M89.7383 76.8659H90.9809C92.0748 76.8659 92.6103 77.3208 92.6103 78.2443C92.6103 78.8244 92.4409 79.575 90.9809 79.575H89.7475L89.7383 76.8659Z" fill="white"/>
<path d="M98.6572 75.0825H96.7578V84.9523H102.769V83.1872H98.6572V75.0825Z" fill="white"/>
<path d="M122.584 81.3467H125.268V82.6046C124.707 83.0163 123.977 83.2097 123.078 83.2097C121.204 83.2097 119.84 81.8449 119.84 79.9683C119.84 78.0917 121.131 76.7269 122.931 76.7269C124.245 76.7269 124.879 77.2341 125.316 77.7186L125.657 78.1053L126.996 76.8474L126.641 76.4857C125.691 75.4439 124.474 74.9367 122.918 74.9367C122.253 74.9312 121.593 75.0578 120.978 75.309C120.363 75.5603 119.805 75.9311 119.336 76.3998C118.867 76.8685 118.497 77.4256 118.247 78.0384C117.998 78.6512 117.874 79.3073 117.883 79.9683C117.883 82.848 120.098 84.9998 123.044 84.9998C124.625 84.9998 125.842 84.5654 126.913 83.635L127.083 83.4894V79.5747H122.558V81.3399" fill="white"/>
<path d="M135.917 78.1781C135.917 76.2901 134.53 75.0322 132.436 75.0322H129.273V84.9043H131.145V81.2989H132.34L134.578 84.9043H136.743L134.237 80.9122C134.755 80.6709 135.191 80.2836 135.489 79.7983C135.788 79.313 135.937 78.7512 135.917 78.1826M131.145 76.7996H132.388C133.482 76.7996 133.99 77.2546 133.99 78.1781C133.99 78.7581 133.818 79.5088 132.388 79.5088H131.145V76.7996Z" fill="white"/>
<path d="M142.638 74.9368C141.638 74.9418 140.662 75.2411 139.833 75.7969C139.004 76.3528 138.359 77.1404 137.98 78.0602C137.6 78.98 137.504 79.9909 137.702 80.9653C137.9 81.9396 138.384 82.8338 139.093 83.535C139.802 84.2362 140.704 84.7129 141.685 84.905C142.666 85.0972 143.683 84.9961 144.606 84.6145C145.53 84.233 146.319 83.588 146.874 82.7612C147.429 81.9343 147.725 80.9625 147.725 79.9684C147.734 79.3031 147.608 78.6429 147.355 78.0269C147.103 77.4109 146.728 76.8517 146.253 76.3824C145.779 75.9131 145.214 75.5433 144.593 75.295C143.972 75.0467 143.308 74.9249 142.638 74.9368ZM142.638 83.2098C140.808 83.2098 139.476 81.845 139.476 79.9684C139.476 78.0918 140.814 76.727 142.638 76.727C144.462 76.727 145.803 78.0804 145.803 79.9684C145.803 81.8564 144.464 83.2143 142.638 83.2143" fill="white"/>
<path d="M155.045 81.3239C155.045 82.5818 154.437 83.2096 153.269 83.2096C152.102 83.2096 151.491 82.5568 151.491 81.3239V75.0254H149.617V81.3717C149.617 83.5736 151.054 84.9748 153.279 84.9748C155.503 84.9748 156.94 83.5486 156.94 81.3717V75.0254H155.066V81.3171" fill="white"/>
<path d="M162.546 75.0254H159.406V84.8974H161.28V81.3717H162.521C164.628 81.3717 166.001 80.1366 166.001 78.2099C166.001 76.2833 164.663 75.0254 162.546 75.0254ZM161.303 76.7928H162.496C163.592 76.7928 164.097 77.2477 164.097 78.1963C164.097 79.1448 163.562 79.5747 162.496 79.5747H161.303V76.7928Z" fill="white"/>
<path d="M20 84.9275H21.849L22.6774 82.8962H25.7919L26.6203 84.9275H28.4945L24.2587 74.7188L20 84.9275ZM23.3594 81.2266L24.2358 79.0747L25.11 81.2266H23.3594Z" fill="white"/>
<path d="M59.7422 84.9524H61.5912L62.3944 82.9188H65.5112L66.3374 84.9524H68.2116L63.978 74.7437L59.7422 84.9524ZM63.0764 81.2742L63.9528 79.1224L64.8293 81.2742H63.0764Z" fill="white"/>
<path d="M103.961 84.9275H105.812L106.641 82.8962H109.755L110.584 84.9275H112.449L108.213 74.7188L103.961 84.9275ZM107.295 81.2266L108.172 79.0747L109.048 81.2266H107.295Z" fill="white"/>
<path d="M143.655 44.5041L129.977 50.7708L114.961 32.1663L131.73 5H143.655V44.5041Z" fill="white"/>
<path d="M143.662 67.7032V44.5039L129.984 50.7706L143.662 67.7032Z" fill="#C8CDD1"/>
<path d="M114.96 32.1663L93.0078 5H131.73L114.96 32.1663Z" fill="#C8CDD1"/>
<path d="M108.926 41.9404L114.935 32.1912L93.0078 5.0249V37.5526H93.1543C98.719 37.5249 104.181 39.0414 108.926 41.9314" fill="#DFDFDF"/>
<path d="M93.1543 37.5366H93.0078V67.7032L108.926 41.9404C104.177 39.0564 98.7192 37.5325 93.1543 37.5366Z" fill="white"/>
<path d="M120.711 55.0269L129.984 50.7687L114.972 32.1665L108.938 41.9476C114.074 45.062 118.171 49.6142 120.716 55.0337" fill="#C8CDD1"/>
<path d="M108.926 41.9404L93.0078 67.7283L120.697 55.0266C118.153 49.6071 114.056 45.0548 108.919 41.9404" fill="#B0B0B0"/>
<path d="M129.984 50.7686L120.711 55.0267C122.574 59.0048 123.538 63.3404 123.535 67.7285H143.673L129.984 50.7686Z" fill="#DFDFDF"/>
<path d="M93.0078 67.7032H123.503C123.509 63.3197 122.554 58.9876 120.704 55.0083L93.0147 67.7078" fill="white"/>
<path d="M42.3906 44.5041L56.0684 50.7708L71.0849 32.1663L54.3178 5H42.3906V44.5041Z" fill="white"/>
<path d="M42.3906 67.7032V44.5039L56.0684 50.7706L42.3906 67.7032Z" fill="#C8CDD1"/>
<path d="M71.0874 32.1663L93.0149 5H54.3203L71.0874 32.1663Z" fill="#C8CDD1"/>
<path d="M77.0976 41.9404L71.0859 32.1912L93.0134 5.0249V37.5526H92.8669C87.3038 37.5315 81.8442 39.0475 77.0976 41.9314" fill="#B0B0B0"/>
<path d="M92.8614 37.5366H93.0078V67.7032L77.1172 41.9404C81.856 39.0567 87.3051 37.5325 92.8614 37.5366Z" fill="#C8CDD1"/>
<path d="M65.3429 55.0269L56.0703 50.7687L71.0868 32.1665L77.0984 41.9157C71.9665 45.04 67.8769 49.6011 65.3429 55.0269Z" fill="#C8CDD1"/>
<path d="M77.0993 41.9404L93.0151 67.7283L65.3438 55.0266C67.8716 49.6033 71.9631 45.0487 77.0993 41.9404Z" fill="#B0B0B0"/>
<path d="M56.0642 50.7686L65.3368 55.0267C63.4735 59.0048 62.5096 63.3404 62.5129 67.7285H42.375L56.0528 50.7686" fill="#DFDFDF"/>
<path d="M93.0109 67.7032H62.5157C62.5071 63.3167 63.4713 58.9823 65.3396 55.0083L93.0109 67.7078" fill="white"/>
</g>
<defs>
<clipPath id="clip0_2951_7827">
<rect width="146" height="80" fill="white" transform="translate(20 5)"/>
</clipPath>
</defs>
</svg>
