<svg width="185" height="90" viewBox="0 0 185 90" fill="none" xmlns="http://www.w3.org/2000/svg">
<g clip-path="url(#clip0_4_1478)">
<path fill-rule="evenodd" clip-rule="evenodd" d="M-0.388062 21.3942H185V68.4249H-0.388062V21.3942Z" fill="#F47922"/>
<path fill-rule="evenodd" clip-rule="evenodd" d="M73.6814 32.4692L64.6205 48.2892C64.4332 48.6261 62.6426 51.3491 59.0109 51.5969C55.3941 51.7653 52.3352 48.3556 52.3946 44.6932C52.5125 41.0486 55.2356 38.1363 58.8673 38.0778C61.9589 38.1373 64.2241 40.5135 64.1885 40.5224C64.8474 41.0951 65.2765 41.5084 65.77 42.2486L69.0776 36.4953C68.4861 35.874 68.2354 35.6055 67.4961 35.0575C65.6174 33.3739 62.8676 32.0303 59.0109 31.8935C55.2881 31.8172 51.5474 33.367 48.6559 37.071C46.8772 39.4423 46.1598 41.5609 46.0676 44.6932C46.1092 48.3506 47.4361 51.3214 49.3753 53.4667C52.6968 56.9389 56.717 57.7732 58.8683 57.7821C61.9569 57.6464 64.2053 56.9012 66.3467 55.4793C67.0175 55.0145 67.7498 54.3912 68.5039 53.6094H74.2571V57.2054H80.1541V32.4692H73.6814V32.4692ZM74.2571 48.4329H71.0932L74.2571 42.8243V48.4329ZM85.9618 57.3511V38.3226H81.3016V32.5733H96.8708V38.3226H92.1045V57.3511H85.9618ZM110.378 47.871H104.094V57.3511H97.9509V32.5733H104.094V41.982H110.378V32.5733H116.556V57.3511H110.378V47.871V47.871ZM167.54 32.5733V46.3381L158.325 32.5733H152.782V40.9445C152.155 39.04 151.064 37.2801 149.521 35.7799C147.084 33.4096 143.906 32.1204 140.552 32.1204C136.987 32.1204 133.881 33.3403 131.409 35.7452C128.938 38.1492 127.596 41.2854 127.596 44.7021C127.596 47.4211 128.262 49.8132 129.576 51.8803H124.877V32.5733H118.769V57.3501H132.043V54.7331C134.372 56.7595 137.236 57.8029 140.517 57.8029C144.012 57.8029 147.331 56.4424 149.768 53.9344C151.16 52.5203 152.193 50.7936 152.781 48.8986V57.3501H158.924V43.5506L168.279 57.3511H173.68V32.5733H167.54ZM140.518 51.6702C137.057 51.6702 133.916 48.6727 133.916 44.7704C133.916 41.1457 136.846 38.2532 140.589 38.2532C144.119 38.2532 147.05 41.1457 147.05 44.7704C147.05 48.8114 144.12 51.6702 140.518 51.6702Z" fill="white"/>
<path fill-rule="evenodd" clip-rule="evenodd" d="M46.0666 37.9336V32.4687H32.4039V42.6642C31.9907 39.7133 30.8105 37.3024 28.908 35.5346C26.2949 33.095 23.5065 32.5728 19.5171 32.5728H10.9377V57.3496H20.3643C23.8939 57.3496 26.2602 56.8601 28.9436 54.2817C30.8393 52.4396 31.9957 50.1109 32.4039 47.3631V57.2049H46.0676V51.8847H38.4445V47.2819H45.0609V41.9597H38.4445V37.9326H46.0666V37.9336V37.9336ZM19.5528 51.9144H17.0814V37.9049H19.5171C24.0356 37.9049 26.4723 40.4139 26.4723 44.875C26.4713 49.7532 24.2477 51.9144 19.5528 51.9144V51.9144Z" fill="white"/>
</g>
<defs>
<clipPath id="clip0_4_1478">
<rect width="185" height="90" fill="white"/>
</clipPath>
</defs>
</svg>
