<svg width="185" height="90" viewBox="0 0 185 90" fill="none" xmlns="http://www.w3.org/2000/svg">
<path d="M57.7514 26.1455C59.0489 25.9489 60.5419 25.826 61.6434 26.637C62.3287 27.153 62.5735 28.0868 62.5245 28.9226C62.5735 30.2988 61.9371 31.7734 60.7135 32.4862C59.6363 33.0761 58.3392 33.125 57.1396 33.0022C56.3319 32.904 55.5242 32.4618 55.1081 31.7244C54.1777 29.5862 55.3282 26.5633 57.7514 26.1455ZM18.9301 27.6938C19.0035 26.9565 19.6644 26.2929 20.4232 26.3176C26.0777 26.3176 31.7075 26.3421 37.3373 26.3176C37.9492 26.2684 38.6102 26.5387 38.9038 27.0793C39.3198 27.8167 38.9527 28.6277 38.9038 29.3897C38.7326 30.4217 38.7814 31.7981 37.5822 32.1912C33.4699 32.3141 29.3576 32.1912 25.2453 32.2404C24.8537 34.8454 24.4865 37.4259 24.0948 40.0064C24.0948 40.1048 24.1194 40.3262 24.1194 40.4242C27.13 40.3997 30.1407 40.4242 33.1514 40.3997C33.9838 40.3505 34.8648 41.0635 34.7914 41.9481C34.718 42.8575 34.5222 43.7421 34.3999 44.6516C34.3017 45.2659 33.8123 45.8312 33.1759 45.954C29.8224 46.0278 26.4199 45.8803 23.0668 46.0278C22.5281 49.7388 21.8917 53.4497 21.3286 57.161C21.2554 57.8983 20.6678 58.5372 19.9335 58.5616C18.5384 58.5863 17.143 58.5863 15.7479 58.5616C14.8423 58.5863 14.1079 57.5784 14.3526 56.7183C15.8461 47.0356 17.3881 37.3771 18.9301 27.6938V27.6938ZM43.7992 26.3665C45.0721 26.2684 46.3693 26.3421 47.6423 26.3176C48.4256 26.2684 49.2089 26.8827 49.2821 27.6938C49.2821 28.3327 49.1108 28.9718 49.0374 29.6107C48.0093 36.1973 46.9568 42.7839 45.9286 49.3705C45.7818 50.4272 45.5126 51.5576 45.8309 52.6391C46.198 53.7204 47.8378 53.2534 48.2296 54.3838C48.4743 55.2932 48.2049 56.2516 48.1315 57.1857C48.0582 58.4145 46.6629 58.6847 45.7085 58.9554C43.628 59.3485 41.1066 59.0536 39.6134 57.333C38.5364 56.0799 38.4629 54.3101 38.6834 52.7374C39.9807 44.3814 41.2779 36.0254 42.5999 27.6446C42.6734 27.0302 43.1628 26.4649 43.7992 26.3665V26.3665ZM92.387 27.6938C92.4603 26.9565 93.1213 26.3176 93.8556 26.3176H97.5763C98.5064 26.2929 99.2654 27.3006 99.0449 28.1852C98.1883 33.6413 97.3072 39.0974 96.4505 44.5531C97.7477 44.3566 99.2165 44.1109 100.122 43.0541C101.64 41.3336 102.888 39.3432 103.818 37.2542C104.136 36.4431 104.308 35.2635 105.36 35.1159C106.756 35.0668 108.175 35.0913 109.57 35.1159C110.525 35.0913 111.235 36.1727 110.917 37.0574C110.549 38.3602 109.938 39.5643 109.301 40.7194C107.881 43.0297 106.315 45.3152 104.259 47.1338C105.164 49.8618 106.315 52.5161 107.318 55.1951C107.612 56.0798 108.322 57.1119 107.661 57.9723C106.902 59.0044 105.483 58.4881 104.43 58.611C103.329 58.4881 101.738 59.0534 101.126 57.8001C99.975 55.1211 99.0206 52.3688 97.8455 49.6898C97.1601 49.7142 96.4504 49.739 95.7649 49.6653C95.7162 49.7636 95.6181 49.96 95.5691 50.0586C95.2018 52.5161 94.8103 54.9739 94.4186 57.4313C94.2717 58.0212 93.8066 58.5374 93.1703 58.5866C91.8731 58.6358 90.5512 58.611 89.2295 58.611C88.6663 58.611 88.1524 58.2424 87.9076 57.7509C87.6628 57.2591 87.8096 56.6942 87.8833 56.1535C89.4007 46.6669 90.8938 37.1802 92.387 27.6938V27.6938ZM160.41 30.3727C160.581 29.6843 161.242 29.2175 161.928 29.242C162.907 29.2667 163.91 29.2175 164.914 29.2667C165.722 29.2911 166.358 30.1022 166.26 30.8886C166.113 32.2896 165.77 33.6905 165.673 35.0911C166.627 35.0911 167.606 35.0667 168.561 35.0911C169.418 35.0911 170.128 35.976 169.981 36.8114C169.858 37.5736 169.687 38.311 169.564 39.0725C169.442 39.7117 168.904 40.2278 168.292 40.326C167.117 40.3997 165.966 40.2768 164.816 40.3997C164.326 43.6928 163.788 46.986 163.274 50.2796C163.2 51.0414 163.151 51.9015 163.592 52.5651C164.253 53.3762 165.403 53.0811 166.334 53.1796C167.068 53.4006 167.533 54.2119 167.41 54.9493C167.288 55.7847 167.264 56.6204 167.068 57.4313C166.774 58.3405 165.722 58.5127 164.914 58.7337C162.686 59.3238 160.116 59.3238 158.134 58.0211C156.298 56.7676 156.004 54.3346 156.2 52.2701C156.714 48.2886 157.522 44.3319 157.962 40.3259C157.277 40.3504 156.445 40.4488 155.931 39.8343C155.343 39.22 155.637 38.3106 155.735 37.5485C155.882 36.7375 155.857 35.6808 156.738 35.2384C157.448 34.9679 158.256 35.1648 159.015 35.0663C159.48 33.4937 159.92 31.9209 160.41 30.3727V30.3727ZM146.58 38.3353C148.122 36.787 149.982 35.509 152.112 34.8702C153.042 34.4523 154.242 35.2388 154.217 36.271C154.046 37.6228 153.728 38.9497 153.507 40.2768C153.409 40.9405 152.846 41.5058 152.185 41.5795C149.787 41.9971 147.706 43.447 146.042 45.1675C145.626 45.6838 145.014 46.1753 144.94 46.8879C144.426 50.3286 143.888 53.7694 143.349 57.21C143.276 57.9472 142.639 58.6602 141.88 58.611H138.16C137.303 58.6602 136.544 57.8002 136.642 56.9398C137.719 50.132 138.796 43.3491 139.849 36.5411C139.898 35.8531 140.387 35.1896 141.097 35.1158C142.003 35.0666 142.908 35.0911 143.839 35.0911C144.573 35.0911 145.258 35.7547 145.258 36.5167C145.258 37.5734 145.16 38.6547 145.136 39.7361C145.723 39.3677 146.091 38.7778 146.58 38.3353V38.3353ZM55.0833 35.2141C56.4051 34.9439 57.7758 35.1651 59.0976 35.0912C59.8565 34.9931 60.6642 35.4845 60.7865 36.2465C60.8847 36.9345 60.6885 37.5981 60.6151 38.2618C59.6117 44.5781 58.6079 50.8942 57.6288 57.2103C57.5554 57.9233 56.9682 58.6359 56.2092 58.6111C54.8876 58.6111 53.5657 58.6359 52.2196 58.5868C51.3872 58.4883 50.7752 57.53 50.9957 56.7188C52.0482 50.1571 53.0519 43.6195 54.1044 37.0575C54.1533 36.3447 54.3491 35.509 55.0833 35.2141V35.2141ZM134.292 35.5338C130.645 34.8455 126.925 34.354 123.229 34.7226C119.924 35.1405 116.595 36.6397 114.564 39.3677C111.749 42.9558 110.794 47.7729 111.43 52.246C111.773 54.384 112.703 56.5468 114.441 57.8739C116.057 59.1274 118.235 59.2992 120.194 58.9798C122.935 58.439 125.26 56.6699 127.17 54.7036C127.267 55.5391 127.071 56.3748 127.121 57.1859C127.17 57.9475 127.855 58.6602 128.614 58.611H131.11C131.845 58.611 132.457 57.9232 132.506 57.2102C133.558 50.55 134.611 43.9142 135.639 37.2787C135.785 36.443 135.125 35.632 134.292 35.5338V35.5338ZM127.414 47.1093C126.435 48.9526 125.064 50.6238 123.522 52.049C122.641 52.7863 121.515 53.5483 120.316 53.3027C119.141 53.0569 118.578 51.8281 118.309 50.7712C117.697 48.0187 118.26 45.0202 119.802 42.6364C120.487 41.5302 121.589 40.6948 122.861 40.3506C124.648 39.9082 126.533 40.1294 128.271 40.6209L128.369 40.7194C128.149 42.8575 127.733 44.9711 127.414 47.1093V47.1093ZM86.2433 43.4229C86.2187 40.9651 85.5579 38.3847 83.8445 36.5413C82.6697 35.2388 80.9072 34.5753 79.1938 34.5996C76.3543 34.5016 73.6863 35.9025 71.6058 37.7701C71.1405 38.1389 70.8224 38.6796 70.3086 38.9744C70.3086 38.1632 70.3819 37.3523 70.3573 36.5168C70.3819 35.7547 69.6719 35.0912 68.9376 35.0912H66.4409C65.6578 35.0912 65.0212 35.7795 64.9723 36.5412C63.4302 46.3719 61.8638 56.2026 60.3216 66.0333C60.1015 66.9425 60.8848 67.8765 61.8149 67.8519C63.1856 67.8274 64.5808 67.9502 65.9271 67.7534C67.0042 67.4585 66.9795 66.2051 67.151 65.2958C67.5425 63.133 67.8119 60.9703 68.0566 58.7829C72.8787 59.7168 78.484 59.078 82.0822 55.4159C85.0194 52.1967 86.39 47.7482 86.2433 43.4229V43.4229ZM79.3896 45.905C79.2429 48.166 78.435 50.4517 76.8685 52.0981C74.837 54.0399 71.7525 53.7694 69.2559 53.1061C69.2072 53.0322 69.1335 52.8847 69.1091 52.8111C69.5007 50.6729 69.6966 48.5101 70.1862 46.3966C71.5569 44.1357 73.2212 41.8498 75.5956 40.5966C76.4768 40.1789 77.6761 40.2771 78.3126 41.0882C79.3896 42.4398 79.4875 44.2585 79.3896 45.905V45.905Z" fill="white" stroke="#107BD4" stroke-width="0.101"/>
</svg>
