<svg width="185" height="90" viewBox="0 0 185 90" fill="none" xmlns="http://www.w3.org/2000/svg">
<path d="M27.3765 41.09C29.4048 43.1599 31.0636 46.5494 30.1143 48.5633C27.5758 53.9487 8.63323 63.3948 7.02457 61.7593C5.41592 60.1254 14.7212 40.8794 20.025 38.2995C22.0079 37.3353 25.3451 39.0201 27.3846 41.0802C27.383 41.0818 27.3814 41.0851 27.3765 41.09V41.09Z" fill="white"/>
<path d="M37.4113 38.8163C37.0824 37.5773 36.2416 36.3252 34.9861 36.1771C32.6841 35.9056 29.057 40.0388 29.3162 41.0195C29.5754 42.0001 34.701 43.7294 36.6142 42.3325C37.6008 41.6118 37.7401 40.0553 37.4161 38.8163H37.4113ZM30.2882 27.3661C31.9973 27.8367 33.7258 29.0329 33.9299 30.8198C34.3057 34.0974 28.6001 39.2638 27.2458 38.8953C25.8915 38.5267 23.5053 31.2278 25.4347 28.5014C26.4293 27.0963 28.5774 26.8988 30.2898 27.3595C30.2882 27.3595 30.2882 27.3628 30.2882 27.3661V27.3661Z" fill="white"/>
<path d="M81.2607 46.7668L79.5662 46.5052C77.951 46.2634 77.0163 45.7319 77.0163 44.7661C77.0163 43.6571 78.2329 42.9693 80.0311 42.9693C81.3028 42.9693 82.338 43.4531 83.3294 43.9664L83.5271 44.0684C83.7555 44.1869 84.0017 44.2461 84.256 44.2461C84.8441 44.2461 85.3868 43.922 85.6703 43.3988L85.808 43.1454C86.0267 42.7406 86.0737 42.275 85.9392 41.834C85.8048 41.3947 85.5083 41.0393 85.1033 40.8336C83.6599 40.0998 82.0934 39.44 80.0295 39.44C75.7171 39.44 72.9404 41.5543 72.9404 44.9586C72.9404 47.7524 74.9168 49.5048 78.659 50.023L80.3681 50.2485C82.1744 50.5051 83.0524 51.0481 83.0524 51.9087C83.0524 52.7034 82.6296 53.7581 79.8319 53.7581C78.2896 53.7581 76.7231 53.3599 75.4514 52.5421C75.1971 52.3792 74.9055 52.292 74.6058 52.292C74.0469 52.292 73.5171 52.5931 73.2223 53.0769L73.1267 53.2332C72.8902 53.6215 72.8189 54.0986 72.9307 54.5413C73.0425 54.9839 73.3179 55.3491 73.7067 55.5696C75.9228 56.8349 78.4824 57.2841 79.8302 57.2841C84.3257 57.2841 87.1072 55.2833 87.1072 51.7622C87.1121 48.9486 85.1422 47.3329 81.2607 46.7668V46.7668ZM133.526 52.9173C133.202 52.5487 132.736 52.3381 132.25 52.3381C131.921 52.3381 131.6 52.4335 131.32 52.6129C130.405 53.2019 129.404 53.5145 128.42 53.5145C125.72 53.5145 123.76 51.3476 123.76 48.3629C123.76 45.3781 125.72 43.2112 128.42 43.2112C129.457 43.2112 130.385 43.4975 131.257 44.0865C131.932 44.5423 132.901 44.4255 133.457 43.8233L133.601 43.667C133.982 43.2556 134.161 42.6962 134.097 42.1351C134.034 41.5839 133.737 41.0919 133.285 40.7875C131.957 39.8925 130.311 39.4202 128.524 39.4202C123.34 39.4202 119.719 43.0977 119.719 48.3612C119.719 53.6264 123.34 57.3038 128.524 57.3038C130.319 57.3038 131.975 56.8217 133.313 55.9086C133.76 55.6042 134.055 55.1171 134.121 54.5709C134.189 54.0213 134.019 53.4701 133.656 53.0588L133.526 52.9173V52.9173ZM49.6368 33.3718C48.2874 33.3718 47.2311 34.4594 47.2311 35.8465C47.2311 37.2401 48.2647 38.2899 49.6368 38.2899C51.0025 38.2899 52.0733 37.2171 52.0733 35.8465C52.0733 34.4594 51.0025 33.3718 49.6368 33.3718ZM50.3642 39.5667H48.9451C48.2501 39.5667 47.6864 40.1393 47.6864 40.8451V55.591C47.6864 56.2969 48.2501 56.8695 48.9451 56.8695H50.3642C51.0592 56.8695 51.6229 56.2969 51.6229 55.591V40.8451C51.6229 40.1393 51.0592 39.5667 50.3642 39.5667ZM96.96 53.4372C95.3676 53.4306 93.5159 52.1637 93.5159 49.9441V43.2918H96.9714C97.6663 43.2918 98.2301 42.7192 98.2301 42.0133V40.8451C98.2301 40.1393 97.6663 39.5667 96.9714 39.5667H93.5159V35.728C93.5159 35.0221 92.9522 34.4495 92.2572 34.4495H90.7603C90.0653 34.4495 89.5016 35.0221 89.5016 35.728V49.7055C89.5016 53.7301 92.5083 57.2874 96.6717 57.2874H96.6733C97.088 57.2874 97.48 57.1229 97.7765 56.8217C98.0713 56.5223 98.235 56.1241 98.235 55.7012V54.7157C98.2317 54.0065 97.6599 53.4405 96.96 53.4372V53.4372ZM62.5676 39.4219C57.5294 39.4219 54.7187 43.5156 54.7187 47.0169V55.591C54.7187 56.2969 55.2825 56.8695 55.9775 56.8695H57.4128C58.1078 56.8695 58.6715 56.2969 58.6715 55.591V47.6603C58.6715 45.0046 60.2559 43.2457 62.566 43.2457C64.8761 43.2457 66.4604 45.0046 66.4604 47.6603V55.591C66.4604 56.2969 67.0242 56.8695 67.7192 56.8695H69.1545C69.8495 56.8695 70.4132 56.2969 70.4132 55.591V47.0169C70.4165 43.5139 67.6074 39.4219 62.5676 39.4219V39.4219ZM166.21 39.5996C165.664 39.4778 164.295 39.4219 163.585 39.4219C163.522 39.4219 163.459 39.4235 163.397 39.4235C159.497 39.4235 155.894 42.6534 155.894 47.1058C155.894 47.1091 155.892 47.114 155.892 47.1173V55.591C155.892 56.2969 156.456 56.8695 157.151 56.8695H158.586C159.281 56.8695 159.845 56.2969 159.845 55.591V47.2522C159.845 44.8286 161.549 43.2474 163.637 43.2474C164.02 43.254 164.429 43.2967 164.831 43.3774C164.941 43.3988 165.051 43.4103 165.163 43.4103C165.96 43.4103 166.65 42.8508 166.837 42.0644C166.939 41.6316 167.015 41.3108 167.086 41.0163C167.157 40.7217 167.109 40.3894 166.944 40.1195C166.777 39.853 166.516 39.667 166.21 39.5996V39.5996ZM176.738 43.2918C177.433 43.2918 177.997 42.7192 177.997 42.0133V40.8451C177.997 40.1393 177.433 39.5667 176.738 39.5667H173.283V35.728C173.283 35.0221 172.719 34.4495 172.022 34.4495H170.525C169.83 34.4495 169.267 35.0221 169.267 35.728V49.7055C169.267 53.7301 172.273 57.2874 176.437 57.2874H176.438C176.855 57.2874 177.245 57.1229 177.542 56.8217C177.836 56.5223 178 56.1241 178 55.7012V54.7157C178 54.0049 177.428 53.4389 176.728 53.4372C175.136 53.4306 173.284 52.1637 173.284 49.9441V43.2918H176.738V43.2918ZM149.341 40.7941C149.339 40.7925 149.336 40.7908 149.334 40.7892C148.006 39.8941 146.36 39.4219 144.573 39.4219C144.542 39.4219 144.512 39.4235 144.481 39.4235C144.45 39.4235 144.419 39.4219 144.388 39.4219C142.602 39.4219 140.954 39.8941 139.627 40.7892C139.626 40.7908 139.622 40.7925 139.621 40.7941C137.23 42.3227 135.77 45.0227 135.77 48.3645C135.77 51.8642 137.372 54.6614 139.968 56.1439C141.178 56.8695 142.615 57.3022 144.163 57.3038C146.992 57.3055 148.701 55.6782 149.237 54.9674V55.5795C149.237 56.2854 149.801 56.8579 150.496 56.8579H151.931C152.626 56.8579 153.19 56.2854 153.19 55.5795V48.3629C153.192 45.0211 151.732 42.321 149.341 40.7941V40.7941ZM146.062 53.2463C145.602 53.401 145.134 53.4899 144.669 53.5096C144.635 53.5112 144.601 53.5112 144.567 53.5129C144.538 53.5129 144.51 53.5145 144.481 53.5145C144.452 53.5145 144.424 53.5129 144.395 53.5129C144.361 53.5129 144.327 53.5112 144.293 53.5096C143.828 53.4899 143.358 53.401 142.9 53.2463C141.043 52.58 139.81 50.7306 139.81 48.3629C139.81 45.569 141.529 43.4909 143.964 43.2375C143.977 43.2359 143.99 43.2359 144.003 43.2342C144.058 43.2293 144.113 43.2243 144.17 43.2211C144.201 43.2194 144.233 43.2178 144.264 43.2161C144.317 43.2145 144.372 43.2128 144.426 43.2128C144.445 43.2128 144.463 43.2112 144.482 43.2112C144.502 43.2112 144.52 43.2112 144.539 43.2128C144.594 43.2128 144.648 43.2145 144.701 43.2161C144.734 43.2178 144.764 43.2194 144.795 43.2211C144.85 43.2243 144.907 43.2276 144.962 43.2342C144.975 43.2359 144.988 43.2359 145.001 43.2375C147.436 43.4909 149.155 45.5674 149.155 48.3629C149.151 50.7289 147.918 52.58 146.062 53.2463V53.2463ZM113.508 40.7941C113.507 40.7925 113.503 40.7908 113.502 40.7892C112.173 39.8941 110.527 39.4219 108.741 39.4219C108.71 39.4219 108.679 39.4235 108.648 39.4235C108.617 39.4235 108.587 39.4219 108.556 39.4219C106.769 39.4219 105.122 39.8941 103.795 40.7892C103.793 40.7908 103.79 40.7925 103.788 40.7941C101.397 42.3227 99.9376 45.0227 99.9376 48.3645C99.9376 51.8642 101.54 54.6614 104.135 56.1439C105.345 56.8695 106.782 57.3022 108.331 57.3038C111.159 57.3055 112.868 55.6782 113.405 54.9674V55.5795C113.405 56.2854 113.968 56.8579 114.663 56.8579H116.099C116.794 56.8579 117.357 56.2854 117.357 55.5795V48.3629C117.359 45.0211 115.899 42.321 113.508 40.7941V40.7941ZM110.229 53.2463C109.769 53.401 109.301 53.4899 108.836 53.5096C108.802 53.5112 108.768 53.5112 108.734 53.5129C108.705 53.5129 108.677 53.5145 108.648 53.5145C108.619 53.5145 108.592 53.5129 108.562 53.5129C108.528 53.5129 108.494 53.5112 108.46 53.5096C107.995 53.4899 107.526 53.401 107.067 53.2463C105.211 52.58 103.978 50.7306 103.978 48.3629C103.978 45.569 105.697 43.4909 108.131 43.2375C108.144 43.2359 108.157 43.2359 108.17 43.2342C108.225 43.2293 108.281 43.2243 108.337 43.2211C108.368 43.2194 108.4 43.2178 108.431 43.2161C108.485 43.2145 108.54 43.2128 108.593 43.2128C108.613 43.2128 108.63 43.2112 108.65 43.2112C108.669 43.2112 108.687 43.2112 108.707 43.2128C108.762 43.2128 108.815 43.2145 108.869 43.2161C108.901 43.2178 108.932 43.2194 108.963 43.2211C109.018 43.2243 109.074 43.2276 109.129 43.2342C109.142 43.2359 109.155 43.2359 109.168 43.2375C111.603 43.4909 113.322 45.5674 113.322 48.3629C113.319 50.7289 112.086 52.58 110.229 53.2463V53.2463Z" fill="white"/>
</svg>
