<svg width="185" height="90" viewBox="0 0 185 90" fill="none" xmlns="http://www.w3.org/2000/svg">
<path d="M162.131 40.5912C164.486 39.7946 167.105 39.281 169.534 40.0671C170.928 40.5409 171.685 42.0188 171.664 43.4213C171.689 46.3101 171.729 49.2009 171.615 52.0897H169.113C169.015 51.6306 168.92 51.1757 168.821 50.7208C167.257 51.9556 165.184 52.8339 163.197 52.0939C160.928 51.2009 160.655 47.8111 162.356 46.2535C164.067 44.6644 166.544 44.6539 168.703 44.1571C168.565 43.4297 168.457 42.4905 167.589 42.2704C165.861 41.7568 164.101 42.5366 162.45 43.002C162.307 42.2012 162.202 41.392 162.122 40.5807L162.131 40.5912ZM164.887 47.2744C164.076 47.9159 164.046 49.484 165.097 49.9011C166.372 50.3812 167.606 49.5133 168.615 48.8299C168.615 47.8907 168.615 46.9536 168.615 46.0145C167.324 46.2514 165.909 46.3855 164.896 47.2849L164.887 47.2744Z" fill="white"/>
<path d="M96.9006 34.8152C98.303 34.725 99.7096 34.7208 101.116 34.7523C102.781 38.966 103.85 43.4061 105.645 47.5611C107.127 43.3117 108.494 39.0247 109.957 34.7733C111.359 34.7229 112.761 34.7229 114.163 34.7733C114.568 40.5487 115.165 46.3158 115.424 52.0955C114.343 52.0955 113.263 52.0955 112.184 52.0955C111.801 47.9698 111.633 43.8274 111.217 39.706C109.552 43.7562 108.387 47.9992 106.871 52.106C105.86 52.1458 104.844 52.1395 103.833 52.0913C102.371 47.9845 101.198 43.7625 99.4699 39.7563C99.1167 43.8652 98.9527 47.9908 98.5679 52.0955C97.6008 52.0955 96.6336 52.0955 95.6643 52.0955C95.904 46.32 96.5095 40.5718 96.9006 34.8152Z" fill="white"/>
<path d="M144.942 36.1192C145.92 35.923 146.907 35.783 147.901 35.7C147.934 37.094 147.939 38.4902 147.924 39.8927C148.738 39.9136 149.555 39.9535 150.378 39.9681C150.535 40.7669 150.674 41.5635 150.798 42.3685C149.848 42.4146 148.906 42.4523 147.955 42.4712C147.979 44.5822 147.815 46.71 148.033 48.8106C148.336 49.8378 149.677 49.5506 150.491 49.7351C150.655 50.5401 150.764 51.3598 150.857 52.1795C149.307 52.3367 147.573 52.5463 146.196 51.6617C145.285 51.0684 144.997 49.9363 144.953 48.9154C144.837 46.7792 144.982 44.6367 144.892 42.4985C144.326 42.4418 143.763 42.3873 143.21 42.3286C143.227 41.5572 143.25 40.7836 143.279 40.0122L144.921 39.8591C144.892 38.6034 144.911 37.3603 144.942 36.1192Z" fill="white"/>
<path d="M117.239 40.2011C118.28 40.0018 119.334 39.8764 120.393 39.8259C121.348 42.6119 122.195 45.4357 123.17 48.2113C124.178 45.5112 124.956 42.744 125.843 39.9936C126.85 39.9328 127.859 39.9034 128.87 39.9202C127.739 43.614 126.263 47.1946 125.014 50.8506C124.356 52.5277 123.936 54.448 122.559 55.7226C121.43 56.7498 119.79 56.798 118.366 56.5423C118.232 55.7373 118.095 54.9323 117.969 54.1314C118.671 54.1588 119.374 54.1293 120.071 54.0434C121.017 53.7226 121.835 52.5864 121.417 51.5927C120.057 47.7753 118.553 44.0249 117.239 40.2011Z" fill="white"/>
<path d="M130.841 39.9202C131.682 39.9202 132.539 39.9391 133.389 39.958C133.502 40.4862 133.616 41.0061 133.734 41.5386C135.037 40.4632 136.604 39.4297 138.391 39.7127C139.942 39.7798 141.177 41.1801 141.206 42.6916C141.286 45.8173 141.24 48.9493 141.225 52.077C140.256 52.0959 139.289 52.1064 138.324 52.1169C138.05 49.2805 138.378 46.4211 138.17 43.5847C138.035 42.4149 136.583 42.1172 135.672 42.5868C134.898 42.9725 133.853 43.5092 133.902 44.5176C133.843 47.0332 133.931 49.5614 133.889 52.0812C132.867 52.0994 131.845 52.0959 130.822 52.0707C130.845 48.0206 130.826 43.9704 130.841 39.9202Z" fill="white"/>
<path d="M153.12 39.9197C153.984 39.9197 154.849 39.9239 155.717 39.9323C155.826 40.6395 155.939 41.3466 156.055 42.0538C157.134 40.9448 158.309 39.7793 159.954 39.6556C160.211 40.625 160.36 41.6198 160.399 42.6219C158.789 42.9825 156.947 43.6575 156.224 45.255C156.079 47.5274 156.249 49.8125 156.163 52.087C155.144 52.101 154.127 52.0954 153.112 52.0702C153.131 48.0201 153.12 43.9699 153.12 39.9197Z" fill="white"/>
<path d="M29.6772 23.5808C31.149 21.8219 32.7554 19.931 35.0156 19.2057C37.566 18.5327 39.7169 20.5368 41.3233 22.2328C45.5158 27.0104 48.5582 32.6601 51.3966 38.3077C52.942 34.876 54.8406 31.5993 56.8317 28.4087C58.724 25.5241 60.6857 22.5787 63.4022 20.3859C64.6637 19.4216 66.4194 18.4992 67.9858 19.3126C70.2103 20.4886 71.8986 22.4299 73.4713 24.3438C76.8207 28.6372 79.4447 33.4399 81.8143 38.3203C84.7768 44.6094 87.3377 51.171 88.4226 58.0617C88.7443 61.2524 89.0323 64.8393 87.0959 67.6148C85.6052 69.7888 82.7604 70.5497 80.2521 70.1158C78.0622 69.3292 76.1416 67.9384 74.7139 66.1055C71.3162 61.9127 69.2936 56.8353 67.4118 51.8334C67.1321 50.9571 66.802 50.0976 66.4993 49.2276C66.3015 50.1144 66.0579 50.9905 65.7697 51.8523C63.8521 56.9297 61.8064 62.0972 58.2993 66.3172C56.8966 68.0463 55.045 69.3587 52.9462 70.1116C49.9164 70.7405 46.9918 69.1619 45.0343 66.9545C41.2097 62.7953 39.0799 57.4391 37.1224 52.2275C36.7418 51.1563 36.3592 50.083 36.0879 48.9803C35.7831 50.0976 35.3941 51.194 34.9925 52.2779C33.2327 57.089 31.2079 61.9211 28.0057 65.9608C26.2711 68.0404 23.9877 70.076 21.143 70.2185C18.5211 70.4428 15.9665 68.7511 14.9699 66.3612C13.5317 63.0532 13.948 59.3049 14.5914 55.8605C15.9497 49.2591 18.4895 42.9532 21.4583 36.9199C23.8027 32.2618 26.4057 27.6729 29.6772 23.5808ZM31.17 25.0335C27.93 29.1592 25.3544 33.7544 23.0416 38.4419C20.1527 44.4983 17.5518 50.8104 16.4459 57.4517C16.0786 59.3023 16.0076 61.1993 16.2356 63.072C16.4585 64.8267 17.1565 66.7197 18.7818 67.6316C20.3314 68.5372 22.3288 68.1725 23.7459 67.1746C26.269 65.4158 27.951 62.7282 29.4039 60.0742C32.5073 54.1415 34.5531 47.7057 36.0984 41.2216C37.7342 47.8734 39.8052 54.4916 43.0747 60.5438C44.372 62.7827 45.7492 65.1076 47.8769 66.6547C48.945 67.6127 50.3643 68.2899 51.8297 68.1222C53.4655 67.9544 54.8469 66.9167 55.9823 65.8015C57.9482 63.789 59.3758 61.3257 60.631 58.8311C63.316 53.3365 65.1768 47.4772 66.6296 41.5487C68.4378 48.7224 70.6875 55.9108 74.5478 62.2733C75.9986 64.4975 77.7017 66.8098 80.2542 67.8454C82.0497 68.5729 84.3079 67.9356 85.3381 66.2648C86.5787 64.2795 86.6754 61.8037 86.4882 59.5355C86.2359 55.8563 85.1552 52.303 83.9778 48.8314C81.6304 42.1143 78.5402 35.6787 74.7644 29.6434C73.0172 26.9559 71.2069 24.2474 68.77 22.128C67.908 21.3733 66.6296 20.6459 65.5342 21.4026C63.4316 22.6772 61.9725 24.7233 60.5196 26.654C56.9644 31.7603 53.9667 37.2307 51.5774 42.9721C51.5059 43.0602 51.3546 43.2279 51.2831 43.3159C51.0899 42.6665 50.8553 42.03 50.5808 41.4103C48.104 36.0646 45.3392 30.8132 41.8405 26.0566C40.6378 24.4906 39.4079 22.889 37.7868 21.7297C37.095 21.2391 36.1762 20.8094 35.3457 21.2307C33.5985 22.0295 32.3727 23.5954 31.17 25.0335Z" fill="#FEFEFE"/>
<path d="M31.171 25.0342C32.3737 23.5961 33.5994 22.0301 35.353 21.2314C36.194 20.8121 37.1023 21.2314 37.794 21.7304C39.4151 22.8896 40.6451 24.4913 41.8478 26.0572C45.3464 30.8139 48.1113 36.0653 50.5881 41.411C50.8626 42.0307 51.0971 42.6672 51.2903 43.3166C48.0629 37.843 45.1193 32.1618 41.0761 27.2312C39.8966 25.8518 38.6666 24.3802 36.9572 23.6443C35.9858 23.2251 34.9955 23.7743 34.1987 24.3026C31.295 26.7218 29.1673 29.8894 27.1383 33.036C22.3989 40.6109 18.7976 48.837 16.4489 57.4524C17.5549 50.8069 20.1557 44.4989 23.0446 38.4425C25.3553 33.7551 27.931 29.1599 31.171 25.0342Z" fill="#F47920"/>
<path d="M65.5392 21.4034C66.6346 20.6466 67.913 21.374 68.775 22.1287C71.2119 24.2482 73.0222 26.9504 74.7694 29.6442C78.547 35.6806 81.6386 42.1176 83.987 48.8364C85.1644 52.3079 86.2452 55.8613 86.4975 59.5404C86.0881 56.9822 85.4383 54.4681 84.5568 52.0312C82.3086 45.3356 79.2671 38.9314 75.4969 32.9543C73.859 30.3905 72.1181 27.8686 70.0071 25.6695C69.1556 24.8309 68.2557 23.9588 67.0993 23.5731C66.1931 23.2964 65.371 23.9253 64.6435 24.3697C62.6987 25.8959 61.1743 27.8707 59.732 29.8538C57.1803 33.4877 54.8682 37.2832 52.8103 41.2161C52.4703 41.8443 52.0582 42.431 51.5825 42.9645C53.9717 37.223 56.9694 31.7526 60.5246 26.6464C61.9775 24.7156 63.443 22.678 65.5392 21.4034Z" fill="#F47920"/>
<path d="M34.1941 24.2958C34.991 23.7675 35.9813 23.2267 36.9527 23.6375C38.6621 24.3734 39.8963 25.845 41.0716 27.2244C45.1148 32.1613 48.0584 37.8425 51.2858 43.3161C49.2653 49.0287 46.8704 54.7874 46.7296 60.9255C46.6286 62.9024 47.1501 64.8331 47.8839 66.6507C45.7561 65.1036 44.3789 62.7787 43.0816 60.5398C39.8122 54.4876 37.7412 47.8694 36.1054 41.2176C34.9153 35.6665 33.822 30 34.1941 24.2958Z" fill="#FF912E"/>
<path d="M64.6484 24.3776C65.3759 23.9331 66.198 23.3042 67.1042 23.5809C68.2606 23.9562 69.1605 24.8388 70.012 25.6773C72.1146 27.8764 73.8639 30.3983 75.5018 32.9622C79.272 38.9392 82.3135 45.3434 84.5617 52.0391C85.4432 54.4759 86.0929 56.9901 86.5023 59.5482C86.6895 61.8165 86.5927 64.2923 85.3522 66.2776C84.322 67.9546 82.0638 68.5835 80.2683 67.8582C77.7179 66.8226 76.0127 64.504 74.5619 62.2861C70.7016 55.9236 68.4519 48.7352 66.6437 41.5614C65.4116 35.9222 64.2804 30.1656 64.6484 24.3776Z" fill="#F47920"/>
<path d="M27.1407 33.0271C29.1696 29.8825 31.2974 26.7128 34.201 24.2936C33.8289 29.9999 34.9222 35.6664 36.1123 41.2217C34.5669 47.7205 32.5211 54.1416 29.4177 60.0743C27.9628 62.7283 26.2912 65.4159 23.7598 67.1747C22.3426 68.1726 20.3452 68.5373 18.7956 67.6317C17.1704 66.7198 16.4828 64.8268 16.2494 63.0721C16.0215 61.1994 16.0924 59.3024 16.4597 57.4518C18.8049 48.8339 22.4035 40.605 27.1407 33.0271V33.0271Z" fill="#F47920"/>
<path d="M59.7311 29.8615C61.1735 27.8783 62.6978 25.9036 64.6427 24.3774C64.2747 30.1676 65.4059 35.9221 66.638 41.5529C65.1851 47.4814 63.3244 53.3407 60.6394 58.8353C59.3779 61.33 57.9566 63.7932 55.9907 65.8057C54.8553 66.921 53.4676 67.9587 51.8381 68.1264C50.3663 68.2899 48.9534 67.6128 47.8853 66.6589C47.1599 64.8414 46.6238 62.9106 46.731 60.9338C46.874 54.7914 49.2667 49.0327 51.2873 43.3243C51.3587 43.2363 51.5101 43.0686 51.5816 42.9805C52.0574 42.4471 52.4694 41.8604 52.8095 41.2322C54.8671 37.2964 57.1792 33.4981 59.7311 29.8615V29.8615Z" fill="#F25511"/>
</svg>
