<svg width="185" height="90" viewBox="0 0 185 90" fill="none" xmlns="http://www.w3.org/2000/svg">
<path d="M120.579 27.407H124.18V44.6442C124.18 46.1712 122.742 46.41 122.261 46.41C121.473 46.41 120.998 45.8696 120.729 45.5617L110.828 32.893V46.1461H107.24V28.6261C107.24 27.8532 107.89 26.9106 109.215 26.9106C110.165 26.9106 110.578 27.3253 110.84 27.6144L120.573 39.9186V27.407H120.579Z" fill="white"/>
<path d="M28.8585 30.7437V35.4693H33.1841C35.2907 35.4693 36.3221 34.998 36.3221 33.0939C36.3221 31.1647 35.2907 30.7437 33.1841 30.7437H28.8585ZM34.028 27.4069C38.0036 27.4069 39.8977 29.1036 39.8977 33.0499C39.8977 35.9469 38.685 37.8007 36.5097 38.3223L40.6916 46.1585H36.7159L32.9216 38.5925H28.8585V46.1585H25.3267V27.4131H34.028V27.4069Z" fill="white"/>
<path d="M79.6726 27.4069H75.9783V46.1522H79.6726V27.4069Z" fill="white"/>
<path d="M129.956 37.2729C129.956 41.4769 131.087 42.8909 134.006 42.8909H141.064V46.1586H133.85C131.85 46.1586 130.306 45.9763 128.699 44.5121C126.993 42.9726 126.168 40.5155 126.168 37.1221C126.168 30.4861 128.631 27.4007 133.944 27.4007H141.07V30.6118H134.013C131.081 30.6118 129.956 32.6227 129.956 37.2729Z" fill="white"/>
<path d="M93.7376 29.0029C93.5188 28.5568 93.4438 28.5379 93.3063 28.5379C93.1625 28.5379 93.0813 28.5568 92.8687 29.0029L84.5612 46.1521H80.7418L89.6557 27.8027C90.6059 25.8484 91.7185 25 93.3063 25C94.8878 25 96.0005 25.8484 96.9506 27.8027L105.858 46.1521H102.051L93.7376 29.0029Z" fill="white"/>
<path d="M93.2948 34.3257L87.6627 46.1522H90.8257H95.7702H98.9332L93.2948 34.3257Z" fill="white"/>
<path d="M74.1726 42.8908H64.8024H63.7272V41.8099V27.4069H60.2079V43.073C60.2079 44.7823 61.6144 46.1585 63.2896 46.1585H72.316L74.1726 42.8908Z" fill="white"/>
<path d="M44.8043 35.4754C45.2669 32.4087 46.8734 30.5612 49.8426 30.5612C53.4807 30.5612 54.5246 33.4959 54.5309 35.4754H44.8043ZM49.6801 27.149C43.8667 27.1553 40.935 31.3782 40.9225 36.7887C40.935 42.193 44.423 46.3153 50.2427 46.3279C53.9683 46.3279 56.5749 44.6689 57.7314 43.5755L56.0436 40.7979C55.2747 41.5332 53.887 42.9471 50.3365 42.9471C47.7298 42.9471 44.8168 41.0493 44.8168 38.7682L44.8106 38.586H58.0189L58.0252 38.5671C59.0503 31.0954 55.7123 27.149 49.6801 27.149Z" fill="white"/>
<path d="M145.596 35.4754C146.065 32.4087 147.665 30.5612 150.634 30.5612C154.272 30.5612 155.316 33.4959 155.329 35.4754H145.596ZM150.472 27.149C144.658 27.1553 141.727 31.3782 141.714 36.7887C141.727 42.193 145.215 46.3153 151.034 46.3279C154.76 46.3279 157.367 44.6689 158.523 43.5755L156.835 40.7979C156.066 41.5332 154.685 42.9471 151.128 42.9471C148.521 42.9471 145.608 41.0493 145.608 38.7682L145.602 38.586H158.811L158.817 38.5671C159.842 31.0954 156.498 27.149 150.472 27.149Z" fill="white"/>
<path d="M30.8919 56.4137C30.6044 56.1938 30.1918 56.0807 29.6542 56.0807C28.9541 56.0807 28.3728 56.4137 27.8977 57.0736C27.4289 57.7334 27.1913 58.6383 27.1913 59.7883V65.0292H25.5536V54.7422H27.1913V56.8599H27.2289C27.4601 56.1372 27.8164 55.5717 28.2978 55.1695C28.7791 54.7673 29.3167 54.56 29.9043 54.56C30.3293 54.56 30.6544 54.6039 30.8857 54.6982V56.4137H30.8919Z" fill="white"/>
<path d="M40.625 60.3035H33.3989C33.4239 61.4472 33.7302 62.3332 34.3178 62.9553C34.9054 63.5775 35.7117 63.8917 36.7369 63.8917C37.8871 63.8917 38.9497 63.5083 39.9124 62.748V64.2938C39.0123 64.9474 37.8246 65.2804 36.3431 65.2804C34.8991 65.2804 33.7614 64.8154 32.9363 63.8791C32.1112 62.9428 31.6986 61.6294 31.6986 59.939C31.6986 58.3366 32.1487 57.0358 33.0551 56.024C33.9552 55.0186 35.0804 54.5096 36.4181 54.5096C37.7558 54.5096 38.7935 54.9432 39.5248 55.8167C40.2562 56.6901 40.625 57.8967 40.625 59.4425V60.3035V60.3035ZM38.9497 58.9084C38.9435 57.9595 38.7122 57.218 38.2621 56.6901C37.8121 56.1623 37.187 55.8983 36.3868 55.8983C35.6117 55.8983 34.9554 56.1748 34.4178 56.7341C33.8802 57.2934 33.5426 58.0161 33.4176 58.9147H38.9497V58.9084Z" fill="white"/>
<path d="M47.8502 64.9353C47.4626 65.149 46.9563 65.2558 46.3187 65.2558C44.5247 65.2558 43.6308 64.2504 43.6308 62.2395V56.1502H41.8743V54.7426H43.6308V52.229L45.2685 51.6948V54.7363H47.844V56.1439H45.2685V61.9378C45.2685 62.6291 45.3873 63.1192 45.6186 63.4146C45.8499 63.7099 46.2374 63.8545 46.775 63.8545C47.1876 63.8545 47.5439 63.7414 47.844 63.5151V64.9353H47.8502Z" fill="white"/>
<path d="M57.3645 65.0355H55.7267V63.4268H55.6892C54.9766 64.6585 53.9265 65.2743 52.5387 65.2743C51.5198 65.2743 50.7197 65.0041 50.1446 64.4574C49.5695 63.917 49.282 63.1943 49.282 62.2957C49.282 60.3728 50.4072 59.2542 52.6575 58.94L55.7267 58.5064C55.7267 56.7594 55.0266 55.886 53.6202 55.886C52.3887 55.886 51.276 56.307 50.2821 57.149V55.4586C51.2885 54.8177 52.445 54.4972 53.7577 54.4972C56.1643 54.4972 57.3645 55.7791 57.3645 58.3367V65.0355V65.0355ZM55.7267 59.8323L53.2576 60.1717C52.5012 60.2785 51.9261 60.467 51.5386 60.7372C51.151 61.0075 50.9572 61.4913 50.9572 62.1763C50.9572 62.679 51.1323 63.0875 51.4948 63.408C51.8511 63.7285 52.3262 63.8856 52.9201 63.8856C53.7327 63.8856 54.4015 63.5965 54.9329 63.0246C55.4642 62.4528 55.7267 61.7301 55.7267 60.8504V59.8323V59.8323Z" fill="white"/>
<path d="M61.1828 52.1346C60.889 52.1346 60.6389 52.034 60.4327 51.833C60.2264 51.6319 60.1201 51.3805 60.1201 51.0663C60.1201 50.7521 60.2264 50.5007 60.4327 50.2997C60.6389 50.0986 60.889 49.9917 61.1828 49.9917C61.4828 49.9917 61.7391 50.0923 61.9454 50.2997C62.1579 50.507 62.258 50.7584 62.258 51.0663C62.258 51.3616 62.1517 51.613 61.9454 51.8204C61.7329 52.0278 61.4828 52.1346 61.1828 52.1346ZM61.9829 62.1577C61.9829 63.1003 62.3455 63.5716 63.0706 63.5716C63.3644 63.5716 63.6269 63.5339 63.8582 63.4585V64.9478C63.7332 64.9792 63.5644 65.0106 63.3519 65.042C63.1393 65.0735 62.9206 65.086 62.6893 65.086C62.3642 65.086 62.0579 65.0295 61.7704 64.9226C61.4828 64.8158 61.2328 64.6524 61.0265 64.4325C60.814 64.2125 60.6515 63.936 60.5264 63.603C60.4014 63.2699 60.3389 62.8866 60.3389 62.4404V54.7362H61.9767V62.1577H61.9829Z" fill="white"/>
<path d="M67.1655 62.1575C67.1655 63.1001 67.5281 63.5714 68.2532 63.5714C68.547 63.5714 68.8095 63.5337 69.0408 63.4583V64.9476C68.9158 64.979 68.747 65.0104 68.5345 65.0418C68.3219 65.0733 68.1031 65.0858 67.8719 65.0858C67.5468 65.0858 67.2405 65.0293 66.953 64.9224C66.6654 64.8156 66.4154 64.6522 66.2091 64.4323C65.9966 64.2123 65.834 63.9358 65.709 63.6028C65.584 63.2697 65.5215 62.8864 65.5215 62.4402V49.7904H67.1592V62.1575H67.1655Z" fill="white"/>
</svg>
