<svg width="42" height="42" viewBox="0 0 42 42" fill="none" xmlns="http://www.w3.org/2000/svg">
<path opacity="0.5" fill-rule="evenodd" clip-rule="evenodd" d="M21.0584 41.1167C32.1363 41.1167 41.1167 32.1363 41.1167 21.0584C41.1167 9.98044 32.1363 1 21.0584 1C9.98044 1 1 9.98044 1 21.0584C1 32.1363 9.98044 41.1167 21.0584 41.1167Z" stroke="#313D47" stroke-width="1.76063"/>
<path d="M14.5345 15.7283C15.8271 15.7283 16.8749 14.6804 16.8749 13.3878C16.8749 12.0952 15.8271 11.0474 14.5345 11.0474C13.2419 11.0474 12.194 12.0952 12.194 13.3878C12.194 14.6804 13.2419 15.7283 14.5345 15.7283Z" fill="#313D47"/>
<path d="M16.4848 17.2927H12.5841C12.3688 17.2927 12.194 17.4675 12.194 17.6828V29.385C12.194 29.6003 12.3688 29.7751 12.5841 29.7751H16.4848C16.7002 29.7751 16.8749 29.6003 16.8749 29.385V17.6828C16.8749 17.4675 16.7002 17.2927 16.4848 17.2927Z" fill="#313D47"/>
<path d="M28.1079 16.6423C26.4407 16.0713 24.3554 16.5729 23.1048 17.4724C23.0619 17.3047 22.909 17.1799 22.7272 17.1799H18.8265C18.6112 17.1799 18.4364 17.3546 18.4364 17.5699V29.2721C18.4364 29.4875 18.6112 29.6622 18.8265 29.6622H22.7272C22.9425 29.6622 23.1173 29.4875 23.1173 29.2721V20.8622C23.7477 20.3192 24.5598 20.146 25.2245 20.4284C25.8689 20.7007 26.2379 21.3653 26.2379 22.2508V29.2721C26.2379 29.4875 26.4126 29.6622 26.628 29.6622H30.5287C30.744 29.6622 30.9188 29.4875 30.9188 29.2721V21.4652C30.8743 18.2596 29.3663 17.073 28.1079 16.6423Z" fill="#313D47"/>
</svg>
