<svg width="43" height="42" viewBox="0 0 43 42" fill="none" xmlns="http://www.w3.org/2000/svg">
<path opacity="0.5" fill-rule="evenodd" clip-rule="evenodd" d="M21.4085 41.1167C32.4865 41.1167 41.4669 32.1363 41.4669 21.0584C41.4669 9.98044 32.4865 1 21.4085 1C10.3306 1 1.35016 9.98044 1.35016 21.0584C1.35016 32.1363 10.3306 41.1167 21.4085 41.1167Z" stroke="#313D47" stroke-width="1.76063"/>
<path d="M24.0135 13.9651H26.6364C26.8777 13.9651 27.0735 13.7805 27.0735 13.5532V11.0816C27.0735 10.8542 26.8777 10.6697 26.6364 10.6697H24.0135C21.3626 10.6697 19.2049 12.7021 19.2049 15.2009V18.0843H16.1448C15.9035 18.0843 15.7077 18.2689 15.7077 18.4963V20.9678C15.7077 21.1952 15.9035 21.3798 16.1448 21.3798H19.2049V30.0302C19.2049 30.2576 19.4007 30.4421 19.642 30.4421H22.2649C22.5062 30.4421 22.702 30.2576 22.702 30.0302V21.3798H25.7621C25.95 21.3798 26.117 21.2661 26.1774 21.098L27.0516 18.6264C27.0962 18.5012 27.0735 18.3628 26.9913 18.2549C26.9083 18.1478 26.7771 18.0843 26.6364 18.0843H22.702V15.2009C22.702 14.5195 23.2904 13.9651 24.0135 13.9651Z" fill="#313D47"/>
</svg>
