<svg width="43" height="42" viewBox="0 0 43 42" fill="none" xmlns="http://www.w3.org/2000/svg">
<path d="M19.3893 24.1878L24.4933 21.2375L19.3893 18.2872V24.1878ZM30.7577 16.4875C30.8856 16.9498 30.9741 17.5693 31.0331 18.3561C31.1019 19.1428 31.1314 19.8214 31.1314 20.4114L31.1904 21.2375C31.1904 23.3912 31.0331 24.9745 30.7577 25.9874C30.5119 26.8725 29.9415 27.4429 29.0564 27.6888C28.5942 27.8166 27.7484 27.9051 26.4503 27.9641C25.1719 28.033 24.0016 28.0625 22.9198 28.0625L21.3562 28.1215C17.2356 28.1215 14.6689 27.9641 13.6559 27.6888C12.7709 27.4429 12.2005 26.8725 11.9546 25.9874C11.8268 25.5252 11.7383 24.9057 11.6793 24.1189C11.6104 23.3322 11.5809 22.6536 11.5809 22.0636L11.5219 21.2375C11.5219 19.0838 11.6793 17.5005 11.9546 16.4875C12.2005 15.6025 12.7709 15.0321 13.6559 14.7862C14.1182 14.6584 14.9639 14.5699 16.262 14.5109C17.5405 14.442 18.7107 14.4125 19.7925 14.4125L21.3562 14.3535C25.4767 14.3535 28.0435 14.5109 29.0564 14.7862C29.9415 15.0321 30.5119 15.6025 30.7577 16.4875V16.4875Z" fill="#313D47"/>
<path opacity="0.5" fill-rule="evenodd" clip-rule="evenodd" d="M21.1751 41.1167C32.253 41.1167 41.2334 32.1363 41.2334 21.0584C41.2334 9.98044 32.253 1 21.1751 1C10.0971 1 1.1167 9.98044 1.1167 21.0584C1.1167 32.1363 10.0971 41.1167 21.1751 41.1167Z" stroke="#313D47" stroke-width="1.76063"/>
</svg>
