<svg width="36" height="36" viewBox="0 0 36 36" fill="none" xmlns="http://www.w3.org/2000/svg">
<rect x="0.5" y="0.5" width="35" height="35" rx="17.5" fill="#12B24B"/>
<path fill-rule="evenodd" clip-rule="evenodd" d="M10.6609 10.6609C11.084 10.2377 11.658 10 12.2564 10H14.7179C15.0578 10 15.3333 10.2755 15.3333 10.6154C15.3333 10.9553 15.0578 11.2308 14.7179 11.2308H12.2564C11.9844 11.2308 11.7235 11.3388 11.5312 11.5312C11.3388 11.7235 11.2308 11.9844 11.2308 12.2564V14.7179C11.2308 15.0578 10.9553 15.3333 10.6154 15.3333C10.2755 15.3333 10 15.0578 10 14.7179V12.2564C10 11.658 10.2377 11.084 10.6609 10.6609ZM20.6667 10.6154C20.6667 10.2755 20.9422 10 21.2821 10H23.7436C24.342 10 24.916 10.2377 25.3391 10.6609C25.7623 11.084 26 11.658 26 12.2564V14.7179C26 15.0578 25.7245 15.3333 25.3846 15.3333C25.0447 15.3333 24.7692 15.0578 24.7692 14.7179V12.2564C24.7692 11.9844 24.6612 11.7235 24.4688 11.5312C24.2765 11.3388 24.0156 11.2308 23.7436 11.2308H21.2821C20.9422 11.2308 20.6667 10.9553 20.6667 10.6154ZM10.6154 20.6667C10.9553 20.6667 11.2308 20.9422 11.2308 21.2821V23.7436C11.2308 24.0156 11.3388 24.2765 11.5312 24.4688C11.7235 24.6612 11.9844 24.7692 12.2564 24.7692H14.7179C15.0578 24.7692 15.3333 25.0447 15.3333 25.3846C15.3333 25.7245 15.0578 26 14.7179 26H12.2564C11.658 26 11.084 25.7623 10.6609 25.3391C10.2377 24.916 10 24.342 10 23.7436V21.2821C10 20.9422 10.2755 20.6667 10.6154 20.6667ZM25.3846 20.6667C25.7245 20.6667 26 20.9422 26 21.2821V23.7436C26 24.342 25.7623 24.916 25.3391 25.3391C24.916 25.7623 24.342 26 23.7436 26H21.2821C20.9422 26 20.6667 25.7245 20.6667 25.3846C20.6667 25.0447 20.9422 24.7692 21.2821 24.7692H23.7436C24.0156 24.7692 24.2765 24.6612 24.4688 24.4688C24.6612 24.2765 24.7692 24.0156 24.7692 23.7436V21.2821C24.7692 20.9422 25.0447 20.6667 25.3846 20.6667Z" fill="white"/>
<rect x="0.5" y="0.5" width="35" height="35" rx="17.5" stroke="white"/>
</svg>
