<svg width="90" height="91" viewBox="0 0 90 91" fill="none" xmlns="http://www.w3.org/2000/svg">
<path d="M45.0001 90.0582C69.6349 90.0582 89.6054 70.152 89.6054 45.5965C89.6054 21.0409 69.6349 1.13477 45.0001 1.13477C20.3652 1.13477 0.394775 21.0409 0.394775 45.5965C0.394775 70.152 20.3652 90.0582 45.0001 90.0582Z" fill="white"/>
<path d="M45 90.4524C20.1912 90.4524 0 70.3341 0 45.5973C0 20.8605 20.1912 0.742188 45 0.742188C69.8088 0.742188 90 20.8605 90 45.5973C90 70.3341 69.8167 90.4524 45 90.4524ZM45 1.53685C20.6253 1.53685 0.789335 21.3011 0.789335 45.6051C0.789335 69.9092 20.6174 89.6734 45 89.6734C69.3826 89.6734 89.2107 69.9092 89.2107 45.6051C89.2107 21.3011 69.3747 1.52898 45 1.52898V1.53685Z" fill="#676767"/>
<path d="M46.8785 26.9721C45.1577 24.0846 44.25 20.7722 44.25 17.3969C44.25 15.6817 44.4789 13.9822 44.9367 12.3535L46.1918 12.6997C45.7655 14.2182 45.5524 15.7997 45.5524 17.3969C45.5524 20.544 46.397 23.6204 47.9993 26.3112L46.8785 26.9721Z" fill="#414042"/>
<path d="M38.4407 26.9721L37.3198 26.3112C38.9222 23.6283 39.7667 20.544 39.7667 17.3969C39.7667 15.7997 39.5536 14.2182 39.1274 12.6997L40.3824 12.3535C40.8403 13.99 41.0692 15.6895 41.0692 17.3969C41.0692 20.7722 40.1614 24.0846 38.4407 26.9721Z" fill="#414042"/>
<path d="M42.4346 49.8106C34.3755 49.8106 27.824 42.4698 27.824 33.4453C27.824 32.926 27.8477 32.4067 27.8871 31.8953L29.1817 32.0055C29.1422 32.4775 29.1185 32.9653 29.1185 33.4532C29.1185 41.7617 35.0938 48.5203 42.4267 48.5203C49.7596 48.5203 55.7349 41.7617 55.7349 33.4532C55.7349 32.9339 55.7112 32.4146 55.6638 31.9032L56.9584 31.7852C57.0057 32.3359 57.0294 32.8945 57.0294 33.4532C57.0294 42.4777 50.4779 49.8185 42.4188 49.8185L42.4346 49.8106Z" fill="#414042"/>
<path d="M34.588 57.1611L34.1933 56.9802C28.3049 54.2893 30.0572 47.1138 30.073 47.043L31.3359 47.3577C31.2728 47.6016 29.9151 53.2429 34.3591 55.6111L41.9919 48.6795L42.8681 49.6394L34.588 57.1533V57.1611Z" fill="#414042"/>
<path d="M50.0277 57.1611L41.7476 49.6473L42.6237 48.6874L50.2566 55.619C54.7085 53.235 53.2876 47.4285 53.2718 47.3656L54.5348 47.043C54.5506 47.1138 56.3029 54.2893 50.4144 56.9802L50.0198 57.1611H50.0277Z" fill="#414042"/>
<path d="M63.7464 70.9127H19.6146C18.1938 70.8419 17.1598 70.4013 16.5126 69.583C15.6917 68.5602 15.7943 67.3092 15.8337 67.0023C15.8574 56.3649 23.4903 47.364 34.0042 45.6016L34.2174 46.884C24.3191 48.552 17.1361 57.0337 17.1361 67.0495V67.1597C17.1361 67.1597 16.9862 68.096 17.5387 68.7805C17.9492 69.284 18.6596 69.5673 19.6541 69.6145H63.7543V70.9127H63.7464Z" fill="#414042"/>
<path d="M62.7047 53.7607C59.5789 50.1178 55.2612 47.6709 50.541 46.8762L50.7541 45.5938C55.7743 46.4356 60.3682 49.0399 63.6913 52.9109L62.7047 53.7528V53.7607Z" fill="#414042"/>
<path d="M67.1167 74.2716L65.8853 73.0442C55.1977 63.4768 56.4291 55.7505 56.4843 55.4279L56.5712 54.948L57.0527 54.8929C57.1079 54.8929 62.6806 54.2241 66.7457 49.5821L67.2351 49.0234L67.7244 49.5821C71.7895 54.2241 77.3623 54.8929 77.4175 54.8929L77.9384 54.948L77.9937 55.4673C78.0332 55.8213 78.791 64.2164 67.5666 73.8782L67.1088 74.2716H67.1167ZM57.7315 56.1046C57.6683 57.8355 58.0946 64.3266 66.7773 72.1001L67.1798 72.5014C75.9494 64.7514 76.6913 57.9457 76.7229 56.1046C75.1837 55.8292 70.8344 54.7356 67.243 50.9747C63.6278 54.7592 59.247 55.8371 57.7315 56.1046Z" fill="#414042"/>
<path d="M67.2588 64.9732L63.6831 61.7237L64.7014 60.5986L67.2115 62.8882L72.7921 57.4121L73.8576 58.49L67.2588 64.9732Z" fill="#0DB04B"/>
<path d="M58.3237 26.987H56.8082C56.8082 19.2135 50.4619 12.8877 42.6633 12.8877C34.8647 12.8877 28.5184 19.2135 28.5184 26.987H27.0029C27.0029 18.3795 34.028 11.3691 42.6712 11.3691C51.3144 11.3691 58.3316 18.3716 58.3316 26.987H58.3237Z" fill="#F47920"/>
<path d="M56.9425 32.5878H28.116C26.2768 32.5878 24.7771 31.0929 24.7771 29.2597C24.7771 27.4264 26.2768 25.9315 28.116 25.9315H56.9425C58.7817 25.9315 60.2814 27.4264 60.2814 29.2597C60.2814 31.0929 58.7817 32.5878 56.9425 32.5878ZM28.116 27.2376C26.9951 27.2376 26.0795 28.1503 26.0795 29.2675C26.0795 30.3848 26.9951 31.2974 28.116 31.2974H56.9425C58.0634 31.2974 58.979 30.3848 58.979 29.2675C58.979 28.1503 58.0634 27.2376 56.9425 27.2376H28.116Z" fill="#414042"/>
</svg>
