<svg width="90" height="91" viewBox="0 0 90 91" fill="none" xmlns="http://www.w3.org/2000/svg">
<path d="M44.9999 90.0582C69.6347 90.0582 89.6052 70.152 89.6052 45.5965C89.6052 21.0409 69.6347 1.13477 44.9999 1.13477C20.365 1.13477 0.394531 21.0409 0.394531 45.5965C0.394531 70.152 20.365 90.0582 44.9999 90.0582Z" fill="white"/>
<path d="M45 90.4524C20.1912 90.4524 0 70.3341 0 45.5973C0 20.8605 20.1912 0.742188 45 0.742188C69.8088 0.742188 90 20.8605 90 45.5973C90 70.3341 69.8167 90.4524 45 90.4524ZM45 1.53685C20.6253 1.53685 0.789335 21.3011 0.789335 45.6051C0.789335 69.9092 20.6174 89.6734 45 89.6734C69.3826 89.6734 89.2107 69.9092 89.2107 45.6051C89.2107 21.3011 69.3747 1.52898 45 1.52898V1.53685Z" fill="#676767"/>
<path d="M24.5094 69.8955L21.6362 69.8797C20.468 69.6201 19.0472 68.731 18.9288 65.9851V26.8579C18.7788 25.1269 19.7418 23.9074 21.6441 23.4825L21.7941 23.4668H24.5173V24.8279H21.873C20.6732 25.1191 20.1996 25.7092 20.2943 26.8028V65.9536C20.3891 67.897 21.2179 68.3691 21.873 68.5343H24.5173V69.8955H24.5094Z" fill="#6D6E71"/>
<path d="M26.9561 73.4198L26.814 73.404C24.7223 72.9713 24.1776 71.6495 24.0908 70.6266V22.7817C24.3118 21.1295 25.2669 20.1853 26.8456 19.9414H62.9024C65.2704 19.9414 65.6335 21.9949 65.7519 22.6637V22.7817L65.7598 48.8482H64.3943V22.8447C64.1812 21.6881 63.7944 21.2947 62.8945 21.2947H26.9403C26.0563 21.4363 25.5748 21.9163 25.4406 22.8761V70.5637C25.4958 71.0751 25.7169 71.7596 27.0193 72.0507H62.9024C63.826 72.0035 64.2759 71.5472 64.4022 70.4771V56.4408H65.7598V70.5558C65.4915 72.8218 64.0707 73.3489 62.934 73.404H26.9482L26.9561 73.4198Z" fill="#6D6E71"/>
<path d="M57.243 65.5441C57.1483 65.5441 57.0457 65.5441 56.951 65.5284C56.0748 65.4418 55.3013 64.954 54.7172 64.1358L49.8549 58.4472C48.7419 56.6848 49.1997 55.1742 50.1311 54.4267C51.0468 53.695 52.6807 53.5219 54.1173 54.9067L56.8642 57.5424L66.202 46.606C67.6465 44.8751 69.6751 44.8829 70.8433 45.772C71.8931 46.5667 72.3825 48.2032 71.0959 50.0522L60.1794 64.1751C59.2006 65.0957 58.1902 65.5599 57.243 65.5599V65.5441ZM51.7651 55.2214C51.4572 55.2214 51.1967 55.3158 50.9915 55.481C50.5653 55.8272 50.3048 56.5983 50.9599 57.6447L55.8065 63.3018C56.1932 63.8447 56.6195 64.1279 57.0931 64.1751C57.7324 64.2459 58.4665 63.9076 59.1769 63.2467L69.9987 49.2339C70.6696 48.274 70.6775 47.3456 70.0224 46.842C69.3593 46.3385 68.1596 46.3857 67.2518 47.4715L56.9747 59.5173L53.1859 55.8823C52.6965 55.4102 52.1992 55.2214 51.773 55.2214H51.7651Z" fill="#55AE56"/>
<path d="M58.0166 30.248H31.3213V31.6091H58.0166V30.248Z" fill="#6D6E71"/>
<path d="M52.0173 34.5898H37.312V35.951H52.0173V34.5898Z" fill="#6D6E71"/>
<path d="M51.473 41.7518H31.3213V43.113H51.473V41.7518Z" fill="#F47920"/>
<path d="M50.9284 45.9998H31.3213V47.361H50.9284V45.9998Z" fill="#F47920"/>
<path d="M58.0086 41.6486H55.2854V43.0098H58.0086V41.6486Z" fill="#6D6E71"/>
<path d="M58.0086 45.9998H55.2854V47.361H58.0086V45.9998Z" fill="#6D6E71"/>
<path d="M45.482 58.4863H31.3213V59.8475H45.482V58.4863Z" fill="#6D6E71"/>
<path d="M37.8649 62.5625H31.8423V63.9237H37.8649V62.5625Z" fill="#6D6E71"/>
</svg>
