<svg width="66" height="66" viewBox="0 0 66 66" fill="none" xmlns="http://www.w3.org/2000/svg">
<path d="M33 21.8906V41.2656" stroke="#F47920" stroke-width="1.5" stroke-miterlimit="10"/>
<mask id="mask0_2384_2978" style="mask-type:luminance" maskUnits="userSpaceOnUse" x="2" y="3" width="62" height="62">
<path d="M2 3H64V65H2V3Z" fill="white"/>
</mask>
<g mask="url(#mask0_2384_2978)">
<path d="M60.815 52.0676L39.5025 9.44255C38.3106 7.0587 35.8464 5.42188 33 5.42188C30.1534 5.42188 27.6893 7.0587 26.4975 9.44255L5.18501 52.0676C4.69664 53.0442 4.42188 54.1462 4.42188 55.3125C4.42188 59.3252 7.67482 62.5781 11.6875 62.5781H54.3125C58.3251 62.5781 61.5781 59.3252 61.5781 55.3125C61.5781 54.1462 61.3032 53.0442 60.815 52.0676Z" stroke="#636466" stroke-width="1.5" stroke-miterlimit="10"/>
<path d="M35.4219 48.5313C35.4219 49.8689 34.3376 50.9531 33 50.9531C31.6624 50.9531 30.5781 49.8689 30.5781 48.5313C30.5781 47.1936 31.6624 46.1094 33 46.1094C34.3376 46.1094 35.4219 47.1936 35.4219 48.5313Z" fill="#2BB04C"/>
</g>
</svg>
