<svg width="32" height="38" viewBox="0 0 32 38" fill="none" xmlns="http://www.w3.org/2000/svg">
<path d="M15.9999 0.536133C20.0634 0.536133 23.9605 2.15035 26.8338 5.02368C29.7071 7.897 31.3213 11.7941 31.3213 15.8576C31.3213 22.3318 26.772 29.3876 17.7913 37.1001C17.292 37.5291 16.6553 37.7647 15.997 37.7641C15.3386 37.7636 14.7024 37.5268 14.2038 37.097L13.6098 36.5816C5.02661 29.0701 0.678467 22.1873 0.678467 15.8576C0.678467 11.7941 2.29268 7.897 5.16601 5.02368C8.03933 2.15035 11.9364 0.536133 15.9999 0.536133ZM15.9999 9.9647C14.437 9.9647 12.9381 10.5856 11.833 11.6907C10.7279 12.7958 10.107 14.2947 10.107 15.8576C10.107 17.4204 10.7279 18.9193 11.833 20.0244C12.9381 21.1296 14.437 21.7504 15.9999 21.7504C17.5628 21.7504 19.0616 21.1296 20.1668 20.0244C21.2719 18.9193 21.8927 17.4204 21.8927 15.8576C21.8927 14.2947 21.2719 12.7958 20.1668 11.6907C19.0616 10.5856 17.5628 9.9647 15.9999 9.9647Z" fill="#313D47"/>
</svg>
