<svg width="185" height="90" viewBox="0 0 185 90" fill="none" xmlns="http://www.w3.org/2000/svg">
<path d="M16 29H31.103V35.21H24.026V41.05H30.41V47.021H23.95V60H16V29ZM32.77 29V60H39.692L39.667 40.545L42.487 60H47.359L50 40.545V59.973H56.77V29H46.666L44.922 42.748L42.922 29H32.77ZM71.949 44.5L66.359 38.74H58.821L64.411 44.5H71.949ZM58.82 50.26H66.384L71.974 44.5H64.434L58.82 50.26V50.26Z" fill="white"/>
<path d="M71.9493 44.5H64.4103L58.8203 38.74H66.3853L71.9493 44.5V44.5ZM77.0263 35.715H73.8723V53.285H84.9743V50.445H77.0263V35.715ZM92.9493 35.582C87.2563 35.582 84.4103 38.555 84.4103 44.527C84.6673 50.445 87.5133 53.417 92.9493 53.417C98.5393 53.417 101.333 50.445 101.333 44.527C101.333 38.555 98.5393 35.582 92.9493 35.582V35.582ZM92.9493 50.578C89.4363 50.578 87.6923 48.534 87.6923 44.447C87.6923 40.413 89.4363 38.422 92.9493 38.422C96.3593 38.422 98.0773 40.439 98.0773 44.447C98.0773 48.534 96.3593 50.577 92.9493 50.577V50.578ZM102.564 44.261C102.564 50.366 105.564 53.418 111.564 53.418C113.615 53.418 115.334 53.099 116.718 52.488V45.163H113.564V50.286C112.846 50.472 112.18 50.578 111.615 50.578C107.769 50.578 105.846 48.455 105.846 44.235C105.846 40.333 107.897 38.395 111.974 38.395C113.667 38.395 115.256 38.714 116.718 39.377V36.431C115.256 35.848 113.59 35.582 111.744 35.582C105.615 35.582 102.564 38.475 102.564 44.262V44.261ZM118.538 53.285H121.692V35.715H118.538V53.285V53.285ZM131.615 42.961H128.718C127.333 42.961 126.641 42.297 126.641 40.996C126.641 39.271 128.077 38.422 130.923 38.422C132.821 38.422 134.615 38.741 136.333 39.404V36.431C134.641 35.848 132.821 35.582 130.923 35.582C125.974 35.582 123.513 37.387 123.513 40.996C123.513 44.288 125.256 45.906 128.718 45.906H131.615C133.205 45.906 134.026 46.57 134.026 47.871C134.026 49.676 132.718 50.578 130.128 50.578C127.974 50.578 126.051 50.259 124.359 49.596V52.542C126.051 53.126 127.974 53.392 130.128 53.392C134.821 53.392 137.18 51.533 137.18 47.871C137.154 44.606 135.308 42.961 131.615 42.961V42.961ZM137.359 38.528H142.231V53.285H145.385V38.528H150.256V35.715H137.359V38.528V38.528ZM150.872 53.285H154.026V35.715H150.872V53.285V53.285ZM165.231 38.422C166.923 38.422 168.513 38.741 169.974 39.404V36.431C168.513 35.848 166.846 35.582 164.974 35.582C158.872 35.582 155.821 38.475 155.821 44.262C155.821 50.366 158.872 53.418 164.974 53.418C166.846 53.418 168.487 53.126 169.974 52.568V49.596C168.513 50.259 166.923 50.578 165.231 50.578C161.154 50.578 159.128 48.455 159.128 44.235C159.128 40.36 161.154 38.422 165.231 38.422Z" fill="white"/>
<rect width="185" height="90" stroke="black"/>
</svg>
