<svg width="185" height="90" viewBox="0 0 185 90" fill="none" xmlns="http://www.w3.org/2000/svg">
<g clip-path="url(#clip0_2_755)">
<path fill-rule="evenodd" clip-rule="evenodd" d="M67.3941 38.9972L67.3538 61.0946L59.8896 62.5579L59.9348 45.193L59.7481 45.2295L55.4112 63.4357L48.4759 64.7953L44.3536 48.2474L44.1359 48.29L44.0908 65.6549L37 67.0449L37.0403 44.9475L49.3872 42.5272L52.1856 54.0647L52.3411 54.0342L55.0785 41.4115L67.3941 38.9972Z" fill="white"/>
<path fill-rule="evenodd" clip-rule="evenodd" d="M82.8958 43.8791C82.6625 42.7469 82.187 42.0093 81.4689 41.6658C80.9874 41.424 80.4358 41.3635 79.8139 41.4854C79.1501 41.6154 78.5763 41.9173 78.0916 42.391C77.3537 43.1037 76.8657 44.1357 76.6264 45.4868C76.4857 46.2717 76.4187 47.2266 76.4239 48.3507C76.4291 49.4753 76.5172 50.4522 76.6881 51.281C76.9298 52.4539 77.432 53.2179 78.1959 53.5731C78.673 53.7951 79.2018 53.8493 79.7824 53.7355C80.487 53.5973 81.0884 53.2693 81.5857 52.7508C82.2981 52.0224 82.7596 51.0169 82.97 49.734C83.0772 49.103 83.1293 48.1516 83.1258 46.8792C83.1225 45.6072 83.0458 44.6071 82.8958 43.8791ZM91.7534 42.4268C92.1244 44.2267 92.1134 46.1113 91.7217 48.0815C91.2016 50.6873 90.0984 52.8703 88.4123 54.6314C86.2827 56.8584 83.3411 58.3392 79.5886 59.0748C76.0432 59.7699 73.2163 59.3985 71.108 57.9605C69.4019 56.8014 68.314 55.0793 67.843 52.794C67.4679 50.9742 67.4784 49.0896 67.8747 47.1392C68.3987 44.5544 69.5018 42.3708 71.1841 40.5894C73.2721 38.371 76.1513 36.9019 79.8212 36.1825C83.5322 35.4549 86.4628 35.8586 88.6129 37.3937C90.2565 38.5656 91.3032 40.2428 91.7534 42.4268Z" fill="white"/>
<path fill-rule="evenodd" clip-rule="evenodd" d="M114.852 29.6938L106.757 53.3703L96.8984 55.303L89.1636 34.7297L98.1205 32.9738L102.108 45.4144L102.233 45.39L106.3 31.3704L114.852 29.6938Z" fill="white"/>
<path fill-rule="evenodd" clip-rule="evenodd" d="M123.529 27.9932L123.488 50.0906L115.154 51.7245L115.194 29.627L123.529 27.9932Z" fill="white"/>
<path fill-rule="evenodd" clip-rule="evenodd" d="M149 23L148.96 45.0974L136.675 47.5056L132.542 32.6323L132.417 32.6567L132.383 48.3469L125.199 49.7552L125.239 27.6578L137.648 25.2253L141.663 39.68L141.787 39.6557L141.816 24.4083L149 23Z" fill="white"/>
</g>
<defs>
<clipPath id="clip0_2_755">
<rect width="185" height="90" fill="white"/>
</clipPath>
</defs>
</svg>
