<svg width="185" height="90" viewBox="0 0 185 90" fill="none" xmlns="http://www.w3.org/2000/svg">
<g clip-path="url(#clip0_4_1936)">
<path d="M48.7743 34.1987L44.5059 39.9985H67.7694C68.9458 39.9985 68.9311 40.4415 68.3562 41.2247C67.7724 42.0168 66.7955 43.3868 66.1999 44.1936C65.8978 44.6013 65.3521 45.3435 67.1592 45.3435H76.673L79.4922 41.5122C81.2406 39.1389 79.6447 34.2017 73.3932 34.2017L48.7743 34.1987V34.1987Z" fill="white"/>
<path d="M42.7781 53.0942L51.353 41.4418H61.9933C63.1696 41.4418 63.155 41.8877 62.58 42.6681L60.4091 45.6252C60.1069 46.0329 59.5613 46.7751 61.3684 46.7751H75.6199C74.4377 48.4004 70.5887 53.0942 63.6889 53.0942H42.7781ZM91.8809 46.7722L87.2312 53.0942H74.9657L79.6155 46.7722H91.8809ZM110.668 45.3406H80.6716L88.874 34.1987H101.134L96.4339 40.5881H101.905L106.611 34.1987H118.87L110.668 45.3406ZM109.615 46.7722L104.965 53.0942H92.7053L97.3551 46.7722H109.615ZM25.2791 49.2658H43.3443L42.3586 50.6064H25.2791V49.2658ZM25.2791 46.7722H45.1807L44.1921 48.1129H25.2791V46.7722ZM25.2791 51.7594H41.5107L40.528 53.0942H25.2791V51.7594ZM158.885 50.6064H140.884L141.873 49.2658H158.885V50.6064ZM158.885 53.0942H139.056L140.036 51.7594H158.885V53.0942ZM143.706 46.7722H158.885V48.1158H142.721L143.706 46.7722ZM135.85 34.1987L127.648 45.3406H114.655L122.863 34.1987H135.85ZM113.604 46.7722C113.604 46.7722 112.71 47.9985 112.272 48.5852C110.735 50.668 112.094 53.0912 117.119 53.0912H136.809L141.459 46.7722H113.604V46.7722Z" fill="white"/>
</g>
<defs>
<clipPath id="clip0_4_1936">
<rect width="185" height="90" fill="white"/>
</clipPath>
</defs>
</svg>
